<svg width="540" height="477" viewBox="0 0 540 477" fill="none" xmlns="http://www.w3.org/2000/svg">
<path d="M98.7875 394.662C96.9439 392.572 95.9509 391.003 95.8087 389.955C95.5629 388.901 95.9737 388.147 97.0412 387.694C98.0116 387.131 98.9318 386.955 99.8019 387.165C100.617 387.424 101.717 388.116 103.101 389.242C104.485 390.368 105.354 391.02 105.706 391.198C106.179 385.304 108.34 380.66 112.189 377.263C115.379 374.449 118.966 372.752 122.951 372.17C126.833 371.581 130.747 372.138 134.693 373.839C130.356 365.93 130.579 359.866 135.363 355.645C138.828 352.588 143.351 352.118 148.934 354.234C154.523 356.246 159.938 360.221 165.178 366.16C170.417 372.099 173.493 377.747 174.405 383.104C175.268 388.405 174.05 392.512 170.751 395.422C169.486 396.538 168.05 397.072 166.442 397.023C164.78 397.023 163.245 396.226 161.838 394.631C160.528 393.146 160.072 391.299 160.47 389.09C160.813 386.929 161.512 384.895 162.566 382.987C163.627 380.975 164.16 378.696 164.163 376.15C164.221 373.556 163.332 371.163 161.495 368.969C159.263 366.44 156.777 365.063 154.038 364.84C151.249 364.562 148.701 365.441 146.391 367.479C142.047 371.312 141.021 375.248 143.314 379.288C144.686 380.621 145.687 381.645 146.317 382.36C151.217 387.914 153.753 393.892 153.924 400.293C153.992 406.688 151.688 411.947 147.014 416.071C141.845 420.631 136.065 422.504 129.673 421.688C123.282 420.873 117.539 417.578 112.445 411.804C111.135 410.319 109.21 407.861 106.671 404.429C104.132 400.997 101.504 397.741 98.7875 394.662ZM131.309 409.243C135.818 405.265 139.145 400.667 141.29 395.45C143.331 390.226 143.236 386.35 141.004 383.82C139.306 381.895 137.23 381.038 134.775 381.248C132.216 381.452 129.7 382.645 127.225 384.828C124.53 387.206 122.148 389.992 120.078 393.188C118.007 396.383 116.689 399.6 116.123 402.838C115.557 406.076 116.074 408.602 117.675 410.417C119.325 412.286 121.377 413.116 123.832 412.906C126.287 412.696 128.779 411.475 131.309 409.243Z" fill="white"/>
<path d="M120.752 317.428C123.392 325.746 123.025 333.44 119.653 340.511C116.188 347.535 110.751 352.222 103.342 354.574C95.8628 356.947 88.834 356.254 82.2553 352.494C75.6767 348.735 71.2007 343.115 68.8273 335.636C66.2764 327.598 66.6983 320.078 70.093 313.077C73.4177 306.097 78.8196 301.421 86.2988 299.048C93.7779 296.674 100.808 297.252 107.39 300.779C113.88 304.259 118.334 309.809 120.752 317.428ZM115.54 317.004C114.63 314.139 112.604 312.358 109.459 311.663C106.293 310.899 102.299 311.281 97.4755 312.812C93.4913 314.076 89.5908 315.968 85.774 318.487C81.8651 320.958 78.7389 323.835 76.3953 327.118C73.9819 330.423 73.2188 333.473 74.106 336.269C76.1467 342.7 82.2696 344.296 92.4747 341.058C96.2492 339.86 100.056 338.036 103.895 335.587C107.712 333.068 110.851 330.11 113.312 326.713C115.751 323.246 116.494 320.01 115.54 317.004Z" fill="white"/>
<path d="M114.884 251.778C113.86 260.445 110.354 267.304 104.367 272.357C98.3153 277.328 91.4296 279.357 83.7099 278.445C75.9175 277.525 69.7992 273.996 65.3552 267.859C60.9112 261.722 59.1495 254.757 60.0701 246.964C61.0596 238.589 64.5437 231.912 70.5225 226.932C76.4286 221.944 83.2778 219.91 91.0703 220.831C98.8628 221.751 105.03 225.175 109.573 231.103C114.051 236.948 115.822 243.84 114.884 251.778ZM110.31 249.244C110.662 246.258 109.55 243.801 106.972 241.872C104.402 239.87 100.605 238.572 95.5796 237.978C91.4285 237.488 87.095 237.604 82.5791 238.325C77.999 238.966 73.9648 240.298 70.4765 242.323C66.9154 244.339 64.9627 246.804 64.6186 249.717C63.827 256.417 68.7476 260.395 79.3804 261.651C83.313 262.116 87.533 262.024 92.0403 261.375C96.5561 260.653 100.635 259.252 104.278 257.171C107.929 255.018 109.94 252.376 110.31 249.244Z" fill="white"/>
<path d="M139.237 162.733C140.679 163.608 142.47 163.837 144.61 163.421C146.688 162.966 148.04 162.929 148.667 163.31L148.949 163.481C150.015 164.128 150.167 165.078 149.406 166.332L142.328 177.992C141.453 179.434 140.326 179.736 138.947 178.899L136.764 177.831C138.399 182.77 137.618 187.872 134.422 193.138C130.73 199.218 125.472 203.147 118.646 204.923C111.758 206.661 104.678 205.323 97.406 200.909C90.573 196.761 86.2752 191.193 84.5126 184.204C82.75 177.214 83.7332 170.648 87.4623 164.505C90.1259 160.117 93.5743 157.191 97.8076 155.729L82.7624 146.596C81.5086 145.835 80.2269 145.615 78.9173 145.935C77.6458 146.193 76.4805 146.558 75.4217 147.03C74.4008 147.44 73.577 147.455 72.9501 147.074L72.668 146.903C71.6023 146.256 71.2809 145.16 71.7039 143.616L75.4198 129.014C76.0888 126.075 77.4577 125.233 79.5265 126.489L139.237 162.733ZM132.262 187.58C133.555 185.449 133.8 183.067 132.996 180.434C132.168 177.701 130.186 175.383 127.052 173.48L110.502 163.434C107.43 161.57 103.981 160.892 100.156 161.4C96.3296 161.909 93.5985 163.511 91.9623 166.207C90.2119 169.09 90.0454 172.121 91.4629 175.297C92.8177 178.436 95.6701 181.368 100.02 184.095C103.517 186.389 107.394 188.27 111.65 189.738C115.944 191.144 120.072 191.762 124.035 191.594C127.973 191.325 130.715 189.987 132.262 187.58Z" fill="white"/>
<path d="M260.665 97.4636C261.343 99.0943 262.511 100.452 264.169 101.537C265.827 102.621 266.779 103.548 267.026 104.316L267.161 104.735C267.542 105.921 266.965 106.762 265.429 107.255L247.312 113.078C245.706 113.594 244.712 113.259 244.331 112.072L244.196 111.653C243.972 110.955 244.252 109.671 245.038 107.801C245.893 105.908 245.982 104.147 245.304 102.516L238.097 83.6879C235.956 77.9829 233.759 74.1442 231.508 72.1718C229.234 70.1296 226.665 69.5685 223.803 70.4885C221.359 71.2738 219.695 72.9256 218.81 75.444C217.925 77.9623 217.928 80.8496 218.821 84.1061C219.549 85.4126 220.227 87.0433 220.855 88.9982L227.082 108.372C227.62 110.048 228.718 111.428 230.377 112.513C232.104 113.575 233.081 114.455 233.305 115.153L233.44 115.572C233.821 116.759 233.244 117.599 231.708 118.093L213.59 123.916C211.985 124.432 210.991 124.096 210.61 122.909L210.475 122.491C210.251 121.792 210.531 120.508 211.317 118.638C212.102 116.768 212.226 114.995 211.687 113.32L205.124 92.8985C203.598 88.151 201.582 84.7549 199.077 82.7102C196.571 80.6656 193.957 80.0808 191.234 80.9558C188.441 81.8534 186.59 83.6423 185.679 86.3227C184.769 89.0031 184.864 92.0538 185.963 95.4748L193.57 119.142C194.108 120.818 195.346 122.153 197.284 123.148C199.291 124.121 200.407 124.956 200.631 125.654L200.766 126.073C201.147 127.26 200.535 128.112 198.929 128.628L179.45 134.888C177.845 135.404 176.851 135.068 176.47 133.882L176.335 133.463C176.11 132.765 176.496 131.447 177.491 129.509C178.555 127.55 178.819 125.732 178.28 124.056L170.438 99.6556C170.012 98.3291 169.234 97.3467 168.104 96.7083C166.975 96.07 165.855 95.5825 164.746 95.2458C163.684 94.8169 163.04 94.2534 162.816 93.5552L162.681 93.1363C162.434 92.3683 162.932 91.3997 164.174 90.2303L175.417 79.9155C176.424 78.9755 177.321 78.6489 178.106 78.9357C178.869 79.1526 179.43 79.8196 179.789 80.9367L181.371 85.8588C183.037 79.7774 187.046 75.7158 193.4 73.6739C201.359 71.116 208.163 72.3954 213.813 77.512C214.267 74.131 215.621 71.1539 217.875 68.5808C220.199 65.9853 223.141 64.1153 226.702 62.971C232.008 61.2657 237.013 61.6212 241.718 64.0375C246.401 66.3839 250.3 71.447 253.417 79.2265L260.665 97.4636Z" fill="white"/>
<path d="M306.17 118.94C297.669 116.969 291.237 112.73 286.874 106.223C282.599 99.6612 281.339 92.5941 283.095 85.0216C284.867 77.3777 289.047 71.6849 295.636 67.943C302.225 64.2012 309.341 63.2164 316.985 64.9887C325.201 66.8935 331.454 71.0911 335.746 77.5815C340.054 84.0004 341.322 91.0319 339.55 98.6758C337.777 106.32 333.696 112.073 327.305 115.936C321.002 119.744 313.957 120.746 306.17 118.94ZM309.192 114.672C312.121 115.351 314.686 114.516 316.887 112.166C319.159 109.832 320.867 106.2 322.01 101.271C322.954 97.1993 323.316 92.8793 323.095 88.3115C322.963 83.6887 322.082 79.5324 320.453 75.8425C318.841 72.0812 316.606 69.8693 313.749 69.2067C307.177 67.6829 302.681 72.1359 300.263 82.5659C299.369 86.4236 298.996 90.6281 299.145 95.1794C299.366 99.7473 300.31 103.956 301.977 107.805C303.715 111.671 306.12 113.96 309.192 114.672Z" fill="white"/>
<path d="M400.581 104.374C403.177 106.163 404.659 108.342 405.026 110.911C405.495 113.461 404.897 115.943 403.233 118.359C399.945 123.129 396.369 124.182 392.505 121.519C390.935 120.437 389.968 119.191 389.603 117.782C389.34 116.354 389.451 115.095 389.936 114.004C390.42 112.913 390.662 111.787 390.659 110.628C390.698 109.408 390.175 108.424 389.088 107.675C387.457 106.551 385.584 106.685 383.467 108.076C381.351 109.467 379.335 111.551 377.421 114.329L364.936 132.443C364.187 133.53 363.883 134.746 364.025 136.091C364.269 137.417 364.546 138.631 364.854 139.735C365.223 140.879 365.199 141.754 364.783 142.358L364.533 142.72C363.826 143.746 362.808 143.802 361.479 142.886L344.724 131.338C343.335 130.381 342.994 129.389 343.702 128.362L343.951 128C344.368 127.396 345.586 126.856 347.607 126.378C349.689 125.943 351.208 125.031 352.165 123.642L366.772 102.448C367.771 100.999 367.972 99.2219 367.374 97.1175C366.775 95.0131 366.685 93.659 367.101 93.0552L367.35 92.6929C367.933 91.8476 369.066 91.5599 370.751 91.8301L385.115 94.2488C387.671 94.6748 388.221 95.9445 386.765 98.0578L382.083 104.851C388.256 100.288 394.422 100.129 400.581 104.374Z" fill="white"/>
<path d="M425.207 201.09C423.818 202.181 422.823 203.671 422.223 205.559C421.623 207.447 420.986 208.613 420.312 209.057L419.945 209.299C418.904 209.985 417.919 209.623 416.991 208.215L406.523 192.323C405.595 190.915 405.651 189.867 406.693 189.182L407.06 188.94C407.672 188.536 408.985 188.462 410.997 188.717C413.049 189.034 414.821 188.657 416.312 187.587L432.701 175.474C441.666 168.953 444.534 163.244 441.307 158.345C439.693 155.895 437.504 154.571 434.739 154.373C432.014 154.236 429.121 155.176 426.059 157.193L405.207 170.929C403.737 171.897 402.783 173.448 402.344 175.581C401.945 177.776 401.44 179.075 400.827 179.478L400.46 179.72C399.419 180.406 398.434 180.044 397.506 178.636L386.251 161.55C385.323 160.141 385.38 159.094 386.421 158.408L386.788 158.166C387.401 157.763 388.774 157.781 390.907 158.22C393.08 158.72 394.902 158.486 396.372 157.517L417.775 143.418C418.694 142.813 419.359 142.023 419.771 141.049C420.224 140.137 420.402 139.273 420.304 138.459C420.309 137.666 420.394 136.863 420.562 136.05C420.769 135.299 421.118 134.762 421.608 134.439L421.975 134.197C422.649 133.753 423.695 133.942 425.115 134.763L437.643 142.185C438.819 142.903 439.354 143.649 439.248 144.421C439.244 145.214 438.752 145.934 437.772 146.579L432.628 149.968C439.323 149.333 444.788 152.231 449.024 158.662C452.09 163.316 453.13 168.295 452.145 173.598C451.2 178.962 447.491 184.128 441.016 189.096L425.207 201.09Z" fill="white"/>
<path d="M485.855 224.597C483.683 223.178 482.202 220.905 481.413 217.776C480.625 214.647 480.833 211.872 482.038 209.451C483.331 207.083 485.365 205.549 488.138 204.85C490.84 204.169 493.287 204.573 495.477 206.063C497.757 207.606 499.291 209.942 500.08 213.071C500.868 216.2 500.607 218.913 499.295 221.21C498.072 223.56 496.11 225.075 493.408 225.756C490.634 226.455 488.117 226.069 485.855 224.597ZM420.195 222.883C419.801 221.318 420.208 220.384 421.417 220.079L421.843 219.971C422.555 219.792 423.827 220.19 425.661 221.165C427.495 222.139 429.265 222.412 430.971 221.981L455.078 215.906C456.855 215.457 458.356 214.361 459.58 212.615C460.804 210.87 461.7 209.926 462.269 209.782L462.589 209.702C463.3 209.522 464.235 210.081 465.394 211.377L475.367 223.043C476.277 224.251 476.581 225.308 476.281 226.216C476.051 227.106 475.403 227.685 474.336 227.954L434.977 237.874C433.271 238.305 431.859 239.454 430.742 241.324C429.625 243.194 428.711 244.218 428 244.397L427.573 244.505C426.364 244.81 425.554 244.144 425.142 242.509L420.195 222.883Z" fill="white"/>
<path d="M435.018 312.78C433.252 312.77 431.547 313.318 429.903 314.423C428.258 315.529 427.034 316.046 426.231 315.974L425.793 315.935C424.551 315.825 424.005 314.93 424.154 313.249L425.839 294.294C425.989 292.614 426.684 291.829 427.926 291.94L428.364 291.979C429.095 292.044 430.169 292.802 431.586 294.253C432.996 295.777 434.618 296.584 436.45 296.673L456.818 297.38C467.893 297.85 473.691 295.163 474.21 289.319C474.47 286.397 473.579 283.999 471.537 282.124C469.489 280.322 466.638 279.259 462.986 278.934L438.114 276.722C436.361 276.566 434.649 277.187 432.979 278.585C431.302 280.055 430.098 280.758 429.368 280.693L428.93 280.654C427.688 280.544 427.142 279.649 427.291 277.969L429.103 257.589C429.253 255.909 429.948 255.124 431.19 255.235L431.628 255.274C432.359 255.339 433.423 256.206 434.82 257.877C436.211 259.62 437.783 260.57 439.537 260.725L465.066 262.996C466.161 263.093 467.174 262.888 468.102 262.382C469.024 261.949 469.7 261.383 470.13 260.685C470.627 260.067 471.194 259.491 471.83 258.959C472.46 258.499 473.067 258.296 473.651 258.348L474.089 258.387C474.893 258.458 475.595 259.257 476.196 260.783L481.391 274.386C481.865 275.68 481.82 276.596 481.257 277.135C480.76 277.754 479.928 278.011 478.759 277.907L472.623 277.361C478.26 281.028 480.738 286.697 480.056 294.367C479.563 299.918 477.281 304.464 473.211 308.004C469.135 311.617 463.017 313.355 454.857 313.219L435.018 312.78Z" fill="white"/>
<path d="M442.993 392.158C441.624 394.585 440.468 396.038 439.525 396.516C438.609 397.095 437.763 396.954 436.985 396.094C436.135 395.362 435.666 394.55 435.579 393.66C435.556 392.805 435.85 391.539 436.459 389.862C437.068 388.184 437.399 387.15 437.451 386.759C431.729 388.246 426.632 387.729 422.161 385.207C418.456 383.117 415.675 380.286 413.818 376.712C411.989 373.239 411.23 369.359 411.543 365.073C405.495 371.765 399.692 373.544 394.135 370.41C390.111 368.14 388.183 364.021 388.35 358.053C388.416 352.113 390.395 345.694 394.286 338.795C398.177 331.897 402.503 327.138 407.264 324.52C411.989 321.964 416.267 321.768 420.1 323.929C421.569 324.758 422.544 325.94 423.026 327.474C423.571 329.045 423.321 330.756 422.277 332.609C421.304 334.333 419.709 335.37 417.491 335.719C415.338 336.104 413.187 336.111 411.038 335.741C408.789 335.399 406.462 335.644 404.056 336.476C401.587 337.272 399.617 338.898 398.148 341.353C396.491 344.291 396.006 347.09 396.694 349.752C397.346 352.477 399.014 354.596 401.696 356.109C406.742 358.955 410.797 358.633 413.861 355.141C414.67 353.408 415.309 352.127 415.777 351.296C419.416 344.845 424.231 340.488 430.222 338.226C436.24 336.064 441.964 336.514 447.393 339.577C453.397 342.963 457.063 347.809 458.39 354.115C459.717 360.42 458.489 366.926 454.706 373.632C453.733 375.357 452.042 377.982 449.633 381.506C447.224 385.031 445.011 388.581 442.993 392.158ZM446.097 356.653C440.859 353.698 435.424 352.064 429.792 351.75C424.188 351.536 420.557 352.898 418.9 355.836C417.639 358.071 417.51 360.314 418.514 362.565C419.546 364.915 421.499 366.9 424.374 368.522C427.504 370.287 430.917 371.623 434.615 372.53C438.314 373.437 441.785 373.627 445.029 373.1C448.273 372.572 450.49 371.255 451.679 369.147C452.904 366.975 453.014 364.764 452.01 362.514C451.006 360.264 449.035 358.31 446.097 356.653Z" fill="white"/>
<path d="M376.774 385.146C378.921 383.148 381.217 382.063 383.662 381.892C386.157 381.774 388.404 382.789 390.402 384.937C392.4 387.085 393.225 389.371 392.878 391.798C392.581 394.278 391.359 396.517 389.212 398.515C387.118 400.463 384.823 401.496 382.328 401.613C379.884 401.785 377.662 400.796 375.664 398.649C373.666 396.501 372.815 394.187 373.112 391.708C373.459 389.281 374.68 387.094 376.774 385.146Z" fill="white"/>
</svg>
