<svg width="469" height="407" viewBox="0 0 469 407" fill="none" xmlns="http://www.w3.org/2000/svg">
<path d="M81.6869 322.993C80.0245 320.757 79.1661 319.111 79.112 318.054C78.9552 316.983 79.4276 316.266 80.5292 315.904C81.5432 315.425 82.475 315.326 83.3244 315.608C84.1151 315.934 85.1531 316.716 86.4385 317.954C87.7239 319.191 88.5348 319.913 88.8713 320.12C89.8348 314.287 92.3765 309.839 96.4962 306.776C99.9098 304.239 103.626 302.847 107.646 302.6C111.563 302.338 115.417 303.22 119.207 305.245C115.546 297.002 116.276 290.977 121.396 287.17C125.104 284.414 129.651 284.324 135.037 286.899C140.439 289.371 145.502 293.785 150.227 300.142C154.952 306.498 157.545 312.383 158.006 317.797C158.423 323.152 156.866 327.142 153.335 329.767C151.981 330.773 150.505 331.185 148.907 331.002C147.251 330.863 145.788 329.94 144.519 328.233C143.338 326.644 143.038 324.766 143.619 322.598C144.142 320.473 145.008 318.504 146.218 316.691C147.444 314.774 148.165 312.548 148.381 310.012C148.656 307.432 147.97 304.972 146.322 302.633C144.31 299.926 141.948 298.346 139.237 297.895C136.481 297.384 133.868 298.048 131.396 299.885C126.747 303.341 125.395 307.178 127.343 311.396C128.598 312.839 129.51 313.943 130.079 314.708C134.497 320.652 136.524 326.821 136.16 333.214C135.693 339.592 132.958 344.64 127.955 348.359C122.423 352.471 116.506 353.854 110.205 352.507C103.904 351.16 98.457 347.397 93.8633 341.217C92.6821 339.628 90.9699 337.018 88.7267 333.385C86.4835 329.753 84.1369 326.289 81.6869 322.993ZM112.876 340.243C117.702 336.655 121.401 332.352 123.975 327.332C126.446 322.297 126.675 318.426 124.662 315.719C123.131 313.659 121.133 312.631 118.669 312.635C116.103 312.624 113.495 313.603 110.847 315.572C107.963 317.715 105.356 320.293 103.026 323.304C100.696 326.316 99.113 329.411 98.2781 332.59C97.4432 335.769 97.7476 338.33 99.1914 340.272C100.679 342.273 102.655 343.272 105.119 343.267C107.583 343.263 110.168 342.255 112.876 340.243Z" fill="white"/>
<path d="M113.848 247.32C114.808 255.993 112.943 263.467 108.251 269.742C103.478 275.951 97.2292 279.483 89.503 280.338C81.704 281.202 74.9468 279.146 69.2315 274.171C63.5162 269.196 60.2269 262.809 59.3636 255.01C58.4358 246.628 60.3217 239.337 65.0214 233.135C69.6481 226.942 75.861 223.414 83.66 222.55C91.459 221.687 98.2406 223.63 104.005 228.378C109.688 233.061 112.969 239.375 113.848 247.32ZM108.82 245.884C108.489 242.896 106.85 240.753 103.903 239.456C100.947 238.086 96.9551 237.68 91.9259 238.236C87.7712 238.696 83.5758 239.788 79.3397 241.511C75.0226 243.169 71.3936 245.379 68.4528 248.139C65.4391 250.907 64.0936 253.749 64.4163 256.665C65.1585 263.37 70.8505 266.134 81.4921 264.956C85.4281 264.521 89.5182 263.478 93.7624 261.827C97.9985 260.104 101.656 257.818 104.734 254.969C107.805 252.047 109.167 249.018 108.82 245.884Z" fill="white"/>
<path d="M124.667 183.322C121.025 191.252 115.578 196.699 108.326 199.663C101.037 202.53 93.8614 202.341 86.7974 199.097C79.6668 195.822 74.9319 190.582 72.593 183.374C70.254 176.167 70.7219 168.998 73.9966 161.868C77.5162 154.204 82.8867 148.923 90.1081 146.026C97.2628 143.098 104.406 143.272 111.536 146.546C118.667 149.821 123.481 154.977 125.978 162.015C128.44 168.956 128.002 176.058 124.667 183.322ZM121.095 179.503C122.349 176.77 122.047 174.09 120.188 171.461C118.36 168.765 115.146 166.361 110.548 164.249C106.749 162.505 102.591 161.281 98.0719 160.578C93.5171 159.777 89.2686 159.803 85.3264 160.655C81.3175 161.477 78.701 163.221 77.4768 165.887C74.6612 172.018 78.1182 177.318 87.8479 181.786C91.4466 183.439 95.49 184.65 99.9782 185.42C104.497 186.123 108.809 186.046 112.915 185.188C117.052 184.263 119.779 182.368 121.095 179.503Z" fill="white"/>
<path d="M180.451 110.75C181.397 112.146 182.93 113.1 185.049 113.613C187.127 114.065 188.372 114.595 188.783 115.202L188.968 115.475C189.668 116.507 189.41 117.434 188.196 118.257L176.905 125.909C175.509 126.856 174.358 126.661 173.453 125.325L171.913 123.445C171.342 128.616 168.507 132.929 163.408 136.385C157.52 140.376 151.103 141.757 144.158 140.528C137.171 139.239 131.292 135.074 126.52 128.032C122.035 121.415 120.447 114.562 121.756 107.474C123.065 100.386 126.694 94.826 132.643 90.7942C136.893 87.9143 141.246 86.6913 145.704 87.1252L135.83 72.5558C135.007 71.3417 133.934 70.6075 132.61 70.3531C131.346 70.0576 130.135 69.9041 128.976 69.8926C127.877 69.84 127.122 69.5101 126.71 68.903L126.525 68.6299C125.826 67.5979 125.99 66.4678 127.018 65.2396L136.478 53.513C138.311 51.1193 139.906 50.9241 141.264 52.9274L180.451 110.75ZM163.759 130.433C165.823 129.034 167.038 126.971 167.404 124.243C167.789 121.412 166.953 118.48 164.896 115.444L154.035 99.4181C152.019 96.4435 149.166 94.3906 145.476 93.2593C141.786 92.128 138.636 92.4469 136.025 94.216C133.233 96.1085 131.819 98.7939 131.785 102.272C131.709 105.69 133.081 109.544 135.9 113.834C138.124 117.377 140.864 120.702 144.122 123.81C147.44 126.876 150.936 129.158 154.608 130.655C158.3 132.051 161.351 131.977 163.759 130.433Z" fill="white"/>
<path d="M285.163 108.567C284.992 110.325 285.381 112.073 286.332 113.811C287.282 115.55 287.685 116.816 287.54 117.61L287.461 118.043C287.238 119.269 286.297 119.731 284.637 119.429L265.916 116.017C264.256 115.715 263.538 114.95 263.762 113.724L263.841 113.291C263.972 112.569 264.825 111.57 266.4 110.291C268.047 109.026 268.998 107.485 269.255 105.668L271.821 85.4505C273.301 74.4646 271.156 68.4457 265.384 67.394C262.498 66.8681 260.028 67.5361 257.975 69.3981C255.993 71.2732 254.673 74.0144 254.016 77.6217L249.54 102.187C249.224 103.919 249.686 105.68 250.925 107.471C252.236 109.275 252.826 110.538 252.694 111.26L252.615 111.693C252.392 112.919 251.45 113.381 249.791 113.079L229.663 109.411C228.003 109.108 227.285 108.344 227.509 107.117L227.588 106.685C227.719 105.963 228.68 104.983 230.472 103.744C232.335 102.518 233.424 101.039 233.74 99.308L238.335 74.0932C238.532 73.011 238.421 71.9845 238.001 71.0136C237.654 70.0558 237.153 69.3308 236.497 68.8386C235.926 68.2874 235.405 67.6707 234.933 66.9883C234.533 66.3191 234.386 65.696 234.491 65.1188L234.57 64.6859C234.715 63.8923 235.574 63.2663 237.149 62.8078L251.17 58.8778C252.502 58.5242 253.41 58.6524 253.896 59.2626C254.466 59.8138 254.646 60.6666 254.436 61.8209L253.331 67.8811C257.498 62.6027 263.37 60.6537 270.945 62.0341C276.428 63.0333 280.746 65.7209 283.899 70.0971C287.125 74.4865 288.296 80.7378 287.414 88.8511L285.163 108.567Z" fill="white"/>
<path d="M347.146 86.6546C344.576 87.0117 341.966 86.2695 339.317 84.428C336.667 82.5865 335.002 80.3573 334.32 77.7402C333.74 75.1047 334.267 72.6128 335.899 70.2643C337.489 67.976 339.6 66.6742 342.23 66.359C344.962 66.0254 347.653 66.7793 350.303 68.6208C352.953 70.4623 354.537 72.6798 355.056 75.2734C355.678 77.8487 355.193 80.2804 353.603 82.5687C351.971 84.9172 349.819 86.2792 347.146 86.6546ZM296.507 128.485C295.182 127.565 294.875 126.592 295.587 125.569L295.838 125.207C296.256 124.605 297.477 124.069 299.5 123.6C301.523 123.131 303.037 122.173 304.041 120.728L318.229 100.314C319.275 98.8088 319.687 96.9961 319.463 94.8761C319.24 92.7561 319.296 91.4552 319.631 90.9735L319.819 90.7025C320.237 90.1003 321.309 89.9075 323.034 90.124L338.217 92.3709C339.696 92.6844 340.62 93.2821 340.99 94.1639C341.401 94.9856 341.293 95.8481 340.665 96.7514L317.5 130.082C316.496 131.527 316.186 133.322 316.572 135.465C316.958 137.609 316.941 138.981 316.523 139.584L316.271 139.945C315.56 140.969 314.512 140.999 313.127 140.036L296.507 128.485Z" fill="white"/>
<path d="M394.241 159.098C395.721 161.459 396.446 163.168 396.416 164.226C396.487 165.306 395.959 165.983 394.833 166.256C393.784 166.654 392.847 166.679 392.023 166.33C391.26 165.942 390.288 165.08 389.104 163.745C387.921 162.409 387.17 161.625 386.851 161.392C385.428 167.131 382.541 171.363 378.192 174.089C374.588 176.348 370.772 177.441 366.746 177.368C362.82 177.318 359.049 176.133 355.431 173.814C358.426 182.322 357.221 188.27 351.815 191.658C347.9 194.111 343.36 193.841 338.195 190.847C333.007 187.954 328.31 183.152 324.104 176.441C319.898 169.73 317.78 163.657 317.75 158.224C317.759 152.852 319.628 148.998 323.356 146.662C324.785 145.766 326.289 145.473 327.868 145.782C329.508 146.052 330.893 147.088 332.022 148.89C333.074 150.568 333.224 152.464 332.472 154.58C331.783 156.656 330.763 158.55 329.413 160.262C328.039 162.075 327.144 164.237 326.727 166.748C326.248 169.298 326.737 171.804 328.194 174.267C329.985 177.125 332.215 178.887 334.882 179.552C337.588 180.28 340.245 179.826 342.855 178.19C347.764 175.113 349.415 171.396 347.809 167.037C346.672 165.499 345.851 164.326 345.344 163.519C341.411 157.243 339.88 150.933 340.75 144.588C341.722 138.268 344.849 133.452 350.131 130.142C355.972 126.481 361.979 125.572 368.154 127.415C374.328 129.257 379.459 133.441 383.548 139.965C384.6 141.643 386.1 144.381 388.048 148.18C389.996 151.979 392.06 155.618 394.241 159.098ZM364.519 139.429C359.423 142.622 355.394 146.619 352.43 151.419C349.568 156.242 349.032 160.082 350.824 162.941C352.187 165.115 354.097 166.299 356.553 166.49C359.111 166.704 361.788 165.935 364.584 164.183C367.629 162.275 370.432 159.912 372.994 157.095C375.556 154.278 377.379 151.318 378.463 148.215C379.548 145.112 379.447 142.536 378.162 140.485C376.838 138.372 374.948 137.22 372.491 137.029C370.035 136.838 367.377 137.638 364.519 139.429Z" fill="white"/>
<path d="M368.663 258.274C366.906 258.461 365.273 259.196 363.762 260.477C362.251 261.759 361.092 262.409 360.286 262.428L359.846 262.438C358.6 262.467 357.958 261.674 357.921 260.062L357.481 240.927C357.444 239.314 358.048 238.493 359.295 238.464L359.735 238.454C360.468 238.437 361.619 239.071 363.189 240.355C364.761 241.713 366.426 242.335 368.183 242.221L389.273 240.636C399.818 239.88 405.023 236.569 404.888 230.704C404.821 227.771 403.668 225.487 401.43 223.852C399.193 222.289 396.242 221.55 392.577 221.635L367.613 222.209C365.927 222.247 364.332 223.054 362.828 224.629C361.325 226.278 360.207 227.11 359.474 227.127L359.034 227.137C357.788 227.166 357.144 226.3 357.104 224.541L356.636 204.196C356.597 202.51 357.201 201.653 358.448 201.624L358.887 201.614C359.621 201.597 360.775 202.341 362.35 203.845C363.925 205.349 365.555 206.082 367.241 206.043L422.007 204.784C423.767 204.743 425.323 203.864 426.678 202.146C428.033 200.501 429.078 199.67 429.811 199.653L430.141 199.645C431.241 199.62 432.174 200.332 432.941 201.782L439.653 216.151C440.195 217.386 440.29 218.337 439.939 219.005C439.589 219.747 438.864 220.13 437.765 220.155L404.771 220.804C408.956 224.155 411.119 228.91 411.26 235.069C411.388 240.641 409.664 245.411 406.088 249.381C402.585 253.35 396.954 255.68 389.194 256.372L368.663 258.274Z" fill="white"/>
<path d="M342.976 290.087C345.178 285.45 348.381 282.466 352.585 281.134C356.824 279.899 361.726 280.603 367.291 283.245L393.027 295.466L395.244 290.795C395.874 289.471 396.851 289.123 398.175 289.752L399.865 290.554C401.256 291.214 401.637 292.207 401.008 293.532L399.828 296.016C398.539 298.732 398.348 301.442 399.255 304.146C400.132 306.917 401.935 309.275 404.664 311.22C406.097 312.306 406.53 313.446 405.964 314.638L405.02 316.625C404.328 318.083 403.187 318.434 401.597 317.679L391.713 313.107L386.287 324.535C386.035 325.065 385.616 325.434 385.03 325.643C384.444 325.851 383.853 325.814 383.256 325.531L381.567 324.729C380.971 324.446 380.568 324.011 380.36 323.425C380.217 322.87 380.272 322.328 380.523 321.798L385.949 310.371L360.015 298.056C358.094 297.144 356.317 296.868 354.684 297.23C353.086 297.689 351.941 298.647 351.249 300.104C349.613 303.549 350.034 306.509 352.512 308.984C353.09 309.989 353.075 310.875 352.468 311.642C351.895 312.507 351.145 312.719 350.217 312.278C346.375 310.454 343.657 307.459 342.063 303.292C340.438 299.192 340.742 294.791 342.976 290.087Z" fill="white"/>
<path d="M322.679 318.645C324.709 316.528 326.94 315.315 329.372 315.005C331.856 314.746 334.156 315.632 336.273 317.662C338.39 319.693 339.344 321.929 339.135 324.371C338.98 326.864 337.886 329.169 335.856 331.286C333.876 333.349 331.644 334.511 329.16 334.77C326.729 335.08 324.454 334.219 322.338 332.189C320.221 330.158 319.24 327.896 319.396 325.404C319.605 322.962 320.699 320.709 322.679 318.645Z" fill="white"/>
</svg>
