<svg width="246" height="239" viewBox="0 0 246 239" fill="none" xmlns="http://www.w3.org/2000/svg">
<path d="M81.5871 225.894C82.1239 226.11 82.4889 226.428 82.6822 226.848C82.8754 227.268 82.8745 227.72 82.6794 228.205C82.4843 228.69 82.1716 229.017 81.7414 229.186C81.287 229.365 80.8 229.35 80.2805 229.141C79.7783 228.939 79.434 228.62 79.2478 228.182C79.0545 227.763 79.0555 227.31 79.2506 226.825C79.4457 226.341 79.7583 226.014 80.1885 225.845C80.6187 225.676 81.0849 225.692 81.5871 225.894ZM89.104 211.565C89.4331 211.697 89.5523 211.876 89.4617 212.101L89.4199 212.205C89.3711 212.326 89.2479 212.407 89.0502 212.448C88.8456 212.507 88.634 212.583 88.4154 212.676C88.1899 212.786 88.0248 212.971 87.9203 213.231L84.8054 220.972C84.6451 221.37 84.6616 221.779 84.8548 222.199C85.048 222.619 85.1272 222.872 85.0924 222.959L85.0715 223.011C85.0227 223.132 84.8406 223.209 84.5251 223.243L82.1277 223.426C81.8088 223.418 81.6027 223.355 81.5094 223.237C81.3987 223.112 81.3852 222.946 81.4688 222.738L85.6604 212.322C85.744 212.114 85.7652 211.911 85.7241 211.714C85.6759 211.533 85.5965 211.38 85.4858 211.255C85.3752 211.13 85.2888 210.995 85.2267 210.849C85.1576 210.721 85.144 210.605 85.1858 210.501L85.2276 210.397C85.3182 210.172 85.5453 210.133 85.909 210.279L89.104 211.565Z" fill="white"/>
<path d="M74.7217 204.312C75.692 204.871 76.2831 205.621 76.4949 206.562C76.6813 207.51 76.4295 208.582 75.7398 209.779L71.5591 217.032L73.1601 217.955C73.4027 218.095 73.4541 218.286 73.3143 218.528L73.1745 218.771C73.0347 219.014 72.8434 219.065 72.6009 218.925L71.7275 218.422C70.6278 217.788 69.5705 218.202 68.5555 219.664C68.3368 219.969 68.1061 220.051 67.8635 219.911L67.6209 219.771C67.3621 219.622 67.326 219.386 67.5124 219.063L68.8165 216.744L65.4687 214.814C65.3717 214.758 65.3141 214.671 65.296 214.553C65.2525 214.442 65.2586 214.338 65.3146 214.241L65.4544 213.998C65.5942 213.756 65.7854 213.704 66.028 213.844L69.3758 215.774L73.5704 208.496C73.9433 207.849 74.0948 207.268 74.0249 206.754C73.9551 206.24 73.6856 205.848 73.2166 205.577C72.6991 205.279 72.2121 205.171 71.7557 205.252C71.2738 205.341 70.8827 205.589 70.5825 205.998C70.3898 206.146 70.2057 206.147 70.0303 206.003C69.8294 205.866 69.7895 205.692 69.9107 205.482C70.3674 204.689 71.0594 204.161 71.9865 203.899C72.8881 203.643 73.7998 203.78 74.7217 204.312Z" fill="white"/>
<path d="M57.4322 208.983C57.6631 209.02 57.7937 209.156 57.8239 209.392C57.8393 209.616 57.7235 209.75 57.4764 209.795C56.3209 209.917 55.3994 210.254 54.7119 210.808C54.4963 210.996 54.4772 211.158 54.6544 211.295C54.9646 211.534 55.1391 211.858 55.1781 212.266C55.1908 212.677 55.0488 213.074 54.752 213.458C54.4209 213.886 54.0345 214.142 53.5928 214.225C53.1362 214.297 52.7011 214.173 52.2876 213.854C51.8888 213.545 51.6706 213.141 51.6331 212.64C51.5807 212.128 51.7486 211.62 52.1367 211.118C53.3124 209.597 55.0776 208.885 57.4322 208.983Z" fill="white"/>
<path d="M54.4255 188.206C55.6048 189.454 56.3024 190.695 56.5182 191.929C56.7211 193.15 56.5512 194.017 56.0084 194.529C55.5064 195.004 55.0054 194.976 54.5054 194.447C54.2875 194.216 54.2027 193.95 54.2509 193.647C54.2727 193.344 54.3545 193.023 54.4962 192.684C54.6379 192.345 54.7603 191.985 54.8636 191.605C54.954 191.211 54.9272 190.762 54.7831 190.256C54.6255 189.763 54.3095 189.265 53.8352 188.763C53.1943 188.085 52.5127 187.676 51.7904 187.536C51.0545 187.41 50.4084 187.609 49.8521 188.135C49.3093 188.648 49.0938 189.262 49.2054 189.978C49.3043 190.681 49.5811 191.395 50.0358 192.121C50.4769 192.86 50.9045 193.612 51.3185 194.376C51.7325 195.141 51.9275 195.945 51.9035 196.789C51.8667 197.62 51.4819 198.382 50.7491 199.074C49.9621 199.817 48.9643 200.08 47.7557 199.86C46.5336 199.654 45.3969 198.994 44.3458 197.882C43.2306 196.701 42.5779 195.507 42.3877 194.3C42.1976 193.093 42.401 192.208 42.9981 191.644C43.2016 191.451 43.4418 191.366 43.7185 191.387C43.9823 191.394 44.2104 191.5 44.4027 191.704C44.6334 191.948 44.7032 192.28 44.612 192.7C44.5209 193.12 44.3769 193.538 44.1802 193.955C43.9706 194.359 43.9036 194.858 43.9791 195.455C44.0545 196.051 44.3615 196.634 44.8998 197.204C45.4639 197.801 46.1078 198.143 46.8316 198.23C47.5425 198.303 48.1491 198.102 48.6511 197.628C49.1803 197.128 49.3955 196.527 49.2966 195.824C49.1714 195.121 48.8882 194.399 48.4471 193.661C48.0059 192.922 47.5848 192.177 47.1836 191.426C46.7696 190.662 46.5878 189.858 46.6382 189.014C46.6622 188.17 47.0474 187.395 47.7937 186.69C48.5807 185.946 49.5977 185.705 50.8448 185.964C52.0654 186.224 53.259 186.971 54.4255 188.206Z" fill="white"/>
<path d="M32.0113 156.972C32.2765 156.833 32.4602 156.649 32.5623 156.42C32.6644 156.19 32.7447 155.981 32.8033 155.791C32.8372 155.592 32.9139 155.466 33.0332 155.413L33.1355 155.367C33.3572 155.268 33.5478 155.398 33.7073 155.756L35.0636 158.799C35.2232 159.157 35.1922 159.386 34.9705 159.485L34.8682 159.53C34.7489 159.583 34.5015 159.51 34.126 159.309C33.7429 159.092 33.3847 159.067 33.0513 159.236L28.0502 161.772C26.5631 162.516 25.5613 163.341 25.0448 164.245C24.5036 165.14 24.4382 166.048 24.8485 166.969C25.2664 167.907 25.9408 168.526 26.8717 168.826C27.8026 169.127 28.7796 169.049 29.8026 168.593L36.0174 165.823C36.222 165.732 36.3782 165.601 36.4861 165.431C36.5693 165.251 36.6184 165.086 36.6334 164.936C36.6484 164.786 36.6843 164.637 36.741 164.489C36.7731 164.332 36.8403 164.231 36.9426 164.185L37.0449 164.139C37.2665 164.041 37.4571 164.17 37.6167 164.528L39.0414 167.725C39.1933 168.066 39.1585 168.286 38.9369 168.385L38.8346 168.43C38.6982 168.491 38.4469 168.409 38.0809 168.184C37.7073 167.942 37.35 167.897 37.009 168.048L29.2597 171.502C28.9357 171.646 28.7303 171.85 28.6434 172.114C28.5318 172.368 28.4666 172.611 28.4479 172.845C28.4216 173.061 28.3488 173.195 28.2294 173.249L28.1527 173.283C27.9992 173.351 27.8106 173.272 27.5867 173.045L25.8112 171.537C25.5854 171.351 25.4886 171.18 25.5207 171.022C25.5527 170.865 25.6711 170.741 25.8757 170.65L27.7427 169.818C26.8594 169.762 26.0489 169.479 25.3111 168.97C24.5657 168.444 23.9992 167.746 23.6117 166.876C23.0191 165.546 22.994 164.229 23.5367 162.925C24.0717 161.603 25.259 160.461 27.0983 159.498L32.0113 156.972Z" fill="white"/>
<path d="M30.0804 141.099C30.5017 143.223 30.1583 145.09 29.0501 146.699C27.9201 148.293 26.3846 149.283 24.4437 149.668C22.5395 150.045 20.8286 149.719 19.311 148.688C17.775 147.66 16.8201 146.203 16.446 144.317C16.0429 142.285 16.3899 140.484 17.487 138.916C18.5621 137.332 20.0793 136.346 22.0384 135.958C23.961 135.576 25.6921 135.861 27.2318 136.812C28.7532 137.766 29.7027 139.195 30.0804 141.099ZM29.1087 140.95C28.8944 139.869 28.2606 139.072 27.207 138.558C26.1499 138.025 24.8615 137.91 23.3418 138.211C21.4009 138.596 19.8621 139.377 18.7254 140.554C17.5703 141.735 17.1308 143.021 17.4068 144.412C17.6392 145.584 18.2858 146.445 19.3466 146.996C20.3891 147.551 21.6702 147.677 23.1899 147.376C25.0209 147.013 26.5377 146.217 27.7404 144.989C28.9432 143.761 29.3992 142.414 29.1087 140.95Z" fill="white"/>
<path d="M28.3131 122.683C28.3229 123.803 27.9761 124.693 27.2725 125.353C26.55 125.994 25.4982 126.32 24.1169 126.332L15.7452 126.405L15.7614 128.253C15.7639 128.533 15.6251 128.675 15.3451 128.677L15.0651 128.679C14.7851 128.682 14.6439 128.543 14.6415 128.263L14.6326 127.255C14.6215 125.986 13.7287 125.284 11.9541 125.151C11.5805 125.117 11.3924 124.959 11.39 124.68L11.3875 124.4C11.3849 124.101 11.5703 123.95 11.9436 123.947L14.6032 123.895L14.5694 120.032C14.5684 119.92 14.6143 119.826 14.707 119.75C14.7808 119.656 14.8737 119.609 14.9857 119.608L15.2657 119.605C15.5457 119.603 15.6869 119.742 15.6894 120.022L15.7232 123.886L24.1229 123.812C24.8695 123.806 25.4468 123.642 25.8546 123.321C26.2625 123 26.4641 122.569 26.4593 122.028C26.4541 121.43 26.3006 120.956 25.9989 120.603C25.6783 120.233 25.2657 120.022 24.7613 119.97C24.5365 119.879 24.4417 119.721 24.4771 119.497C24.4937 119.254 24.6233 119.131 24.8659 119.129C25.7805 119.121 26.5861 119.45 27.2826 120.116C27.9603 120.764 28.3038 121.619 28.3131 122.683Z" fill="white"/>
<path d="M32.1818 96.0796C31.6864 97.7239 30.9573 98.9469 29.9945 99.7486C29.037 100.532 28.2008 100.817 27.4859 100.601C26.8246 100.402 26.5989 99.9539 26.8089 99.2568C26.9005 98.953 27.0893 98.7467 27.3755 98.6379C27.6492 98.5059 27.9685 98.4169 28.3333 98.3708C28.6981 98.3248 29.0709 98.2519 29.4519 98.1522C29.8382 98.0347 30.2149 97.7875 30.5818 97.4106C30.9309 97.0284 31.2051 96.5067 31.4043 95.8453C31.6735 94.9517 31.6887 94.157 31.45 93.4612C31.1933 92.76 30.6986 92.299 29.9658 92.0783C29.2508 91.8629 28.6106 91.982 28.0451 92.4354C27.485 92.8711 27.0033 93.4668 26.6002 94.2226C26.1792 94.9731 25.7402 95.7181 25.2835 96.4578C24.8267 97.1975 24.2262 97.7672 23.4819 98.1668C22.7431 98.5486 21.8911 98.5941 20.9259 98.3033C19.8893 97.991 19.1651 97.2562 18.7534 96.099C18.3239 94.9363 18.3298 93.6222 18.7714 92.1566C19.2398 90.6016 19.9501 89.4411 20.9021 88.6752C21.8542 87.9093 22.7235 87.6448 23.5099 87.8817C23.778 87.9624 23.9718 88.1281 24.0913 88.3785C24.2162 88.6111 24.2382 88.8614 24.1575 89.1295C24.0605 89.4512 23.8073 89.6771 23.3977 89.8072C22.9881 89.9372 22.5535 90.0207 22.094 90.0578C21.6398 90.0769 21.173 90.2677 20.6934 90.6301C20.2138 90.9925 19.8609 91.549 19.6348 92.2997C19.3979 93.0861 19.4221 93.8147 19.7074 94.4855C19.998 95.1385 20.474 95.5646 21.1353 95.7638C21.8324 95.9738 22.461 95.861 23.0211 95.4253C23.5688 94.9665 24.0531 94.3618 24.4741 93.6114C24.8952 92.8609 25.3314 92.1248 25.7828 91.403C26.2395 90.6633 26.8463 90.1053 27.603 89.7289C28.3473 89.3292 29.2109 89.2775 30.1939 89.5736C31.2306 89.8859 31.9467 90.6475 32.3422 91.8584C32.7252 93.0461 32.6718 94.4531 32.1818 96.0796Z" fill="white"/>
<path d="M38.2206 71.7457C38.101 71.5338 38.1186 71.3422 38.2734 71.1709C38.4118 70.9909 38.5875 70.9788 38.8005 71.1347C39.5767 71.7816 40.1026 72.7391 40.3781 74.0074C40.6536 75.2756 40.4135 76.618 39.6579 78.0344C38.7881 79.6649 37.4825 80.7243 35.7409 81.2128C34.0082 81.6848 32.203 81.42 30.3255 80.4184C28.5961 79.4959 27.4538 78.1671 26.8983 76.4322C26.3264 74.6885 26.4797 72.9931 27.3583 71.3461C28.1051 69.9462 29.077 69.0366 30.2739 68.6172C31.4631 68.1726 32.5271 68.2007 33.4659 68.7015C34.1741 69.0793 34.4535 69.7255 34.304 70.6402L32.9016 78.6826C34.1215 78.9737 35.2251 78.9277 36.2122 78.5446C37.1917 78.1362 37.9494 77.4297 38.4854 76.4251C39.3903 74.7287 39.3021 73.1689 38.2206 71.7457ZM27.9512 72.1384C27.424 73.1266 27.4261 74.1538 27.9575 75.2201C28.4888 76.2863 29.3968 77.1621 30.6815 77.8474C31.1756 78.111 31.6131 78.3021 31.9941 78.4207L32.9566 71.8572C33.0028 71.3741 32.82 71.0227 32.4083 70.8031C31.7824 70.4692 30.9863 70.4148 30.02 70.6398C29.0625 70.8483 28.3729 71.3479 27.9512 72.1384Z" fill="white"/>
<path d="M46.2869 66.9715C46.072 67.2536 45.868 67.3211 45.675 67.174L45.6081 67.1231C45.4894 67.0326 45.4296 66.7876 45.4289 66.3881C45.4247 65.9625 45.2816 65.6422 44.9994 65.4272L32.483 55.8899C32.2306 55.6976 31.9718 55.606 31.7067 55.6152C31.438 55.5982 31.2008 55.6169 30.995 55.6713C30.7893 55.7258 30.6418 55.7191 30.5528 55.6512L30.5082 55.6172C30.3894 55.5267 30.3499 55.3323 30.3895 55.0339L30.8668 52.6519C30.9475 52.3613 31.0701 52.1849 31.2349 52.1227C31.3848 52.0491 31.5414 52.0746 31.7047 52.1991L46.4928 63.4673C46.7749 63.6823 47.1274 63.7279 47.5502 63.6042C47.9695 63.4543 48.2385 63.4246 48.3573 63.5151L48.4241 63.5661C48.6172 63.7131 48.6005 63.9351 48.3743 64.2321L46.2869 66.9715Z" fill="white"/>
<path d="M43.4563 39.0747C44.16 38.3793 44.9611 37.9683 45.8594 37.8418C46.771 37.702 47.4892 37.8978 48.014 38.4289C48.1977 38.6148 48.2953 38.8464 48.3068 39.1236C48.3052 39.3876 48.1916 39.6311 47.9658 39.8542C47.6206 40.1953 47.2699 40.345 46.9138 40.3032C46.5578 40.2351 46.2419 40.088 45.966 39.8619C45.7035 39.6228 45.3743 39.4888 44.9785 39.46C44.596 39.4181 44.2055 39.5939 43.8072 39.9875C43.1434 40.6171 43.1054 41.4419 43.6933 42.4618C44.2944 43.4686 45.2262 44.3585 46.4887 45.1317L47.0201 45.6695L49.7886 42.934C49.8683 42.8553 49.9675 42.8229 50.0862 42.8368C50.1918 42.8375 50.2774 42.871 50.343 42.9374L50.5988 43.1963C50.7694 43.3689 50.7617 43.5471 50.5758 43.7307L47.8072 46.4662L55.069 53.8158C55.2658 54.015 55.5028 54.1088 55.7801 54.0973C56.0573 54.0858 56.3149 54.0543 56.5528 54.003C56.804 53.9385 56.9755 53.9527 57.0673 54.0456L57.1264 54.1054C57.2838 54.2647 57.2629 54.4428 57.0638 54.6396L54.2554 57.4144C54.0562 57.6112 53.8779 57.6299 53.7204 57.4706L53.6614 57.4108C53.5696 57.3179 53.5375 57.1659 53.5652 56.9549C53.6061 56.7307 53.6207 56.4932 53.609 56.2424C53.6106 55.9784 53.513 55.7468 53.3162 55.5476L46.0545 48.198L44.4013 49.8314C44.2021 50.0282 44.0173 50.0403 43.8467 49.8676L43.5909 49.6087C43.4072 49.4228 43.415 49.2315 43.6141 49.0347L45.2673 47.4013L43.5552 45.6684C42.5581 44.6593 42.0367 43.5606 41.9911 42.3723C41.9454 41.1841 42.4338 40.0849 43.4563 39.0747Z" fill="white"/>
<path d="M56.5907 33.9788C56.1263 34.3239 55.6646 34.4694 55.2056 34.4151C54.7466 34.3608 54.3613 34.1239 54.0495 33.7044C53.7378 33.2848 53.6221 32.8475 53.7025 32.3924C53.7867 31.9112 54.0536 31.5036 54.5031 31.1695C54.9376 30.8466 55.3899 30.7198 55.86 30.7891C56.3189 30.8434 56.7043 31.0803 57.0161 31.4998C57.3278 31.9193 57.4435 32.3566 57.3631 32.8118C57.2827 33.2669 57.0252 33.6559 56.5907 33.9788ZM64.8904 47.8699C64.6057 48.0814 64.391 48.0898 64.2463 47.895L64.1795 47.8051C64.1015 47.7003 64.0966 47.5528 64.1646 47.3627C64.2215 47.1576 64.2673 46.9375 64.3019 46.7025C64.3254 46.4524 64.2537 46.2151 64.0867 45.9903L59.1097 39.2931C58.8536 38.9485 58.4961 38.7491 58.0372 38.6948C57.5782 38.6405 57.3209 38.5759 57.2652 38.501L57.2318 38.456C57.1539 38.3512 57.1827 38.1553 57.3184 37.8684L58.4142 35.7284C58.5872 35.4604 58.7483 35.3174 58.8977 35.2993C59.0621 35.2702 59.2111 35.3455 59.3447 35.5253L66.0419 44.5373C66.1755 44.7171 66.3373 44.841 66.5275 44.9091C66.7064 44.9621 66.8781 44.9741 67.0425 44.9449C67.2069 44.9158 67.3674 44.9128 67.5241 44.9359C67.6697 44.944 67.7759 44.993 67.8427 45.0829L67.9095 45.1728C68.0542 45.3675 67.9693 45.5818 67.6547 45.8156L64.8904 47.8699Z" fill="white"/>
<path d="M78.9631 39.1613C77.4382 39.9513 76.0529 40.2801 74.807 40.1478C73.5777 40.0068 72.7913 39.6048 72.4478 38.9419C72.1301 38.3286 72.2944 37.8545 72.9408 37.5196C73.2226 37.3737 73.5021 37.3655 73.7795 37.4951C74.0649 37.5995 74.3511 37.7665 74.6383 37.9962C74.9255 38.2258 75.2375 38.4426 75.5744 38.6464C75.9278 38.8417 76.3676 38.9398 76.8936 38.9406C77.411 38.9248 77.9763 38.758 78.5895 38.4403C79.4182 38.011 79.999 37.4683 80.3319 36.8123C80.6562 36.1397 80.6423 35.4637 80.2902 34.7841C79.9467 34.1211 79.4154 33.7447 78.6961 33.6549C77.9933 33.5564 77.2304 33.6259 76.4073 33.8631C75.5756 34.0838 74.7353 34.2879 73.8864 34.4754C73.0375 34.6629 72.2105 34.6289 71.4053 34.3733C70.6167 34.1091 69.9906 33.5296 69.5269 32.6345C69.0288 31.6732 69.0516 30.6418 69.5951 29.5403C70.1301 28.4222 71.0771 27.5111 72.4362 26.807C73.8781 26.0599 75.2055 25.7611 76.4182 25.9107C77.6309 26.0602 78.4262 26.4996 78.8041 27.2289C78.9329 27.4775 78.9491 27.7319 78.8526 27.9921C78.7727 28.2437 78.6085 28.4339 78.3599 28.5627C78.0615 28.7173 77.7231 28.693 77.3444 28.4897C76.9658 28.2864 76.6032 28.0328 76.2565 27.7289C75.9264 27.4164 75.4643 27.2143 74.8702 27.1226C74.2761 27.031 73.631 27.1655 72.9349 27.5262C72.2057 27.904 71.6997 28.4289 71.4172 29.1009C71.1512 29.7642 71.1771 30.4026 71.4948 31.0158C71.8297 31.6622 72.3485 32.0346 73.0512 32.133C73.7619 32.2063 74.5332 32.1326 75.3649 31.9119C76.1966 31.6913 77.0286 31.4915 77.8609 31.3125C78.7098 31.125 79.5328 31.1716 80.33 31.4523C81.1352 31.7079 81.7739 32.2915 82.2462 33.2031C82.7442 34.1644 82.6966 35.2087 82.1034 36.336C81.5181 37.4381 80.4713 38.3799 78.9631 39.1613Z" fill="white"/>
<path d="M102.991 27.9454C103.127 28.2952 103.382 28.5537 103.758 28.7209C104.133 28.888 104.341 29.0435 104.381 29.1875L104.411 29.2954C104.471 29.5113 104.321 29.669 103.961 29.7687L100.723 30.6655C100.363 30.7651 100.153 30.707 100.093 30.4912L100.063 30.3832C100.029 30.2573 100.075 30.1089 100.202 29.9382C100.347 29.7624 100.478 29.5712 100.595 29.3644C100.707 29.1397 100.716 28.8949 100.624 28.63L98.8293 23.2C98.3289 21.6728 97.6697 20.5867 96.8519 19.9416C96.034 19.2965 95.1484 19.106 94.1949 19.37C93.2055 19.644 92.4932 20.219 92.0578 21.095C91.6225 21.971 91.5543 22.9487 91.8533 24.028L93.6693 30.5852C93.764 30.927 94.0261 31.174 94.4556 31.3262C94.8802 31.4604 95.1124 31.5995 95.1523 31.7434L95.1747 31.8243C95.2394 32.0582 95.0829 32.2275 94.7052 32.3321L91.3321 33.2663C90.9903 33.3609 90.7871 33.2913 90.7223 33.0575L90.6999 32.9765C90.66 32.8326 90.7696 32.5989 91.0286 32.2753C91.3007 31.9288 91.3894 31.5847 91.2947 31.2429L87.0722 15.9968C86.9875 15.691 86.8303 15.473 86.6006 15.3429C86.3838 15.1899 86.1706 15.0843 85.9608 15.0262C85.764 14.9451 85.6507 14.8506 85.6208 14.7427L85.5984 14.6617C85.5436 14.4638 85.6271 14.2761 85.8491 14.0984L87.7928 12.5141C87.9967 12.3414 88.1806 12.2711 88.3445 12.3032C88.5033 12.3173 88.6127 12.4323 88.6725 12.6482L91.0399 21.406C91.5638 19.7307 92.7072 18.649 94.4701 18.1607C95.8733 17.7721 97.1797 17.9429 98.3891 18.6733C99.6116 19.3806 100.546 20.6908 101.192 22.6038L102.991 27.9454Z" fill="white"/>
<path d="M127.873 28.5081C126.754 28.4615 125.883 28.0703 125.26 27.3344C124.656 26.5807 124.383 25.5138 124.44 24.1336L124.788 15.7688L122.941 15.6921C122.662 15.6804 122.528 15.5347 122.539 15.255L122.551 14.9752C122.563 14.6954 122.708 14.5614 122.988 14.573L123.995 14.6149C125.263 14.6677 126.009 13.8112 126.232 12.0456C126.285 11.6742 126.451 11.4943 126.731 11.5059L127.01 11.5175C127.309 11.5299 127.45 11.7227 127.435 12.0957L127.352 14.7545L131.213 14.9151C131.325 14.9198 131.416 14.9703 131.487 15.0666C131.577 15.1451 131.62 15.2403 131.615 15.3522L131.603 15.632C131.592 15.9117 131.446 16.0458 131.166 16.0341L127.306 15.8736L126.957 24.2663C126.926 25.0123 127.06 25.5971 127.36 26.0206C127.66 26.4441 128.08 26.6671 128.621 26.6896C129.218 26.7144 129.7 26.585 130.067 26.3013C130.453 25.9998 130.684 25.5984 130.761 25.0971C130.864 24.8772 131.026 24.7905 131.249 24.8372C131.49 24.8659 131.606 25.0015 131.596 25.2439C131.558 26.1578 131.189 26.9458 130.489 27.608C129.808 28.2522 128.936 28.5523 127.873 28.5081Z" fill="white"/>
<path d="M144.523 30.8944C142.414 30.4037 140.855 29.3221 139.845 27.6497C138.857 25.9634 138.588 24.1566 139.036 22.2294C139.476 20.3386 140.478 18.914 142.043 17.9557C143.612 16.9791 145.333 16.7087 147.205 17.1445C149.223 17.6141 150.721 18.6717 151.699 20.3175C152.699 21.9493 152.973 23.7379 152.52 25.6832C152.076 27.5922 151.104 29.0526 149.604 30.0642C148.107 31.0576 146.414 31.3344 144.523 30.8944ZM145.06 30.0706C146.133 30.3202 147.12 30.0709 148.022 29.3226C148.943 28.5785 149.579 27.452 149.93 25.943C150.378 24.0158 150.3 22.2919 149.696 20.7714C149.096 19.2326 148.105 18.3025 146.723 17.981C145.559 17.7102 144.508 17.9448 143.57 18.6846C142.635 19.4062 141.992 20.5216 141.641 22.0306C141.218 23.8487 141.318 25.5586 141.942 27.1603C142.566 28.7621 143.605 29.7322 145.06 30.0706Z" fill="white"/>
<path d="M168.734 39.9088C168.427 39.7311 168.334 39.5373 168.456 39.3272L168.498 39.2546C168.573 39.1253 168.808 39.0352 169.204 38.9842C169.626 38.9263 169.926 38.744 170.104 38.437L177.988 24.8186C178.147 24.544 178.205 24.2757 178.162 24.0138C178.145 23.7452 178.097 23.5122 178.017 23.3149C177.937 23.1177 177.925 22.9706 177.981 22.8737L178.009 22.8252C178.084 22.696 178.272 22.6322 178.573 22.6339L180.996 22.8073C181.295 22.8507 181.485 22.9501 181.568 23.1057C181.659 23.2452 181.654 23.4037 181.551 23.5814L172.236 39.6716C172.058 39.9785 172.057 40.3339 172.233 40.7378C172.435 41.1348 172.498 41.398 172.423 41.5272L172.381 41.5999C172.26 41.8099 172.037 41.8214 171.714 41.6343L168.734 39.9088Z" fill="white"/>
<path d="M183.686 50.5367C182.025 49.148 181.12 47.4796 180.973 45.5315C180.851 43.581 181.425 41.8467 182.694 40.3286C183.939 38.8391 185.476 38.0192 187.305 37.869C189.145 37.7045 190.803 38.2388 192.278 39.4719C193.868 40.8008 194.728 42.4201 194.859 44.3299C195.017 46.2374 194.455 47.9574 193.174 49.4898C191.917 50.9937 190.391 51.8589 188.595 52.0857C186.812 52.2981 185.176 51.7817 183.686 50.5367ZM184.537 50.0432C185.382 50.7496 186.375 50.9721 187.518 50.711C188.675 50.4618 189.751 49.7428 190.745 48.5541C192.014 47.0359 192.721 45.462 192.867 43.8322C193.025 42.1881 192.559 40.9111 191.471 40.0013C190.554 39.2351 189.51 38.9706 188.339 39.2078C187.179 39.4307 186.103 40.1366 185.109 41.3253C183.912 42.7575 183.231 44.3291 183.066 46.0401C182.9 47.7511 183.391 49.0855 184.537 50.0432Z" fill="white"/>
<path d="M212.328 61.593C212.5 61.8139 212.505 61.9874 212.343 62.1136L212.277 62.1652C212.144 62.2684 211.841 62.244 211.368 62.0919C210.895 61.9399 210.493 61.9098 210.162 62.0016L198.828 65.2191C198.442 65.3307 198.145 65.2539 197.939 64.9887L197.406 64.3038C197.199 64.0387 197.192 63.7252 197.383 63.3633L202.921 52.7002C203.08 52.3874 203.166 52.0125 203.181 51.5753C203.207 51.1529 203.286 50.8901 203.418 50.7869L203.485 50.7353C203.647 50.6092 203.814 50.6566 203.986 50.8775L206.377 53.9485C206.537 54.1547 206.529 54.3266 206.352 54.4643L206.286 54.5159C206.227 54.5617 205.975 54.5569 205.53 54.5015C205.099 54.4346 204.784 54.5616 204.584 54.8826L199.365 63.9493L209.167 61.1794C209.472 61.0843 209.676 60.9369 209.781 60.7371C209.897 60.552 209.946 60.3719 209.928 60.1968C209.91 60.0216 209.892 59.8464 209.874 59.6713C209.871 59.4846 209.913 59.3569 210.002 59.2881L210.068 59.2365C210.245 59.0989 210.419 59.1406 210.591 59.3615L212.328 61.593Z" fill="white"/>
<path d="M213.785 83.9484C214.027 83.9746 214.173 84.1005 214.222 84.3262C214.288 84.5435 214.195 84.6933 213.944 84.7756C212.966 85.0298 211.882 84.8994 210.69 84.3844C209.499 83.8695 208.548 82.8924 207.837 81.4532C207.018 79.7964 206.918 78.1179 207.535 76.4178C208.161 74.7345 209.428 73.4216 211.336 72.479C213.093 71.6108 214.838 71.4564 216.572 72.0156C218.323 72.5666 219.611 73.6788 220.438 75.3524C221.141 76.7749 221.314 78.0948 220.958 79.3119C220.626 80.5375 219.983 81.3859 219.03 81.8572C218.31 82.2127 217.622 82.0633 216.966 81.4091L211.246 75.584C210.298 76.406 209.693 77.3297 209.429 78.3553C209.191 79.3893 209.323 80.4168 209.828 81.4376C210.679 83.1614 211.999 83.9983 213.785 83.9484ZM219.449 75.3727C218.953 74.3686 218.116 73.7719 216.94 73.5826C215.764 73.3934 214.523 73.6212 213.218 74.2661C212.716 74.5141 212.306 74.7585 211.987 74.999L216.761 79.6049C217.127 79.9239 217.519 79.98 217.938 79.7733C218.573 79.4591 219.081 78.8438 219.462 77.9273C219.85 77.0276 219.846 76.176 219.449 75.3727Z" fill="white"/>
<path d="M231.082 115.37C231.116 115.629 231.022 115.773 230.8 115.802L230.717 115.813C230.55 115.835 230.306 115.698 229.985 115.402C229.666 115.124 229.281 114.921 228.831 114.792L216.562 111.077C215.798 110.858 215.259 110.694 214.943 110.585C214.609 110.478 214.103 110.282 213.425 109.995C212.749 109.727 212.253 109.463 211.936 109.203C211.601 108.946 211.281 108.593 210.977 108.144C210.656 107.716 210.462 107.242 210.393 106.724C210.264 105.744 210.424 104.894 210.875 104.175C211.308 103.459 211.82 103.062 212.412 102.983C212.745 102.939 213.026 102.996 213.254 103.154C213.482 103.312 213.618 103.558 213.662 103.891C213.704 104.206 213.61 104.491 213.38 104.748C213.132 105.006 212.847 105.204 212.526 105.341C212.208 105.496 211.935 105.711 211.708 105.986C211.465 106.281 211.369 106.624 211.42 107.012C211.564 108.104 213.176 109.039 216.254 109.818L227.29 102.935C227.671 102.678 227.976 102.355 228.207 101.967C228.441 101.597 228.641 101.401 228.807 101.379L228.891 101.368C229.113 101.339 229.242 101.463 229.279 101.74L229.756 105.349C229.791 105.608 229.697 105.752 229.475 105.782L229.391 105.793C229.262 105.81 229.103 105.746 228.914 105.601C228.746 105.473 228.584 105.382 228.426 105.327C228.287 105.27 228.014 105.344 227.608 105.548L218.727 110.79L228.44 113.544C228.792 113.648 229.064 113.641 229.256 113.521C229.466 113.399 229.606 113.249 229.676 113.07C229.765 112.889 229.854 112.708 229.943 112.526C230.032 112.345 230.132 112.247 230.243 112.232L230.327 112.221C230.549 112.192 230.678 112.316 230.715 112.594L231.082 115.37Z" fill="white"/>
<path d="M217.087 130.86C217.263 128.702 218.104 127 219.61 125.756C221.134 124.532 222.882 124.001 224.854 124.162C226.789 124.32 228.345 125.102 229.522 126.51C230.718 127.918 231.238 129.581 231.081 131.497C230.913 133.562 230.086 135.199 228.601 136.407C227.134 137.636 225.405 138.169 223.414 138.007C221.46 137.847 219.873 137.099 218.653 135.763C217.451 134.429 216.929 132.795 217.087 130.86ZM217.98 131.27C217.891 132.368 218.282 133.308 219.154 134.091C220.025 134.892 221.233 135.356 222.777 135.482C224.749 135.643 226.443 135.313 227.859 134.493C229.293 133.673 230.068 132.557 230.183 131.143C230.28 129.952 229.894 128.947 229.025 128.126C228.174 127.308 226.976 126.835 225.432 126.709C223.572 126.557 221.895 126.907 220.402 127.759C218.909 128.611 218.102 129.781 217.98 131.27Z" fill="white"/>
<path d="M214.117 157C213.671 156.862 213.307 156.837 213.026 156.926C212.744 157.015 212.558 157.143 212.467 157.311C212.394 157.483 212.297 157.639 212.176 157.777C212.055 157.916 211.915 157.96 211.754 157.911C211.38 157.795 211.363 157.184 211.705 156.079C212.124 154.723 212.985 154.276 214.288 154.737L214.465 154.734C213.221 153.45 212.896 151.845 213.491 149.919C213.954 148.421 214.852 147.38 216.186 146.796C217.531 146.235 219.176 146.254 221.12 146.855L225.855 148.318C226.247 148.44 226.63 148.372 227.002 148.116C227.369 147.878 227.606 147.775 227.713 147.808L227.793 147.833C228.007 147.899 228.099 148.074 228.07 148.358L227.777 150.729C227.717 151.238 227.536 151.446 227.233 151.352L220.205 149.151C218.654 148.672 217.367 148.567 216.346 148.838C215.337 149.132 214.675 149.787 214.361 150.804C214.063 151.767 214.19 152.685 214.74 153.558C215.286 154.45 216.164 155.083 217.377 155.458L223.102 157.227C223.477 157.343 223.853 157.263 224.23 156.989C224.603 156.733 224.851 156.624 224.976 156.663L225.056 156.688C225.27 156.754 225.363 156.929 225.334 157.213L225.032 159.611C224.978 160.102 224.799 160.301 224.496 160.207L214.117 157Z" fill="white"/>
<path d="M217.361 176.417C216.982 177.125 216.505 177.579 215.932 177.78C215.349 177.997 214.787 177.96 214.244 177.669C213.47 177.255 213.26 176.719 213.613 176.061C213.763 175.781 213.972 175.607 214.241 175.54C214.511 175.472 214.77 175.463 215.019 175.512C215.259 175.577 215.523 175.559 215.81 175.459C216.096 175.358 216.332 175.135 216.518 174.79C216.87 174.132 216.819 173.437 216.364 172.706C215.916 172 215.207 171.387 214.236 170.867L208.609 167.851C208.28 167.675 207.908 167.698 207.492 167.92C207.093 168.151 206.836 168.236 206.721 168.174L206.622 168.121C206.425 168.015 206.414 167.798 206.591 167.469L208.231 164.408C208.407 164.079 208.594 163.968 208.791 164.073L208.89 164.126C209.005 164.188 209.09 164.424 209.146 164.835C209.208 165.271 209.404 165.577 209.733 165.754L217.236 169.774C217.581 169.96 217.966 169.954 218.389 169.757C218.812 169.56 219.081 169.493 219.196 169.554L219.246 169.581C219.41 169.669 219.492 169.872 219.491 170.189L219.325 172.514C219.294 173.048 219.064 173.2 218.636 172.971L216.662 171.913C217.974 173.336 218.207 174.838 217.361 176.417Z" fill="white"/>
<path d="M197.056 181.596C198.127 180.254 199.259 179.39 200.451 179.005C201.631 178.633 202.513 178.681 203.097 179.146C203.636 179.577 203.679 180.077 203.225 180.646C203.027 180.894 202.775 181.015 202.469 181.01C202.166 181.031 201.836 180.994 201.48 180.901C201.125 180.809 200.751 180.737 200.361 180.688C199.958 180.654 199.517 180.743 199.036 180.956C198.57 181.181 198.121 181.563 197.69 182.103C197.108 182.832 196.798 183.564 196.761 184.299C196.738 185.045 197.026 185.657 197.624 186.135C198.207 186.601 198.846 186.729 199.54 186.518C200.222 186.322 200.89 185.948 201.546 185.397C202.216 184.857 202.9 184.328 203.599 183.812C204.299 183.295 205.068 182.99 205.907 182.896C206.735 182.816 207.543 183.091 208.331 183.72C209.177 184.396 209.576 185.347 209.527 186.574C209.493 187.813 208.999 189.031 208.044 190.227C207.03 191.496 205.939 192.309 204.771 192.666C203.602 193.023 202.697 192.945 202.055 192.432C201.836 192.257 201.718 192.032 201.7 191.755C201.671 191.492 201.743 191.252 201.918 191.033C202.128 190.77 202.447 190.655 202.875 190.687C203.304 190.718 203.739 190.802 204.179 190.939C204.608 191.09 205.112 191.087 205.692 190.929C206.272 190.771 206.806 190.386 207.296 189.773C207.808 189.131 208.057 188.446 208.041 187.717C208.015 187.003 207.731 186.43 207.192 185.999C206.623 185.545 205.997 185.416 205.315 185.612C204.636 185.834 203.962 186.215 203.292 186.755C202.622 187.295 201.943 187.816 201.255 188.318C200.556 188.835 199.785 189.127 198.943 189.195C198.103 189.289 197.283 189.016 196.48 188.375C195.634 187.699 195.253 186.726 195.336 185.455C195.423 184.21 195.996 182.924 197.056 181.596Z" fill="white"/>
<path d="M182.397 201.937C182.43 202.178 182.342 202.349 182.135 202.451C181.939 202.566 181.772 202.512 181.632 202.288C181.152 201.399 181.02 200.315 181.236 199.035C181.452 197.755 182.175 196.598 183.403 195.565C184.817 194.375 186.423 193.877 188.221 194.072C190.005 194.278 191.582 195.196 192.952 196.824C194.214 198.324 194.78 199.982 194.651 201.799C194.533 203.631 193.76 205.147 192.331 206.349C191.117 207.371 189.877 207.853 188.61 207.797C187.34 207.767 186.363 207.346 185.678 206.531C185.161 205.917 185.143 205.213 185.622 204.42L189.915 197.477C188.891 196.753 187.85 196.385 186.791 196.373C185.73 196.388 184.764 196.762 183.893 197.495C182.422 198.733 181.923 200.213 182.397 201.937ZM192.076 205.393C192.933 204.672 193.313 203.718 193.216 202.53C193.12 201.343 192.603 200.192 191.665 199.078C191.305 198.65 190.97 198.309 190.66 198.058L187.325 203.792C187.102 204.223 187.141 204.617 187.442 204.974C187.899 205.517 188.617 205.864 189.598 206.014C190.564 206.177 191.39 205.97 192.076 205.393Z" fill="white"/>
<path d="M173.133 203.367C173.438 203.185 173.652 203.198 173.777 203.407L173.82 203.479C173.896 203.607 173.861 203.857 173.713 204.228C173.558 204.624 173.572 204.975 173.754 205.279L181.824 218.789C181.986 219.061 182.192 219.243 182.442 219.333C182.685 219.448 182.912 219.519 183.123 219.545C183.335 219.571 183.469 219.632 183.526 219.729L183.555 219.777C183.632 219.905 183.596 220.1 183.448 220.362L182.119 222.396C181.936 222.635 181.757 222.754 181.58 222.75C181.414 222.762 181.278 222.681 181.173 222.504L171.639 206.543C171.457 206.239 171.147 206.065 170.708 206.023C170.263 206.006 170.002 205.933 169.926 205.805L169.883 205.733C169.758 205.525 169.856 205.325 170.177 205.133L173.133 203.367Z" fill="white"/>
<path d="M165.382 230.314C164.47 230.698 163.574 230.781 162.693 230.565C161.795 230.355 161.201 229.906 160.912 229.218C160.81 228.977 160.806 228.726 160.898 228.464C160.998 228.22 161.194 228.036 161.487 227.913C161.934 227.725 162.315 227.717 162.63 227.888C162.935 228.083 163.174 228.338 163.346 228.65C163.5 228.97 163.756 229.216 164.113 229.39C164.452 229.572 164.88 229.554 165.396 229.337C166.247 228.999 166.589 228.248 166.423 227.082C166.239 225.924 165.705 224.751 164.821 223.564L164.528 222.867L160.941 224.376C160.837 224.42 160.733 224.413 160.628 224.356C160.53 224.316 160.463 224.253 160.427 224.167L160.286 223.831C160.192 223.608 160.265 223.445 160.506 223.344L164.094 221.835L160.088 212.311C159.979 212.053 159.794 211.878 159.532 211.785C159.271 211.693 159.02 211.626 158.78 211.585C158.523 211.552 158.369 211.475 158.318 211.354L158.286 211.277C158.199 211.07 158.285 210.913 158.543 210.804L162.182 209.273C162.44 209.165 162.612 209.214 162.699 209.42L162.732 209.498C162.782 209.618 162.756 209.771 162.652 209.957C162.53 210.15 162.428 210.365 162.346 210.602C162.246 210.846 162.25 211.098 162.359 211.356L166.365 220.879L168.507 219.978C168.765 219.87 168.941 219.927 169.036 220.151L169.177 220.487C169.278 220.727 169.2 220.902 168.941 221.011L166.799 221.912L167.744 224.157C168.294 225.465 168.369 226.679 167.969 227.799C167.57 228.919 166.707 229.757 165.382 230.314Z" fill="white"/>
</svg>
