<svg width="257" height="250" viewBox="0 0 257 250" fill="none" xmlns="http://www.w3.org/2000/svg">
<path d="M91.9937 221.046C93.0426 221.439 93.7485 222.082 94.1115 222.976C94.4504 223.88 94.3776 224.979 93.8931 226.273L90.9562 234.113L92.6868 234.761C92.949 234.859 93.031 235.039 92.9328 235.302L92.8345 235.564C92.7363 235.826 92.5561 235.908 92.2939 235.81L91.3499 235.456C90.1613 235.011 89.186 235.592 88.4241 237.201C88.2581 237.537 88.0441 237.656 87.7819 237.558L87.5197 237.46C87.24 237.355 87.1656 237.128 87.2966 236.778L88.2035 234.278L84.585 232.922C84.4801 232.883 84.4091 232.806 84.3719 232.693C84.3107 232.59 84.2997 232.486 84.339 232.381L84.4373 232.119C84.5355 231.857 84.7157 231.775 84.9779 231.873L88.5963 233.229L91.543 225.363C91.8049 224.663 91.8594 224.066 91.7062 223.57C91.5531 223.074 91.2231 222.731 90.7162 222.541C90.1568 222.332 89.6587 222.304 89.2218 222.46C88.7608 222.626 88.4158 222.935 88.1865 223.388C88.0205 223.565 87.8392 223.596 87.6425 223.483C87.4218 223.38 87.3541 223.215 87.4392 222.988C87.76 222.131 88.3563 221.498 89.2278 221.087C90.0754 220.687 90.9974 220.673 91.9937 221.046Z" fill="white"/>
<path d="M70.5625 212.588C70.7211 212.248 70.7308 211.884 70.5914 211.497C70.4521 211.111 70.4205 210.853 70.4968 210.725L70.554 210.628C70.6684 210.436 70.8861 210.435 71.2071 210.626L74.0957 212.342C74.4167 212.532 74.52 212.724 74.4056 212.917L74.3484 213.013C74.2816 213.125 74.1427 213.195 73.9315 213.221C73.7043 213.238 73.4756 213.276 73.2453 213.335C73.0055 213.409 72.8222 213.572 72.6952 213.822L70.0185 218.876C69.2627 220.294 68.9351 221.522 69.0357 222.558C69.1362 223.595 69.6118 224.366 70.4623 224.872C71.345 225.396 72.2531 225.512 73.1866 225.22C74.1201 224.928 74.8729 224.3 75.4449 223.337L78.9201 217.488C79.1013 217.183 79.0981 216.823 78.9106 216.407C78.7136 216.008 78.6533 215.744 78.7295 215.616L78.7724 215.543C78.8964 215.335 79.1269 215.331 79.4639 215.531L82.4729 217.319C82.7778 217.5 82.8683 217.695 82.7444 217.903L82.7015 217.975C82.6252 218.104 82.3806 218.186 81.9678 218.224C81.5294 218.267 81.2197 218.441 81.0385 218.746L72.9583 232.347C72.7962 232.62 72.7477 232.884 72.8129 233.14C72.8524 233.402 72.9239 233.629 73.0271 233.821C73.1048 234.019 73.1151 234.166 73.0579 234.263L73.015 234.335C72.9101 234.511 72.7167 234.581 72.4348 234.544L69.9461 234.238C69.6802 234.21 69.5022 234.126 69.4119 233.986C69.3122 233.861 69.3195 233.703 69.4339 233.51L74.1156 225.739C72.544 226.521 70.9718 226.444 69.3991 225.51C68.1473 224.766 67.3664 223.705 67.0562 222.327C66.7205 220.955 67.0194 219.374 67.9528 217.583L70.5625 212.588Z" fill="white"/>
<path d="M54.4679 201.713C54.2333 201.779 54.0516 201.715 53.9227 201.524C53.7813 201.346 53.8119 201.173 54.0146 201.003C54.8294 200.406 55.8855 200.126 57.1828 200.165C58.48 200.203 59.7249 200.759 60.9175 201.834C62.2903 203.071 63.0039 204.594 63.0582 206.402C63.0987 208.197 62.4066 209.885 60.9821 211.466C59.67 212.922 58.1051 213.711 56.2874 213.832C54.4572 213.966 52.8488 213.409 51.4621 212.159C50.2834 211.097 49.6348 209.935 49.5163 208.672C49.3714 207.411 49.6551 206.385 50.3674 205.594C50.9048 204.998 51.5993 204.883 52.451 205.248L59.9184 208.548C60.4949 207.434 60.7162 206.352 60.5823 205.301C60.422 204.252 59.9189 203.347 59.073 202.584C57.6448 201.297 56.1097 201.007 54.4679 201.713ZM52.3739 211.775C53.2059 212.525 54.2034 212.77 55.3663 212.511C56.5291 212.253 57.5979 211.583 58.5726 210.501C58.9475 210.085 59.2384 209.706 59.4454 209.365L53.3074 206.849C52.8496 206.688 52.4645 206.781 52.1521 207.127C51.6773 207.654 51.4326 208.414 51.4181 209.406C51.3897 210.385 51.7083 211.175 52.3739 211.775Z" fill="white"/>
<path d="M36.9547 196.23C36.4597 195.598 36.2356 194.979 36.2826 194.373C36.318 193.752 36.5782 193.252 37.063 192.872C37.7536 192.331 38.3292 192.354 38.7897 192.942C38.9854 193.192 39.06 193.454 39.0135 193.727C38.967 194.001 38.8713 194.242 38.7264 194.45C38.5699 194.644 38.4799 194.892 38.4564 195.195C38.433 195.498 38.5421 195.804 38.7839 196.113C39.2444 196.7 39.9009 196.933 40.7535 196.81C41.5798 196.685 42.4264 196.282 43.2933 195.603L48.3185 191.665C48.6123 191.435 48.7412 191.085 48.7052 190.615C48.6544 190.157 48.6805 189.888 48.7833 189.807L48.8715 189.738C49.0478 189.6 49.2511 189.678 49.4814 189.972L51.6228 192.705C51.853 192.998 51.88 193.214 51.7037 193.353L51.6155 193.422C51.5126 193.502 51.2621 193.485 50.8639 193.37C50.4394 193.252 50.0802 193.308 49.7864 193.539L43.0862 198.789C42.7776 199.03 42.6283 199.385 42.6381 199.851C42.648 200.318 42.6015 200.591 42.4986 200.672L42.4545 200.706C42.3076 200.822 42.089 200.815 41.7988 200.687L39.7369 199.599C39.2613 199.355 39.2145 199.083 39.5965 198.784L41.3597 197.402C39.5283 198.031 38.06 197.64 36.9547 196.23Z" fill="white"/>
<path d="M33.8877 172.483C33.645 172.465 33.4954 172.344 33.439 172.12C33.3661 171.905 33.4536 171.752 33.7016 171.661C34.6706 171.375 35.759 171.47 36.9666 171.945C38.1743 172.42 39.1573 173.365 39.9155 174.78C40.7883 176.409 40.9442 178.083 40.3832 179.803C39.8133 181.506 38.5905 182.86 36.7149 183.865C34.9873 184.791 33.2478 185.003 31.4966 184.501C29.7289 184.008 28.4042 182.939 27.5225 181.294C26.7731 179.895 26.5564 178.582 26.8725 177.354C27.1632 176.118 27.7775 175.249 28.7154 174.746C29.4229 174.367 30.1154 174.494 30.7931 175.126L36.7022 180.759C37.6218 179.906 38.1964 178.963 38.4261 177.929C38.6305 176.888 38.4638 175.865 37.926 174.862C37.0179 173.167 35.6718 172.374 33.8877 172.483ZM28.5107 181.241C29.0396 182.228 29.895 182.797 31.0768 182.947C32.2586 183.098 33.4912 182.829 34.7745 182.141C35.2682 181.877 35.6701 181.619 35.9803 181.368L31.0568 176.922C30.6807 176.616 30.287 176.572 29.8756 176.793C29.2504 177.128 28.763 177.76 28.4134 178.688C28.0551 179.6 28.0875 180.451 28.5107 181.241Z" fill="white"/>
<path d="M21.6716 167.069C21.8463 167.225 21.8829 167.41 21.7813 167.625C21.6735 167.822 21.5034 167.873 21.2711 167.778C20.2322 167.257 19.2739 167.045 18.3963 167.141C18.1138 167.183 18.0103 167.309 18.0859 167.52C18.218 167.889 18.1907 168.256 18.0039 168.62C17.7933 168.973 17.4595 169.232 17.0026 169.395C16.4929 169.578 16.0296 169.585 15.6126 169.417C15.1893 169.232 14.8895 168.893 14.7133 168.401C14.5434 167.926 14.5775 167.468 14.8157 167.026C15.0476 166.566 15.4623 166.229 16.0598 166.015C17.87 165.367 19.7406 165.718 21.6716 167.069Z" fill="white"/>
<path d="M30.2765 147.946C30.6106 149.63 30.5407 151.053 30.0666 152.212C29.5889 153.354 28.9839 153.997 28.2515 154.142C27.574 154.277 27.1645 153.987 27.0228 153.273C26.9611 152.962 27.031 152.691 27.2327 152.461C27.4125 152.216 27.6527 151.987 27.9532 151.775C28.2537 151.563 28.5488 151.324 28.8384 151.057C29.1244 150.772 29.341 150.377 29.4882 149.872C29.6171 149.371 29.6144 148.781 29.48 148.104C29.2984 147.188 28.9389 146.48 28.4016 145.977C27.8459 145.478 27.1927 145.304 26.442 145.452C25.7096 145.598 25.2001 146.003 24.9135 146.669C24.6233 147.317 24.4775 148.069 24.4762 148.925C24.4565 149.786 24.4186 150.649 24.3623 151.517C24.306 152.385 24.043 153.169 23.5734 153.872C23.1 154.555 22.369 154.995 21.3803 155.191C20.3183 155.402 19.334 155.093 18.4274 154.264C17.5025 153.439 16.8912 152.276 16.5933 150.774C16.2773 149.182 16.36 147.823 16.8413 146.7C17.3227 145.577 17.9661 144.936 18.7718 144.776C19.0464 144.721 19.2953 144.777 19.5183 144.942C19.7377 145.089 19.8747 145.299 19.9292 145.574C19.9946 145.904 19.8769 146.222 19.5762 146.529C19.2756 146.836 18.931 147.114 18.5426 147.362C18.1505 147.592 17.8278 147.98 17.5743 148.525C17.3208 149.07 17.2704 149.727 17.4229 150.496C17.5828 151.301 17.946 151.933 18.5127 152.392C19.0758 152.832 19.6961 152.985 20.3736 152.851C21.0876 152.709 21.5898 152.314 21.88 151.667C22.1483 151.005 22.2923 150.243 22.3119 149.383C22.3316 148.523 22.3713 147.668 22.4312 146.819C22.4875 145.951 22.7615 145.174 23.2531 144.486C23.7228 143.784 24.4612 143.333 25.4682 143.134C26.5302 142.923 27.5199 143.259 28.4374 144.143C29.3329 145.012 29.946 146.28 30.2765 147.946Z" fill="white"/>
<path d="M27.0469 111.373C27.4406 111.381 27.7583 111.315 28.0001 111.173C28.2234 111.03 28.3735 110.869 28.4506 110.69C28.5091 110.509 28.584 110.348 28.6754 110.209C28.7667 110.069 28.8865 110.007 29.0349 110.025C29.4243 110.07 29.5504 110.685 29.4132 111.872C29.3361 112.54 29.1588 113.017 28.8813 113.305C28.5852 113.59 28.0724 113.718 27.3428 113.691C28.5594 114.545 29.0541 115.955 28.8269 117.921C28.6469 119.479 28.1314 120.687 27.2804 121.547C26.4294 122.407 25.3456 122.761 24.029 122.609C22.7288 122.478 21.7718 121.897 21.1579 120.868C20.5462 119.82 20.3271 118.545 20.5007 117.043C20.6721 115.56 21.1748 114.462 22.0086 113.751L21.2512 113.719C19.5259 113.689 18.2161 113.885 17.3216 114.308C16.4272 114.731 15.9178 115.48 15.7935 116.556C15.7185 117.205 15.8232 117.762 16.1077 118.227C16.3922 118.692 16.7195 119.03 17.0897 119.242C17.4619 119.435 17.8021 119.663 18.1101 119.924C18.4182 120.185 18.5551 120.464 18.5208 120.76C18.4822 121.094 18.3584 121.352 18.1494 121.535C17.9426 121.699 17.6815 121.763 17.3663 121.726C16.5875 121.636 15.9446 121.102 15.4377 120.122C14.9144 119.122 14.7363 117.899 14.9034 116.453C15.0985 114.765 15.773 113.481 16.9272 112.6C18.0649 111.698 19.5717 111.261 21.4474 111.29L27.0469 111.373ZM28.0076 117.206C28.1126 116.297 27.9109 115.523 27.4025 114.881C26.8755 114.238 26.1742 113.884 25.2983 113.821L24.0338 113.787C23.3491 113.858 22.7706 114.149 22.2984 114.658C21.8283 115.148 21.5472 115.792 21.455 116.59C21.3457 117.535 21.5257 118.336 21.9948 118.992C22.464 119.647 23.1251 120.024 23.9781 120.123C25.0165 120.243 25.9234 120.038 26.6988 119.507C27.4577 118.956 27.894 118.189 28.0076 117.206Z" fill="white"/>
<path d="M27.2479 75.7743C27.5207 75.1807 27.789 74.9547 28.0525 75.0964C28.1295 75.1524 28.1825 75.2384 28.2113 75.3543C28.2846 75.5524 28.3045 75.7773 28.271 76.0289C28.2375 76.2806 28.1636 76.5754 28.0494 76.9132C27.9352 77.2511 27.8646 77.5165 27.8375 77.7095C28.494 77.3538 29.2186 77.163 30.0113 77.1371C30.7869 77.1033 31.5055 77.2384 32.167 77.5425C33.2185 78.0259 34.0181 78.7221 34.5658 79.6313C35.1134 80.5405 35.3725 81.5635 35.3429 82.7004C36.0793 81.7241 36.8645 81.0886 37.6985 80.794C38.5154 80.4916 39.3055 80.5158 40.0688 80.8667C41.239 81.4046 41.91 82.3808 42.0817 83.7951C42.2781 85.2002 41.9747 86.7762 41.1717 88.5231C40.3453 90.321 39.2787 91.5461 37.9721 92.1987C36.6824 92.8591 35.5711 92.9748 34.6383 92.546C34.3669 92.4213 34.1731 92.2397 34.0567 92.0013C33.9481 91.7459 33.9639 91.4656 34.1043 91.1603C34.2134 90.9229 34.4087 90.7661 34.6902 90.6901C34.9626 90.5893 35.2663 90.5543 35.6014 90.585C35.9612 90.6067 36.3537 90.6022 36.7786 90.5715C37.2284 90.5317 37.652 90.4594 38.0494 90.3545C38.4717 90.2404 38.8976 89.9842 39.3272 89.5859C39.7569 89.1876 40.1237 88.6577 40.4278 87.9963C40.9034 86.9617 41.0264 86.0013 40.7969 85.1151C40.5674 84.2289 40.0286 83.5909 39.1806 83.2011C38.3665 82.8268 37.5881 82.7772 36.8454 83.0521C36.0857 83.3192 35.4646 83.8658 34.9822 84.6918C34.8134 85.1484 34.6823 85.4784 34.5887 85.6819C33.887 87.2084 32.8196 88.2791 31.3864 88.894C29.9363 89.5012 28.5243 89.489 27.1505 88.8575C25.641 88.1636 24.6492 87.081 24.175 85.6098C23.6838 84.1309 23.8242 82.5518 24.596 80.8727C24.8065 80.4148 25.1647 79.7474 25.6705 78.8705C26.1763 77.9936 26.7021 76.9616 27.2479 75.7743ZM33.9363 84.889C34.3807 83.9222 34.4132 83.0024 34.0337 82.1294C33.6374 81.2487 32.9388 80.5784 31.9382 80.1184C30.5813 79.4947 29.2519 79.3252 27.9499 79.6101C26.6387 79.8703 25.7298 80.5516 25.223 81.654C24.8098 82.5529 24.7968 83.4304 25.184 84.2863C25.579 85.1253 26.2684 85.7709 27.2521 86.2231C28.6259 86.8546 29.9645 87.0488 31.2678 86.8056C32.579 86.5455 33.4685 85.9066 33.9363 84.889Z" fill="white"/>
<path d="M47.7668 68.9638C46.4855 70.7094 44.8774 71.7172 42.9425 71.9873C41.0036 72.2313 39.2366 71.7678 37.6415 70.597C36.0765 69.4482 35.1615 67.9661 34.8964 66.1506C34.6162 64.3241 35.045 62.6358 36.1827 61.0859C37.4087 59.4156 38.9706 58.4549 40.8684 58.2039C42.7622 57.9268 44.5142 58.3792 46.1243 59.561C47.7043 60.7208 48.664 62.1894 49.0034 63.9668C49.3278 65.7332 48.9156 67.3988 47.7668 68.9638ZM47.2208 68.1462C47.8724 67.2584 48.032 66.2524 47.6993 65.1283C47.3777 63.9892 46.5924 62.9612 45.3434 62.0444C43.7483 60.8736 42.1329 60.2667 40.4972 60.2238C38.8464 60.1699 37.6013 60.7147 36.7618 61.8584C36.0549 62.8215 35.8568 63.8801 36.1673 65.0343C36.4628 66.1774 37.2351 67.2074 38.4841 68.1242C39.9889 69.2287 41.6003 69.8095 43.3183 69.8665C45.0363 69.9235 46.3371 69.35 47.2208 68.1462Z" fill="white"/>
<path d="M64.4152 48.2495C64.6642 48.5276 65.0073 48.6589 65.4444 48.6433C65.8954 48.6153 66.1583 48.643 66.233 48.7264L66.289 48.789C66.426 48.942 66.3902 49.1119 66.1816 49.2986L64.4295 50.8677C64.2209 51.0545 64.0031 51.0491 63.776 50.8515L62.8003 49.846C62.9134 50.6718 62.8095 51.479 62.4884 52.2677C62.1688 53.0301 61.6891 53.6976 61.0495 54.2705C59.7284 55.4535 58.1592 55.9817 56.3419 55.8551C54.5247 55.7285 52.9249 54.8934 51.5426 53.3499C50.1852 51.8342 49.5365 50.1724 49.5965 48.3647C49.6565 46.5569 50.3818 45.0304 51.7723 43.7851C52.996 42.6893 54.4089 42.2384 56.011 42.4324L51.9389 37.8853C51.7147 37.635 51.4577 37.5018 51.1678 37.4858C50.8917 37.4574 50.6399 37.47 50.4122 37.5235C50.1984 37.5646 50.0479 37.5365 49.9608 37.4391L49.9234 37.3974C49.7989 37.2584 49.7973 37.0468 49.9187 36.7626L51.1039 34.6864C51.3856 34.1335 51.6945 34.0448 52.0307 34.4202L64.4152 48.2495ZM60.8711 53.1899C61.5385 52.5921 61.9068 51.7862 61.9759 50.7721C62.0465 49.7317 61.6646 48.7456 60.8303 47.814L60.8511 47.7953L59.8776 46.7502L58.0097 44.6643C57.3746 43.9551 56.4772 43.5686 55.3174 43.5046C54.159 43.4143 53.1697 43.7366 52.3492 44.4713C51.4454 45.2807 51.0321 46.3023 51.1095 47.5359C51.1884 48.7433 51.7439 49.9372 52.7761 51.1177C54.0433 52.5888 55.4521 53.5323 57.0023 53.9483C58.54 54.3503 59.8296 54.0975 60.8711 53.1899Z" fill="white"/>
<path d="M82.2088 36.8835C82.3953 37.2069 82.7041 37.406 83.135 37.4807C83.5821 37.5461 83.8337 37.6273 83.8896 37.7243L83.9316 37.7971C84.0342 37.9749 83.9642 38.1338 83.7216 38.2737L81.6841 39.4486C81.4415 39.5885 81.2295 39.5384 81.0479 39.2983L80.3001 38.1135C80.2408 38.9449 79.9729 39.7135 79.4964 40.4192C79.0268 41.0995 78.42 41.6541 77.6762 42.083C76.14 42.9689 74.4957 43.1629 72.7434 42.6651C70.991 42.1672 69.5973 41.0208 68.5622 39.2259C67.5458 37.4633 67.2529 35.7036 67.6836 33.9469C68.1143 32.1902 69.1382 30.8456 70.7553 29.9131C72.1783 29.0925 73.6537 28.942 75.1816 29.4615L72.1323 24.1737C71.9645 23.8827 71.7403 23.6995 71.4599 23.6242C71.1956 23.5395 70.9465 23.5 70.7127 23.5056C70.495 23.5018 70.3536 23.4433 70.2883 23.3301L70.2603 23.2816C70.1671 23.1199 70.2091 22.9125 70.3864 22.6594L71.9735 20.8715C72.3629 20.3884 72.6834 20.3652 72.9352 20.8018L82.2088 36.8835ZM77.724 40.9888C78.5002 40.5412 79.0264 39.8284 79.3027 38.8502C79.5859 37.8466 79.4151 36.803 78.7903 35.7196L78.8146 35.7056L78.077 34.4825L76.6782 32.0569C76.2026 31.2322 75.404 30.6693 74.2822 30.3681C73.1672 30.0413 72.1327 30.1531 71.1786 30.7032C70.1275 31.3094 69.5129 32.224 69.3348 33.4472C69.1636 34.6449 69.4615 35.9276 70.2286 37.2953C71.1661 38.9957 72.3505 40.2089 73.7819 40.9349C75.204 41.6447 76.518 41.6627 77.724 40.9888Z" fill="white"/>
<path d="M99.7612 27.9998C99.8193 27.7635 99.9634 27.636 100.194 27.6174C100.418 27.5811 100.554 27.6927 100.602 27.9522C100.724 28.9553 100.451 30.013 99.7823 31.1254C99.1138 32.2377 98.019 33.0508 96.4981 33.5644C94.7472 34.1557 93.0703 34.0324 91.4673 33.1946C89.882 32.3509 88.7489 30.9209 88.068 28.9048C87.4409 27.0478 87.5196 25.2973 88.3041 23.6532C89.0826 21.9914 90.3562 20.8618 92.1247 20.2646C93.628 19.7569 94.9591 19.7605 96.1181 20.2754C97.2888 20.7666 98.0444 21.5163 98.3849 22.5243C98.6417 23.2848 98.4023 23.9469 97.6666 24.5106L91.1336 29.4062C91.8225 30.4543 92.6577 31.177 93.6391 31.5746C94.6323 31.9484 95.6683 31.9532 96.7471 31.5889C98.5687 30.9737 99.5734 29.7773 99.7612 27.9998ZM92.0135 21.2478C90.9524 21.6062 90.2499 22.3557 89.9061 23.4963C89.5623 24.6369 89.6234 25.897 90.0893 27.2764C90.2684 27.807 90.4561 28.246 90.6523 28.5935L95.8513 24.4734C96.216 24.1532 96.3237 23.7721 96.1744 23.3299C95.9475 22.6579 95.405 22.0727 94.5471 21.5743C93.7069 21.07 92.8624 20.9611 92.0135 21.2478Z" fill="white"/>
<path d="M113.784 29.4531C112.083 29.6897 110.667 29.5379 109.537 28.9978C108.425 28.4551 107.817 27.814 107.715 27.0744C107.619 26.3903 107.932 25.9982 108.654 25.8979C108.968 25.8542 109.234 25.9396 109.452 26.1543C109.687 26.3479 109.901 26.6008 110.095 26.913C110.289 27.2252 110.511 27.5336 110.761 27.8381C111.029 28.1401 111.411 28.3791 111.907 28.5552C112.4 28.7128 112.988 28.744 113.672 28.6489C114.597 28.5203 115.325 28.2023 115.858 27.6948C116.388 27.1688 116.6 26.5267 116.494 25.7687C116.392 25.0292 116.016 24.4971 115.368 24.1727C114.738 23.8456 113.996 23.6567 113.141 23.606C112.283 23.5368 111.423 23.4491 110.56 23.343C109.697 23.2368 108.929 22.929 108.255 22.4197C107.599 21.9077 107.202 21.1526 107.063 20.1542C106.914 19.0818 107.279 18.117 108.159 17.2597C109.036 16.3838 110.233 15.8405 111.749 15.6297C113.357 15.406 114.708 15.5668 115.802 16.1121C116.895 16.6573 117.499 17.3367 117.612 18.1502C117.65 18.4275 117.581 18.6728 117.403 18.886C117.244 19.0965 117.026 19.2211 116.748 19.2597C116.416 19.306 116.105 19.1702 115.815 18.8523C115.526 18.5345 115.269 18.1745 115.043 17.7724C114.836 17.3677 114.468 17.0231 113.938 16.7387C113.409 16.4543 112.756 16.366 111.979 16.474C111.166 16.5871 110.514 16.9134 110.023 17.4527C109.552 17.9895 109.363 18.5999 109.458 19.284C109.559 20.0051 109.924 20.5291 110.553 20.8562C111.199 21.1622 111.951 21.3498 112.808 21.419C113.666 21.4882 114.517 21.5771 115.361 21.6859C116.224 21.792 116.985 22.1103 117.643 22.6408C118.316 23.1501 118.724 23.9133 118.866 24.9301C119.015 26.0025 118.622 26.9712 117.687 27.8362C116.767 28.6802 115.467 29.2192 113.784 29.4531Z" fill="white"/>
<path d="M132.424 28.5408C130.709 28.4561 129.347 28.043 128.337 27.3016C127.345 26.5612 126.868 25.8181 126.905 25.0723C126.939 24.3825 127.319 24.0555 128.047 24.0914C128.363 24.1071 128.609 24.2407 128.784 24.4923C128.978 24.7261 129.141 25.0145 129.274 25.3575C129.406 25.7005 129.567 26.0448 129.755 26.3905C129.962 26.7372 130.293 27.0432 130.747 27.3086C131.202 27.5553 131.775 27.6957 132.464 27.7298C133.397 27.7758 134.172 27.5992 134.789 27.1998C135.408 26.7818 135.736 26.1906 135.774 25.4262C135.811 24.6805 135.541 24.0878 134.965 23.6482C134.407 23.2094 133.713 22.8855 132.882 22.6762C132.052 22.4484 131.224 22.2019 130.396 21.9367C129.568 21.6715 128.87 21.2259 128.303 20.5998C127.755 19.9747 127.505 19.1587 127.555 18.152C127.608 17.0706 128.147 16.1908 129.171 15.5125C130.196 14.8155 131.473 14.5048 133.002 14.5803C134.624 14.6604 135.921 15.0702 136.894 15.8098C137.866 16.5493 138.333 17.3293 138.292 18.1496C138.278 18.4292 138.164 18.6572 137.95 18.8335C137.754 19.0108 137.517 19.0925 137.237 19.0787C136.901 19.0621 136.621 18.8707 136.396 18.5045C136.171 18.1383 135.986 17.7366 135.839 17.2995C135.711 16.8634 135.413 16.4562 134.946 16.078C134.479 15.6998 133.854 15.4914 133.071 15.4528C132.25 15.4122 131.549 15.6112 130.967 16.0497C130.403 16.4891 130.104 17.0537 130.07 17.7435C130.034 18.4706 130.295 19.0536 130.853 19.4923C131.43 19.9133 132.134 20.2377 132.963 20.4656C133.793 20.6934 134.613 20.9395 135.422 21.2037C136.25 21.4689 136.938 21.9234 137.485 22.5672C138.052 23.1932 138.311 24.019 138.26 25.0444C138.207 26.1257 137.64 27.0042 136.56 27.6797C135.499 28.3376 134.121 28.6246 132.424 28.5408Z" fill="white"/>
<path d="M180.181 27.0116C180.422 27.1109 180.501 27.2641 180.415 27.4713L180.384 27.549C180.327 27.6872 180.085 27.8097 179.657 27.9166C179.254 28.0134 178.909 28.2147 178.622 28.5205L170.857 37.1055C170.594 37.4012 170.307 37.4852 169.997 37.3575L169.504 37.1553C169.142 37.0063 168.98 36.7379 169.018 36.35L169.858 25.9793L163.139 33.9345C162.893 34.2372 162.607 34.3212 162.279 34.1864L161.942 34.0481C161.614 33.9133 161.452 33.6449 161.455 33.2428L161.606 21.5293C161.61 21.1272 161.524 20.7486 161.347 20.3933C161.187 20.0452 161.135 19.8021 161.192 19.6639L161.224 19.5862C161.309 19.379 161.481 19.3286 161.74 19.4351L165.004 20.7758C165.245 20.8752 165.324 21.0284 165.239 21.2356L165.207 21.3133C165.157 21.4342 165.025 21.5109 164.809 21.5436C164.594 21.5762 164.391 21.6541 164.199 21.7771C164.007 21.9001 163.899 22.1382 163.875 22.4916L163.443 31.9406L170.458 23.5618C170.641 23.3139 170.844 23.2361 171.069 23.3283L171.934 23.6536C172.141 23.7387 172.231 23.9371 172.204 24.2489L171.171 35.2366L177.408 28.2336C177.671 27.938 177.764 27.6632 177.686 27.4095C177.609 27.1557 177.483 26.9223 177.308 26.7092C177.15 26.5032 177.096 26.3397 177.146 26.2189L177.178 26.1412C177.263 25.934 177.435 25.8836 177.694 25.99L180.181 27.0116Z" fill="white"/>
<path d="M191.165 30.8198C190.681 30.5039 190.384 30.1214 190.276 29.6721C190.167 29.2228 190.256 28.7792 190.541 28.3412C190.826 27.9033 191.196 27.6431 191.651 27.5606C192.132 27.4726 192.607 27.5815 193.076 27.8871C193.529 28.1826 193.805 28.5628 193.903 29.0277C194.012 29.477 193.923 29.9206 193.638 30.3586C193.353 30.7965 192.983 31.0567 192.528 31.1392C192.073 31.2217 191.619 31.1153 191.165 30.8198ZM181.017 43.4237C180.72 43.2301 180.637 43.0316 180.77 42.8283L180.831 42.7345C180.902 42.625 181.039 42.5692 181.241 42.567C181.453 42.5492 181.675 42.5158 181.908 42.4667C182.15 42.402 182.348 42.2523 182.501 42.0177L187.055 35.0262C187.29 34.6665 187.353 34.262 187.244 33.8127C187.136 33.3634 187.107 33.0997 187.158 33.0215L187.189 32.9745C187.26 32.865 187.454 32.8241 187.77 32.8519L190.157 33.1371C190.469 33.2063 190.659 33.3078 190.727 33.4417C190.812 33.5857 190.793 33.7516 190.67 33.9393L184.542 43.3473C184.42 43.535 184.36 43.7298 184.362 43.9317C184.374 44.118 184.423 44.2831 184.507 44.4272C184.591 44.5713 184.65 44.7208 184.683 44.8758C184.726 45.0151 184.716 45.1317 184.655 45.2256L184.594 45.3194C184.462 45.5227 184.231 45.5174 183.903 45.3035L181.017 43.4237Z" fill="white"/>
<path d="M193.767 53.2878C192.918 52.5572 192.478 51.71 192.445 50.7462C192.439 49.7804 192.886 48.774 193.787 47.727L199.248 41.3813L197.847 40.1759C197.635 39.9932 197.62 39.7958 197.803 39.5835L197.986 39.3713C198.168 39.1591 198.366 39.1443 198.578 39.3269L199.342 39.9844C200.304 40.8124 201.42 40.603 202.69 39.3563C202.962 39.0977 203.204 39.0597 203.416 39.2423L203.628 39.425C203.855 39.6198 203.846 39.8587 203.603 40.1416L201.889 42.1761L204.818 44.6965C204.903 44.7696 204.943 44.8659 204.939 44.9853C204.961 45.1028 204.935 45.204 204.862 45.2889L204.679 45.5011C204.497 45.7133 204.299 45.7281 204.087 45.5455L201.158 43.025L195.679 49.392C195.192 49.958 194.935 50.5001 194.907 51.0183C194.88 51.5366 195.072 51.9723 195.482 52.3254C195.935 52.715 196.393 52.9123 196.857 52.9173C197.347 52.9203 197.777 52.749 198.148 52.4035C198.365 52.2946 198.546 52.3274 198.692 52.5018C198.864 52.6742 198.87 52.8524 198.712 53.0364C198.115 53.7296 197.337 54.1189 196.377 54.204C195.444 54.2872 194.574 53.9818 193.767 53.2878Z" fill="white"/>
<path d="M210.965 68.6201C210.699 68.8846 210.565 69.2223 210.562 69.6334C210.559 70.0445 210.5 70.2972 210.384 70.3913L210.297 70.462C210.123 70.6033 209.919 70.5291 209.683 70.2394L207.564 67.6321C207.328 67.3424 207.298 67.127 207.471 66.9857L207.558 66.915C207.66 66.8326 207.814 66.8154 208.021 66.8633C208.241 66.9257 208.468 66.9691 208.705 66.9935C208.955 67.0061 209.184 66.9169 209.389 66.7258L213.645 62.9056C214.843 61.835 215.574 60.7958 215.838 59.788C216.101 58.7801 215.92 57.8924 215.296 57.1247C214.649 56.328 213.837 55.9058 212.859 55.858C211.882 55.8103 210.959 56.1396 210.09 56.8461L204.811 61.1379C204.535 61.3616 204.414 61.7007 204.447 62.1552C204.494 62.598 204.46 62.8665 204.344 62.9607L204.279 63.0137C204.09 63.1667 203.873 63.0912 203.625 62.787L201.418 60.0711C201.194 59.7959 201.176 59.5818 201.365 59.4287L201.43 59.3757C201.546 59.2815 201.804 59.2883 202.204 59.3959C202.63 59.5063 202.981 59.4496 203.256 59.2259L215.532 49.2471C215.778 49.0469 215.915 48.8155 215.942 48.5529C215.996 48.293 216.007 48.0554 215.976 47.8399C215.971 47.6271 216.013 47.4854 216.1 47.4147L216.165 47.3617C216.324 47.2322 216.53 47.2335 216.781 47.3657L219.012 48.5115C219.252 48.6291 219.39 48.7694 219.426 48.9324C219.477 49.0836 219.415 49.2299 219.242 49.3711L212.167 55.0501C213.911 54.8586 215.361 55.4726 216.515 56.8921C217.433 58.0219 217.8 59.2872 217.616 60.688C217.458 62.0916 216.632 63.4726 215.138 64.8311L210.965 68.6201Z" fill="white"/>
<path d="M228.59 70.3713C228.303 69.8691 228.214 69.3933 228.322 68.9441C228.431 68.4949 228.712 68.1405 229.165 67.8809C229.619 67.6213 230.067 67.5586 230.509 67.6926C230.977 67.8336 231.35 68.1471 231.628 68.6332C231.897 69.103 231.969 69.5672 231.844 70.0257C231.736 70.4749 231.455 70.8293 231.001 71.0889C230.547 71.3485 230.099 71.4112 229.657 71.2772C229.215 71.1432 228.859 70.8412 228.59 70.3713ZM213.81 76.9574C213.633 76.6496 213.651 76.4354 213.861 76.3149L213.959 76.2593C214.072 76.1944 214.219 76.207 214.4 76.2972C214.596 76.3781 214.81 76.4498 215.039 76.5122C215.284 76.5653 215.528 76.5223 215.771 76.3833L223.014 72.2394C223.386 72.0262 223.627 71.695 223.736 71.2458C223.844 70.7965 223.939 70.5487 224.02 70.5024L224.069 70.4746C224.182 70.4097 224.373 70.4617 224.642 70.6306L226.636 71.9735C226.881 72.1771 227.004 72.3541 227.004 72.5046C227.014 72.6713 226.921 72.8103 226.727 72.9216L216.981 78.4976C216.787 78.6089 216.645 78.7548 216.554 78.9355C216.48 79.1068 216.448 79.2759 216.457 79.4426C216.467 79.6093 216.451 79.769 216.409 79.9219C216.384 80.0654 216.322 80.165 216.225 80.2207L216.128 80.2763C215.917 80.3968 215.715 80.2869 215.52 79.9467L213.81 76.9574Z" fill="white"/>
<path d="M225.678 98.5047C225.404 98.6252 225.208 98.7964 225.091 99.0185C224.974 99.2405 224.879 99.4442 224.808 99.6294C224.761 99.8257 224.676 99.9464 224.553 99.9914L224.448 100.03C224.221 100.114 224.039 99.9715 223.904 99.6035L222.755 96.4757C222.62 96.1078 222.667 95.882 222.894 95.7983L223 95.7597C223.122 95.7147 223.364 95.8048 223.725 96.0301C224.093 96.273 224.449 96.3213 224.793 96.1751L229.953 93.9819C231.487 93.3391 232.542 92.5839 233.118 91.7161C233.718 90.8594 233.844 89.9579 233.497 89.0117C233.143 88.0479 232.512 87.3849 231.603 87.0225C230.695 86.6602 229.715 86.672 228.663 87.0581L222.276 89.4035C222.066 89.4807 221.901 89.6008 221.782 89.7639C221.687 89.938 221.627 90.0993 221.602 90.2477C221.577 90.3961 221.531 90.5421 221.464 90.6859C221.422 90.8407 221.348 90.9374 221.243 90.976L221.138 91.0146C220.91 91.0983 220.729 90.9561 220.593 90.5882L219.387 87.3027C219.258 86.9522 219.308 86.7352 219.536 86.6515L219.641 86.6129C219.781 86.5614 220.026 86.6603 220.376 86.9096C220.733 87.1764 221.086 87.2455 221.436 87.1168L229.401 84.1923C229.733 84.0701 229.952 83.8804 230.057 83.6233C230.185 83.3773 230.266 83.1386 230.301 82.9072C230.342 82.6934 230.423 82.564 230.546 82.5189L230.625 82.49C230.782 82.4321 230.965 82.524 231.173 82.7657L232.844 84.3896C233.056 84.5899 233.141 84.7674 233.099 84.9222C233.056 85.0771 232.93 85.1931 232.72 85.2703L230.801 85.9749C231.678 86.0901 232.468 86.4265 233.17 86.9841C233.878 87.5592 234.396 88.2936 234.725 89.1872C235.226 90.554 235.163 91.8699 234.534 93.135C233.911 94.4176 232.65 95.4773 230.75 96.3142L225.678 98.5047Z" fill="white"/>
<path d="M241.456 131.833C241.462 132.094 241.354 132.228 241.13 132.233L241.046 132.236C240.878 132.24 240.65 132.078 240.361 131.749C240.073 131.44 239.712 131.197 239.278 131.022L227.467 126.038C226.731 125.74 226.211 125.52 225.909 125.378C225.588 125.237 225.105 124.989 224.461 124.632C223.817 124.294 223.351 123.98 223.064 123.688C222.757 123.398 222.476 123.013 222.221 122.534C221.948 122.074 221.804 121.583 221.79 121.061C221.764 120.072 222.013 119.244 222.537 118.576C223.043 117.91 223.594 117.568 224.191 117.553C224.527 117.544 224.8 117.63 225.01 117.811C225.22 117.993 225.33 118.251 225.339 118.587C225.347 118.904 225.223 119.178 224.968 119.409C224.694 119.64 224.39 119.807 224.057 119.909C223.724 120.03 223.43 120.215 223.175 120.464C222.902 120.733 222.771 121.063 222.781 121.455C222.81 122.556 224.314 123.656 227.293 124.754L238.992 119.069C239.397 118.853 239.735 118.564 240.006 118.202C240.277 117.859 240.496 117.685 240.664 117.681L240.748 117.678C240.972 117.673 241.088 117.81 241.095 118.09L241.19 121.728C241.197 121.99 241.089 122.123 240.865 122.129L240.781 122.131C240.65 122.135 240.499 122.055 240.326 121.891C240.173 121.746 240.021 121.638 239.87 121.567C239.737 121.496 239.458 121.54 239.033 121.701L229.65 125.98L239.02 129.74C239.36 129.88 239.631 129.901 239.834 129.803C240.055 129.703 240.21 129.569 240.299 129.398C240.407 129.227 240.514 129.057 240.622 128.886C240.73 128.715 240.839 128.628 240.951 128.625L241.035 128.623C241.259 128.617 241.375 128.754 241.382 129.034L241.456 131.833Z" fill="white"/>
<path d="M226.017 145.797C226.397 143.665 227.395 142.051 229.012 140.954C230.644 139.88 232.434 139.516 234.382 139.862C236.294 140.202 237.769 141.128 238.808 142.641C239.866 144.156 240.226 145.86 239.889 147.753C239.526 149.793 238.549 151.344 236.957 152.407C235.38 153.492 233.608 153.859 231.641 153.509C229.712 153.166 228.202 152.272 227.113 150.826C226.043 149.385 225.677 147.708 226.017 145.797ZM226.868 146.289C226.675 147.374 226.976 148.347 227.771 149.209C228.562 150.089 229.721 150.665 231.246 150.936C233.194 151.283 234.911 151.114 236.398 150.431C237.903 149.751 238.78 148.712 239.029 147.315C239.238 146.139 238.948 145.102 238.16 144.203C237.391 143.308 236.243 142.725 234.718 142.453C232.88 142.126 231.178 142.316 229.611 143.023C228.044 143.73 227.13 144.819 226.868 146.289Z" fill="white"/>
<path d="M220.762 171.588C220.329 171.414 219.969 171.359 219.681 171.424C219.393 171.489 219.197 171.601 219.092 171.76C219.005 171.926 218.895 172.073 218.763 172.201C218.631 172.329 218.487 172.362 218.332 172.299C217.968 172.152 218.003 171.542 218.436 170.469C218.966 169.153 219.862 168.78 221.122 169.348L221.298 169.359C220.165 167.976 219.976 166.35 220.73 164.48C221.316 163.026 222.298 162.064 223.676 161.593C225.064 161.146 226.701 161.303 228.588 162.064L233.184 163.918C233.565 164.071 233.952 164.036 234.344 163.812C234.729 163.605 234.974 163.523 235.078 163.565L235.156 163.596C235.364 163.68 235.441 163.862 235.388 164.143L234.898 166.481C234.796 166.983 234.598 167.175 234.304 167.056L227.485 164.276C225.978 163.669 224.705 163.457 223.665 163.641C222.635 163.85 221.921 164.447 221.523 165.434C221.146 166.369 221.195 167.295 221.671 168.211C222.14 169.145 222.963 169.849 224.14 170.324L229.697 172.565C230.06 172.712 230.442 172.664 230.841 172.423C231.233 172.199 231.49 172.111 231.611 172.16L231.689 172.191C231.897 172.275 231.975 172.457 231.922 172.738L231.421 175.102C231.326 175.587 231.131 175.77 230.837 175.652L220.762 171.588Z" fill="white"/>
<path d="M222.536 191.165C222.105 191.843 221.597 192.261 221.01 192.419C220.413 192.592 219.855 192.514 219.335 192.184C218.594 191.713 218.424 191.163 218.824 190.533C218.995 190.265 219.216 190.107 219.49 190.06C219.763 190.012 220.022 190.022 220.267 190.089C220.502 190.172 220.766 190.174 221.06 190.095C221.353 190.016 221.605 189.811 221.815 189.48C222.215 188.85 222.216 188.153 221.816 187.391C221.421 186.654 220.759 185.99 219.83 185.399L214.441 181.976C214.126 181.776 213.753 181.771 213.322 181.962C212.907 182.163 212.644 182.228 212.534 182.158L212.44 182.098C212.251 181.978 212.256 181.76 212.456 181.445L214.318 178.515C214.518 178.199 214.713 178.102 214.902 178.222L214.996 178.282C215.107 178.352 215.174 178.594 215.199 179.008C215.229 179.447 215.402 179.767 215.717 179.967L222.902 184.531C223.233 184.742 223.617 184.764 224.053 184.599C224.49 184.434 224.763 184.387 224.873 184.457L224.921 184.487C225.078 184.587 225.145 184.795 225.121 185.112L224.783 187.418C224.712 187.948 224.472 188.083 224.062 187.823L222.171 186.622C223.375 188.138 223.497 189.653 222.536 191.165Z" fill="white"/>
<path d="M201.952 194.889C203.108 193.619 204.294 192.83 205.508 192.522C206.71 192.228 207.587 192.333 208.139 192.835C208.65 193.3 208.66 193.802 208.17 194.34C207.956 194.575 207.697 194.679 207.392 194.654C207.088 194.655 206.761 194.598 206.413 194.482C206.064 194.366 205.696 194.271 205.309 194.197C204.91 194.136 204.463 194.196 203.97 194.378C203.49 194.572 203.017 194.925 202.552 195.435C201.924 196.126 201.567 196.836 201.483 197.567C201.412 198.31 201.659 198.939 202.225 199.455C202.777 199.957 203.406 200.126 204.112 199.961C204.805 199.81 205.497 199.48 206.187 198.972C206.89 198.476 207.607 197.994 208.339 197.523C209.07 197.053 209.857 196.798 210.701 196.759C211.532 196.733 212.321 197.06 213.066 197.738C213.867 198.467 214.203 199.443 214.075 200.664C213.961 201.898 213.389 203.081 212.358 204.213C211.265 205.414 210.123 206.154 208.934 206.435C207.745 206.715 206.846 206.579 206.239 206.026C206.032 205.837 205.929 205.604 205.929 205.327C205.917 205.063 206.005 204.827 206.193 204.62C206.419 204.372 206.745 204.278 207.171 204.337C207.597 204.396 208.025 204.508 208.455 204.673C208.873 204.852 209.377 204.881 209.966 204.761C210.555 204.641 211.113 204.291 211.641 203.712C212.194 203.104 212.486 202.436 212.518 201.708C212.538 200.994 212.292 200.404 211.782 199.939C211.243 199.449 210.628 199.279 209.934 199.431C209.242 199.609 208.544 199.945 207.841 200.441C207.137 200.936 206.426 201.412 205.708 201.868C204.976 202.339 204.188 202.58 203.343 202.593C202.499 202.633 201.698 202.307 200.939 201.616C200.138 200.887 199.821 199.891 199.986 198.628C200.153 197.391 200.808 196.145 201.952 194.889Z" fill="white"/>
<path d="M186.12 214.336C186.139 214.579 186.042 214.745 185.829 214.835C185.628 214.939 185.463 214.876 185.336 214.645C184.906 213.731 184.834 212.641 185.12 211.375C185.406 210.109 186.19 208.993 187.474 208.029C188.951 206.918 190.582 206.51 192.367 206.802C194.136 207.107 195.661 208.109 196.94 209.81C198.117 211.377 198.591 213.064 198.362 214.871C198.144 216.693 197.289 218.165 195.797 219.287C194.528 220.24 193.263 220.654 192.001 220.528C190.736 220.429 189.783 219.954 189.144 219.104C188.661 218.462 188.681 217.758 189.203 216.992L193.871 210.295C192.889 209.516 191.869 209.092 190.812 209.022C189.752 208.978 188.767 209.299 187.857 209.983C186.32 211.138 185.741 212.589 186.12 214.336ZM195.594 218.318C196.489 217.645 196.921 216.713 196.89 215.522C196.859 214.331 196.406 213.154 195.531 211.99C195.194 211.542 194.878 211.184 194.583 210.916L190.938 216.458C190.692 216.877 190.71 217.273 190.99 217.646C191.416 218.213 192.115 218.598 193.086 218.802C194.042 219.018 194.878 218.856 195.594 218.318Z" fill="white"/>
<path d="M176.806 215.301C177.119 215.134 177.333 215.157 177.447 215.371L177.487 215.445C177.557 215.577 177.51 215.824 177.345 216.188C177.172 216.577 177.169 216.928 177.337 217.241L184.765 231.113C184.915 231.392 185.113 231.583 185.358 231.685C185.595 231.812 185.819 231.893 186.028 231.929C186.238 231.965 186.37 232.032 186.422 232.131L186.449 232.18C186.519 232.312 186.475 232.505 186.315 232.76L184.892 234.729C184.698 234.96 184.513 235.07 184.337 235.058C184.17 235.063 184.038 234.975 183.942 234.794L175.164 218.404C174.997 218.091 174.695 217.903 174.259 217.84C173.816 217.803 173.559 217.718 173.488 217.586L173.448 217.512C173.334 217.298 173.441 217.103 173.77 216.927L176.806 215.301Z" fill="white"/>
<path d="M167.955 241.869C167.028 242.216 166.129 242.264 165.258 242.013C164.368 241.768 163.793 241.296 163.531 240.596C163.439 240.352 163.445 240.1 163.548 239.843C163.657 239.602 163.86 239.426 164.157 239.315C164.612 239.145 164.993 239.152 165.301 239.335C165.598 239.543 165.826 239.806 165.986 240.125C166.128 240.451 166.373 240.708 166.723 240.896C167.055 241.09 167.483 241.089 168.008 240.893C168.871 240.589 169.242 239.852 169.123 238.681C168.985 237.517 168.499 236.324 167.662 235.102L167.397 234.394L163.752 235.759C163.647 235.799 163.544 235.788 163.441 235.726C163.345 235.683 163.28 235.617 163.248 235.53L163.12 235.189C163.035 234.962 163.115 234.802 163.359 234.71L167.004 233.345L163.38 223.67C163.281 223.408 163.103 223.225 162.846 223.122C162.588 223.019 162.34 222.943 162.102 222.893C161.846 222.849 161.696 222.766 161.65 222.643L161.62 222.565C161.542 222.355 161.633 222.201 161.896 222.103L165.593 220.718C165.855 220.62 166.025 220.675 166.104 220.885L166.133 220.964C166.179 221.086 166.146 221.238 166.035 221.419C165.906 221.607 165.796 221.818 165.704 222.052C165.594 222.292 165.589 222.543 165.687 222.805L169.312 232.481L171.488 231.666C171.75 231.567 171.924 231.632 172.009 231.859L172.137 232.2C172.228 232.445 172.143 232.616 171.881 232.714L169.704 233.53L170.559 235.811C171.057 237.139 171.083 238.355 170.64 239.458C170.196 240.561 169.301 241.365 167.955 241.869Z" fill="white"/>
</svg>
