<svg width="249" height="225" viewBox="0 0 249 225" fill="none" xmlns="http://www.w3.org/2000/svg">
<path d="M48.8749 186.459C47.3218 186.413 46.0122 185.681 44.9461 184.264C43.88 182.847 43.4782 181.257 43.7407 179.495C43.977 177.728 44.9007 176.239 46.5117 175.027C48.1526 173.793 49.9009 173.26 51.7566 173.429C53.5862 173.594 55.0396 174.393 56.1169 175.825C57.2279 177.302 57.5251 178.877 57.0087 180.55L58.133 179.669C58.3716 179.49 58.5864 179.527 58.7771 179.78L60.2192 181.744C60.3875 181.968 60.3897 182.141 60.2256 182.265L60.1585 182.315C60.054 182.394 59.789 182.383 59.3632 182.283C58.9262 182.168 58.5586 182.222 58.2602 182.447L45.7301 191.873C45.4616 192.075 45.3014 192.313 45.2495 192.585C45.1976 192.858 45.1831 193.102 45.2058 193.319C45.2136 193.547 45.1653 193.7 45.0609 193.778L44.9937 193.829C44.8595 193.93 44.6448 193.893 44.3496 193.718L42.1695 192.59C41.908 192.459 41.7622 192.312 41.7321 192.148C41.6907 191.969 41.767 191.806 41.961 191.66L48.8749 186.459ZM55.6197 176.655C54.8342 175.61 53.8086 175.086 52.543 175.08C51.2513 175.071 49.9192 175.582 48.5469 176.615C46.9955 177.782 45.9931 179.073 45.5398 180.489C45.0602 181.901 45.2301 183.151 46.0493 184.24C46.6104 184.986 47.3819 185.421 48.364 185.547C49.3311 185.684 50.1951 185.466 50.9558 184.894L54.1331 182.503L54.4632 182.29L54.4464 182.268C55.3414 181.594 55.9094 180.688 56.1504 179.549C56.3802 178.395 56.2033 177.43 55.6197 176.655Z" fill="black"/>
<path d="M40.7063 156.307C40.4659 156.269 40.3268 156.136 40.2889 155.909C40.2339 155.688 40.3337 155.543 40.5883 155.473C41.5776 155.268 42.6545 155.451 43.819 156.024C44.9836 156.597 45.8856 157.62 46.525 159.092C47.2611 160.787 47.2789 162.469 46.5785 164.136C45.8707 165.787 44.5408 167.036 42.5889 167.883C40.7911 168.664 39.0401 168.732 37.336 168.089C35.6148 167.452 34.3824 166.278 33.6389 164.566C33.0069 163.11 32.8988 161.784 33.3147 160.586C33.706 159.378 34.3896 158.562 35.3655 158.138C36.1018 157.818 36.7816 158.001 37.405 158.687L42.8315 164.786C43.818 164.012 44.4682 163.119 44.782 162.108C45.0712 161.087 44.9891 160.054 44.5355 159.01C43.7697 157.246 42.4933 156.345 40.7063 156.307ZM34.628 164.594C35.0741 165.621 35.8799 166.259 37.0453 166.505C38.2108 166.752 39.4613 166.586 40.7968 166.006C41.3104 165.783 41.7322 165.559 42.062 165.334L37.5203 160.499C37.1706 160.163 36.7818 160.087 36.3537 160.273C35.7031 160.556 35.1655 161.145 34.7408 162.042C34.3087 162.922 34.2711 163.772 34.628 164.594Z" fill="black"/>
<path d="M37.2106 124.81C37.6008 124.757 37.9046 124.643 38.1219 124.466C38.3205 124.29 38.4441 124.108 38.4928 123.919C38.5228 123.731 38.5722 123.561 38.6409 123.409C38.7097 123.257 38.8187 123.178 38.9679 123.172C39.3596 123.157 39.5788 123.746 39.6255 124.94C39.6518 125.611 39.5499 126.11 39.3198 126.437C39.071 126.764 38.5841 126.97 37.8588 127.054C39.1922 127.712 39.8975 129.03 39.9749 131.007C40.0361 132.574 39.7123 133.847 39.0034 134.828C38.2945 135.808 37.2779 136.324 35.9536 136.376C34.6487 136.446 33.6139 136.019 32.8492 135.096C32.0838 134.155 31.6716 132.929 31.6125 131.418C31.5542 129.926 31.8824 128.764 32.5971 127.933L31.8439 128.018C30.1344 128.253 28.8702 128.648 28.0513 129.203C27.2323 129.758 26.844 130.577 26.8863 131.659C26.9119 132.312 27.1009 132.846 27.4534 133.262C27.8059 133.678 28.1813 133.962 28.5796 134.114C28.9771 134.248 29.3481 134.421 29.6926 134.631C30.0371 134.842 30.2152 135.097 30.2269 135.395C30.24 135.731 30.1573 136.005 29.9788 136.217C29.7996 136.411 29.5514 136.514 29.2344 136.527C28.451 136.557 27.7336 136.128 27.0823 135.238C26.4117 134.33 26.0479 133.149 25.991 131.694C25.9246 129.996 26.394 128.624 27.3992 127.576C28.3849 126.51 29.8068 125.847 31.6647 125.587L37.2106 124.81ZM39.0555 130.426C39.0197 129.512 38.7014 128.777 38.1006 128.222C37.4811 127.667 36.7338 127.425 35.8586 127.497L34.6039 127.658C33.9382 127.834 33.4112 128.209 33.0227 128.785C32.6335 129.342 32.4546 130.021 32.486 130.823C32.5232 131.775 32.8239 132.538 33.3882 133.114C33.9524 133.689 34.6636 133.961 35.5216 133.927C36.5661 133.886 37.4307 133.544 38.1155 132.901C38.7808 132.24 39.0941 131.415 39.0555 130.426Z" fill="black"/>
<path d="M41.2528 111.288C40.9279 112.974 40.3275 114.266 39.4516 115.161C38.5792 116.039 37.7764 116.407 37.0432 116.266C36.365 116.135 36.0947 115.712 36.2325 114.997C36.2925 114.686 36.4593 114.461 36.7329 114.324C36.9917 114.165 37.3002 114.044 37.6584 113.96C38.0166 113.877 38.3801 113.767 38.7488 113.629C39.1211 113.472 39.4706 113.188 39.7971 112.776C40.1054 112.36 40.3248 111.813 40.4555 111.135C40.6321 110.218 40.5661 109.426 40.2575 108.758C39.9306 108.087 39.3914 107.679 38.6398 107.534C37.9067 107.393 37.2819 107.577 36.7657 108.085C36.253 108.576 35.8347 109.218 35.5108 110.011C35.1686 110.8 34.808 111.586 34.4292 112.369C34.0503 113.151 33.5111 113.779 32.8116 114.253C32.1155 114.708 31.2726 114.84 30.2828 114.65C29.2197 114.445 28.4243 113.788 27.8966 112.679C27.3506 111.566 27.2224 110.258 27.5119 108.755C27.8192 107.16 28.4072 105.933 29.2761 105.074C30.145 104.215 30.9827 103.863 31.7892 104.019C32.0641 104.072 32.2738 104.217 32.4183 104.453C32.5663 104.672 32.6138 104.919 32.5608 105.194C32.4972 105.524 32.2684 105.774 31.8742 105.945C31.48 106.117 31.0563 106.244 30.6029 106.328C30.1531 106.393 29.7081 106.631 29.268 107.04C28.828 107.45 28.5338 108.039 28.3854 108.809C28.2301 109.616 28.3285 110.338 28.6808 110.976C29.0367 111.596 29.5537 111.971 30.2319 112.102C30.9467 112.24 31.5605 112.063 32.0732 111.573C32.5712 111.06 32.9912 110.409 33.3334 109.62C33.6756 108.83 34.0344 108.054 34.4097 107.289C34.7886 106.507 35.3352 105.89 36.0496 105.438C36.7491 104.965 37.6029 104.825 38.6111 105.019C39.6742 105.224 40.4643 105.909 40.9814 107.073C41.4837 108.215 41.5742 109.62 41.2528 111.288Z" fill="black"/>
<path d="M40.8054 74.8207C41.2163 74.1311 41.7128 73.699 42.2949 73.5244C42.8866 73.3337 43.447 73.396 43.9762 73.7114C44.7298 74.1605 44.9156 74.7057 44.5334 75.3472C44.3709 75.6198 44.1537 75.7837 43.8818 75.8389C43.6098 75.8942 43.3505 75.8918 43.1038 75.8317C42.8667 75.7556 42.6026 75.7612 42.3116 75.8485C42.0205 75.9358 41.7747 76.1479 41.574 76.4846C41.1918 77.126 41.2115 77.8223 41.6332 78.5733C42.0483 79.2987 42.729 79.9433 43.6751 80.5071L49.1592 83.775C49.48 83.9661 49.8529 83.9602 50.2781 83.7572C50.6872 83.5447 50.9479 83.4718 51.0601 83.5387L51.1563 83.5961C51.3488 83.7107 51.3494 83.9284 51.1583 84.2491L49.381 87.2318C49.1899 87.5525 48.9982 87.6555 48.8057 87.5408L48.7095 87.4835C48.5973 87.4166 48.5229 87.1767 48.4864 86.7639C48.4435 86.3254 48.2617 86.0106 47.9409 85.8195L40.6287 81.4623C40.292 81.2617 39.9078 81.25 39.4761 81.4274C39.0445 81.6048 38.7725 81.66 38.6603 81.5932L38.6122 81.5645C38.4518 81.4689 38.3792 81.2627 38.3942 80.9457L38.6657 78.6303C38.7217 78.0987 38.9582 77.9572 39.3751 78.2056L41.2994 79.3522C40.0528 77.8706 39.8881 76.3601 40.8054 74.8207Z" fill="black"/>
<path d="M63.6466 64.7236C63.9591 64.9632 64.2546 65.0978 64.533 65.1273C64.7978 65.1441 65.0142 65.1033 65.1824 65.0047C65.3368 64.8934 65.4922 64.8086 65.6486 64.75C65.805 64.6915 65.9378 64.7131 66.0472 64.8148C66.3342 65.0818 66.071 65.6527 65.2574 66.5275C64.7997 67.0196 64.374 67.2992 63.9802 67.3663C63.5727 67.4207 63.0834 67.2205 62.5122 66.7657C62.9859 68.175 62.5491 69.6041 61.2016 71.053C60.1337 72.2012 59.0023 72.8697 57.8072 73.0583C56.6121 73.2469 55.5293 72.8899 54.5588 71.9874C53.5892 71.1112 53.1621 70.0766 53.2773 68.8837C53.4053 67.6772 53.9841 66.5203 55.0138 65.4131C56.0308 64.3196 57.086 63.7332 58.1794 63.6539L57.5876 63.1801C56.2157 62.1335 55.0442 61.5156 54.0731 61.3263C53.1021 61.137 52.2479 61.4387 51.5106 62.2315C51.0656 62.7099 50.82 63.2208 50.7737 63.764C50.7273 64.3072 50.7905 64.7738 50.9631 65.1638C51.1484 65.5401 51.2879 65.9246 51.3814 66.3175C51.4749 66.7103 51.4199 67.0161 51.2165 67.2348C50.9877 67.4809 50.735 67.6155 50.4585 67.6387C50.1947 67.6483 49.9466 67.545 49.7142 67.3289C49.1401 66.795 48.939 65.9834 49.1108 64.8941C49.2817 63.7785 49.8629 62.6875 50.8544 61.6213C52.0113 60.3775 53.3156 59.7424 54.7676 59.7162C56.2185 59.6635 57.691 60.2045 59.1851 61.339L63.6466 64.7236ZM60.9649 69.9918C61.5878 69.322 61.8845 68.5782 61.8548 67.7604C61.8115 66.9298 61.4559 66.2295 60.788 65.6594L59.7891 64.8833C59.1953 64.535 58.5574 64.4261 57.8753 64.5565C57.2059 64.6732 56.5979 65.0254 56.0513 65.6132C55.4029 66.3103 55.0736 67.0619 55.0632 67.868C55.0528 68.6741 55.362 69.3695 55.9908 69.9542C56.7562 70.6661 57.6084 71.0381 58.5474 71.0701C59.4853 71.0757 60.2912 70.7162 60.9649 69.9918Z" fill="black"/>
<path d="M81.0302 52.1556C81.2349 52.4678 81.5546 52.6488 81.9891 52.6987C82.4392 52.7383 82.695 52.8049 82.7564 52.8986L82.8025 52.9688C82.9151 53.1405 82.8543 53.3032 82.6202 53.4567L80.6534 54.7466C80.4193 54.9001 80.2047 54.8623 80.0097 54.633L79.1951 53.493C79.1837 54.3265 78.9603 55.1092 78.5251 55.8411C78.0952 56.5472 77.5213 57.1356 76.8033 57.6066C75.3204 58.5791 73.6899 58.8671 71.9119 58.4706C70.1339 58.0741 68.6767 57.0095 67.5404 55.2769C66.4246 53.5755 66.0312 51.8355 66.3605 50.057C66.6897 48.2785 67.6347 46.8773 69.1956 45.8536C70.5692 44.9528 72.0336 44.7179 73.5888 45.1489L70.2412 40.0447C70.0569 39.7638 69.8227 39.5938 69.5383 39.5347C69.2696 39.4653 69.0187 39.4401 68.7856 39.4591C68.5681 39.4678 68.4235 39.4175 68.3518 39.3083L68.3211 39.2614C68.2188 39.1054 68.2488 38.8959 68.4113 38.6331L69.8932 36.7571C70.2542 36.2524 70.573 36.2108 70.8494 36.6323L81.0302 52.1556ZM76.7882 56.5114C77.5374 56.02 78.0219 55.2782 78.2417 54.2858C78.4668 53.2675 78.2364 52.2355 77.5505 51.1897L77.5739 51.1743L76.7674 49.9956L75.2318 47.6542C74.7097 46.8581 73.8801 46.3419 72.7428 46.1056C71.611 45.8433 70.5846 46.0142 69.6636 46.6182C68.649 47.2836 68.0879 48.232 67.9803 49.4634C67.878 50.669 68.249 51.9325 69.0933 53.2539C70.1268 54.8977 71.3788 56.041 72.8495 56.6837C74.31 57.3108 75.6229 57.2534 76.7882 56.5114Z" fill="black"/>
<path d="M85.1799 34.7231C84.6439 34.9411 84.1605 34.9665 83.7297 34.7991C83.2989 34.6318 82.985 34.3061 82.788 33.8219C82.5911 33.3378 82.5884 32.8854 82.7801 32.4649C82.982 32.02 83.3423 31.6921 83.8611 31.481C84.3625 31.2771 84.8321 31.2674 85.27 31.452C85.7008 31.6193 86.0147 31.9451 86.2116 32.4292C86.4086 32.9134 86.4112 33.3657 86.2195 33.7863C86.0279 34.2068 85.6813 34.5191 85.1799 34.7231ZM89.7423 50.2483C89.4138 50.3819 89.2038 50.3363 89.1124 50.1116L89.0702 50.0078C89.0209 49.8868 89.053 49.7427 89.1664 49.5757C89.2728 49.3913 89.3721 49.1897 89.4645 48.9708C89.5497 48.7346 89.5396 48.4868 89.4341 48.2274L86.29 40.4985C86.1282 40.1008 85.8319 39.8183 85.4011 39.6509C84.9703 39.4836 84.7373 39.3567 84.7021 39.2703L84.681 39.2184C84.6318 39.0974 84.7087 38.9149 84.9118 38.6711L86.508 36.8731C86.7424 36.6568 86.9342 36.5586 87.0834 36.5786C87.2499 36.5915 87.3753 36.7017 87.4597 36.9091L91.6906 47.3095C91.775 47.517 91.9007 47.6775 92.0677 47.7909C92.2278 47.887 92.391 47.9415 92.5575 47.9544C92.7239 47.9673 92.8801 48.0045 93.0261 48.066C93.165 48.1103 93.2555 48.1843 93.2977 48.288L93.3399 48.3918C93.4314 48.6166 93.2956 48.8028 92.9324 48.9505L89.7423 50.2483Z" fill="black"/>
<path d="M110.854 41.8949C110.967 42.2719 111.129 42.5537 111.338 42.7402C111.543 42.9085 111.742 43.0017 111.936 43.0198C112.127 43.0197 112.302 43.0415 112.463 43.0854C112.625 43.1292 112.72 43.2243 112.749 43.3707C112.826 43.755 112.279 44.0648 111.108 44.2999C110.449 44.4322 109.94 44.4106 109.581 44.2351C109.219 44.0413 108.938 43.5931 108.74 42.8904C108.302 44.3111 107.113 45.2162 105.173 45.6056C103.636 45.9142 102.327 45.7962 101.246 45.2515C100.166 44.7068 99.4955 43.7848 99.2346 42.4854C98.9591 41.208 99.2164 40.1187 100.007 39.2175C100.815 38.3127 101.96 37.7115 103.443 37.4139C104.907 37.12 106.106 37.2601 107.04 37.8341L106.836 37.104C106.333 35.4533 105.743 34.2676 105.065 33.5469C104.388 32.8262 103.518 32.5724 102.456 32.7855C101.816 32.9141 101.318 33.1854 100.963 33.5993C100.609 34.0132 100.387 34.4289 100.3 34.8463C100.231 35.26 100.119 35.6536 99.9658 36.0271C99.8123 36.4007 99.5891 36.6168 99.2963 36.6756C98.9669 36.7417 98.6832 36.7035 98.4451 36.5609C98.2253 36.4146 98.0842 36.1859 98.0218 35.8748C97.8675 35.1061 98.1781 34.3298 98.9536 33.5458C99.7438 32.7399 100.853 32.1936 102.28 31.907C103.946 31.5727 105.375 31.8188 106.569 32.6453C107.778 33.4498 108.658 34.7487 109.208 36.5421L110.854 41.8949ZM105.601 44.6059C106.497 44.4259 107.172 43.9952 107.626 43.314C108.076 42.6145 108.196 41.8383 107.987 40.9854L107.629 39.7721C107.35 39.1427 106.896 38.6817 106.266 38.3893C105.654 38.0932 104.955 38.0242 104.168 38.1822C103.235 38.3695 102.529 38.7874 102.049 39.4357C101.57 40.084 101.415 40.8291 101.584 41.671C101.79 42.6959 102.265 43.4954 103.008 44.0696C103.766 44.6219 104.631 44.8006 105.601 44.6059Z" fill="black"/>
<path d="M132.756 41.8415C132.76 42.1408 132.842 42.3877 133 42.5824C133.159 42.777 133.31 42.9433 133.453 43.0811C133.615 43.2012 133.693 43.3265 133.687 43.457L133.681 43.5688C133.669 43.8112 133.467 43.9228 133.076 43.9036L129.748 43.7406C129.356 43.7214 129.167 43.5907 129.178 43.3483L129.184 43.2364C129.19 43.1059 129.368 42.9184 129.716 42.6738C130.083 42.4301 130.266 42.1214 130.266 41.7476L130.26 36.1406C130.267 34.4776 129.983 33.2115 129.409 32.3424C128.855 31.4555 128.074 30.9875 127.067 30.9381C126.042 30.8879 125.185 31.2104 124.497 31.9056C123.808 32.6007 123.437 33.5076 123.382 34.6263L123.049 41.4221C123.038 41.6459 123.085 41.8444 123.188 42.0177C123.312 42.1732 123.437 42.2915 123.563 42.3724C123.69 42.4534 123.807 42.5526 123.913 42.6699C124.039 42.7695 124.1 42.8753 124.094 42.9871L124.089 43.099C124.077 43.3414 123.875 43.453 123.483 43.4338L119.988 43.2626C119.615 43.2443 119.434 43.114 119.446 42.8716L119.452 42.7597C119.459 42.6106 119.646 42.4235 120.012 42.1985C120.396 41.9744 120.598 41.6759 120.616 41.303L121.031 32.8291C121.049 32.4749 120.959 32.1995 120.763 32.003C120.587 31.7888 120.399 31.6208 120.199 31.4988C120.018 31.3778 119.931 31.2521 119.938 31.1216L119.942 31.0377C119.95 30.8699 120.106 30.7374 120.41 30.6401L122.556 29.736C122.824 29.6183 123.021 29.6093 123.146 29.7089C123.272 29.8085 123.33 29.9702 123.319 30.1939L123.219 32.2354C123.667 31.4725 124.285 30.8767 125.073 30.448C125.879 30.0202 126.757 29.8296 127.708 29.8762C129.162 29.9474 130.349 30.5195 131.268 31.5924C132.206 32.6663 132.69 34.2412 132.719 36.3171L132.756 41.8415Z" fill="black"/>
<path d="M145.544 46.9601C144.463 46.665 143.701 46.0893 143.258 45.2329C142.837 44.3634 142.809 43.2624 143.173 41.9299L145.379 33.8536L143.596 33.3668C143.326 33.293 143.228 33.1211 143.301 32.851L143.375 32.5808C143.449 32.3107 143.621 32.2126 143.891 32.2863L144.863 32.5519C146.088 32.8863 147.006 32.2178 147.617 30.5464C147.751 30.1961 147.953 30.0579 148.224 30.1316L148.494 30.2054C148.782 30.2841 148.877 30.5035 148.778 30.8636L148.105 33.437L151.832 34.455C151.94 34.4845 152.018 34.5541 152.065 34.6638C152.136 34.7604 152.156 34.8627 152.127 34.9708L152.053 35.2409C151.979 35.511 151.807 35.6092 151.537 35.5354L147.81 34.5175L145.597 42.6207C145.4 43.341 145.401 43.9411 145.598 44.4208C145.796 44.9006 146.156 45.2118 146.679 45.3544C147.255 45.5117 147.753 45.4931 148.174 45.2984C148.618 45.0906 148.933 44.751 149.12 44.2796C149.269 44.0881 149.447 44.0398 149.653 44.1349C149.882 44.2168 149.965 44.3748 149.901 44.6089C149.66 45.4913 149.124 46.1771 148.294 46.6663C147.487 47.1424 146.57 47.2404 145.544 46.9601Z" fill="black"/>
<path d="M175.956 59.717C175.76 60.059 175.667 60.3699 175.675 60.6498C175.694 60.9144 175.764 61.1234 175.885 61.2766C176.016 61.4147 176.121 61.5572 176.2 61.7042C176.279 61.8513 176.275 61.9858 176.189 62.1079C175.964 62.4284 175.363 62.2447 174.386 61.5567C173.836 61.1697 173.502 60.7857 173.382 60.4045C173.273 60.0082 173.405 59.4962 173.779 58.8688C172.447 59.5286 170.972 59.2888 169.354 58.1494C168.072 57.2465 167.257 56.2157 166.908 55.057C166.56 53.8984 166.768 52.7773 167.531 51.6937C168.268 50.6147 169.235 50.0517 170.433 50.0048C171.646 49.9685 172.87 50.3858 174.106 51.2565C175.327 52.1164 176.051 53.0827 176.277 54.1554L176.667 53.505C177.518 52.0043 177.972 50.76 178.028 49.7723C178.085 48.7846 177.671 47.979 176.785 47.3555C176.251 46.9793 175.712 46.8049 175.167 46.8324C174.623 46.8599 174.169 46.9855 173.806 47.2092C173.458 47.4437 173.096 47.6338 172.719 47.7795C172.343 47.9252 172.032 47.9121 171.788 47.7401C171.514 47.5466 171.346 47.3144 171.286 47.0436C171.241 46.7835 171.309 46.5237 171.492 46.2643C171.944 45.6233 172.721 45.3144 173.823 45.3375C174.952 45.3561 176.111 45.7846 177.301 46.623C178.69 47.6012 179.496 48.8078 179.718 50.2429C179.966 51.6735 179.629 53.2055 178.706 54.8391L175.956 59.717ZM170.373 57.7716C171.121 58.2983 171.898 58.4917 172.705 58.3519C173.522 58.1967 174.168 57.7498 174.642 57.011L175.276 55.9164C175.541 55.281 175.563 54.6342 175.342 53.976C175.135 53.3285 174.704 52.7737 174.048 52.3115C173.27 51.7633 172.481 51.5384 171.681 51.637C170.88 51.7356 170.233 52.1359 169.739 52.8379C169.137 53.6926 168.883 54.5872 168.978 55.5218C169.1 56.452 169.565 57.2019 170.373 57.7716Z" fill="black"/>
<path d="M184.243 71.141C183.1 69.8587 182.439 68.5976 182.26 67.3577C182.092 66.1317 182.288 65.2703 182.845 64.7736C183.361 64.3142 183.861 64.3563 184.345 64.8999C184.556 65.1368 184.633 65.4057 184.576 65.7065C184.545 66.0088 184.454 66.3275 184.303 66.6625C184.151 66.9975 184.018 67.3534 183.904 67.7302C183.802 68.121 183.816 68.5713 183.945 69.0812C184.088 69.5786 184.389 70.0852 184.849 70.6009C185.47 71.2978 186.139 71.7265 186.857 71.8869C187.589 72.0349 188.24 71.8544 188.812 71.3453C189.369 70.8486 189.603 70.2407 189.512 69.5215C189.434 68.8163 189.178 68.0942 188.745 67.3552C188.325 66.6038 187.92 65.84 187.528 65.0638C187.137 64.2876 186.966 63.4778 187.014 62.6345C187.075 61.8051 187.482 61.0551 188.235 60.3846C189.043 59.6644 190.048 59.4316 191.25 59.686C192.466 59.9281 193.582 60.6206 194.601 61.7635C195.681 62.9761 196.298 64.1884 196.453 65.4005C196.608 66.6126 196.379 67.4918 195.766 68.0381C195.556 68.2244 195.314 68.3029 195.038 68.2738C194.774 68.2586 194.55 68.1464 194.363 67.9374C194.14 67.6865 194.08 67.3525 194.183 66.9354C194.287 66.5182 194.443 66.1042 194.651 65.6931C194.873 65.2961 194.954 64.7984 194.896 64.2C194.838 63.6017 194.549 63.0099 194.027 62.4245C193.481 61.8112 192.847 61.4507 192.126 61.343C191.418 61.2492 190.805 61.432 190.29 61.8914C189.746 62.3757 189.514 62.9705 189.592 63.6757C189.696 64.3825 189.958 65.1115 190.378 65.8629C190.797 66.6143 191.196 67.3711 191.575 68.1334C191.967 68.9096 192.125 69.7186 192.05 70.5605C192.001 71.4038 191.594 72.167 190.827 72.8499C190.019 73.5701 188.995 73.782 187.756 73.4857C186.544 73.191 185.372 72.4094 184.243 71.141Z" fill="black"/>
<path d="M199.779 96.3504C199.356 95.3131 199.351 94.3581 199.761 93.4856C200.196 92.6233 201.053 91.9317 202.333 91.411L210.087 88.2547L209.39 86.543C209.285 86.2837 209.362 86.1012 209.621 85.9957L209.88 85.8901C210.14 85.7846 210.322 85.8615 210.428 86.1208L210.808 87.0544C211.286 88.2301 212.375 88.5528 214.074 88.0226C214.434 87.9164 214.666 87.993 214.772 88.2523L214.877 88.5116C214.99 88.7883 214.873 88.997 214.528 89.1377L212.075 90.1665L213.531 93.7454C213.573 93.8491 213.565 93.9531 213.507 94.0575C213.473 94.1721 213.404 94.2505 213.301 94.2927L213.041 94.3983C212.782 94.5038 212.599 94.4269 212.494 94.1676L211.037 90.5887L203.257 93.7556C202.565 94.0371 202.089 94.4022 201.829 94.8509C201.568 95.2997 201.539 95.7747 201.744 96.2761C201.969 96.8294 202.287 97.214 202.697 97.4299C203.132 97.656 203.593 97.7 204.081 97.5619C204.323 97.5639 204.47 97.6756 204.52 97.8972C204.594 98.129 204.518 98.2906 204.294 98.3821C203.447 98.7269 202.576 98.7184 201.683 98.3563C200.815 98.0045 200.18 97.3359 199.779 96.3504Z" fill="black"/>
<path d="M207.557 117.889C207.196 117.99 206.914 118.22 206.712 118.578C206.51 118.936 206.335 119.128 206.188 119.154L206.078 119.173C205.857 119.212 205.715 119.048 205.65 118.68L205.065 115.372C205 115.004 205.078 114.801 205.299 114.762L205.409 114.742C205.538 114.72 205.681 114.78 205.839 114.922C206 115.083 206.178 115.232 206.373 115.368C206.586 115.501 206.828 115.534 207.101 115.467L212.677 114.198C214.245 113.845 215.389 113.293 216.109 112.54C216.829 111.787 217.103 110.924 216.931 109.949C216.753 108.938 216.248 108.175 215.418 107.658C214.587 107.141 213.62 106.98 212.517 107.175L205.817 108.358C205.468 108.42 205.197 108.657 205.005 109.07C204.83 109.48 204.67 109.698 204.523 109.724L204.44 109.739C204.201 109.781 204.048 109.609 203.979 109.223L203.371 105.776C203.309 105.427 203.398 105.231 203.637 105.189L203.719 105.174C203.866 105.148 204.089 105.28 204.386 105.568C204.705 105.872 205.039 105.993 205.389 105.932L220.967 103.18C221.28 103.125 221.512 102.989 221.663 102.773C221.836 102.572 221.962 102.37 222.039 102.166C222.139 101.978 222.244 101.874 222.354 101.855L222.437 101.84C222.639 101.805 222.818 101.906 222.974 102.144L224.366 104.229C224.518 104.449 224.571 104.639 224.523 104.799C224.494 104.955 224.369 105.053 224.148 105.092L215.205 106.615C216.823 107.296 217.791 108.537 218.109 110.339C218.362 111.772 218.067 113.056 217.225 114.191C216.405 115.34 215.011 116.146 213.046 116.607L207.557 117.889Z" fill="black"/>
<path d="M209.219 137.155C209.416 137.298 209.48 137.48 209.411 137.7C209.36 137.921 209.205 138.005 208.947 137.952C207.972 137.687 207.095 137.036 206.316 135.998C205.537 134.959 205.197 133.639 205.294 132.036C205.405 130.192 206.151 128.685 207.531 127.515C208.91 126.365 210.661 125.854 212.785 125.982C214.742 126.101 216.334 126.833 217.561 128.179C218.807 129.526 219.374 131.131 219.261 132.995C219.165 134.578 218.661 135.81 217.747 136.69C216.851 137.589 215.872 138.007 214.81 137.943C214.009 137.894 213.486 137.423 213.241 136.529L211.166 128.633C209.936 128.877 208.952 129.378 208.214 130.138C207.493 130.917 207.099 131.875 207.03 133.011C206.914 134.93 207.643 136.312 209.219 137.155ZM218.392 132.521C218.46 131.403 218.03 130.47 217.103 129.722C216.176 128.974 214.986 128.556 213.532 128.468C212.973 128.434 212.496 128.443 212.1 128.494L213.959 134.862C214.118 135.32 214.43 135.563 214.896 135.592C215.604 135.634 216.351 135.352 217.135 134.745C217.919 134.157 218.338 133.416 218.392 132.521Z" fill="black"/>
<path d="M198.298 160.341C199.006 158.777 199.891 157.661 200.951 156.993C202.004 156.343 202.87 156.172 203.55 156.48C204.179 156.765 204.344 157.239 204.044 157.902C203.913 158.191 203.698 158.371 203.4 158.441C203.111 158.535 202.783 158.581 202.415 158.579C202.048 158.576 201.669 158.599 201.278 158.648C200.879 158.713 200.473 158.908 200.06 159.233C199.663 159.566 199.322 160.047 199.037 160.676C198.652 161.526 198.532 162.312 198.677 163.033C198.839 163.762 199.268 164.285 199.965 164.6C200.646 164.908 201.296 164.875 201.916 164.5C202.529 164.142 203.085 163.616 203.585 162.92C204.101 162.231 204.635 161.551 205.186 160.878C205.736 160.205 206.407 159.72 207.197 159.422C207.98 159.142 208.831 159.209 209.749 159.625C210.735 160.072 211.356 160.896 211.611 162.097C211.883 163.306 211.703 164.608 211.072 166.003C210.402 167.482 209.544 168.538 208.5 169.172C207.455 169.805 206.558 169.952 205.81 169.613C205.555 169.498 205.384 169.308 205.299 169.044C205.206 168.797 205.217 168.546 205.333 168.291C205.471 167.985 205.752 167.794 206.176 167.72C206.599 167.645 207.04 167.62 207.501 167.644C207.954 167.685 208.442 167.557 208.965 167.262C209.488 166.966 209.912 166.461 210.235 165.747C210.574 164.998 210.646 164.273 210.452 163.57C210.25 162.885 209.835 162.399 209.206 162.114C208.542 161.814 207.904 161.843 207.292 162.201C206.688 162.583 206.128 163.118 205.611 163.807C205.095 164.495 204.565 165.167 204.022 165.823C203.472 166.495 202.797 166.968 201.997 167.241C201.206 167.539 200.343 167.476 199.408 167.053C198.422 166.606 197.813 165.757 197.581 164.504C197.358 163.276 197.597 161.888 198.298 160.341Z" fill="black"/>
<path d="M186.719 183.459C186.351 183.173 186.019 183.021 185.724 183.005C185.429 182.989 185.21 183.043 185.066 183.167C184.937 183.303 184.791 183.415 184.629 183.502C184.467 183.589 184.32 183.58 184.187 183.477C183.878 183.237 184.078 182.66 184.788 181.746C185.658 180.625 186.622 180.511 187.678 181.403L187.845 181.462C187.134 179.822 187.396 178.206 188.633 176.614C189.595 175.375 190.803 174.718 192.257 174.642C193.714 174.592 195.246 175.191 196.853 176.44L200.766 179.48C201.091 179.732 201.472 179.804 201.911 179.696C202.338 179.602 202.596 179.59 202.684 179.658L202.751 179.71C202.928 179.847 202.952 180.044 202.825 180.299L201.713 182.414C201.478 182.87 201.235 183 200.984 182.805L195.186 178.265C193.904 177.269 192.737 176.717 191.686 176.609C190.638 176.528 189.788 176.908 189.135 177.748C188.516 178.544 188.311 179.448 188.517 180.459C188.713 181.486 189.312 182.388 190.314 183.167L195.046 186.843C195.355 187.084 195.735 187.142 196.185 187.019C196.624 186.911 196.895 186.897 196.998 186.977L197.065 187.029C197.242 187.166 197.266 187.363 197.139 187.618L196.01 189.755C195.786 190.196 195.549 190.319 195.298 190.124L186.719 183.459Z" fill="black"/>
<path d="M169.973 197.542C169.776 197.317 169.553 197.182 169.306 197.136C169.059 197.091 168.837 197.063 168.639 197.05C168.437 197.064 168.297 197.02 168.217 196.916L168.148 196.828C168 196.636 168.081 196.42 168.391 196.18L171.029 194.144C171.339 193.905 171.569 193.881 171.717 194.073L171.785 194.162C171.865 194.265 171.852 194.523 171.746 194.935C171.625 195.359 171.686 195.713 171.928 195.997L175.572 200.259C176.646 201.528 177.684 202.307 178.685 202.596C179.682 202.911 180.58 202.76 181.378 202.144C182.19 201.517 182.633 200.715 182.705 199.74C182.778 198.764 182.472 197.833 181.787 196.947L177.63 191.561C177.493 191.383 177.329 191.262 177.138 191.198C176.943 191.159 176.771 191.151 176.622 191.171C176.473 191.192 176.32 191.192 176.163 191.172C176.002 191.178 175.888 191.137 175.819 191.048L175.751 190.959C175.603 190.767 175.684 190.551 175.994 190.312L178.765 188.173C179.06 187.945 179.282 187.927 179.43 188.119L179.499 188.208C179.59 188.326 179.57 188.59 179.437 188.998C179.29 189.419 179.33 189.777 179.558 190.072L184.742 196.788C184.959 197.069 185.206 197.22 185.482 197.243C185.755 197.291 186.008 197.297 186.239 197.26C186.455 197.235 186.603 197.274 186.683 197.377L186.734 197.444C186.837 197.577 186.804 197.779 186.636 198.05L185.589 200.131C185.462 200.394 185.319 200.529 185.158 200.535C184.998 200.541 184.849 200.455 184.712 200.278L183.463 198.66C183.617 199.531 183.534 200.385 183.213 201.223C182.878 202.071 182.333 202.786 181.58 203.368C180.427 204.257 179.153 204.592 177.757 204.373C176.347 204.165 174.957 203.28 173.587 201.72L169.973 197.542Z" fill="black"/>
</svg>
