<svg width="245" height="231" viewBox="0 0 245 231" fill="none" xmlns="http://www.w3.org/2000/svg">
<path d="M69.1779 213.987C67.7122 214.503 66.227 214.292 64.7224 213.353C63.2178 212.415 62.2709 211.076 61.8816 209.337C61.4665 207.604 61.7925 205.882 62.8595 204.172C63.9463 202.43 65.3858 201.304 67.178 200.793C68.9445 200.289 70.588 200.512 72.1084 201.46C73.6763 202.438 74.5204 203.801 74.6407 205.548L75.3727 204.321C75.5308 204.068 75.7444 204.025 76.0137 204.193L78.0657 205.506C78.3033 205.654 78.3677 205.816 78.259 205.99L78.2146 206.061C78.1454 206.172 77.8942 206.257 77.4609 206.317C77.0118 206.367 76.6885 206.55 76.4909 206.867L68.192 220.171C68.0141 220.456 67.9501 220.735 67.9998 221.008C68.0495 221.281 68.1239 221.514 68.223 221.708C68.3122 221.918 68.3222 222.078 68.2531 222.189L68.2086 222.26C68.1197 222.403 67.906 222.445 67.5676 222.388L65.1277 222.12C64.8368 222.093 64.6478 222.008 64.5606 221.866C64.4576 221.713 64.4703 221.534 64.5987 221.328L69.1779 213.987ZM71.943 202.413C70.8344 201.721 69.6886 201.601 68.5058 202.051C67.2972 202.507 66.2384 203.464 65.3295 204.921C64.302 206.568 63.8315 208.133 63.9178 209.617C63.9785 211.107 64.5869 212.213 65.7431 212.934C66.5349 213.428 67.4116 213.557 68.373 213.32C69.3246 213.1 70.0523 212.586 70.5561 211.778L72.6605 208.405L72.8917 208.087L72.868 208.072C73.4608 207.122 73.6646 206.072 73.4796 204.922C73.2788 203.763 72.7666 202.927 71.943 202.413Z" fill="white"/>
<path d="M50.3872 189.061C50.1506 189.118 49.9711 189.049 49.8488 188.853C49.7135 188.671 49.75 188.498 49.9583 188.336C50.7929 187.767 51.8578 187.523 53.153 187.605C54.4483 187.688 55.6736 188.286 56.829 189.4C58.1591 190.683 58.8206 192.229 58.8136 194.038C58.7931 195.834 58.0442 197.497 56.5669 199.029C55.2061 200.44 53.6154 201.175 51.7947 201.234C49.961 201.307 48.3724 200.695 47.0289 199.399C45.8869 198.297 45.2781 197.114 45.2025 195.848C45.1005 194.582 45.4188 193.567 46.1575 192.801C46.7147 192.223 47.4128 192.131 48.2516 192.525L55.6028 196.076C56.2167 194.983 56.4746 193.909 56.3764 192.854C56.2518 191.8 55.7797 190.878 54.9602 190.088C53.5764 188.753 52.052 188.411 50.3872 189.061ZM47.9532 199.046C48.7593 199.823 49.7479 200.102 50.9188 199.883C52.0898 199.664 53.1807 199.031 54.1916 197.983C54.5803 197.58 54.8839 197.211 55.1023 196.877L49.0532 194.155C48.6012 193.978 48.2132 194.057 47.8892 194.393C47.3967 194.904 47.1264 195.655 47.0783 196.646C47.0167 197.624 47.3083 198.424 47.9532 199.046Z" fill="white"/>
<path d="M23.5323 165.265C23.4132 165.033 23.4534 164.865 23.6528 164.763L23.7275 164.725C23.8771 164.648 24.153 164.696 24.5554 164.867C24.9492 165.022 25.3798 165.085 25.847 165.055L38.6517 164.444C39.4444 164.395 40.0076 164.369 40.3415 164.365C40.692 164.354 41.2348 164.369 41.9699 164.412C42.6965 164.439 43.2524 164.521 43.6378 164.659C44.0397 164.789 44.4593 165.015 44.8965 165.336C45.3418 165.632 45.6836 166.013 45.9218 166.478C46.3727 167.359 46.5061 168.213 46.322 169.042C46.1546 169.861 45.805 170.407 45.2733 170.68C44.9742 170.833 44.6908 170.873 44.4229 170.8C44.1551 170.728 43.9446 170.542 43.7914 170.243C43.6468 169.96 43.6398 169.66 43.7703 169.341C43.9174 169.014 44.1193 168.733 44.3758 168.497C44.6238 168.244 44.8089 167.95 44.9309 167.615C45.061 167.255 45.0367 166.9 44.8581 166.551C44.3561 165.571 42.5245 165.229 39.3634 165.527L31.2712 175.71C30.9992 176.08 30.8195 176.487 30.7319 176.93C30.6358 177.357 30.513 177.608 30.3634 177.685L30.2887 177.723C30.0893 177.825 29.9258 177.752 29.7982 177.502L28.1392 174.262C28.0201 174.03 28.0602 173.862 28.2596 173.76L28.3344 173.722C28.4507 173.662 28.6219 173.669 28.848 173.742C29.049 173.807 29.2329 173.839 29.3999 173.837C29.5502 173.844 29.7825 173.683 30.0965 173.354L36.7077 165.44L26.6334 166.1C26.2663 166.12 26.0126 166.218 25.8724 166.395C25.7155 166.58 25.6338 166.769 25.6273 166.961C25.6042 167.161 25.5811 167.362 25.558 167.562C25.5348 167.763 25.4734 167.889 25.3737 167.94L25.299 167.978C25.0996 168.08 24.9361 168.007 24.8085 167.757L23.5323 165.265Z" fill="white"/>
<path d="M31.5475 145.977C32.1007 148.071 31.8746 149.955 30.8692 151.63C29.8409 153.292 28.3703 154.376 26.4573 154.881C24.5804 155.377 22.8524 155.158 21.2733 154.224C19.6762 153.294 18.632 151.9 18.1408 150.041C17.6115 148.038 17.8453 146.219 18.8422 144.585C19.8162 142.938 21.2688 141.859 23.1999 141.349C25.0948 140.848 26.8403 141.024 28.4364 141.876C30.0145 142.733 31.0515 144.101 31.5475 145.977ZM30.5683 145.889C30.2869 144.824 29.6045 144.068 28.5209 143.62C27.4325 143.155 26.1394 143.12 24.6415 143.516C22.7285 144.022 21.2415 144.897 20.1805 146.143C19.1015 147.393 18.7433 148.705 19.1057 150.076C19.4109 151.231 20.1101 152.05 21.2032 152.534C22.2783 153.022 23.5648 153.068 25.0627 152.672C26.8674 152.195 28.3316 151.307 29.4552 150.006C30.5788 148.705 30.9498 147.332 30.5683 145.889Z" fill="white"/>
<path d="M25.6647 120.338C26.131 120.32 26.4822 120.223 26.7183 120.045C26.9544 119.868 27.0875 119.686 27.1177 119.498C27.1292 119.311 27.169 119.132 27.2372 118.961C27.3054 118.79 27.4235 118.702 27.5913 118.695C27.983 118.68 28.201 119.251 28.2452 120.407C28.2994 121.825 27.6353 122.532 26.2528 122.529L26.0871 122.591C27.6868 123.39 28.5251 124.796 28.6021 126.81C28.6621 128.377 28.1599 129.657 27.0958 130.651C26.0123 131.626 24.4539 132.153 22.4207 132.231L17.4683 132.42C17.058 132.436 16.7197 132.626 16.4534 132.991C16.1865 133.338 15.997 133.513 15.8851 133.517L15.8012 133.52C15.5773 133.529 15.4321 133.394 15.3654 133.117L14.8559 130.783C14.7434 130.282 14.8456 130.026 15.1627 130.014L22.5224 129.761C24.1453 129.699 25.3936 129.371 26.2676 128.777C27.1222 128.165 27.5291 127.328 27.4885 126.265C27.45 125.257 27.0262 124.433 26.217 123.791C25.4072 123.131 24.3681 122.825 23.0997 122.874L17.1121 123.103C16.7204 123.118 16.3918 123.317 16.1262 123.701C15.86 124.066 15.6616 124.251 15.531 124.256L15.4471 124.259C15.2232 124.268 15.078 124.133 15.0113 123.856L14.5007 121.493C14.3889 121.012 14.4915 120.765 14.8086 120.753L25.6647 120.338Z" fill="white"/>
<path d="M16.1889 103.076C16.3134 102.283 16.6132 101.697 17.0884 101.318C17.5665 100.921 18.1098 100.77 18.7183 100.866C19.585 101.002 19.9605 101.438 19.8447 102.176C19.7955 102.49 19.655 102.723 19.4232 102.875C19.1914 103.028 18.9499 103.122 18.6985 103.158C18.4501 103.176 18.2071 103.279 17.9695 103.469C17.732 103.658 17.5828 103.947 17.522 104.334C17.4062 105.072 17.6838 105.71 18.3549 106.25C19.0104 106.769 19.8822 107.114 20.9702 107.284L27.2769 108.274C27.6458 108.332 27.9896 108.188 28.3086 107.841C28.6091 107.491 28.8239 107.327 28.953 107.347L29.0637 107.364C29.2849 107.399 29.3666 107.601 29.3087 107.97L28.7703 111.4C28.7124 111.769 28.5728 111.936 28.3516 111.901L28.2409 111.884C28.1118 111.863 27.9535 111.668 27.7658 111.299C27.5627 110.908 27.2767 110.683 26.9079 110.626L18.4988 109.306C18.1116 109.245 17.7507 109.377 17.4162 109.703C17.0817 110.028 16.8499 110.18 16.7208 110.16L16.6655 110.152C16.4811 110.123 16.3368 109.958 16.2327 109.658L15.6222 107.409C15.4762 106.894 15.6429 106.675 16.1224 106.75L18.3353 107.098C16.6265 106.187 15.911 104.846 16.1889 103.076Z" fill="white"/>
<path d="M38.9962 79.1561C38.0051 81.0813 36.5753 82.3293 34.7069 82.9C32.8304 83.4457 31.0125 83.2657 29.2533 82.36C27.5272 81.4715 26.3907 80.1516 25.8436 78.4003C25.2799 76.6404 25.438 74.9058 26.318 73.1963C27.2664 71.3541 28.6579 70.1599 30.4927 69.6138C32.3194 69.0426 34.1207 69.214 35.8965 70.1282C37.6392 71.0253 38.8177 72.3248 39.4322 74.0268C40.0301 75.7203 39.8847 77.43 38.9962 79.1561ZM38.3284 78.4344C38.8325 77.4552 38.832 76.4367 38.3268 75.3788C37.8302 74.3043 36.8931 73.4126 35.5156 72.7034C33.7563 71.7978 32.0657 71.4523 30.4435 71.667C28.8048 71.8731 27.6607 72.6069 27.0114 73.8682C26.4646 74.9304 26.4352 76.007 26.9233 77.0981C27.3948 78.1806 28.3193 79.0764 29.6968 79.7855C31.3565 80.6399 33.0391 80.9602 34.7448 80.7465C36.4504 80.5328 37.6449 79.7621 38.3284 78.4344Z" fill="white"/>
<path d="M48.0963 43.8539C48.269 43.6577 48.4394 43.6337 48.6075 43.7816L48.6706 43.8371C48.7827 43.9358 48.8197 44.2046 48.7815 44.6435C48.7417 45.056 48.8196 45.4478 49.0152 45.8189L54.6014 55.9578C54.7953 56.3025 54.7813 56.601 54.5593 56.8532L54.2078 57.2526C53.9488 57.5468 53.6422 57.6127 53.288 57.4501L43.757 53.2764L49.0886 62.2213C49.2948 62.552 49.2808 62.8505 49.0465 63.1167L48.806 63.3899C48.5717 63.6562 48.265 63.722 47.8861 63.5875L36.8611 59.628C36.4822 59.4935 36.096 59.452 35.7025 59.5035C35.3213 59.541 35.0747 59.5104 34.9626 59.4118L34.8995 59.3563C34.7314 59.2083 34.7398 59.0292 34.9248 58.819L37.2557 56.1707C37.4284 55.9745 37.5988 55.9504 37.7669 56.0984L37.83 56.1539C37.9281 56.2403 37.9575 56.3905 37.9182 56.6046C37.879 56.8187 37.8862 57.0365 37.94 57.2579C37.9938 57.4793 38.1838 57.659 38.51 57.7969L47.3028 61.2836L41.6669 51.9217C41.492 51.6683 41.4848 51.4505 41.6451 51.2684L42.2345 50.5563C42.3825 50.3881 42.5995 50.3677 42.8853 50.4949L52.9367 55.0521L48.3483 46.8732C48.1544 46.5285 47.9249 46.3514 47.6597 46.3418C47.3946 46.3322 47.1328 46.3754 46.8744 46.4712C46.6283 46.553 46.4563 46.5508 46.3582 46.4644L46.2951 46.4089C46.127 46.261 46.1354 46.0819 46.3204 45.8717L48.0963 43.8539Z" fill="white"/>
<path d="M73.0729 39.562C73.2564 39.7984 73.4701 39.9465 73.714 40.0063C73.9579 40.0661 74.1783 40.1081 74.3753 40.1321C74.5772 40.1302 74.7149 40.1832 74.7884 40.2912L74.8514 40.3838C74.9879 40.5845 74.8942 40.795 74.5701 41.0156L71.8153 42.89C71.4912 43.1106 71.2609 43.1205 71.1244 42.9199L71.0614 42.8273C70.9879 42.7193 71.0165 42.4627 71.1473 42.0576C71.2935 41.642 71.2539 41.2852 71.0284 40.987L67.6466 36.5147C66.6502 35.1832 65.6612 34.3435 64.6793 33.9956C63.7024 33.6217 62.7973 33.7183 61.9639 34.2854C61.1151 34.8629 60.6254 35.6364 60.4948 36.6058C60.3642 37.5752 60.614 38.5229 61.244 39.4489L65.0717 45.0741C65.1977 45.2593 65.3543 45.3899 65.5414 45.4658C65.7334 45.5157 65.9045 45.5348 66.0545 45.523C66.2045 45.5112 66.3574 45.5201 66.513 45.5497C66.6735 45.5534 66.7853 45.6015 66.8483 45.6941L66.9113 45.7867C67.0478 45.9873 66.954 46.1979 66.6299 46.4184L63.7363 48.3874C63.4276 48.5974 63.2051 48.6021 63.0685 48.4015L63.0055 48.3089C62.9215 48.1855 62.9579 47.9236 63.1146 47.5235C63.2867 47.1128 63.2678 46.7532 63.0577 46.4445L58.2849 39.4304C58.0854 39.1371 57.8483 38.9711 57.5735 38.9323C57.3037 38.8676 57.0524 38.8466 56.8196 38.8696C56.6023 38.882 56.4568 38.8342 56.3833 38.7261L56.3361 38.6567C56.2416 38.5178 56.2863 38.318 56.4702 38.0574L57.6393 36.0427C57.7819 35.7876 57.9334 35.6619 58.0939 35.6656C58.2545 35.6692 58.3977 35.7637 58.5238 35.9489L59.6736 37.6387C59.5721 36.7595 59.7064 35.9118 60.0767 35.0954C60.4623 34.2685 61.0487 33.5873 61.8357 33.0518C63.0395 32.2327 64.3314 31.9745 65.7115 32.2772C67.107 32.5695 68.4415 33.5353 69.7152 35.1749L73.0729 39.562Z" fill="white"/>
<path d="M104.255 28.1718C104.446 28.3154 104.759 28.4469 105.195 28.5663C105.626 28.6676 105.864 28.8086 105.911 28.9894L105.925 29.0437C105.98 29.2606 105.873 29.4039 105.601 29.4736L101.995 30.4006C101.723 30.4703 101.56 30.3967 101.504 30.1798L101.49 30.1255C101.458 29.999 101.542 29.8037 101.744 29.5398C101.96 29.2532 101.938 29.0179 101.679 28.834L96.2254 24.7137L94.6523 27.1418L95.405 30.0706C95.4933 30.4141 95.7417 30.6682 96.1503 30.8331C96.5723 30.9752 96.8019 31.1185 96.839 31.2632L96.8599 31.3445C96.9203 31.5795 96.7607 31.7458 96.3811 31.8434L93.0726 32.6938C92.711 32.7867 92.5 32.7156 92.4396 32.4806L92.4187 32.3993C92.3815 32.2546 92.4954 32.023 92.7605 31.7043C93.0208 31.3676 93.1069 31.0274 93.0186 30.6839L89.1015 15.4433C89.0225 15.1359 88.867 14.9061 88.6351 14.7536C88.3986 14.5832 88.1736 14.4579 87.9603 14.3778C87.7651 14.2931 87.6535 14.1965 87.6256 14.088L87.6117 14.0337C87.5745 13.8891 87.6639 13.712 87.8798 13.5023L89.8116 11.9072C90.0549 11.729 90.2605 11.6665 90.4284 11.7198C90.6097 11.7503 90.7259 11.8649 90.777 12.0638L94.2759 25.6774L98.5132 19.4423C98.647 19.1381 98.6548 18.9434 98.5365 18.8581C98.4136 18.7548 98.2204 18.6406 97.957 18.5156C97.707 18.3678 97.5658 18.2307 97.5332 18.1041L97.5123 18.0228C97.4566 17.8058 97.5733 17.6602 97.8626 17.5858L100.927 16.7982C101.18 16.7332 101.332 16.8001 101.383 16.999L101.404 17.0803C101.441 17.2249 101.388 17.3928 101.245 17.5839C101.096 17.7569 100.876 17.987 100.584 18.2742C100.291 18.5613 100.06 18.8232 99.8893 19.0597L97.4289 22.8722L104.255 28.1718Z" fill="white"/>
<path d="M112.855 12.5567C112.279 12.6052 111.81 12.4854 111.448 12.1973C111.087 11.9092 110.884 11.5048 110.84 10.984C110.797 10.4631 110.929 10.0305 111.237 9.68618C111.562 9.32165 112.004 9.11594 112.562 9.06903C113.101 9.02369 113.553 9.15436 113.916 9.46103C114.277 9.74911 114.48 10.1536 114.523 10.6744C114.567 11.1952 114.435 11.6278 114.127 11.9722C113.818 12.3165 113.395 12.5114 112.855 12.5567ZM112.585 28.7362C112.232 28.7659 112.045 28.6598 112.025 28.418L112.015 28.3064C112.004 28.1762 112.078 28.0483 112.236 27.9226C112.393 27.7783 112.547 27.6154 112.701 27.4339C112.853 27.2339 112.917 26.9943 112.893 26.7153L112.194 18.4006C112.158 17.9728 111.96 17.6148 111.598 17.3268C111.237 17.0387 111.052 16.8482 111.044 16.7551L111.04 16.6993C111.029 16.5691 111.157 16.4179 111.423 16.2456L113.482 15.0048C113.771 14.8682 113.983 14.8316 114.119 14.8951C114.275 14.9569 114.361 15.0995 114.38 15.3227L115.321 26.5113C115.339 26.7345 115.412 26.9251 115.537 27.0831C115.661 27.2226 115.801 27.3232 115.956 27.3851C116.111 27.447 116.249 27.5291 116.37 27.6313C116.49 27.7149 116.554 27.8125 116.563 27.9241L116.573 28.0357C116.593 28.2776 116.408 28.4149 116.017 28.4477L112.585 28.7362Z" fill="white"/>
<path d="M137.127 27.2242C137.118 27.5233 137.188 27.7737 137.338 27.9753C137.487 28.177 137.63 28.3499 137.767 28.494C137.923 28.6214 137.996 28.7501 137.983 28.8802L137.973 28.9917C137.95 29.2333 137.743 29.3356 137.353 29.2987L134.036 28.9848C133.646 28.9479 133.462 28.8086 133.485 28.567L133.495 28.4555C133.508 28.3254 133.693 28.1461 134.052 27.9176C134.43 27.6908 134.627 27.3907 134.644 27.0173L134.893 21.4158C134.975 19.7549 134.749 18.4772 134.215 17.5829C133.701 16.6718 132.942 16.1688 131.939 16.0738C130.917 15.9771 130.046 16.2604 129.327 16.9236C128.608 17.5868 128.196 18.4759 128.09 19.5909L127.449 26.3647C127.428 26.5877 127.466 26.7881 127.561 26.9659C127.677 27.1269 127.797 27.2507 127.92 27.3373C128.043 27.424 128.155 27.5283 128.256 27.6504C128.377 27.7556 128.432 27.864 128.422 27.9755L128.411 28.087C128.388 28.3286 128.182 28.4309 127.792 28.394L124.307 28.0643C123.936 28.0291 123.761 27.8907 123.784 27.6491L123.795 27.5376C123.809 27.389 124.004 27.2105 124.38 27.0024C124.774 26.7959 124.989 26.5069 125.024 26.1352L125.823 17.6889C125.857 17.3359 125.78 17.0567 125.593 16.8515C125.427 16.6295 125.247 16.4531 125.053 16.3223C124.877 16.1932 124.796 16.0636 124.808 15.9335L124.816 15.8499C124.832 15.6826 124.994 15.5573 125.302 15.474L127.487 14.6683C127.76 14.5628 127.957 14.5627 128.078 14.6679C128.199 14.7731 128.249 14.9372 128.228 15.1602L128.036 17.1951C128.518 16.4533 129.163 15.8862 129.969 15.4937C130.793 15.1029 131.679 14.9524 132.627 15.0421C134.076 15.1792 135.236 15.8046 136.106 16.9181C136.994 18.0334 137.405 19.6286 137.34 21.7037L137.127 27.2242Z" fill="white"/>
<path d="M158.019 33.0288C157.901 33.3832 157.958 33.7462 158.189 34.1176C158.438 34.4948 158.545 34.7367 158.509 34.843L158.483 34.9227C158.418 35.1176 158.253 35.1711 157.987 35.0831L155.755 34.3439C155.489 34.2559 155.385 34.0643 155.444 33.769L155.83 32.4223C155.17 32.9313 154.418 33.2428 153.574 33.3567C152.754 33.4587 151.936 33.3748 151.121 33.1049C149.438 32.5476 148.199 31.4492 147.405 29.8098C146.61 28.1704 146.539 26.3672 147.19 24.4002C147.829 22.4687 148.948 21.0792 150.546 20.2318C152.144 19.3844 153.829 19.254 155.601 19.8407C157.16 20.357 158.255 21.3583 158.883 22.8445L160.802 17.0498C160.907 16.7308 160.895 16.4416 160.765 16.1822C160.652 15.9286 160.516 15.7163 160.356 15.5455C160.214 15.3805 160.163 15.236 160.205 15.1119L160.222 15.0588C160.281 14.8815 160.464 14.7749 160.77 14.7389L163.161 14.734C163.781 14.7032 164.012 14.927 163.853 15.4055L158.019 33.0288ZM151.97 32.4125C152.82 32.6941 153.703 32.6126 154.617 32.1681C155.554 31.7116 156.22 30.8897 156.613 29.7024L156.639 29.7112L157.062 28.3468L157.942 25.6887C158.241 24.7849 158.13 23.8141 157.608 22.7763C157.11 21.7266 156.338 21.0287 155.293 20.6825C154.141 20.3012 153.049 20.451 152.018 21.1319C151.01 21.801 150.25 22.8769 149.74 24.3596C149.094 26.1908 148.977 27.8822 149.387 29.4339C149.804 30.9678 150.664 31.9607 151.97 32.4125Z" fill="white"/>
<path d="M180.276 48.6874C178.573 47.3502 177.617 45.7103 177.41 43.7677C177.229 41.8219 177.75 40.0708 178.972 38.5145C180.17 36.9876 181.681 36.1211 183.505 35.9149C185.339 35.6941 187.013 36.1774 188.525 37.3647C190.155 38.6443 191.064 40.2365 191.254 42.1414C191.469 44.0432 190.96 45.7796 189.727 47.3505C188.516 48.8921 187.017 49.8037 185.23 50.0854C183.454 50.3523 181.803 49.8863 180.276 48.6874ZM181.111 48.1682C181.977 48.8483 182.977 49.0403 184.111 48.7443C185.26 48.4598 186.313 47.7082 187.27 46.4896C188.492 44.9333 189.151 43.3384 189.247 41.7049C189.354 40.0568 188.85 38.7946 187.734 37.9186C186.794 37.1808 185.743 36.9484 184.579 37.2214C183.427 37.4797 182.373 38.2182 181.416 39.4368C180.263 40.905 179.63 42.4967 179.518 44.212C179.405 45.9272 179.936 47.246 181.111 48.1682Z" fill="white"/>
<path d="M210.273 48.8173C210.923 49.5633 211.282 50.3886 211.352 51.2932C211.434 52.2117 211.194 52.9162 210.631 53.4066C210.434 53.5782 210.197 53.6611 209.919 53.6552C209.656 53.637 209.42 53.5083 209.211 53.2689C208.893 52.903 208.765 52.5436 208.829 52.1907C208.92 51.8397 209.086 51.5337 209.329 51.2726C209.585 51.0256 209.739 50.7055 209.793 50.3123C209.858 49.9331 209.707 49.5324 209.34 49.1101C208.753 48.4081 207.932 48.3184 206.877 48.841C205.835 49.3776 204.888 50.2517 204.037 51.4631L203.467 51.9596L206.023 54.8946C206.097 54.9791 206.123 55.0801 206.101 55.1977C206.094 55.303 206.055 55.3864 205.985 55.4477L205.71 55.6867C205.527 55.8461 205.35 55.8272 205.178 55.6302L202.622 52.6952L194.831 59.4807C194.62 59.6646 194.511 59.8952 194.505 60.1727C194.499 60.4501 194.515 60.7092 194.551 60.9498C194.6 61.2046 194.575 61.3748 194.476 61.4607L194.413 61.5158C194.244 61.6629 194.067 61.6309 193.883 61.4198L191.291 58.4425C191.107 58.2314 191.099 58.0523 191.268 57.9051L191.332 57.85C191.43 57.7642 191.584 57.7417 191.793 57.7826C192.014 57.8375 192.25 57.867 192.501 57.8711C192.764 57.8893 193.002 57.8065 193.213 57.6226L201.004 50.837L199.478 49.0845C199.294 48.8733 199.294 48.6881 199.477 48.5287L199.751 48.2897C199.948 48.118 200.139 48.1378 200.323 48.3489L201.849 50.1015L203.686 48.5016C204.756 47.5699 205.885 47.1186 207.074 47.1478C208.262 47.1769 209.329 47.7334 210.273 48.8173Z" fill="white"/>
<path d="M218.285 77.5554C219.781 77.9739 220.876 78.9991 221.57 80.631C222.264 82.263 222.272 83.9028 221.593 85.5504C220.938 87.2079 219.684 88.4311 217.828 89.2199C215.939 90.0234 214.114 90.1199 212.353 89.5094C210.617 88.9088 209.398 87.784 208.697 86.1349C207.974 84.4342 208.065 82.8339 208.968 81.334L207.665 81.9185C207.39 82.0354 207.191 81.9478 207.067 81.6558L206.139 79.4031C206.03 79.1454 206.069 78.9764 206.258 78.896L206.336 78.8632C206.456 78.812 206.711 78.8863 207.1 79.086C207.496 79.3028 207.866 79.3382 208.21 79.1921L222.64 73.0566C222.949 72.9252 223.161 72.7334 223.277 72.4812C223.393 72.2291 223.466 71.9952 223.496 71.7796C223.543 71.5567 223.627 71.4197 223.747 71.3686L223.825 71.3357C223.979 71.27 224.179 71.3575 224.423 71.5985L226.268 73.2178C226.49 73.4071 226.596 73.5851 226.586 73.7518C226.583 73.9356 226.47 74.075 226.247 74.1699L218.285 77.5554ZM209.379 85.4493C209.891 86.6518 210.76 87.408 211.987 87.7179C213.239 88.0376 214.655 87.8615 216.235 87.1895C218.021 86.4299 219.305 85.4176 220.086 84.1527C220.891 82.8976 221.027 81.643 220.493 80.389C220.128 79.5301 219.484 78.9216 218.561 78.5636C217.655 78.1982 216.764 78.2018 215.888 78.5743L212.229 80.1301L211.858 80.2577L211.869 80.2834C210.838 80.7217 210.068 81.4646 209.561 82.5122C209.06 83.577 209 84.556 209.379 85.4493Z" fill="white"/>
<path d="M219.375 108.752C219.601 108.841 219.709 109.001 219.696 109.231C219.703 109.458 219.574 109.578 219.31 109.592C218.3 109.579 217.288 109.168 216.274 108.357C215.261 107.547 214.6 106.354 214.293 104.778C213.94 102.964 214.285 101.319 215.328 99.8412C216.375 98.382 217.943 97.449 220.032 97.0422C221.956 96.6674 223.68 96.9781 225.206 97.9741C226.749 98.9666 227.699 100.379 228.056 102.211C228.36 103.769 228.179 105.087 227.515 106.168C226.872 107.263 226.029 107.912 224.985 108.115C224.197 108.269 223.572 107.944 223.112 107.14L219.128 100.014C217.997 100.557 217.17 101.289 216.645 102.209C216.143 103.144 216 104.17 216.218 105.288C216.586 107.175 217.638 108.329 219.375 108.752ZM227.097 101.97C226.882 100.871 226.233 100.075 225.148 99.5828C224.063 99.0905 222.806 98.9835 221.377 99.2619C220.828 99.369 220.368 99.4966 219.997 99.6449L223.39 105.345C223.658 105.749 224.022 105.907 224.48 105.818C225.176 105.682 225.828 105.222 226.436 104.438C227.048 103.672 227.268 102.85 227.097 101.97Z" fill="white"/>
<path d="M218.389 128.458C217.997 128.491 217.687 128.589 217.461 128.755C217.254 128.92 217.121 129.096 217.063 129.282C217.023 129.468 216.965 129.636 216.889 129.784C216.813 129.932 216.7 130.006 216.55 130.004C216.158 129.999 215.97 129.4 215.984 128.205C215.992 127.533 216.119 127.04 216.366 126.725C216.631 126.411 217.128 126.231 217.856 126.183C216.558 125.458 215.921 124.107 215.945 122.128C215.964 120.56 216.352 119.305 217.11 118.362C217.868 117.419 218.91 116.955 220.235 116.971C221.542 116.968 222.554 117.447 223.27 118.408C223.986 119.387 224.335 120.633 224.317 122.145C224.299 123.638 223.912 124.781 223.156 125.575L223.913 125.528C225.632 125.381 226.915 125.051 227.761 124.538C228.607 124.026 229.037 123.228 229.05 122.145C229.057 121.492 228.896 120.949 228.565 120.516C228.234 120.082 227.874 119.779 227.484 119.607C227.094 119.452 226.732 119.261 226.399 119.033C226.066 118.805 225.901 118.542 225.904 118.243C225.908 117.907 226.005 117.638 226.194 117.435C226.383 117.25 226.636 117.16 226.953 117.164C227.737 117.173 228.432 117.639 229.037 118.561C229.66 119.502 229.963 120.7 229.946 122.156C229.925 123.855 229.386 125.202 228.329 126.197C227.29 127.211 225.836 127.801 223.967 127.965L218.389 128.458ZM216.833 122.755C216.822 123.669 217.103 124.419 217.674 125.005C218.265 125.591 218.999 125.87 219.877 125.844L221.138 125.747C221.812 125.605 222.357 125.257 222.774 124.702C223.192 124.166 223.405 123.496 223.415 122.694C223.426 121.742 223.165 120.964 222.631 120.36C222.096 119.756 221.4 119.449 220.542 119.439C219.496 119.427 218.615 119.724 217.899 120.331C217.2 120.958 216.845 121.766 216.833 122.755Z" fill="white"/>
<path d="M214.892 149.41C214.438 149.305 214.073 149.307 213.799 149.416C213.525 149.525 213.348 149.667 213.27 149.84C213.21 150.018 213.125 150.18 213.014 150.327C212.903 150.474 212.766 150.528 212.603 150.491C212.221 150.402 212.16 149.794 212.42 148.667C212.739 147.284 213.566 146.776 214.899 147.141L215.075 147.125C213.741 145.935 213.3 144.358 213.754 142.394C214.106 140.866 214.926 139.762 216.213 139.082C217.515 138.425 219.157 138.325 221.139 138.783L225.968 139.898C226.368 139.99 226.745 139.895 227.097 139.612C227.446 139.348 227.674 139.228 227.784 139.254L227.865 139.272C228.084 139.323 228.189 139.491 228.18 139.776L228.06 142.162C228.038 142.674 227.872 142.895 227.563 142.823L220.394 141.14C218.812 140.774 217.521 140.764 216.522 141.108C215.537 141.474 214.925 142.176 214.685 143.213C214.458 144.195 214.651 145.101 215.264 145.932C215.873 146.782 216.795 147.349 218.032 147.635L223.871 148.983C224.253 149.071 224.622 148.965 224.979 148.664C225.331 148.381 225.571 148.255 225.699 148.284L225.781 148.303C225.999 148.353 226.104 148.521 226.095 148.807L225.969 151.22C225.951 151.714 225.787 151.925 225.478 151.854L214.892 149.41Z" fill="white"/>
<path d="M207.525 161.079C207.977 160.054 208.66 159.386 209.573 159.075C210.495 158.788 211.588 158.924 212.852 159.481L220.511 162.861L221.257 161.171C221.37 160.914 221.555 160.843 221.811 160.956L222.067 161.069C222.323 161.182 222.395 161.367 222.282 161.623L221.875 162.545C221.362 163.706 221.887 164.713 223.449 165.566C223.776 165.751 223.882 165.971 223.769 166.227L223.656 166.484C223.536 166.757 223.305 166.818 222.963 166.667L220.518 165.619L218.958 169.154C218.913 169.257 218.833 169.323 218.717 169.354C218.611 169.409 218.507 169.414 218.404 169.369L218.148 169.256C217.892 169.143 217.821 168.958 217.934 168.702L219.494 165.167L211.809 161.776C211.125 161.474 210.532 161.386 210.028 161.51C209.524 161.635 209.163 161.945 208.945 162.44C208.703 162.986 208.648 163.482 208.778 163.927C208.918 164.397 209.207 164.759 209.645 165.014C209.812 165.19 209.834 165.372 209.709 165.562C209.594 165.777 209.426 165.835 209.203 165.737C208.367 165.368 207.768 164.736 207.407 163.843C207.056 162.974 207.096 162.053 207.525 161.079Z" fill="white"/>
<path d="M215.743 180.351C216.049 179.86 216.426 179.555 216.873 179.438C217.32 179.321 217.765 179.4 218.209 179.676C218.652 179.953 218.92 180.317 219.012 180.77C219.109 181.249 219.01 181.726 218.714 182.201C218.428 182.661 218.053 182.944 217.591 183.052C217.144 183.169 216.698 183.09 216.255 182.814C215.811 182.537 215.543 182.173 215.452 181.72C215.36 181.267 215.457 180.81 215.743 180.351ZM202.936 170.46C203.124 170.159 203.321 170.073 203.527 170.201L203.622 170.26C203.733 170.329 203.791 170.465 203.797 170.667C203.819 170.878 203.857 171.1 203.911 171.331C203.981 171.573 204.134 171.767 204.372 171.915L211.455 176.327C211.819 176.554 212.225 176.609 212.672 176.491C213.119 176.374 213.382 176.34 213.461 176.389L213.508 176.419C213.619 176.488 213.664 176.681 213.643 176.997L213.406 179.39C213.343 179.703 213.246 179.895 213.113 179.966C212.971 180.053 212.805 180.038 212.614 179.919L203.084 173.983C202.894 173.864 202.698 173.808 202.496 173.815C202.31 173.831 202.146 173.882 202.004 173.97C201.861 174.057 201.713 174.119 201.559 174.154C201.42 174.2 201.304 174.193 201.209 174.134L201.114 174.075C200.908 173.947 200.908 173.716 201.115 173.383L202.936 170.46Z" fill="white"/>
<path d="M208.424 197.86C207.788 198.618 207.029 199.101 206.146 199.31C205.251 199.534 204.518 199.406 203.946 198.926C203.746 198.757 203.627 198.536 203.59 198.261C203.567 197.998 203.658 197.745 203.862 197.502C204.174 197.13 204.509 196.949 204.868 196.957C205.229 196.992 205.557 197.109 205.852 197.309C206.136 197.523 206.476 197.626 206.873 197.618C207.258 197.624 207.63 197.413 207.99 196.984C208.593 196.295 208.554 195.471 207.875 194.51C207.183 193.563 206.172 192.763 204.844 192.11L204.265 191.624L201.762 194.604C201.69 194.69 201.594 194.731 201.474 194.729C201.369 194.738 201.281 194.712 201.209 194.652L200.931 194.418C200.745 194.262 200.736 194.084 200.904 193.884L203.407 190.904L195.495 184.259C195.281 184.079 195.036 184.007 194.761 184.044C194.486 184.082 194.233 184.137 194.001 184.21C193.756 184.297 193.584 184.299 193.484 184.215L193.42 184.161C193.248 184.017 193.253 183.838 193.433 183.623L195.972 180.6C196.152 180.386 196.328 180.351 196.499 180.495L196.564 180.549C196.664 180.633 196.71 180.781 196.702 180.994C196.682 181.221 196.689 181.459 196.724 181.707C196.747 181.97 196.866 182.192 197.08 182.372L204.992 189.017L206.486 187.237C206.667 187.023 206.849 186.994 207.035 187.15L207.314 187.384C207.514 187.552 207.524 187.743 207.344 187.958L205.849 189.737L207.715 191.304C208.801 192.216 209.422 193.262 209.578 194.441C209.733 195.62 209.349 196.759 208.424 197.86Z" fill="white"/>
<path d="M178.753 200.55C178.458 200.188 178.169 199.966 177.885 199.884C177.602 199.802 177.376 199.806 177.208 199.895C177.051 199.998 176.884 200.074 176.707 200.122C176.529 200.17 176.388 200.129 176.282 199.999C176.034 199.695 176.359 199.178 177.256 198.447C178.356 197.551 179.321 197.656 180.15 198.762L180.299 198.857C179.975 197.099 180.594 195.584 182.157 194.31C183.373 193.32 184.698 192.951 186.131 193.204C187.562 193.483 188.92 194.411 190.205 195.989L193.335 199.832C193.594 200.15 193.95 200.306 194.402 200.299C194.839 200.304 195.093 200.35 195.164 200.437L195.217 200.502C195.358 200.675 195.338 200.872 195.156 201.093L193.598 202.904C193.266 203.294 193 203.367 192.8 203.12L188.171 197.393C187.145 196.134 186.132 195.334 185.132 194.993C184.13 194.678 183.216 194.857 182.391 195.528C181.609 196.165 181.205 196.999 181.18 198.032C181.139 199.076 181.52 200.09 182.321 201.074L186.105 205.72C186.353 206.024 186.71 206.167 187.176 206.148C187.628 206.141 187.895 206.188 187.978 206.29L188.031 206.355C188.172 206.528 188.152 206.725 187.97 206.946L186.39 208.774C186.073 209.153 185.814 209.22 185.614 208.973L178.753 200.55Z" fill="white"/>
<path d="M169.813 203.34C170.122 203.167 170.336 203.186 170.455 203.397L170.496 203.471C170.569 203.601 170.526 203.85 170.368 204.216C170.203 204.609 170.207 204.959 170.38 205.269L178.07 218.998C178.225 219.275 178.426 219.462 178.673 219.559C178.912 219.681 179.137 219.758 179.348 219.79C179.558 219.822 179.691 219.887 179.746 219.985L179.773 220.034C179.846 220.164 179.805 220.358 179.65 220.616L178.264 222.612C178.075 222.846 177.892 222.959 177.716 222.951C177.549 222.959 177.416 222.873 177.315 222.694L168.23 206.473C168.057 206.163 167.752 205.981 167.314 205.927C166.87 205.897 166.611 205.818 166.539 205.687L166.497 205.614C166.379 205.402 166.482 205.205 166.808 205.023L169.813 203.34Z" fill="white"/>
</svg>
