<svg width="258" height="253" viewBox="0 0 258 253" fill="none" xmlns="http://www.w3.org/2000/svg">
<path d="M90.5449 226.223C90.3558 226.376 90.1639 226.391 89.9693 226.266C89.7688 226.16 89.7277 225.989 89.846 225.753C90.3548 224.88 91.2117 224.202 92.4165 223.72C93.6213 223.237 94.9849 223.251 96.5072 223.76C98.2596 224.347 99.5213 225.459 100.292 227.095C101.046 228.725 101.085 230.549 100.409 232.567C99.7868 234.425 98.6665 235.773 97.0479 236.609C95.4235 237.463 93.7262 237.593 91.9562 237.001C90.4516 236.497 89.3931 235.69 88.7806 234.579C88.1446 233.48 87.9955 232.426 88.3333 231.417C88.5881 230.656 89.1789 230.273 90.1057 230.269L98.2694 230.315C98.3537 229.064 98.1249 227.983 97.583 227.073C97.0175 226.175 96.1949 225.546 95.1151 225.184C93.292 224.574 91.7685 224.92 90.5449 226.223ZM92.6389 236.284C93.7009 236.64 94.7135 236.467 95.6766 235.766C96.6397 235.065 97.3524 234.024 97.8147 232.643C97.9925 232.112 98.1082 231.649 98.1619 231.253L91.5297 231.395C91.0456 231.43 90.7295 231.669 90.5814 232.111C90.3562 232.784 90.4348 233.578 90.8173 234.493C91.182 235.403 91.7892 236 92.6389 236.284Z" fill="white"/>
<path d="M66.9799 224.838C66.7361 224.701 66.6647 224.542 66.7657 224.363L66.807 224.29C66.8896 224.144 67.1786 224.05 67.6739 224.008C68.1692 223.966 68.5517 223.84 68.8216 223.628L78.0447 216.296C78.3584 216.044 78.6615 216.001 78.954 216.167L79.7097 216.593C80.0023 216.759 80.1299 217.045 80.0925 217.453L79.085 229.426C79.0589 229.776 79.1233 230.155 79.2781 230.564C79.4166 230.964 79.4446 231.237 79.362 231.383L79.3207 231.456C79.2197 231.635 79.0473 231.656 78.8035 231.518L75.4149 229.604C75.1873 229.475 75.1286 229.313 75.2388 229.118L75.2801 229.045C75.3169 228.98 75.5514 228.887 75.9838 228.767C76.407 228.663 76.6489 228.425 76.7096 228.052L78.0376 217.675L70.0563 224.004C69.8119 224.208 69.6798 224.423 69.6601 224.648C69.6241 224.863 69.6482 225.049 69.7323 225.203C69.8164 225.358 69.9005 225.513 69.9846 225.667C70.0595 225.838 70.0695 225.973 70.0144 226.07L69.9731 226.143C69.8629 226.338 69.6859 226.367 69.4421 226.229L66.9799 224.838Z" fill="white"/>
<path d="M56.9468 204.92C56.7142 204.991 56.5308 204.933 56.3965 204.745C56.2502 204.572 56.276 204.398 56.4738 204.223C57.2716 203.603 58.3194 203.294 59.6172 203.295C60.9151 203.297 62.1751 203.819 63.3973 204.86C64.8043 206.058 65.5602 207.56 65.6652 209.365C65.756 211.159 65.1116 212.866 63.7319 214.486C62.4611 215.978 60.919 216.81 59.1054 216.982C57.2797 217.168 55.6563 216.656 54.2351 215.446C53.0271 214.417 52.3462 213.273 52.1923 212.014C52.0121 210.758 52.267 209.724 52.9568 208.914C53.4772 208.303 54.1682 208.168 55.0298 208.51L62.5868 211.598C63.1318 210.469 63.3227 209.381 63.1594 208.335C62.9698 207.291 62.4415 206.399 61.5746 205.661C60.1108 204.415 58.5682 204.167 56.9468 204.92ZM55.1358 215.036C55.9885 215.762 56.9924 215.98 58.1476 215.688C59.3028 215.397 60.3524 214.697 61.2964 213.589C61.6594 213.162 61.9396 212.776 62.1369 212.429L55.9308 210.086C55.4687 209.938 55.0864 210.041 54.7838 210.396C54.3239 210.936 54.1006 211.703 54.1139 212.695C54.113 213.675 54.4536 214.455 55.1358 215.036Z" fill="white"/>
<path d="M39.2864 199.949C38.7731 199.331 38.5311 198.719 38.5603 198.112C38.5776 197.491 38.823 196.983 39.2966 196.589C39.9711 196.028 40.5471 196.035 41.0246 196.609C41.2275 196.853 41.3097 197.112 41.2712 197.387C41.2328 197.662 41.1441 197.906 41.0053 198.118C40.8545 198.316 40.7718 198.567 40.7572 198.871C40.7426 199.174 40.8606 199.477 41.1113 199.778C41.5888 200.352 42.2518 200.566 43.1004 200.418C43.9227 200.268 44.7572 199.841 45.6039 199.137L50.512 195.055C50.799 194.816 50.9177 194.462 50.8679 193.994C50.8038 193.537 50.822 193.267 50.9224 193.184L51.0085 193.112C51.1808 192.969 51.3862 193.041 51.625 193.328L53.8452 195.997C54.084 196.284 54.1172 196.499 53.945 196.642L53.8589 196.714C53.7585 196.797 53.5075 196.788 53.1061 196.685C52.6784 196.579 52.321 196.646 52.034 196.884L45.4899 202.328C45.1885 202.578 45.0496 202.937 45.073 203.403C45.0965 203.869 45.058 204.144 44.9575 204.227L44.9145 204.263C44.771 204.382 44.5523 204.382 44.2584 204.262L42.1657 203.235C41.6831 203.005 41.6284 202.735 42.0016 202.425L43.7237 200.992C41.9114 201.674 40.4323 201.326 39.2864 199.949Z" fill="white"/>
<path d="M26.3527 179.354C26.2234 179.127 26.2561 178.958 26.4508 178.847L26.5238 178.805C26.6698 178.722 26.9476 178.757 27.3572 178.911C27.7575 179.048 28.1903 179.092 28.6558 179.042L41.4211 177.866C42.2108 177.782 42.7723 177.731 43.1058 177.713C43.4554 177.686 43.9984 177.678 44.7347 177.688C45.4617 177.683 46.0207 177.74 46.4118 177.861C46.8191 177.973 47.2482 178.18 47.6992 178.482C48.1571 178.758 48.5153 179.124 48.7738 179.578C49.2631 180.438 49.4341 181.285 49.2867 182.121C49.1556 182.947 48.8304 183.508 48.3113 183.804C48.0193 183.97 47.7379 184.023 47.4671 183.962C47.1963 183.901 46.9778 183.725 46.8116 183.433C46.6547 183.157 46.6344 182.857 46.7507 182.533C46.8833 182.2 47.0725 181.91 47.3184 181.663C47.555 181.399 47.7269 181.097 47.834 180.757C47.9481 180.391 47.9082 180.038 47.7143 179.698C47.1696 178.74 45.3248 178.48 42.1798 178.917L34.5447 189.447C34.2893 189.828 34.1277 190.243 34.0597 190.689C33.9826 191.12 33.871 191.377 33.725 191.46L33.652 191.501C33.4573 191.612 33.2907 191.546 33.1522 191.302L31.3519 188.139C31.2227 187.912 31.2554 187.743 31.4501 187.632L31.5231 187.59C31.6366 187.526 31.808 187.525 32.0371 187.588C32.2407 187.644 32.4259 187.667 32.5926 187.658C32.7431 187.659 32.968 187.488 33.2673 187.145L39.5229 178.947L29.4875 180.05C29.1216 180.087 28.8725 180.196 28.7402 180.379C28.5917 180.571 28.5184 180.763 28.5204 180.955C28.5062 181.156 28.4919 181.358 28.4777 181.559C28.4634 181.761 28.4076 181.889 28.3103 181.945L28.2373 181.986C28.0426 182.097 27.876 182.031 27.7375 181.787L26.3527 179.354Z" fill="white"/>
<path d="M33.3669 159.763C34.0406 161.82 33.9242 163.715 33.0176 165.445C32.0875 167.164 30.6823 168.331 28.8018 168.947C26.9568 169.551 25.219 169.432 23.5884 168.591C21.9401 167.756 20.8168 166.425 20.2186 164.597C19.5739 162.628 19.7018 160.799 20.6022 159.11C21.4791 157.408 22.8666 156.247 24.7648 155.626C26.6275 155.016 28.3803 155.09 30.0232 155.849C31.6483 156.613 32.7629 157.918 33.3669 159.763ZM32.3842 159.731C32.0416 158.684 31.3164 157.969 30.2087 157.585C29.0952 157.184 27.8022 157.224 26.3298 157.706C24.4493 158.322 23.0156 159.282 22.0287 160.587C21.0241 161.898 20.7424 163.228 21.1838 164.576C21.5555 165.711 22.301 166.489 23.4204 166.908C24.5219 167.333 25.8089 167.304 27.2814 166.822C29.0554 166.242 30.4655 165.269 31.5118 163.905C32.558 162.541 32.8488 161.15 32.3842 159.731Z" fill="white"/>
<path d="M26.1142 133.727C26.4092 133.677 26.6407 133.559 26.8086 133.372C26.9765 133.185 27.1176 133.011 27.2318 132.848C27.3254 132.67 27.4372 132.573 27.5672 132.559L27.6785 132.548C27.9199 132.522 28.0612 132.704 28.1025 133.094L28.4537 136.407C28.495 136.797 28.395 137.005 28.1537 137.031L28.0424 137.042C27.9124 137.056 27.6998 136.91 27.4045 136.603C27.1072 136.278 26.774 136.144 26.4047 136.202L20.8654 137.071C19.2212 137.32 18.0139 137.796 17.2435 138.497C16.4526 139.181 16.1103 140.025 16.2165 141.027C16.3247 142.048 16.7752 142.845 17.5681 143.418C18.3609 143.991 19.3142 144.218 20.4279 144.1L27.194 143.383C27.4168 143.359 27.6058 143.283 27.761 143.154C27.8958 143.008 27.9934 142.867 28.0538 142.729C28.1143 142.591 28.1943 142.461 28.2939 142.337C28.3729 142.198 28.4682 142.122 28.5795 142.11L28.6909 142.098C28.9322 142.073 29.0735 142.255 29.1149 142.645L29.4838 146.125C29.5232 146.496 29.4222 146.695 29.1809 146.72L29.0695 146.732C28.921 146.748 28.7074 146.592 28.4287 146.265C28.148 145.919 27.822 145.766 27.4508 145.806L19.0141 146.7C18.6614 146.737 18.403 146.868 18.2391 147.092C18.0545 147.299 17.9174 147.511 17.8277 147.727C17.736 147.924 17.6252 148.03 17.4952 148.043L17.4117 148.052C17.2446 148.07 17.0897 147.936 16.9468 147.651L15.7231 145.669C15.5656 145.423 15.5264 145.23 15.6054 145.09C15.6844 144.95 15.8353 144.869 16.0581 144.845L18.0907 144.63C17.2678 144.304 16.5839 143.785 16.0392 143.073C15.4925 142.343 15.169 141.504 15.0686 140.558C14.9151 139.11 15.2977 137.849 16.2163 136.775C17.133 135.683 18.6147 134.963 20.6614 134.615L26.1142 133.727Z" fill="white"/>
<path d="M25.2135 113.518C25.0215 113.368 24.9641 113.184 25.0412 112.967C25.0997 112.747 25.2572 112.669 25.5138 112.731C26.4791 113.029 27.3327 113.711 28.0747 114.776C28.8167 115.841 29.1112 117.172 28.9584 118.77C28.7824 120.61 27.9845 122.09 26.5647 123.21C25.1466 124.312 23.3785 124.762 21.2601 124.559C19.309 124.373 17.7436 123.585 16.5637 122.197C15.3652 120.808 14.8549 119.184 15.0326 117.326C15.1837 115.746 15.7311 114.533 16.6747 113.685C17.6016 112.818 18.5946 112.434 19.6537 112.536C20.4527 112.612 20.9591 113.101 21.1729 114.003L22.9708 121.967C24.2088 121.766 25.2098 121.299 25.9738 120.566C26.7209 119.812 27.1487 118.869 27.2572 117.735C27.4402 115.822 26.759 114.416 25.2135 113.518ZM15.8846 117.829C15.7779 118.944 16.1748 119.891 17.0753 120.671C17.9758 121.451 19.1508 121.911 20.6002 122.049C21.1576 122.102 21.635 122.111 22.0323 122.074L20.3971 115.645C20.2539 115.181 19.9501 114.927 19.4855 114.882C18.7794 114.815 18.0236 115.071 17.2181 115.65C16.4144 116.211 15.9699 116.937 15.8846 117.829Z" fill="white"/>
<path d="M41.4215 73.9633C41.7646 74.1116 42.136 74.097 42.5357 73.9195C42.9187 73.7337 43.1688 73.6697 43.286 73.7275L43.3865 73.777C43.5874 73.8761 43.6053 74.0931 43.4402 74.4279L41.9542 77.4415C41.7891 77.7763 41.6061 77.8942 41.4052 77.7951L41.3048 77.7456C41.1876 77.6878 41.0861 77.4505 41.0003 77.0335C40.9145 76.6166 40.7 76.334 40.3569 76.1856L35.3361 74.0221C33.6541 73.2968 32.3127 73.0204 31.3118 73.1929C30.3193 73.3487 29.5877 73.9037 29.1172 74.858C28.7209 75.6617 28.6964 76.5133 29.0437 77.413C29.3992 78.2959 30.0375 78.9852 30.9586 79.481C31.3264 79.5792 31.7531 79.7479 32.2386 79.9873L37.2613 82.4639C37.5961 82.629 37.9509 82.627 38.3256 82.458C38.7086 82.2722 38.9587 82.2082 39.0759 82.266L39.1763 82.3155C39.3772 82.4146 39.3993 82.6231 39.2424 82.9412L37.7813 85.9046C37.6079 86.2562 37.4208 86.3824 37.2199 86.2834L37.1194 86.2338C37.0022 86.176 36.8966 85.9471 36.8025 85.5469C36.7167 85.1299 36.5064 84.8389 36.1716 84.6738L31.0234 82.1354C29.6673 81.4667 28.4472 81.2397 27.3631 81.4544C26.2706 81.6442 25.5056 82.1827 25.068 83.07C24.6388 83.9406 24.6061 84.8299 24.9701 85.7378C25.3341 86.6457 25.985 87.3517 26.9228 87.8557L33.113 90.8768C33.4479 91.0419 33.8109 91.0231 34.2022 90.8206C34.6016 90.6014 34.86 90.5206 34.9772 90.5784L35.0776 90.6279C35.2785 90.727 35.2964 90.9439 35.1313 91.2788L33.5835 94.4179C33.4184 94.7528 33.2354 94.8707 33.0345 94.7716L32.934 94.7221C32.8168 94.6643 32.7195 94.4185 32.6419 93.9849C32.5644 93.5512 32.3582 93.2518 32.0234 93.0867L24.4141 89.3347C24.1295 89.1944 23.8538 89.1625 23.5871 89.2391C23.3204 89.3158 23.0955 89.413 22.9125 89.5309C22.7128 89.6405 22.5543 89.6665 22.4371 89.6087L22.3618 89.5715C22.2111 89.4972 22.1474 89.3098 22.1708 89.0091L22.2326 86.6045C22.231 86.3123 22.3009 86.1283 22.4424 86.0524C22.5922 85.9597 22.7675 85.9629 22.9684 86.062L24.7514 86.9411C24.2466 86.2343 23.9543 85.4554 23.8744 84.6043C23.7861 83.7283 23.9359 82.8968 24.3239 82.1099C24.7862 81.1724 25.4458 80.4466 26.3028 79.9326C27.1513 79.3936 28.1183 79.142 29.2038 79.1777C28.5068 78.4386 28.093 77.5894 27.9625 76.6301C27.8152 75.6625 27.9685 74.7183 28.4226 73.7975C29.0912 72.4414 30.0924 71.5718 31.4259 71.1887C32.751 70.7807 34.4302 71.0051 36.4636 71.862L41.4215 73.9633Z" fill="white"/>
<path d="M53.0493 62.9719C51.6329 64.6098 49.9496 65.4862 47.9993 65.6012C46.0471 65.6899 44.3227 65.0871 42.826 63.7929C41.3575 62.523 40.5635 60.9727 40.444 59.1418C40.3103 57.2988 40.8722 55.6501 42.1298 54.1958C43.4851 52.6285 45.1187 51.7953 47.0304 51.6964C48.9402 51.5711 50.6506 52.1616 52.1614 53.4681C53.6439 54.7501 54.4836 56.2905 54.6802 58.0893C54.8627 59.8759 54.3191 61.5034 53.0493 62.9719ZM52.5701 62.1133C53.2905 61.2803 53.5297 60.2902 53.2877 59.1432C53.0579 57.982 52.357 56.8947 51.1851 55.8813C49.6884 54.5871 48.1265 53.8534 46.4994 53.6803C44.8582 53.495 43.5736 53.9388 42.6456 55.0119C41.8642 55.9156 41.5823 56.9551 41.7999 58.1303C42.0033 59.2934 42.691 60.3817 43.863 61.3951C45.2749 62.616 46.8349 63.3234 48.5429 63.5171C50.2509 63.7108 51.5933 63.2429 52.5701 62.1133Z" fill="white"/>
<path d="M64.3388 34.4512C64.5605 34.2802 64.7341 34.2761 64.8595 34.4387L64.9108 34.5052C65.0133 34.6382 64.9875 34.941 64.8333 35.4135C64.679 35.886 64.647 36.2878 64.7373 36.6189L67.9017 47.9681C68.0114 48.3549 67.9333 48.6509 67.6672 48.8561L66.9798 49.3861C66.7137 49.5913 66.4001 49.5973 66.0391 49.4043L55.4021 43.8168C55.09 43.6567 54.7155 43.5683 54.2784 43.5518C53.8562 43.5238 53.5937 43.4433 53.4912 43.3103L53.4399 43.2437C53.3145 43.0811 53.3627 42.9143 53.5844 42.7434L56.6666 40.3668C56.8735 40.2073 57.0454 40.2162 57.1822 40.3936L57.2335 40.4601C57.2791 40.5192 57.2731 40.7713 57.2156 41.2164C57.1466 41.6467 57.2722 41.9624 57.5922 42.1635L66.6344 47.425L63.9105 37.61C63.8168 37.3051 63.6703 37.0998 63.471 36.9942C63.2865 36.8772 63.1066 36.8273 62.9314 36.8446C62.7561 36.8619 62.5809 36.8791 62.4056 36.8964C62.219 36.8989 62.0914 36.8558 62.0231 36.7671L61.9718 36.7006C61.835 36.5232 61.8775 36.349 62.0992 36.178L64.3388 34.4512Z" fill="white"/>
<path d="M86.5912 32.9607C86.6158 32.7185 86.7407 32.5722 86.966 32.5216C87.1829 32.4544 87.3333 32.5459 87.4173 32.7962C87.6781 33.7724 87.5551 34.8579 87.0482 36.0527C86.5414 37.2475 85.5708 38.2053 84.1364 38.9261C82.4852 39.7559 80.8075 39.8678 79.1033 39.2618C77.4157 38.6475 76.0942 37.3896 75.1387 35.4882C74.2586 33.7369 74.0923 31.9925 74.6398 30.255C75.1788 28.5008 76.2823 27.2047 77.9502 26.3665C79.3679 25.654 80.6866 25.4719 81.9061 25.8201C83.1339 26.1431 83.9867 26.78 84.4644 27.7308C84.8248 28.448 84.6801 29.137 84.0303 29.7978L78.2443 35.5571C79.0726 36.4987 80.0005 37.0979 81.0278 37.3546C82.0634 37.5862 83.0899 37.4464 84.1074 36.9352C85.8253 36.0718 86.6533 34.747 86.5912 32.9607ZM77.9773 27.3557C76.9765 27.8586 76.3855 28.6987 76.2042 29.8762C76.023 31.0536 76.2592 32.2928 76.913 33.5938C77.1644 34.0942 77.4115 34.5027 77.6543 34.8194L82.2276 30.0143C82.5441 29.6463 82.5975 29.2539 82.388 28.8369C82.0695 28.2031 81.4507 27.6993 80.5317 27.3255C79.6293 26.9433 78.7779 26.9534 77.9773 27.3557Z" fill="white"/>
<path d="M100.678 32.432C99.0274 32.9056 97.6044 32.9546 96.4091 32.579C95.2318 32.1983 94.5402 31.6491 94.3342 30.9313C94.1438 30.2675 94.3984 29.8351 95.0982 29.6344C95.4032 29.5468 95.6789 29.594 95.9253 29.7758C96.1844 29.9344 96.4321 30.1547 96.6683 30.4365C96.9045 30.7183 97.1676 30.9923 97.4576 31.2587C97.7656 31.5199 98.1773 31.7027 98.6928 31.8073C99.2032 31.8939 99.7903 31.842 100.454 31.6515C101.351 31.3941 102.028 30.9767 102.484 30.3993C102.934 29.8039 103.054 29.1384 102.843 28.4028C102.637 27.6851 102.19 27.2112 101.503 26.9812C100.833 26.746 100.072 26.6635 99.218 26.7337C98.3591 26.7859 97.4951 26.8202 96.6259 26.8366C95.7567 26.8529 94.9526 26.6564 94.2137 26.2469C93.4927 25.8323 92.9933 25.1406 92.7153 24.1717C92.4167 23.131 92.6425 22.1244 93.3927 21.1517C94.1378 20.1612 95.246 19.4549 96.7173 19.0327C98.2783 18.5849 99.6385 18.5539 100.798 18.9398C101.957 19.3257 102.65 19.9134 102.877 20.7029C102.954 20.972 102.92 21.2246 102.774 21.4606C102.646 21.6916 102.447 21.8456 102.178 21.9228C101.855 22.0155 101.528 21.9248 101.197 21.6508C100.866 21.3768 100.56 21.0567 100.281 20.6903C100.019 20.3188 99.6055 20.0295 99.0412 19.8225C98.4769 19.6154 97.8179 19.62 97.0643 19.8362C96.2748 20.0627 95.6753 20.4774 95.2657 21.0805C94.874 21.6783 94.7735 22.3092 94.9639 22.9731C95.1647 23.6728 95.5998 24.1403 96.2693 24.3755C96.9516 24.5875 97.7222 24.6674 98.5811 24.6152C99.44 24.563 100.295 24.5313 101.146 24.5201C102.016 24.5037 102.813 24.7118 103.539 25.1444C104.278 25.5538 104.789 26.2519 105.072 27.2388C105.371 28.2795 105.118 29.2938 104.314 30.2819C103.523 31.2469 102.311 31.9636 100.678 32.432Z" fill="white"/>
<path d="M136.85 26.1177C136.876 26.5107 136.969 26.8215 137.131 27.0504C137.293 27.2606 137.466 27.3964 137.651 27.4579C137.836 27.5007 138.003 27.5616 138.15 27.6406C138.297 27.7196 138.368 27.8338 138.364 27.9831C138.352 28.3749 137.749 28.5532 136.555 28.5181C135.883 28.4983 135.393 28.3625 135.083 28.1106C134.773 27.8401 134.601 27.3401 134.566 26.6108C133.819 27.896 132.456 28.5096 130.479 28.4514C128.911 28.4053 127.663 27.9951 126.733 27.2207C125.803 26.4464 125.358 25.3968 125.397 24.0721C125.417 22.7654 125.913 21.7622 126.886 21.0626C127.878 20.3634 129.129 20.0361 130.641 20.0805C132.133 20.1244 133.27 20.5314 134.05 21.3013L134.017 20.544C133.899 18.8225 133.592 17.5342 133.094 16.6792C132.596 15.8242 131.806 15.3808 130.724 15.3489C130.071 15.3297 129.525 15.4817 129.086 15.805C128.647 16.1282 128.338 16.4832 128.158 16.8701C127.997 17.2576 127.8 17.6159 127.566 17.9452C127.332 18.2745 127.066 18.4347 126.768 18.4259C126.432 18.416 126.164 18.3148 125.964 18.1222C125.783 17.9301 125.697 17.6755 125.707 17.3583C125.73 16.5746 126.207 15.8884 127.14 15.2995C128.091 14.6926 129.295 14.4105 130.75 14.4533C132.448 14.5033 133.786 15.0655 134.762 16.14C135.758 17.1964 136.322 18.6603 136.454 20.5317L136.85 26.1177ZM131.121 27.5739C132.035 27.6008 132.79 27.3335 133.385 26.7721C133.981 26.1921 134.273 25.463 134.262 24.585L134.187 23.3222C134.057 22.6461 133.719 22.0946 133.171 21.6676C132.642 21.2412 131.976 21.0162 131.174 20.9926C130.223 20.9646 129.44 21.2124 128.827 21.7359C128.214 22.2595 127.895 22.9504 127.87 23.8087C127.839 24.8535 128.121 25.7396 128.716 26.4667C129.33 27.1757 130.132 27.5448 131.121 27.5739Z" fill="white"/>
<path d="M149.865 30.679C148.768 30.4554 147.97 29.9309 147.471 29.1054C146.994 28.2653 146.894 27.1686 147.17 25.815L148.841 17.6115L147.03 17.2426C146.756 17.1867 146.647 17.0216 146.702 16.7472L146.758 16.4729C146.814 16.1985 146.979 16.0893 147.254 16.1452L148.241 16.3464C149.485 16.5998 150.357 15.8725 150.858 14.1647C150.969 13.8064 151.161 13.6551 151.436 13.711L151.71 13.7669C152.003 13.8265 152.112 14.0392 152.037 14.4051L151.534 17.0171L155.32 17.7885C155.43 17.8108 155.512 17.8752 155.566 17.9815C155.643 18.0733 155.67 18.1741 155.648 18.2838L155.592 18.5582C155.536 18.8326 155.371 18.9418 155.096 18.8859L151.31 18.1146L149.633 26.3455C149.484 27.0771 149.524 27.6758 149.753 28.1416C149.982 28.6073 150.362 28.8942 150.892 29.0023C151.478 29.1215 151.974 29.0702 152.381 28.8484C152.81 28.612 153.103 28.2524 153.258 27.7697C153.394 27.5689 153.568 27.5091 153.78 27.5904C154.014 27.6571 154.107 27.8094 154.059 28.0472C153.876 28.9434 153.387 29.6629 152.59 30.2055C151.816 30.7335 150.908 30.8914 149.865 30.679Z" fill="white"/>
<path d="M174.793 39.6104C173.792 39.1075 173.159 38.3925 172.894 37.4653C172.654 36.5299 172.844 35.445 173.464 34.2108L177.223 26.7302L175.572 25.9004C175.322 25.7747 175.259 25.5867 175.385 25.3366L175.511 25.0864C175.637 24.8362 175.825 24.774 176.075 24.8997L176.975 25.3523C178.11 25.9222 179.141 25.4485 180.071 23.931C180.272 23.6142 180.498 23.5187 180.748 23.6444L180.998 23.7701C181.265 23.9042 181.315 24.1381 181.147 24.4717L179.978 26.861L183.43 28.596C183.53 28.6463 183.593 28.7299 183.617 28.8468C183.667 28.9555 183.667 29.0598 183.617 29.1599L183.491 29.4101C183.365 29.6602 183.177 29.7225 182.927 29.5968L179.475 27.8617L175.703 35.3673C175.368 36.0345 175.25 36.6228 175.349 37.1322C175.448 37.6416 175.739 38.0179 176.223 38.261C176.757 38.5292 177.249 38.6095 177.7 38.5019C178.176 38.386 178.552 38.1154 178.829 37.6902C179.013 37.532 179.196 37.5198 179.38 37.6538C179.588 37.7794 179.638 37.9506 179.529 38.1675C179.118 38.9847 178.458 39.5511 177.547 39.8665C176.662 40.1735 175.743 40.0882 174.793 39.6104Z" fill="white"/>
<path d="M195.205 50.2995C195.011 50.6208 194.963 50.9811 195.061 51.3805C195.158 51.7798 195.163 52.0393 195.073 52.1588L195.006 52.2485C194.872 52.4279 194.655 52.4058 194.356 52.1822L191.666 50.1699C191.367 49.9463 191.284 49.7448 191.418 49.5655L191.485 49.4758C191.564 49.3711 191.709 49.3168 191.922 49.3128C192.15 49.3199 192.381 49.3065 192.616 49.2726C192.863 49.2237 193.062 49.0816 193.215 48.8462L196.412 44.1042C197.313 42.7739 197.769 41.5879 197.779 40.5463C197.789 39.5047 197.397 38.6877 196.605 38.0951C195.783 37.4803 194.892 37.2687 193.933 37.4604C192.974 37.6521 192.159 38.1964 191.488 39.0933L187.413 44.5421C187.201 44.8262 187.166 45.1846 187.308 45.6175C187.462 46.0354 187.494 46.3042 187.404 46.4237L187.354 46.491C187.209 46.6853 186.979 46.6651 186.665 46.4304L183.862 44.3342C183.578 44.1218 183.509 43.9184 183.654 43.7241L183.705 43.6568C183.794 43.5372 184.046 43.4809 184.46 43.4878C184.901 43.4909 185.227 43.3505 185.44 43.0664L194.915 30.3974C195.105 30.1433 195.181 29.8856 195.143 29.6243C195.132 29.3593 195.085 29.126 195.002 28.9245C194.946 28.7193 194.951 28.5718 195.018 28.4821L195.069 28.4148C195.192 28.2504 195.391 28.2016 195.668 28.2684L198.11 28.8363C198.371 28.8919 198.54 28.9943 198.614 29.1436C198.7 29.2779 198.676 29.4347 198.542 29.6141L193.064 36.8456C194.71 36.2348 196.265 36.4772 197.73 37.5728C198.896 38.4448 199.56 39.5826 199.723 40.9861C199.911 42.3858 199.447 43.9264 198.329 45.608L195.205 50.2995Z" fill="white"/>
<path d="M210.07 62.7996C210.31 62.7595 210.484 62.8414 210.593 63.0453C210.715 63.2368 210.666 63.4061 210.447 63.5531C209.574 64.0621 208.494 64.2298 207.208 64.0561C205.922 63.8824 204.742 63.1988 203.669 62.0053C202.433 60.6314 201.882 59.0426 202.017 57.2389C202.165 55.4491 203.029 53.8426 204.611 52.4194C206.069 51.1085 207.707 50.488 209.528 50.5578C211.362 50.6151 212.903 51.3376 214.152 52.7253C215.213 53.9049 215.736 55.1288 215.722 56.397C215.734 57.6665 215.345 58.6571 214.554 59.3687C213.957 59.9055 213.254 59.9477 212.446 59.4952L205.364 55.4332C204.674 56.4806 204.341 57.5336 204.364 58.5922C204.414 59.6523 204.82 60.6056 205.581 61.4521C206.867 62.8815 208.364 63.3307 210.07 62.7996ZM213.205 53.0123C212.456 52.1797 211.489 51.8312 210.306 51.9669C209.122 52.1026 207.989 52.6574 206.907 53.6312C206.49 54.0057 206.162 54.3518 205.92 54.6695L211.761 57.8134C212.2 58.0216 212.592 57.9697 212.939 57.6576C213.467 57.1832 213.789 56.4534 213.908 55.4683C214.038 54.4971 213.804 53.6785 213.205 53.0123Z" fill="white"/>
<path d="M226.285 64.633C225.967 64.1491 225.849 63.6797 225.93 63.2247C226.011 62.7697 226.27 62.3988 226.707 62.1121C227.144 61.8254 227.587 61.7355 228.037 61.8423C228.512 61.9546 228.904 62.2448 229.211 62.713C229.508 63.1656 229.608 63.6246 229.511 64.0898C229.43 64.5448 229.171 64.9157 228.734 65.2024C228.297 65.4891 227.854 65.579 227.404 65.4722C226.955 65.3653 226.581 65.0856 226.285 64.633ZM211.932 72.1069C211.738 71.8104 211.742 71.5956 211.945 71.4624L212.038 71.401C212.148 71.3293 212.295 71.333 212.481 71.412C212.682 71.4808 212.899 71.5394 213.132 71.5877C213.38 71.6257 213.621 71.568 213.856 71.4144L220.832 66.8372C221.191 66.6017 221.411 66.2564 221.492 65.8014C221.573 65.3464 221.653 65.0933 221.731 65.0421L221.777 65.0114C221.887 64.9397 222.081 64.98 222.359 65.1322L224.431 66.3511C224.689 66.5394 224.822 66.7087 224.831 66.8589C224.851 67.0247 224.767 67.169 224.58 67.2919L215.192 73.4511C215.005 73.574 214.871 73.7284 214.792 73.9142C214.729 74.0897 214.707 74.2604 214.727 74.4262C214.746 74.5921 214.74 74.7525 214.707 74.9076C214.691 75.0524 214.636 75.1556 214.542 75.217L214.448 75.2784C214.246 75.4116 214.037 75.3142 213.822 74.9865L211.932 72.1069Z" fill="white"/>
<path d="M233.129 81.989C233.473 82.714 233.556 83.367 233.377 83.9478C233.207 84.5456 232.843 84.9766 232.287 85.2408C231.494 85.6172 230.938 85.4682 230.617 84.7937C230.481 84.507 230.466 84.2354 230.571 83.9787C230.677 83.722 230.823 83.5078 231.01 83.3363C231.205 83.1816 231.348 82.959 231.437 82.6686C231.526 82.3782 231.487 82.0559 231.319 81.7018C230.999 81.0273 230.409 80.6564 229.55 80.5889C228.717 80.5302 227.802 80.7372 226.807 81.2096L221.041 83.9484C220.704 84.1086 220.501 84.4217 220.433 84.8879C220.382 85.3461 220.298 85.6033 220.179 85.6593L220.078 85.7074C219.876 85.8035 219.695 85.6829 219.535 85.3457L218.045 82.2094C217.885 81.8722 217.906 81.6555 218.108 81.5594L218.209 81.5114C218.328 81.4553 218.568 81.527 218.932 81.7264C219.32 81.9346 219.683 81.9587 220.02 81.7985L227.709 78.1468C228.063 77.9787 228.286 77.6659 228.379 77.2086C228.472 76.7512 228.577 76.4945 228.695 76.4384L228.746 76.4144C228.914 76.3343 229.126 76.3887 229.381 76.5776L231.154 78.0914C231.565 78.4337 231.551 78.709 231.112 78.9172L229.089 79.8781C231.014 79.6667 232.36 80.3703 233.129 81.989Z" fill="white"/>
<path d="M228.097 114.564C227.786 112.421 228.224 110.575 229.414 109.025C230.624 107.491 232.209 106.581 234.167 106.296C236.088 106.017 237.78 106.431 239.242 107.539C240.723 108.644 241.602 110.148 241.879 112.051C242.177 114.101 241.738 115.882 240.562 117.392C239.407 118.918 237.841 119.825 235.864 120.112C233.925 120.394 232.21 120.021 230.722 118.992C229.251 117.961 228.376 116.485 228.097 114.564ZM229.06 114.763C229.218 115.853 229.81 116.682 230.836 117.25C231.864 117.836 233.145 118.017 234.678 117.795C236.637 117.51 238.213 116.809 239.409 115.692C240.623 114.572 241.128 113.31 240.924 111.907C240.752 110.724 240.151 109.831 239.12 109.226C238.107 108.619 236.834 108.427 235.301 108.65C233.454 108.918 231.898 109.635 230.634 110.8C229.37 111.964 228.845 113.286 229.06 114.763Z" fill="white"/>
<path d="M241.557 148.412C241.535 148.673 241.412 148.793 241.189 148.774L241.105 148.767C240.956 148.754 240.767 148.56 240.537 148.184C240.324 147.828 240.029 147.559 239.651 147.377L229.136 142.536C228.776 142.373 228.61 142.125 228.638 141.79L228.684 141.26C228.718 140.87 228.925 140.635 229.307 140.555L239.454 138.254L229.853 134.223C229.491 134.079 229.325 133.83 229.355 133.477L229.386 133.114C229.417 132.761 229.625 132.526 230.009 132.409L241.231 129.049C241.616 128.932 241.952 128.736 242.238 128.461C242.522 128.204 242.739 128.083 242.887 128.095L242.971 128.103C243.194 128.122 243.294 128.271 243.27 128.55L242.967 132.065C242.944 132.325 242.821 132.446 242.598 132.427L242.515 132.419C242.384 132.408 242.272 132.305 242.176 132.109C242.08 131.914 241.945 131.743 241.771 131.596C241.596 131.45 241.336 131.418 240.992 131.501L231.847 133.917L241.94 138.103C242.231 138.203 242.367 138.374 242.346 138.616L242.294 139.539C242.275 139.762 242.113 139.907 241.807 139.975L231.014 142.276L239.562 146.132C239.923 146.295 240.212 146.301 240.431 146.151C240.65 146.001 240.835 145.811 240.986 145.581C241.136 145.369 241.276 145.268 241.406 145.28L241.49 145.287C241.713 145.306 241.812 145.455 241.788 145.734L241.557 148.412Z" fill="white"/>
<path d="M224.292 166.765C224.003 166.689 223.743 166.701 223.513 166.801C223.283 166.902 223.082 167.002 222.911 167.103C222.752 167.227 222.61 167.268 222.486 167.227L222.38 167.191C222.149 167.115 222.096 166.89 222.22 166.519L223.272 163.357C223.396 162.985 223.573 162.837 223.803 162.914L223.909 162.949C224.033 162.991 224.166 163.212 224.308 163.613C224.444 164.032 224.692 164.292 225.052 164.392L230.454 165.895C232.054 166.349 233.35 166.416 234.341 166.097C235.345 165.801 236.006 165.175 236.324 164.219C236.648 163.245 236.568 162.333 236.084 161.483C235.599 160.633 234.826 160.031 233.763 159.678L227.307 157.529C227.095 157.458 226.891 157.449 226.696 157.503C226.513 157.58 226.366 157.668 226.253 157.769C226.141 157.869 226.015 157.955 225.873 158.025C225.743 158.12 225.625 158.15 225.519 158.114L225.412 158.079C225.182 158.002 225.129 157.778 225.253 157.406L226.358 154.085C226.476 153.731 226.65 153.592 226.88 153.669L226.987 153.704C227.128 153.751 227.258 153.981 227.376 154.394C227.489 154.825 227.722 155.1 228.076 155.218L236.126 157.897C236.463 158.009 236.752 157.997 236.994 157.861C237.248 157.749 237.46 157.613 237.631 157.453C237.796 157.312 237.941 157.261 238.065 157.303L238.145 157.329C238.304 157.382 238.39 157.568 238.402 157.887L238.695 160.198C238.736 160.487 238.692 160.679 238.562 160.773C238.433 160.868 238.261 160.88 238.049 160.809L236.11 160.163C236.724 160.801 237.131 161.556 237.332 162.43C237.528 163.321 237.475 164.218 237.174 165.121C236.715 166.503 235.844 167.492 234.564 168.089C233.277 168.703 231.63 168.745 229.623 168.215L224.292 166.765Z" fill="white"/>
<path d="M219.417 198.451C218.338 199.858 216.913 200.671 215.145 200.89C213.38 201.136 211.698 200.645 210.099 199.417C208.47 198.167 207.488 196.625 207.154 194.792C206.823 192.985 207.203 191.371 208.294 189.949C209.34 188.587 210.692 187.883 212.35 187.838L207.574 184.173C207.337 183.991 207.088 183.917 206.826 183.952C206.564 183.986 206.338 184.036 206.147 184.101C205.93 184.17 205.769 184.164 205.665 184.085L205.599 184.033C205.406 183.886 205.424 183.664 205.651 183.368L207.748 180.635C207.987 180.325 208.202 180.243 208.395 180.391L208.461 180.442C208.55 180.51 208.605 180.623 208.626 180.78C208.631 180.925 208.63 181.065 208.621 181.2C208.601 181.349 208.623 181.519 208.688 181.71C208.753 181.901 208.882 182.071 209.074 182.218L220.847 191.254C221.128 191.47 221.486 191.509 221.921 191.372C222.37 191.246 222.654 191.229 222.773 191.32L222.839 191.371C223.017 191.507 223.059 191.728 222.966 192.033L222.516 194.229C222.391 194.791 222.128 194.919 221.728 194.612L220.279 193.465C220.595 194.249 220.677 195.077 220.526 195.949C220.378 196.847 220.008 197.681 219.417 198.451ZM209.209 190.228C208.425 191.25 208.2 192.371 208.534 193.592C208.871 194.839 209.721 195.986 211.083 197.031C212.623 198.213 214.13 198.84 215.604 198.913C217.093 198.996 218.252 198.498 219.081 197.417C219.604 196.736 219.832 195.934 219.763 195.011C219.699 194.114 219.36 193.36 218.747 192.748L214.949 189.833C214.06 189.151 213.035 188.846 211.873 188.919C210.7 189.007 209.812 189.443 209.209 190.228Z" fill="white"/>
<path d="M192.021 210.03C191.737 209.757 191.459 209.59 191.185 209.53C190.924 209.484 190.704 209.501 190.526 209.58C190.361 209.673 190.197 209.74 190.035 209.781C189.873 209.822 189.743 209.786 189.646 209.672C189.39 209.375 189.715 208.837 190.621 208.058C191.13 207.62 191.585 207.389 191.983 207.366C192.394 207.358 192.859 207.611 193.376 208.126C193.061 206.673 193.654 205.301 195.155 204.011C196.343 202.989 197.542 202.45 198.751 202.395C199.959 202.341 200.996 202.816 201.86 203.821C202.726 204.799 203.036 205.875 202.789 207.047C202.527 208.232 201.824 209.318 200.677 210.304C199.545 211.277 198.431 211.743 197.336 211.7L197.871 212.237C199.119 213.429 200.214 214.174 201.158 214.47C202.102 214.766 202.985 214.561 203.805 213.855C204.301 213.429 204.602 212.948 204.708 212.414C204.814 211.879 204.804 211.408 204.675 211.002C204.533 210.607 204.437 210.209 204.388 209.808C204.339 209.408 204.427 209.11 204.654 208.915C204.908 208.696 205.174 208.59 205.452 208.598C205.715 208.618 205.95 208.748 206.157 208.988C206.668 209.583 206.778 210.412 206.486 211.475C206.192 212.565 205.494 213.585 204.39 214.534C203.102 215.642 201.735 216.128 200.289 215.993C198.841 215.884 197.438 215.183 196.079 213.889L192.021 210.03ZM195.272 205.092C194.578 205.689 194.201 206.395 194.139 207.211C194.09 208.041 194.366 208.777 194.966 209.417L195.873 210.3C196.424 210.712 197.046 210.891 197.738 210.837C198.417 210.795 199.06 210.513 199.669 209.99C200.39 209.369 200.801 208.658 200.901 207.858C201.001 207.059 200.771 206.333 200.211 205.682C199.529 204.89 198.724 204.425 197.794 204.289C196.863 204.179 196.022 204.447 195.272 205.092Z" fill="white"/>
<path d="M177.859 216.271C179.566 215.307 181.343 215.075 183.19 215.575C185.031 216.1 186.447 217.24 187.438 218.996C188.448 220.783 188.697 222.551 188.183 224.299C187.654 226.056 186.54 227.425 184.843 228.405C183.585 229.138 182.296 229.437 180.977 229.303C179.651 229.195 178.786 228.783 178.382 228.068C178.051 227.483 178.215 227.015 178.875 226.664C179.193 226.506 179.577 226.503 180.028 226.655C180.471 226.834 180.904 227.05 181.327 227.304C181.742 227.584 182.269 227.758 182.908 227.826C183.53 227.903 184.159 227.763 184.792 227.405C185.8 226.835 186.395 225.953 186.577 224.757C186.768 223.577 186.519 222.377 185.83 221.158C184.875 219.468 183.678 218.354 182.238 217.817C180.808 217.296 179.41 217.421 178.044 218.192C177.248 218.642 176.685 219.239 176.355 219.983C176.018 220.753 175.883 221.558 175.95 222.398C175.963 222.649 175.85 222.809 175.611 222.88C175.372 222.95 175.213 222.858 175.133 222.603C174.768 221.501 174.806 220.354 175.247 219.162C175.672 217.978 176.543 217.015 177.859 216.271Z" fill="white"/>
<path d="M156.933 229.601C156.874 229.837 156.73 229.964 156.499 229.982C156.275 230.018 156.139 229.906 156.092 229.646C155.972 228.643 156.248 227.586 156.92 226.475C157.591 225.365 158.688 224.555 160.21 224.045C161.963 223.458 163.639 223.586 165.24 224.428C166.823 225.276 167.953 226.709 168.628 228.726C169.25 230.585 169.167 232.335 168.378 233.977C167.595 235.637 166.319 236.763 164.549 237.356C163.044 237.86 161.713 237.853 160.556 237.335C159.386 236.841 158.632 236.089 158.295 235.08C158.04 234.319 158.281 233.657 159.018 233.096L165.564 228.217C164.878 227.167 164.044 226.442 163.064 226.042C162.072 225.666 161.036 225.658 159.956 226.02C158.133 226.63 157.125 227.824 156.933 229.601ZM164.663 236.373C165.725 236.018 166.429 235.27 166.776 234.13C167.123 232.99 167.065 231.73 166.603 230.35C166.425 229.819 166.238 229.379 166.043 229.031L160.833 233.137C160.468 233.457 160.359 233.838 160.507 234.28C160.732 234.953 161.273 235.539 162.13 236.04C162.969 236.547 163.813 236.658 164.663 236.373Z" fill="white"/>
</svg>
