<svg width="274" height="268" viewBox="0 0 274 268" fill="none" xmlns="http://www.w3.org/2000/svg">
<path d="M87.9121 248.976C87.6672 248.885 87.584 248.734 87.6623 248.524L87.6916 248.445C87.7503 248.288 87.986 248.137 88.3987 247.992C88.7939 247.841 89.154 247.596 89.4789 247.259L98.5183 238.169C99.07 237.598 99.4681 237.199 99.7124 236.971C99.9632 236.726 100.374 236.372 100.946 235.907C101.5 235.437 101.966 235.122 102.344 234.964C102.728 234.789 103.19 234.672 103.729 234.615C104.258 234.533 104.767 234.583 105.257 234.766C106.184 235.112 106.859 235.653 107.282 236.388C107.711 237.106 107.821 237.745 107.613 238.305C107.495 238.62 107.313 238.841 107.066 238.968C106.82 239.095 106.539 239.1 106.224 238.982C105.927 238.871 105.719 238.654 105.6 238.331C105.488 237.99 105.447 237.646 105.477 237.299C105.49 236.945 105.428 236.603 105.292 236.274C105.145 235.92 104.888 235.675 104.521 235.538C103.489 235.153 101.907 236.136 99.7739 238.488L100.671 251.465C100.72 251.921 100.862 252.342 101.096 252.729C101.313 253.109 101.392 253.377 101.333 253.535L101.304 253.613C101.226 253.823 101.055 253.879 100.793 253.781L97.3825 252.509C97.1377 252.418 97.0544 252.267 97.1327 252.057L97.1621 251.978C97.2077 251.856 97.3386 251.745 97.5548 251.647C97.7469 251.559 97.904 251.458 98.0262 251.344C98.1418 251.248 98.2047 250.973 98.2148 250.518L97.7549 240.216L90.764 247.5C90.5066 247.762 90.3858 248.006 90.4015 248.231C90.4106 248.474 90.4776 248.668 90.6024 248.814C90.7206 248.978 90.8389 249.141 90.9571 249.305C91.0754 249.469 91.1149 249.603 91.0758 249.708L91.0464 249.787C90.9681 249.996 90.7978 250.052 90.5355 249.955L87.9121 248.976Z" fill="black"/>
<path d="M80.6329 229.57C82.4865 230.69 83.6346 232.201 84.0772 234.104C84.4943 236.013 84.1914 237.814 83.1685 239.508C82.1648 241.17 80.7709 242.214 78.9865 242.641C77.1925 243.084 75.4725 242.809 73.8267 241.815C72.0531 240.744 70.9561 239.274 70.5357 237.407C70.0897 235.546 70.383 233.76 71.4156 232.05C72.4288 230.373 73.8053 229.285 75.5451 228.787C77.2752 228.306 78.9711 228.567 80.6329 229.57ZM79.8676 230.188C78.9249 229.618 77.9087 229.55 76.819 229.982C75.7133 230.404 74.76 231.279 73.959 232.605C72.9361 234.299 72.4767 235.962 72.5808 237.595C72.6753 239.244 73.3297 240.435 74.5441 241.169C75.5667 241.786 76.6389 241.889 77.7605 241.476C78.8725 241.079 79.829 240.217 80.63 238.891C81.595 237.293 82.0288 235.636 81.9313 233.92C81.8338 232.204 81.1459 230.96 79.8676 230.188Z" fill="black"/>
<path d="M58.2894 215.62C58.602 215.273 58.7772 214.954 58.8151 214.661C58.8529 214.368 58.815 214.145 58.7015 213.993C58.5754 213.854 58.475 213.7 58.4003 213.532C58.3256 213.364 58.3445 213.218 58.457 213.093C58.7196 212.802 59.2805 213.044 60.1398 213.82C61.1931 214.77 61.2362 215.739 60.2693 216.727L60.1983 216.89C61.8862 216.301 63.4786 216.681 64.9753 218.032C66.1395 219.082 66.7061 220.335 66.6751 221.791C66.6177 223.248 65.9075 224.731 64.5445 226.242L61.2244 229.921C60.9492 230.226 60.8496 230.601 60.9253 231.047C60.9872 231.48 60.9806 231.738 60.9056 231.821L60.8493 231.884C60.6993 232.05 60.5015 232.06 60.2561 231.914L58.2285 230.65C57.7918 230.382 57.6798 230.13 57.8924 229.894L62.8464 224.446C63.9343 223.24 64.5705 222.117 64.755 221.077C64.9131 220.038 64.5972 219.162 63.8072 218.449C63.0589 217.774 62.1726 217.502 61.1485 217.634C60.1105 217.753 59.1663 218.284 58.316 219.226L54.3019 223.675C54.0393 223.966 53.9527 224.341 54.0424 224.799C54.1181 225.244 54.1122 225.515 54.0247 225.612L53.9684 225.675C53.8183 225.841 53.6206 225.851 53.3752 225.705L51.3268 224.423C50.904 224.167 50.7988 223.921 51.0114 223.686L58.2894 215.62Z" fill="black"/>
<path d="M39.2199 189.745C39.5366 189.511 39.7477 189.264 39.853 189.005C39.9424 188.755 39.963 188.536 39.9148 188.347C39.8506 188.168 39.812 187.995 39.799 187.828C39.786 187.662 39.8435 187.54 39.9715 187.463C40.3074 187.261 40.7833 187.672 41.399 188.696C41.7453 189.272 41.8963 189.758 41.8518 190.155C41.7914 190.562 41.4637 190.977 40.8687 191.4C42.3541 191.334 43.6066 192.149 44.6264 193.845C45.4345 195.189 45.7639 196.461 45.6147 197.662C45.4654 198.862 44.8229 199.804 43.6872 200.487C42.577 201.177 41.4647 201.301 40.3502 200.86C39.2261 200.404 38.2744 199.528 37.4951 198.232C36.7255 196.952 36.4538 195.776 36.68 194.703L36.061 195.141C34.6759 196.17 33.7581 197.125 33.3076 198.006C32.8571 198.886 32.9109 199.791 33.4688 200.719C33.8055 201.278 34.2285 201.656 34.7377 201.85C35.2469 202.045 35.7128 202.114 36.1353 202.056C36.5482 201.981 36.9563 201.954 37.3597 201.973C37.7631 201.991 38.0417 202.129 38.1957 202.385C38.3688 202.673 38.4284 202.953 38.3742 203.225C38.3104 203.481 38.1426 203.691 37.8706 203.854C37.1988 204.259 36.3632 204.227 35.3639 203.761C34.339 203.288 33.4514 202.428 32.701 201.18C31.8255 199.725 31.576 198.295 31.9523 196.893C32.303 195.484 33.2301 194.219 34.7335 193.097L39.2199 189.745ZM43.541 193.779C43.0696 192.995 42.4369 192.504 41.6428 192.307C40.8326 192.119 40.0613 192.267 39.3287 192.751L38.3066 193.496C37.8077 193.971 37.5266 194.553 37.4633 195.245C37.3903 195.921 37.5607 196.602 37.9744 197.29C38.465 198.106 39.0962 198.63 39.868 198.863C40.6397 199.096 41.3935 198.991 42.1294 198.549C43.0252 198.01 43.6183 197.294 43.9087 196.4C44.1735 195.501 44.0509 194.627 43.541 193.779Z" fill="black"/>
<path d="M22.1862 179.736C21.89 178.99 21.8501 178.333 22.0665 177.765C22.276 177.18 22.667 176.773 23.2395 176.546C24.055 176.222 24.6004 176.408 24.8759 177.101C24.993 177.396 24.9906 177.669 24.8686 177.918C24.7466 178.167 24.5867 178.371 24.3887 178.53C24.1838 178.672 24.0273 178.884 23.9191 179.168C23.8109 179.452 23.8291 179.777 23.9737 180.141C24.2492 180.835 24.8132 181.244 25.6656 181.367C26.4938 181.48 27.4196 181.334 28.4433 180.927L34.3768 178.572C34.7238 178.434 34.9464 178.135 35.0446 177.674C35.1255 177.22 35.2267 176.969 35.3482 176.921L35.4523 176.879C35.6605 176.797 35.8334 176.929 35.9712 177.276L37.2523 180.503C37.39 180.85 37.3548 181.065 37.1466 181.147L37.0425 181.189C36.9211 181.237 36.6856 181.15 36.3361 180.927C35.9623 180.694 35.602 180.646 35.255 180.784L27.3436 183.924C26.9793 184.069 26.7359 184.367 26.6134 184.817C26.4909 185.267 26.3689 185.516 26.2475 185.565L26.1954 185.585C26.0219 185.654 25.8141 185.586 25.572 185.381L23.902 183.754C23.5147 183.386 23.5466 183.112 23.9977 182.933L26.0796 182.107C24.1452 182.192 22.8474 181.401 22.1862 179.736Z" fill="black"/>
<path d="M25.7797 156.172C25.5509 156.089 25.4395 155.933 25.4455 155.702C25.4333 155.475 25.5588 155.351 25.822 155.331C26.8323 155.317 27.8549 155.701 28.8897 156.484C29.9245 157.268 30.6163 158.443 30.9649 160.01C31.3663 161.814 31.065 163.468 30.0612 164.973C29.0533 166.459 27.5107 167.433 25.4335 167.895C23.5203 168.321 21.7881 168.056 20.2369 167.101C18.6676 166.15 17.6802 164.763 17.2748 162.941C16.9302 161.392 17.0756 160.069 17.7111 158.972C18.3242 157.86 19.1501 157.189 20.1887 156.957C20.9722 156.783 21.605 157.092 22.0871 157.883L26.2588 164.901C27.3742 164.327 28.1819 163.574 28.6818 162.641C29.1593 161.693 29.2745 160.663 29.0272 159.552C28.6096 157.675 27.5271 156.549 25.7797 156.172ZM18.2406 163.157C18.4838 164.25 19.1542 165.028 20.2517 165.491C21.3492 165.955 22.6086 166.028 24.0298 165.712C24.5765 165.591 25.033 165.451 25.3994 165.293L21.8568 159.684C21.5773 159.288 21.2098 159.14 20.7542 159.241C20.0618 159.395 19.4221 159.872 18.8352 160.672C18.2442 161.454 18.046 162.282 18.2406 163.157Z" fill="black"/>
<path d="M26.5447 124.421C26.9383 124.41 27.2525 124.328 27.4873 124.175C27.7034 124.022 27.8457 123.853 27.9141 123.671C27.9639 123.487 28.0311 123.323 28.1156 123.179C28.2001 123.035 28.3169 122.968 28.4659 122.978C28.857 123.005 29.0124 123.614 28.9322 124.806C28.887 125.476 28.7327 125.962 28.4693 126.262C28.1872 126.561 27.6811 126.714 26.951 126.721C28.2071 127.517 28.7686 128.901 28.6356 130.876C28.5303 132.44 28.0731 133.672 27.2642 134.572C26.4552 135.472 25.3896 135.877 24.0673 135.788C22.7623 135.719 21.7786 135.185 21.1162 134.186C20.4551 133.169 20.1753 131.906 20.2769 130.397C20.3773 128.907 20.8269 127.787 21.6258 127.036L20.8678 127.041C19.143 127.093 17.844 127.352 16.9708 127.817C16.0976 128.282 15.6246 129.055 15.5519 130.135C15.508 130.787 15.6392 131.338 15.9456 131.789C16.252 132.24 16.5951 132.562 16.9749 132.756C17.356 132.932 17.7066 133.142 18.0268 133.389C18.347 133.635 18.4971 133.907 18.477 134.205C18.4544 134.54 18.3431 134.804 18.1431 134.996C17.9443 135.17 17.6866 135.246 17.37 135.225C16.5877 135.172 15.9201 134.669 15.3669 133.715C14.7964 132.741 14.56 131.527 14.6579 130.075C14.772 128.38 15.3844 127.065 16.4951 126.129C17.5885 125.174 19.0726 124.666 20.9476 124.605L26.5447 124.421ZM27.7831 130.201C27.8445 129.288 27.606 128.524 27.0675 127.908C26.5104 127.29 25.793 126.971 24.9151 126.949L23.6504 126.976C22.9699 127.08 22.406 127.397 21.9586 127.928C21.5125 128.441 21.2625 129.098 21.2085 129.898C21.1446 130.848 21.3626 131.639 21.8625 132.272C22.3625 132.904 23.0409 133.249 23.8976 133.307C24.9406 133.377 25.8366 133.129 26.5857 132.562C27.3175 131.975 27.7166 131.188 27.7831 130.201Z" fill="black"/>
<path d="M30.24 115.837C30.1652 116.183 30.0092 116.331 29.772 116.28L29.6899 116.262C29.5439 116.231 29.3858 116.034 29.2155 115.673C29.031 115.289 28.7654 115.06 28.4187 114.985L13.037 111.665C12.7268 111.598 12.4536 111.625 12.2175 111.746C11.967 111.844 11.7602 111.962 11.597 112.099C11.4338 112.235 11.2975 112.292 11.188 112.268L11.1333 112.256C10.9873 112.225 10.8689 112.066 10.7781 111.779L10.1989 109.419C10.1485 109.122 10.1847 108.91 10.3074 108.784C10.4119 108.654 10.5645 108.61 10.7652 108.654L28.9386 112.577C29.2853 112.651 29.6238 112.543 29.9541 112.252C30.27 111.938 30.501 111.797 30.647 111.828L30.7291 111.846C30.9663 111.897 31.0455 112.105 30.9667 112.47L30.24 115.837Z" fill="black"/>
<path d="M27.4176 81.8612C27.5158 81.6191 27.6687 81.5401 27.8763 81.6242L27.9541 81.6558C28.0925 81.7119 28.2162 81.9534 28.3251 82.3803C28.4237 82.7828 28.6266 83.127 28.9338 83.4126L37.5546 91.1382C37.8515 91.3995 37.9368 91.6859 37.8105 91.9973L37.6106 92.4903C37.4633 92.8536 37.1957 93.017 36.8076 92.9805L26.4331 92.1881L34.4193 98.8707C34.7232 99.1148 34.8085 99.4011 34.6752 99.7298L34.5384 100.067C34.4051 100.396 34.1375 100.559 33.7354 100.557L22.0213 100.461C21.6192 100.459 21.241 100.547 20.8866 100.726C20.5392 100.887 20.2963 100.939 20.1579 100.883L20.08 100.852C19.8725 100.768 19.8213 100.596 19.9265 100.336L21.2522 97.0668C21.3504 96.8246 21.5032 96.7456 21.7108 96.8298L21.7887 96.8614C21.9098 96.9105 21.9871 97.0426 22.0208 97.2576C22.0544 97.4727 22.1332 97.6759 22.2571 97.8671C22.381 98.0583 22.6197 98.1652 22.9731 98.1876L32.424 98.5753L24.0129 91.5995C23.7641 91.4181 23.6854 91.215 23.7766 90.9901L24.0978 90.1233C24.182 89.9157 24.38 89.8247 24.6918 89.8505L35.6842 90.833L28.6525 84.628C28.3556 84.3666 28.0805 84.2752 27.827 84.3538C27.5736 84.4323 27.3408 84.5594 27.1285 84.7352C26.9232 84.8937 26.7601 84.9484 26.639 84.8993L26.5611 84.8677C26.3536 84.7836 26.3024 84.6117 26.4076 84.3523L27.4176 81.8612Z" fill="black"/>
<path d="M47.7874 70.6351C48.1331 70.8236 48.4458 70.911 48.7255 70.8972C48.9897 70.8729 49.1972 70.7991 49.3481 70.6758C49.4835 70.542 49.624 70.4342 49.7695 70.3522C49.9149 70.2703 50.0495 70.2711 50.1733 70.3547C50.4981 70.5742 50.3261 71.1789 49.6573 72.1688C49.2811 72.7256 48.9036 73.0676 48.5249 73.1947C48.1307 73.3113 47.6163 73.1891 46.9818 72.8279C47.6674 74.1472 47.4563 75.6266 46.3486 77.2661C45.4708 78.5654 44.4561 79.4005 43.3045 79.7713C42.1528 80.1421 41.0279 79.9566 39.9297 79.2146C38.8365 78.4986 38.2548 77.5424 38.1845 76.346C38.1247 75.1341 38.518 73.9018 39.3645 72.6489C40.2005 71.4115 41.1525 70.6693 42.2205 70.4222L41.5627 70.0453C40.0457 69.2232 38.7928 68.7935 37.8042 68.7563C36.8156 68.7192 36.0182 69.1491 35.4121 70.0462C35.0464 70.5876 34.8825 71.1302 34.9206 71.6741C34.9586 72.2179 35.0931 72.6692 35.3238 73.0278C35.565 73.371 35.7622 73.7295 35.9152 74.1032C36.0682 74.4769 36.0611 74.7875 35.8939 75.035C35.7058 75.3134 35.4769 75.4854 35.2073 75.551C34.9481 75.6012 34.6871 75.5375 34.4241 75.3598C33.7745 74.9209 33.4505 74.1501 33.4521 73.0474C33.4487 71.9187 33.8546 70.7511 34.6697 69.5447C35.6206 68.1371 36.8113 67.3083 38.2418 67.0583C39.6673 66.7823 41.2056 67.0895 42.8569 67.9798L47.7874 70.6351ZM45.9511 76.2541C46.4631 75.4962 46.6414 74.7155 46.4858 73.9121C46.3148 73.0982 45.8554 72.4611 45.1075 72.0009L44.0007 71.3884C43.3603 71.1359 42.7132 71.1267 42.0594 71.3609C41.4161 71.5795 40.8697 72.0214 40.4204 72.6865C39.8875 73.4753 39.6781 74.2688 39.7922 75.0668C39.9064 75.8648 40.3192 76.5041 41.0307 76.9848C41.8969 77.57 42.7963 77.806 43.7289 77.6926C44.6565 77.5534 45.3972 77.0739 45.9511 76.2541Z" fill="black"/>
<path d="M54.3912 46.6063C54.5743 46.4198 54.7457 46.4049 54.9056 46.5618L54.9656 46.6206C55.0855 46.7383 55.1277 47.0151 55.0923 47.451C55.0699 47.8736 55.1466 48.3019 55.3223 48.7358L59.9507 60.6904C60.2481 61.4268 60.4511 61.9529 60.5597 62.2686C60.6816 62.5975 60.8384 63.1174 61.03 63.8283C61.2346 64.526 61.3323 65.0794 61.323 65.4887C61.327 65.9111 61.2457 66.3805 61.079 66.8968C60.9387 67.413 60.6856 67.8576 60.3195 68.2307C59.6267 68.9369 58.8582 69.3336 58.0143 69.4208C57.1836 69.5212 56.5551 69.3621 56.1287 68.9438C55.8889 68.7085 55.7611 68.4523 55.7452 68.1753C55.7294 67.8982 55.8391 67.6398 56.0744 67.3999C56.2967 67.1734 56.5795 67.0717 56.9229 67.0949C57.2797 67.1311 57.6106 67.2335 57.9158 67.4022C58.2341 67.5576 58.5715 67.6401 58.928 67.6499C59.3109 67.6595 59.6396 67.5244 59.9141 67.2445C60.6854 66.4584 60.4302 64.6128 59.1486 61.7079L46.9291 57.2506C46.4922 57.1095 46.0496 57.0676 45.6013 57.1246C45.1662 57.1684 44.8886 57.1314 44.7687 57.0138L44.7087 56.9549C44.5488 56.7981 44.5669 56.6197 44.763 56.4198L47.3123 53.8215C47.4953 53.635 47.6667 53.6202 47.8266 53.777L47.8866 53.8359C47.9799 53.9274 48.0276 54.0919 48.0299 54.3295C48.0319 54.5407 48.0601 54.7252 48.1144 54.8831C48.1553 55.0279 48.3814 55.1973 48.7924 55.3914L58.3917 59.1609L54.5802 49.8121C54.4449 49.4702 54.2713 49.2606 54.0594 49.1834C53.8342 49.0932 53.6294 49.0753 53.4451 49.1299C53.2475 49.1714 53.0499 49.2129 52.8523 49.2544C52.6547 49.2958 52.5159 49.2774 52.436 49.1989L52.376 49.1401C52.2161 48.9832 52.2342 48.8048 52.4303 48.605L54.3912 46.6063Z" fill="black"/>
<path d="M73.7027 48.7841C72.3028 49.7788 70.9768 50.2974 69.7246 50.3399C68.4876 50.3715 67.6529 50.083 67.2204 49.4743C66.8204 48.9113 66.9171 48.419 67.5105 47.9973C67.7692 47.8135 68.0449 47.7665 68.3376 47.8562C68.6347 47.9198 68.9415 48.0453 69.2578 48.2327C69.5742 48.4201 69.9134 48.5913 70.2754 48.7463C70.6526 48.8904 71.1017 48.9263 71.6226 48.8538C72.1328 48.7661 72.6694 48.5222 73.2324 48.1222C73.9932 47.5816 74.4928 46.9633 74.731 46.2673C74.9584 45.5561 74.8505 44.8886 74.4072 44.2647C73.9747 43.656 73.3961 43.3573 72.6713 43.3685C71.9617 43.369 71.2159 43.544 70.4339 43.8936C69.641 44.2279 68.8373 44.5471 68.0228 44.8511C67.2083 45.155 66.3846 45.2365 65.5517 45.0956C64.734 44.9438 64.0332 44.4571 63.4494 43.6354C62.8223 42.7528 62.7011 41.7283 63.0859 40.5618C63.4599 39.3801 64.2708 38.346 65.5185 37.4594C66.8424 36.5187 68.1152 36.038 69.3369 36.0171C70.5586 35.9963 71.4074 36.3206 71.8831 36.9902C72.0453 37.2184 72.0968 37.4681 72.0375 37.7392C71.9935 37.9995 71.8573 38.2107 71.6291 38.3729C71.3552 38.5675 71.0166 38.5905 70.6134 38.442C70.2101 38.2934 69.8157 38.0928 69.43 37.8401C69.0596 37.5767 68.5739 37.4409 67.9728 37.4329C67.3718 37.4249 66.7517 37.648 66.1126 38.1021C65.4431 38.5778 65.0152 39.1681 64.829 39.8729C64.6581 40.5668 64.7726 41.1953 65.1726 41.7583C65.5943 42.3518 66.1599 42.6483 66.8695 42.6479C67.5835 42.6214 68.3369 42.441 69.1298 42.1066C69.9227 41.7722 70.7187 41.4585 71.518 41.1654C72.3325 40.8614 73.154 40.7929 73.9825 40.9599C74.8154 41.1008 75.5292 41.5897 76.1239 42.4267C76.751 43.3092 76.8493 44.35 76.4188 45.5489C75.9928 46.7218 75.0874 47.8002 73.7027 48.7841Z" fill="black"/>
<path d="M101.875 34.3165C100.022 34.9546 98.232 34.8601 96.5061 34.0329C94.7917 33.182 93.6063 31.8035 92.95 29.8973C92.2815 27.9558 92.3584 26.1723 93.1806 24.5467C94.0205 22.9151 95.364 21.7714 97.2112 21.1157C98.5818 20.624 99.9035 20.5638 101.176 20.9349C102.461 21.2824 103.237 21.8444 103.504 22.621C103.723 23.2564 103.476 23.6868 102.764 23.9122C102.423 24.01 102.044 23.9429 101.629 23.7109C101.225 23.4551 100.838 23.1638 100.469 22.8368C100.111 22.4861 99.6247 22.2194 99.0089 22.0366C98.4109 21.8476 97.7676 21.8717 97.0793 22.1087C95.985 22.4855 95.2398 23.2455 94.8438 24.3887C94.4416 25.5143 94.4685 26.7389 94.9242 28.0626C95.5562 29.8982 96.5314 31.2109 97.8497 32.0008C99.1619 32.773 100.559 32.9038 102.042 32.3934C102.907 32.0956 103.569 31.6109 104.029 30.9393C104.5 30.244 104.779 29.4768 104.865 28.6377C104.898 28.3894 105.038 28.2523 105.286 28.2262C105.534 28.2002 105.674 28.3198 105.706 28.5851C105.865 29.7347 105.619 30.8558 104.968 31.9484C104.336 33.0349 103.305 33.8243 101.875 34.3165Z" fill="black"/>
<path d="M125.291 26.4837C125.387 26.8657 125.534 27.1549 125.734 27.3513C125.931 27.5292 126.126 27.632 126.318 27.6595C126.509 27.6685 126.683 27.6988 126.842 27.7503C127.001 27.8018 127.091 27.9014 127.114 28.0491C127.172 28.4367 126.611 28.7197 125.429 28.8981C124.765 28.9985 124.258 28.9524 123.908 28.7598C123.555 28.5488 123.297 28.0876 123.132 27.3761C122.626 28.774 121.395 29.6208 119.438 29.9162C117.888 30.1504 116.586 29.9694 115.533 29.3733C114.481 28.7772 113.855 27.8239 113.657 26.5134C113.444 25.2242 113.753 24.1486 114.586 23.2866C115.437 22.4218 116.61 21.8765 118.105 21.6507C119.582 21.4277 120.772 21.6254 121.678 22.2438L121.509 21.5046C121.087 19.8316 120.554 18.6189 119.912 17.8664C119.27 17.1138 118.413 16.8184 117.343 16.9801C116.697 17.0777 116.187 17.3246 115.812 17.721C115.438 18.1173 115.197 18.5219 115.09 18.9345C115 19.3445 114.87 19.7322 114.699 20.0979C114.528 20.4636 114.294 20.6688 113.999 20.7134C113.667 20.7635 113.385 20.7117 113.154 20.5578C112.942 20.4011 112.812 20.1658 112.765 19.8521C112.647 19.0768 112.995 18.3164 113.808 17.5707C114.636 16.8038 115.769 16.3116 117.209 16.0942C118.889 15.8405 120.305 16.1552 121.458 17.0382C122.626 17.9001 123.442 19.2399 123.906 21.0578L125.291 26.4837ZM119.914 28.9383C120.818 28.8017 121.513 28.4041 121.999 27.7455C122.482 27.0685 122.639 26.299 122.471 25.4371L122.173 24.2079C121.924 23.5657 121.493 23.0835 120.878 22.761C120.281 22.4358 119.586 22.3331 118.793 22.453C117.851 22.5952 117.126 22.9785 116.616 23.603C116.106 24.2274 115.915 24.9642 116.044 25.8132C116.2 26.8468 116.635 27.6683 117.35 28.2777C118.081 28.8659 118.935 29.086 119.914 28.9383Z" fill="black"/>
<path d="M141.966 14.6194C143.737 14.6919 145.222 15.3878 146.42 16.7072C147.637 18.0087 148.205 19.6666 148.122 21.6809C148.038 23.7325 147.343 25.4229 146.037 26.7519C144.751 28.0631 143.212 28.6821 141.421 28.6088C139.706 28.5387 138.352 27.8387 137.36 26.5091L137.114 32.5241C137.102 32.8225 137.185 33.0688 137.364 33.2629C137.543 33.457 137.714 33.6135 137.877 33.7323C138.058 33.8704 138.146 34.0048 138.141 34.1354L138.137 34.2193C138.127 34.4618 137.936 34.5754 137.563 34.5601L134.122 34.4194C133.73 34.4033 133.539 34.2741 133.549 34.0316L133.553 33.9477C133.557 33.8358 133.618 33.7262 133.734 33.6188C133.85 33.5302 133.965 33.4508 134.08 33.3808C134.214 33.3115 134.34 33.1953 134.459 33.032C134.578 32.8687 134.642 32.6658 134.652 32.4234L135.258 17.5957C135.273 17.2414 135.099 16.926 134.737 16.6496C134.375 16.3546 134.197 16.1325 134.203 15.9833L134.207 15.8994C134.216 15.6755 134.372 15.5138 134.675 15.4141L136.729 14.5173C137.262 14.2962 137.517 14.4374 137.497 14.941L137.393 16.7863C137.852 16.0765 138.481 15.5324 139.282 15.1541C140.101 14.758 140.996 14.5797 141.966 14.6194ZM141.122 27.6999C142.409 27.7525 143.456 27.2909 144.262 26.315C145.087 25.3212 145.535 23.9664 145.605 22.2505C145.684 20.3108 145.329 18.7176 144.539 17.471C143.75 16.2057 142.675 15.5452 141.314 15.4895C140.456 15.4544 139.669 15.7305 138.954 16.3177C138.258 16.8871 137.836 17.5985 137.689 18.4518L137.494 23.2358C137.448 24.3549 137.789 25.3684 138.518 26.2762C139.266 27.1849 140.134 27.6594 141.122 27.6999Z" fill="black"/>
<path d="M167.242 30.1143C167.189 30.5044 167.218 30.8277 167.33 31.0843C167.446 31.3227 167.589 31.4906 167.758 31.588C167.931 31.6672 168.081 31.7602 168.21 31.8672C168.338 31.9742 168.385 32.1003 168.35 32.2457C168.26 32.6272 167.634 32.6808 166.471 32.4065C165.817 32.2522 165.364 32.0206 165.111 31.7115C164.862 31.3843 164.794 30.86 164.906 30.1386C163.916 31.2475 162.458 31.5748 160.532 31.1205C159.006 30.7605 157.865 30.1078 157.11 29.1625C156.355 28.2172 156.129 27.0996 156.434 25.8097C156.716 24.5336 157.403 23.6506 158.497 23.1607C159.609 22.675 160.901 22.6057 162.372 22.9528C163.826 23.2957 164.857 23.9227 165.467 24.8337L165.586 24.085C165.817 22.375 165.775 21.0512 165.459 20.1136C165.143 19.1761 164.458 18.583 163.404 18.3344C162.768 18.1844 162.203 18.2236 161.708 18.4521C161.213 18.6805 160.839 18.9662 160.585 19.3092C160.35 19.6564 160.085 19.9678 159.789 20.2434C159.494 20.519 159.201 20.6225 158.911 20.554C158.584 20.4768 158.342 20.3238 158.185 20.095C158.046 19.8705 158.013 19.6038 158.086 19.2949C158.266 18.5319 158.872 17.9556 159.903 17.566C160.957 17.1626 162.193 17.128 163.61 17.4623C165.263 17.8524 166.46 18.6718 167.202 19.9206C167.965 21.1556 168.223 22.7029 167.976 24.5625L167.242 30.1143ZM161.337 30.3898C162.227 30.5999 163.021 30.4897 163.717 30.0593C164.417 29.6108 164.85 28.9553 165.015 28.0929L165.195 26.8408C165.204 26.1525 164.983 25.5442 164.532 25.0159C164.1 24.4919 163.493 24.1378 162.712 23.9535C161.785 23.7349 160.969 23.8205 160.263 24.2102C159.558 24.5999 159.106 25.2127 158.909 26.0484C158.669 27.0658 158.767 27.9904 159.204 28.8222C159.663 29.6402 160.374 30.1627 161.337 30.3898Z" fill="black"/>
<path d="M182.559 25.2696C183.939 24.5546 185.439 24.557 187.06 25.2767C188.68 25.9964 189.805 27.1901 190.432 28.8577C191.085 30.5159 191.002 32.2663 190.184 34.1088C189.351 35.9854 188.082 37.3012 186.378 38.056C184.699 38.8014 183.041 38.8105 181.403 38.0832C179.714 37.3332 178.689 36.1016 178.326 34.3883L177.772 35.7048C177.651 35.9778 177.445 36.0498 177.155 35.9211L174.94 34.9068C174.684 34.7932 174.598 34.6425 174.681 34.4549L174.715 34.3781C174.768 34.2587 175.005 34.1392 175.426 34.0197C175.864 33.9077 176.159 33.6811 176.31 33.3399L182.674 19.0093C182.81 18.7022 182.835 18.417 182.747 18.1536C182.66 17.8901 182.554 17.6694 182.429 17.4912C182.311 17.2961 182.279 17.1388 182.332 17.0193L182.366 16.9426C182.434 16.789 182.64 16.7169 182.983 16.7263L185.436 16.6516C185.728 16.6383 185.927 16.696 186.033 16.8248C186.157 16.9613 186.169 17.1404 186.071 17.3622L182.559 25.2696ZM181.434 37.1166C182.628 37.6469 183.78 37.6067 184.888 36.9961C186.022 36.3759 186.937 35.2811 187.634 33.7116C188.422 31.9373 188.669 30.3215 188.377 28.8641C188.109 27.3972 187.353 26.3872 186.107 25.8342C185.254 25.4554 184.368 25.45 183.449 25.818C182.538 26.1689 181.889 26.7794 181.502 27.6495L179.889 31.2833L179.704 31.6302L179.73 31.6416C179.275 32.6652 179.219 33.7332 179.563 34.8456C179.923 35.9657 180.547 36.7226 181.434 37.1166Z" fill="black"/>
<path d="M193.705 44.2619C193.406 44.0711 193.322 43.8735 193.452 43.6689L193.497 43.5981C193.578 43.4722 193.817 43.3922 194.215 43.3583C194.639 43.3187 194.946 43.1494 195.137 42.8503L203.599 29.5836C203.77 29.3161 203.84 29.0506 203.809 28.7871C203.803 28.5179 203.765 28.2831 203.693 28.0826C203.622 27.8821 203.616 27.7346 203.677 27.6402L203.707 27.593C203.787 27.4671 203.978 27.4114 204.278 27.4261L206.692 27.7036C206.988 27.7597 207.174 27.8673 207.25 28.0263C207.335 28.1696 207.323 28.3277 207.213 28.5009L197.214 44.1754C197.023 44.4745 197.007 44.8295 197.166 45.2406C197.35 45.6459 197.402 45.9115 197.322 46.0374L197.277 46.1083C197.146 46.3128 196.923 46.3148 196.609 46.114L193.705 44.2619Z" fill="black"/>
<path d="M214.199 54.8599C214.432 54.789 214.615 54.8477 214.749 55.036C214.895 55.2101 214.869 55.3842 214.67 55.5584C213.87 56.1759 212.822 56.4816 211.524 56.4756C210.226 56.4695 208.968 55.9441 207.749 54.8994C206.346 53.6967 205.594 52.1924 205.495 50.3863C205.41 48.5925 206.06 46.8877 207.445 45.272C208.721 43.7838 210.265 42.9568 212.079 42.7907C213.906 42.6105 215.528 43.1278 216.945 44.3426C218.149 45.3752 218.827 46.5212 218.977 47.7805C219.153 49.0379 218.895 50.0704 218.202 50.8783C217.68 51.4877 216.988 51.6204 216.128 51.2762L208.581 48.1632C208.032 49.291 207.838 50.3782 207.998 51.425C208.184 52.4697 208.709 53.3626 209.574 54.1037C211.034 55.3549 212.576 55.607 214.199 54.8599ZM216.043 44.7496C215.192 44.0207 214.189 43.8 213.033 44.0875C211.877 44.375 210.825 45.0715 209.878 46.177C209.513 46.6022 209.232 46.9879 209.033 47.3341L215.232 49.6969C215.694 49.8467 216.076 49.7445 216.38 49.3902C216.842 48.8516 217.067 48.0863 217.057 47.0942C217.061 46.1142 216.723 45.3327 216.043 44.7496Z" fill="black"/>
<path d="M228.164 78.476C226.993 76.6547 226.627 74.7924 227.068 72.889C227.534 70.9912 228.599 69.5073 230.264 68.4371C231.897 67.3871 233.608 67.0633 235.398 67.4658C237.204 67.8581 238.627 68.8629 239.667 70.48C240.787 72.2228 241.125 74.0252 240.68 75.887C240.261 77.7545 239.211 79.2284 237.531 80.3086C235.883 81.3687 234.168 81.739 232.387 81.4196C230.621 81.0901 229.214 80.1089 228.164 78.476ZM229.123 78.2588C229.718 79.1852 230.6 79.6943 231.769 79.7861C232.948 79.8936 234.189 79.5284 235.492 78.6904C237.156 77.6203 238.301 76.3292 238.927 74.8173C239.568 73.2952 239.505 71.9375 238.738 70.7443C238.092 69.7394 237.174 69.1754 235.986 69.0522C234.812 68.9188 233.574 69.2712 232.271 70.1091C230.701 71.1187 229.582 72.4154 228.913 73.9991C228.245 75.5829 228.315 77.0028 229.123 78.2588Z" fill="black"/>
<path d="M256.537 87.8551C256.93 88.7633 257.022 89.6589 256.814 90.5419C256.613 91.442 256.17 92.0402 255.485 92.3364C255.245 92.4401 254.994 92.447 254.731 92.3571C254.486 92.2598 254.3 92.0655 254.174 91.7742C253.982 91.3287 253.969 90.9476 254.137 90.6309C254.33 90.3239 254.582 90.083 254.893 89.908C255.211 89.7502 255.455 89.4921 255.626 89.1337C255.804 88.7924 255.781 88.3648 255.559 87.8508C255.214 87.0037 254.459 86.669 253.295 86.8466C252.139 87.0413 250.971 87.5865 249.793 88.4823L249.099 88.7822L250.643 92.3548C250.687 92.4576 250.681 92.5618 250.625 92.6674C250.586 92.7655 250.524 92.8331 250.438 92.8702L250.104 93.0146C249.881 93.1108 249.718 93.039 249.615 92.7991L248.071 89.2265L238.586 93.3253C238.329 93.4364 238.156 93.6232 238.066 93.8857C237.976 94.1482 237.912 94.3997 237.873 94.64C237.842 94.8974 237.767 95.0521 237.647 95.1039L237.57 95.1372C237.364 95.2261 237.206 95.142 237.095 94.885L235.528 91.261C235.417 91.0039 235.465 90.831 235.67 90.7421L235.747 90.7088C235.867 90.657 236.021 90.6822 236.207 90.7846C236.401 90.9041 236.617 91.004 236.855 91.0841C237.101 91.1814 237.352 91.1745 237.609 91.0635L247.093 86.9647L246.171 84.8314C246.06 84.5743 246.116 84.3977 246.339 84.3014L246.673 84.157C246.913 84.0533 247.088 84.13 247.199 84.387L248.121 86.5204L250.357 85.554C251.659 84.9912 252.873 84.9042 253.996 85.2929C255.12 85.6817 255.967 86.5357 256.537 87.8551Z" fill="black"/>
<path d="M258.553 125.313C258.644 125.96 258.54 126.295 258.242 126.319C258.147 126.313 258.056 126.269 257.969 126.187C257.8 126.06 257.662 125.882 257.554 125.652C257.447 125.422 257.35 125.134 257.263 124.788C257.177 124.442 257.093 124.181 257.011 124.004C256.651 124.658 256.144 125.21 255.491 125.66C254.857 126.107 254.179 126.382 253.458 126.483C252.312 126.645 251.263 126.491 250.311 126.022C249.359 125.553 248.588 124.832 247.999 123.859C247.907 125.079 247.589 126.038 247.047 126.736C246.523 127.432 245.845 127.838 245.013 127.956C243.738 128.135 242.646 127.676 241.737 126.579C240.813 125.503 240.216 124.013 239.948 122.109C239.672 120.15 239.908 118.542 240.655 117.287C241.383 116.035 242.256 115.337 243.272 115.194C243.568 115.152 243.829 115.2 244.056 115.338C244.285 115.494 244.423 115.738 244.47 116.071C244.507 116.33 244.427 116.567 244.231 116.783C244.057 117.015 243.82 117.209 243.521 117.364C243.207 117.54 242.879 117.756 242.538 118.012C242.181 118.288 241.864 118.578 241.586 118.881C241.292 119.205 241.072 119.651 240.926 120.218C240.78 120.785 240.757 121.429 240.859 122.15C241.018 123.278 241.433 124.152 242.105 124.774C242.777 125.396 243.575 125.642 244.499 125.511C245.386 125.386 246.068 125.008 246.545 124.375C247.04 123.74 247.267 122.944 247.227 121.989C247.122 121.513 247.054 121.165 247.023 120.943C246.788 119.279 247.108 117.801 247.982 116.51C248.874 115.215 250.069 114.463 251.566 114.252C253.211 114.02 254.631 114.395 255.824 115.377C257.037 116.356 257.772 117.761 258.03 119.59C258.1 120.09 258.159 120.845 258.207 121.856C258.256 122.867 258.371 124.02 258.553 125.313ZM248 121.258C248.149 122.311 248.618 123.103 249.409 123.632C250.219 124.159 251.169 124.346 252.259 124.192C253.738 123.984 254.948 123.408 255.89 122.465C256.852 121.538 257.249 120.473 257.08 119.272C256.942 118.292 256.479 117.547 255.691 117.036C254.905 116.543 253.976 116.372 252.904 116.523C251.407 116.734 250.175 117.294 249.21 118.203C248.247 119.13 247.844 120.148 248 121.258Z" fill="black"/>
<path d="M259.167 142.302C259.148 143.104 258.928 143.725 258.507 144.163C258.086 144.62 257.567 144.841 256.951 144.826C256.074 144.806 255.644 144.422 255.662 143.676C255.669 143.358 255.778 143.109 255.988 142.927C256.197 142.745 256.424 142.62 256.669 142.551C256.913 142.501 257.14 142.366 257.35 142.147C257.561 141.928 257.671 141.622 257.68 141.231C257.698 140.484 257.338 139.887 256.602 139.441C255.884 139.013 254.974 138.786 253.873 138.76L247.491 138.609C247.118 138.6 246.796 138.789 246.526 139.175C246.274 139.561 246.082 139.752 245.952 139.749L245.84 139.747C245.616 139.741 245.508 139.552 245.517 139.179L245.599 135.708C245.608 135.335 245.724 135.151 245.948 135.156L246.06 135.159C246.191 135.162 246.374 135.334 246.608 135.676C246.861 136.036 247.174 136.221 247.547 136.23L256.057 136.431C256.449 136.44 256.789 136.261 257.078 135.895C257.367 135.528 257.576 135.346 257.707 135.35L257.763 135.351C257.95 135.355 258.114 135.499 258.257 135.783L259.158 137.932C259.371 138.423 259.235 138.662 258.749 138.651L256.51 138.598C258.324 139.276 259.21 140.51 259.167 142.302Z" fill="black"/>
<path d="M246.65 162.587C246.829 162.753 246.87 162.941 246.774 163.151C246.697 163.364 246.533 163.429 246.283 163.345C245.347 162.963 244.556 162.21 243.91 161.084C243.263 159.959 243.086 158.607 243.377 157.028C243.713 155.211 244.637 153.806 246.149 152.813C247.657 151.839 249.458 151.545 251.551 151.932C253.478 152.287 254.969 153.208 256.023 154.694C257.096 156.182 257.463 157.845 257.124 159.68C256.836 161.241 256.185 162.402 255.171 163.164C254.172 163.947 253.15 164.243 252.103 164.049C251.314 163.904 250.852 163.372 250.718 162.455L249.621 154.366C248.37 154.457 247.332 154.835 246.507 155.499C245.697 156.185 245.189 157.087 244.982 158.207C244.633 160.098 245.189 161.558 246.65 162.587ZM256.319 159.105C256.523 158.003 256.21 157.025 255.381 156.169C254.552 155.314 253.421 154.754 251.989 154.49C251.439 154.388 250.964 154.338 250.565 154.341L251.634 160.888C251.736 161.362 252.017 161.642 252.475 161.726C253.173 161.855 253.948 161.666 254.801 161.159C255.651 160.671 256.157 159.986 256.319 159.105Z" fill="black"/>
<path d="M238.905 180.672C238.525 180.569 238.2 180.557 237.931 180.635C237.68 180.72 237.495 180.84 237.377 180.995C237.277 181.157 237.165 181.294 237.043 181.408C236.92 181.521 236.789 181.552 236.649 181.499C236.282 181.361 236.309 180.733 236.73 179.615C236.966 178.986 237.254 178.566 237.593 178.354C237.949 178.149 238.478 178.148 239.179 178.352C238.206 177.228 238.067 175.74 238.764 173.888C239.316 172.421 240.109 171.373 241.143 170.745C242.177 170.117 243.314 170.036 244.555 170.502C245.784 170.945 246.572 171.74 246.918 172.887C247.258 174.052 247.162 175.342 246.629 176.757C246.104 178.155 245.35 179.098 244.369 179.586L245.096 179.8C246.763 180.247 248.081 180.374 249.051 180.181C250.021 179.987 250.697 179.384 251.078 178.371C251.308 177.759 251.342 177.193 251.178 176.673C251.015 176.153 250.779 175.745 250.472 175.45C250.157 175.172 249.882 174.869 249.647 174.541C249.411 174.213 249.346 173.91 249.451 173.63C249.569 173.316 249.752 173.095 249.999 172.969C250.239 172.86 250.508 172.861 250.805 172.973C251.539 173.249 252.033 173.923 252.288 174.996C252.553 176.093 252.429 177.323 251.917 178.686C251.319 180.276 250.353 181.359 249.02 181.934C247.698 182.534 246.13 182.592 244.317 182.11L238.905 180.672ZM239.386 174.78C239.064 175.637 239.072 176.437 239.409 177.183C239.765 177.935 240.36 178.447 241.194 178.721L242.413 179.06C243.094 179.157 243.726 179.015 244.307 178.636C244.882 178.274 245.311 177.717 245.594 176.966C245.929 176.075 245.948 175.254 245.652 174.505C245.355 173.755 244.805 173.229 244.002 172.927C243.023 172.559 242.094 172.538 241.213 172.865C240.343 173.216 239.734 173.854 239.386 174.78Z" fill="black"/>
<path d="M230.467 191.579C231.023 190.607 231.77 190.012 232.71 189.797C233.657 189.606 234.73 189.854 235.93 190.538L243.201 194.689L244.117 193.084C244.256 192.841 244.447 192.789 244.69 192.928L244.933 193.067C245.176 193.205 245.228 193.396 245.09 193.64L244.59 194.515C243.96 195.617 244.379 196.673 245.845 197.682C246.151 197.899 246.234 198.13 246.095 198.373L245.956 198.616C245.808 198.875 245.572 198.912 245.248 198.727L242.924 197.433L241.008 200.789C240.953 200.886 240.866 200.944 240.748 200.962C240.637 201.006 240.533 201.001 240.435 200.945L240.192 200.806C239.949 200.667 239.897 200.476 240.036 200.233L241.951 196.878L234.656 192.713C234.008 192.343 233.427 192.194 232.913 192.266C232.399 192.338 232.008 192.609 231.739 193.079C231.443 193.598 231.337 194.085 231.42 194.541C231.511 195.023 231.761 195.413 232.171 195.711C232.319 195.903 232.322 196.087 232.178 196.264C232.042 196.465 231.868 196.506 231.657 196.385C230.863 195.932 230.332 195.242 230.066 194.316C229.806 193.415 229.94 192.503 230.467 191.579Z" fill="black"/>
<path d="M218.725 211.646C218.482 211.471 218.235 211.39 217.985 211.401C217.734 211.413 217.51 211.435 217.315 211.467C217.122 211.526 216.974 211.514 216.873 211.431L216.787 211.36C216.599 211.207 216.63 210.978 216.878 210.675L218.991 208.098C219.239 207.795 219.457 207.721 219.645 207.874L219.732 207.945C219.833 208.028 219.878 208.283 219.867 208.708C219.844 209.148 219.983 209.479 220.283 209.701L224.791 213.036C226.123 214.031 227.309 214.557 228.35 214.614C229.392 214.696 230.233 214.348 230.872 213.568C231.523 212.774 231.775 211.894 231.626 210.927C231.477 209.96 230.97 209.122 230.104 208.412L224.842 204.098C224.669 203.955 224.482 203.875 224.281 203.855C224.083 203.861 223.913 203.891 223.773 203.945C223.632 203.998 223.483 204.033 223.325 204.049C223.17 204.09 223.05 204.076 222.963 204.005L222.876 203.934C222.689 203.78 222.719 203.551 222.968 203.248L225.187 200.542C225.424 200.253 225.636 200.186 225.824 200.34L225.91 200.411C226.026 200.505 226.065 200.767 226.027 201.195C225.978 201.637 226.098 201.977 226.387 202.214L232.947 207.593C233.222 207.818 233.496 207.91 233.771 207.87C234.048 207.856 234.295 207.805 234.511 207.717C234.716 207.644 234.869 207.648 234.971 207.731L235.035 207.785C235.165 207.891 235.179 208.095 235.076 208.397L234.524 210.66C234.459 210.945 234.35 211.109 234.195 211.151C234.04 211.192 233.875 211.142 233.702 211L232.122 209.704C232.467 210.519 232.578 211.37 232.454 212.258C232.318 213.16 231.948 213.979 231.344 214.715C230.421 215.841 229.254 216.454 227.845 216.554C226.424 216.668 224.871 216.118 223.186 214.906L218.725 211.646Z" fill="black"/>
<path d="M205.149 226.624C205.181 226.865 205.093 227.036 204.886 227.137C204.69 227.253 204.523 227.198 204.383 226.974C203.905 226.084 203.775 224.999 203.993 223.72C204.212 222.441 204.936 221.285 206.166 220.254C207.582 219.066 209.189 218.572 210.987 218.769C212.771 218.979 214.346 219.899 215.714 221.53C216.973 223.032 217.536 224.691 217.403 226.508C217.282 228.339 216.506 229.854 215.075 231.054C213.86 232.073 212.618 232.554 211.351 232.495C210.082 232.463 209.106 232.04 208.422 231.224C207.906 230.609 207.889 229.905 208.369 229.113L212.675 222.177C211.653 221.451 210.612 221.082 209.553 221.068C208.492 221.081 207.525 221.453 206.653 222.185C205.179 223.42 204.678 224.9 205.149 226.624ZM214.822 230.097C215.68 229.378 216.062 228.424 215.967 227.237C215.873 226.049 215.358 224.897 214.423 223.782C214.063 223.353 213.728 223.012 213.419 222.759L210.074 228.488C209.85 228.918 209.889 229.313 210.188 229.67C210.644 230.214 211.362 230.562 212.343 230.714C213.309 230.879 214.135 230.673 214.822 230.097Z" fill="black"/>
<path d="M191.611 230.493C193.096 229.632 194.465 229.238 195.716 229.312C196.95 229.394 197.755 229.759 198.129 230.405C198.475 231.003 198.333 231.484 197.703 231.849C197.429 232.008 197.15 232.029 196.867 231.913C196.577 231.822 196.283 231.669 195.985 231.453C195.688 231.237 195.366 231.035 195.02 230.847C194.657 230.669 194.214 230.592 193.688 230.616C193.172 230.656 192.615 230.849 192.018 231.195C191.21 231.663 190.655 232.233 190.354 232.904C190.062 233.591 190.107 234.265 190.491 234.927C190.865 235.574 191.414 235.925 192.137 235.98C192.843 236.046 193.602 235.94 194.413 235.665C195.233 235.405 196.063 235.162 196.902 234.934C197.741 234.707 198.569 234.702 199.385 234.919C200.186 235.146 200.838 235.696 201.344 236.568C201.886 237.504 201.912 238.536 201.421 239.662C200.94 240.804 200.036 241.758 198.712 242.526C197.307 243.34 195.995 243.701 194.777 243.609C193.558 243.516 192.743 243.115 192.331 242.404C192.191 242.162 192.163 241.909 192.247 241.644C192.315 241.389 192.47 241.191 192.712 241.051C193.003 240.883 193.342 240.891 193.73 241.076C194.118 241.261 194.492 241.498 194.853 241.785C195.197 242.082 195.668 242.262 196.266 242.325C196.864 242.389 197.502 242.224 198.18 241.831C198.891 241.419 199.371 240.871 199.622 240.187C199.856 239.511 199.8 238.875 199.454 238.277C199.089 237.647 198.553 237.3 197.847 237.235C197.133 237.195 196.367 237.305 195.546 237.564C194.726 237.824 193.904 238.063 193.081 238.281C192.242 238.508 191.418 238.5 190.608 238.257C189.792 238.04 189.126 237.487 188.612 236.599C188.069 235.662 188.067 234.617 188.607 233.463C189.14 232.334 190.141 231.344 191.611 230.493Z" fill="black"/>
<path d="M174.722 238.504C176.334 237.911 177.75 237.759 178.969 238.046C180.171 238.34 180.901 238.837 181.159 239.538C181.397 240.186 181.175 240.635 180.492 240.887C180.194 240.996 179.916 240.97 179.657 240.806C179.387 240.667 179.123 240.465 178.867 240.202C178.611 239.938 178.329 239.684 178.02 239.439C177.694 239.201 177.27 239.049 176.748 238.982C176.233 238.933 175.651 239.028 175.003 239.266C174.127 239.589 173.483 240.054 173.07 240.664C172.664 241.29 172.593 241.963 172.858 242.681C173.116 243.382 173.596 243.822 174.298 244.001C174.983 244.186 175.749 244.213 176.595 244.081C177.448 243.966 178.307 243.869 179.173 243.789C180.038 243.709 180.855 243.846 181.621 244.201C182.371 244.561 182.919 245.215 183.267 246.161C183.641 247.177 183.49 248.197 182.812 249.222C182.142 250.265 181.088 251.05 179.652 251.578C178.127 252.139 176.773 252.269 175.589 251.969C174.404 251.669 173.67 251.134 173.387 250.363C173.29 250.1 173.306 249.846 173.434 249.599C173.545 249.36 173.731 249.192 173.994 249.095C174.31 248.979 174.642 249.046 174.993 249.295C175.343 249.544 175.671 249.841 175.977 250.186C176.265 250.537 176.698 250.795 177.276 250.961C177.854 251.126 178.511 251.073 179.247 250.802C180.018 250.519 180.585 250.061 180.95 249.43C181.297 248.805 181.351 248.169 181.112 247.521C180.861 246.837 180.393 246.403 179.708 246.217C179.012 246.056 178.238 246.032 177.385 246.147C176.532 246.262 175.682 246.356 174.833 246.429C173.968 246.509 173.157 246.36 172.401 245.982C171.634 245.627 171.074 244.968 170.719 244.005C170.345 242.989 170.523 241.959 171.253 240.914C171.972 239.894 173.128 239.091 174.722 238.504Z" fill="black"/>
</svg>
