<svg width="327" height="318" viewBox="0 0 327 318" fill="none" xmlns="http://www.w3.org/2000/svg">
<path d="M109.523 289.258C109.628 288.878 109.642 288.554 109.565 288.285C109.481 288.033 109.361 287.848 109.207 287.729C109.046 287.628 108.909 287.515 108.796 287.393C108.683 287.27 108.653 287.138 108.706 286.999C108.845 286.632 109.473 286.662 110.59 287.087C111.218 287.326 111.637 287.616 111.847 287.955C112.051 288.313 112.049 288.841 111.842 289.542C112.97 288.573 114.459 288.441 116.308 289.145C117.773 289.703 118.818 290.501 119.442 291.537C120.066 292.574 120.142 293.711 119.67 294.95C119.222 296.178 118.424 296.962 117.275 297.304C116.109 297.639 114.819 297.537 113.406 296.999C112.011 296.467 111.071 295.71 110.587 294.726L110.37 295.453C109.916 297.117 109.783 298.435 109.973 299.406C110.162 300.377 110.763 301.055 111.775 301.441C112.385 301.673 112.951 301.709 113.472 301.548C113.992 301.387 114.401 301.153 114.698 300.846C114.977 300.533 115.281 300.259 115.61 300.025C115.939 299.791 116.243 299.727 116.522 299.833C116.836 299.953 117.055 300.136 117.181 300.384C117.289 300.625 117.286 300.893 117.173 301.19C116.894 301.923 116.218 302.414 115.144 302.664C114.046 302.925 112.816 302.796 111.456 302.278C109.868 301.673 108.79 300.703 108.22 299.368C107.626 298.043 107.574 296.475 108.064 294.664L109.523 289.258ZM115.413 289.763C114.559 289.438 113.758 289.442 113.011 289.777C112.258 290.129 111.742 290.722 111.465 291.555L111.121 292.773C111.021 293.454 111.16 294.086 111.537 294.669C111.897 295.245 112.452 295.676 113.202 295.962C114.092 296.301 114.912 296.324 115.663 296.03C116.414 295.737 116.942 295.189 117.248 294.387C117.62 293.41 117.644 292.481 117.321 291.598C116.974 290.727 116.338 290.115 115.413 289.763Z" fill="black"/>
<path d="M90.5482 279.124C90.7318 278.799 90.7463 278.432 90.5915 278.023C90.4205 277.604 90.3625 277.346 90.4176 277.249L90.4589 277.176C90.56 276.997 90.7324 276.977 90.9761 277.114L93.0238 278.271C93.2676 278.409 93.3322 278.617 93.2178 278.896L92.5778 280.142C93.3239 279.77 94.1219 279.61 94.9719 279.662C95.7964 279.72 96.5825 279.961 97.33 280.383C98.8739 281.256 99.877 282.573 100.339 284.335C100.801 286.097 100.523 287.88 99.5036 289.684C98.5025 291.455 97.1362 292.602 95.4045 293.125C93.6728 293.647 91.9944 293.449 90.3693 292.53C88.9392 291.722 88.0594 290.528 87.73 288.949L84.727 294.263C84.5617 294.555 84.5179 294.841 84.5956 295.121C84.6571 295.392 84.7497 295.626 84.8734 295.825C84.9808 296.014 85.0024 296.166 84.9381 296.28L84.9105 296.328C84.8187 296.491 84.6187 296.56 84.3107 296.536L81.9642 296.078C81.3502 295.989 81.1672 295.725 81.4152 295.286L90.5482 279.124ZM96.3635 280.898C95.5835 280.458 94.702 280.367 93.7193 280.626C92.7111 280.893 91.8993 281.57 91.284 282.659L91.2596 282.645L90.5815 283.902L89.2039 286.34C88.7356 287.169 88.6569 288.143 88.9679 289.262C89.2534 290.388 89.8756 291.222 90.8345 291.764C91.8908 292.361 92.9909 292.425 94.1347 291.957C95.2532 291.495 96.2062 290.587 96.9939 289.231C97.9815 287.559 98.4239 285.922 98.3213 284.32C98.2096 282.735 97.557 281.594 96.3635 280.898Z" fill="black"/>
<path d="M66.3242 260.323C66.5519 260.026 66.6286 259.663 66.5542 259.232C66.4678 258.815 66.4669 258.557 66.5515 258.457L66.6241 258.372C66.7693 258.201 66.9841 258.237 67.2684 258.479L69.827 260.657C70.1113 260.899 70.1809 261.105 70.0357 261.276L69.9631 261.361C69.8784 261.461 69.6234 261.501 69.1982 261.482C68.7729 261.463 68.4464 261.602 68.2187 261.899L64.893 266.238C63.7783 267.691 63.1823 268.925 63.1048 269.937C63.0131 270.938 63.3724 271.783 64.1826 272.472C64.865 273.053 65.6847 273.285 66.642 273.168C67.5851 273.04 68.4096 272.589 69.1156 271.818C69.3007 271.485 69.5687 271.112 69.9195 270.7L73.5492 266.436C73.7912 266.151 73.8761 265.807 73.8038 265.402C73.7173 264.985 73.7164 264.727 73.8011 264.628L73.8737 264.543C74.0189 264.372 74.2265 264.402 74.4966 264.631L77.0126 266.773C77.3111 267.027 77.3878 267.239 77.2426 267.41L77.17 267.495C77.0853 267.595 76.8375 267.641 76.4264 267.634C76.0012 267.616 75.6676 267.748 75.4256 268.033L71.7052 272.404C70.7252 273.555 70.2067 274.683 70.1498 275.786C70.0665 276.892 70.4016 277.766 71.155 278.407C71.8942 279.036 72.7484 279.285 73.7178 279.154C74.6872 279.023 75.5309 278.565 76.249 277.779L80.6922 272.515C80.9341 272.231 81.0048 271.875 80.9041 271.446C80.7892 271.005 80.7741 270.734 80.8588 270.635L80.9314 270.55C81.0765 270.379 81.2913 270.415 81.5756 270.657L84.2409 272.925C84.5252 273.167 84.5947 273.374 84.4495 273.544L84.3769 273.629C84.2922 273.729 84.0302 273.763 83.5907 273.732C83.1512 273.701 82.8105 273.828 82.5685 274.112L77.0696 280.573C76.8639 280.815 76.7656 281.074 76.7746 281.352C76.7837 281.629 76.823 281.871 76.8926 282.077C76.95 282.298 76.9364 282.458 76.8517 282.557L76.7973 282.621C76.6884 282.749 76.491 282.765 76.2052 282.669L73.8887 282.021C73.605 281.951 73.4437 281.838 73.4047 281.682C73.3514 281.514 73.3974 281.345 73.5426 281.175L74.8311 279.661C74.0224 279.977 73.1956 280.07 72.3508 279.94C71.4798 279.811 70.7102 279.462 70.0421 278.894C69.2461 278.216 68.7037 277.399 68.4149 276.442C68.0997 275.488 68.0922 274.489 68.3923 273.445C67.5052 273.94 66.5806 274.133 65.6185 274.025C64.6443 273.932 63.7663 273.552 62.9844 272.887C61.833 271.907 61.2347 270.723 61.1894 269.336C61.1178 267.952 61.7461 266.378 63.0742 264.616L66.3242 260.323Z" fill="black"/>
<path d="M48.4316 261.192C48.8079 261.631 48.9847 262.082 48.9621 262.543C48.9394 263.005 48.7296 263.406 48.3325 263.746C47.9354 264.085 47.507 264.231 47.0475 264.182C46.5616 264.131 46.1366 263.893 45.7725 263.467C45.4205 263.056 45.2629 262.613 45.2997 262.14C45.3223 261.678 45.5322 261.277 45.9293 260.938C46.3264 260.598 46.7547 260.452 47.2143 260.501C47.6739 260.55 48.0796 260.78 48.4316 261.192ZM61.7197 251.957C61.9503 252.227 61.9734 252.44 61.789 252.598L61.7039 252.671C61.6047 252.756 61.4579 252.771 61.2635 252.716C61.055 252.673 60.8323 252.643 60.5955 252.624C60.3444 252.618 60.1125 252.706 59.8998 252.888L53.5603 258.313C53.2342 258.593 53.0597 258.963 53.0371 259.425C53.0145 259.886 52.9677 260.147 52.8968 260.208L52.8543 260.244C52.755 260.329 52.5576 260.314 52.2621 260.198L50.0519 259.252C49.7726 259.098 49.6188 258.947 49.5906 258.799C49.5502 258.637 49.6151 258.483 49.7853 258.338L58.3159 251.037C58.4861 250.892 58.5986 250.722 58.6534 250.527C58.694 250.345 58.6941 250.173 58.6538 250.011C58.6134 249.849 58.5993 249.689 58.6116 249.531C58.6097 249.385 58.6513 249.276 58.7364 249.203L58.8215 249.13C59.0059 248.973 59.2255 249.043 59.4804 249.341L61.7197 251.957Z" fill="black"/>
<path d="M39.4087 245.388C38.9521 244.728 38.7653 244.096 38.8482 243.494C38.9205 242.877 39.2099 242.393 39.7165 242.043C40.4381 241.544 41.0112 241.601 41.436 242.215C41.6165 242.476 41.6754 242.742 41.6127 243.012C41.55 243.282 41.4401 243.517 41.283 243.717C41.1153 243.901 41.0107 244.143 40.9693 244.445C40.9278 244.746 41.0186 245.057 41.2416 245.38C41.6663 245.994 42.3079 246.265 43.1662 246.193C43.9985 246.117 44.8676 245.765 45.7734 245.139L51.0238 241.507C51.3308 241.295 51.4803 240.953 51.4723 240.482C51.4489 240.022 51.4909 239.754 51.5984 239.68L51.6905 239.616C51.8747 239.489 52.073 239.579 52.2854 239.886L54.2604 242.741C54.4728 243.048 54.4869 243.266 54.3027 243.393L54.2105 243.457C54.1031 243.531 53.854 243.499 53.4633 243.361C53.0466 243.218 52.6847 243.252 52.3777 243.465L45.3771 248.307C45.0547 248.53 44.8845 248.875 44.8666 249.341C44.8487 249.807 44.786 250.078 44.6786 250.152L44.6325 250.184C44.479 250.29 44.2612 250.27 43.9791 250.125L41.9856 248.916C41.5253 248.645 41.4947 248.371 41.8939 248.095L43.7361 246.82C41.8706 247.339 40.4281 246.862 39.4087 245.388Z" fill="black"/>
<path d="M37.2583 221.893C37.0159 221.871 36.8682 221.748 36.8152 221.523C36.7456 221.307 36.8354 221.155 37.0848 221.068C38.058 220.797 39.1448 220.908 40.3451 221.402C41.5454 221.895 42.5138 222.855 43.2504 224.282C44.0984 225.924 44.2288 227.6 43.6416 229.311C43.0459 231.005 41.8027 232.34 39.9119 233.317C38.1704 234.216 36.4279 234.402 34.6845 233.873C32.9245 233.354 31.6163 232.264 30.7598 230.606C30.0317 229.196 29.8351 227.88 30.1698 226.656C30.4793 225.425 31.1068 224.565 32.0522 224.077C32.7653 223.709 33.4559 223.846 34.1238 224.488L39.9465 230.211C40.879 229.372 41.4679 228.437 41.7133 227.407C41.9335 226.369 41.7824 225.344 41.2599 224.333C40.3777 222.624 39.0439 221.811 37.2583 221.893ZM31.7486 230.568C32.2625 231.563 33.1091 232.145 34.2885 232.313C35.4678 232.481 36.7044 232.231 37.9981 231.563C38.4956 231.306 38.9014 231.055 39.2155 230.809L34.3602 226.289C33.9888 225.976 33.5957 225.927 33.1811 226.141C32.5508 226.467 32.0539 227.091 31.6902 228.014C31.318 228.92 31.3375 229.772 31.7486 230.568Z" fill="black"/>
<path d="M21.3933 201.522C19.9828 200.87 19.0652 199.683 18.6405 197.962C18.2158 196.24 18.4698 194.62 19.4027 193.102C20.313 191.57 21.7468 190.562 23.7041 190.079C25.6977 189.588 27.5148 189.784 29.1554 190.667C30.7735 191.537 31.7971 192.842 32.2263 194.581C32.6689 196.376 32.3245 197.941 31.193 199.278L32.5727 198.908C32.8627 198.837 33.0457 198.955 33.1217 199.263L33.6779 201.635C33.745 201.907 33.6788 202.067 33.4795 202.117L33.3979 202.137C33.2711 202.168 33.0315 202.054 32.6791 201.795C32.3223 201.518 31.9627 201.424 31.6002 201.513L16.3766 205.268C16.0504 205.349 15.8099 205.504 15.6553 205.735C15.5006 205.965 15.3913 206.184 15.3273 206.393C15.2451 206.605 15.1406 206.727 15.0137 206.758L14.9322 206.778C14.7691 206.819 14.5861 206.7 14.3832 206.424L12.8204 204.531C12.6309 204.308 12.5546 204.116 12.5913 203.953C12.6236 203.772 12.7575 203.652 12.9931 203.594L21.3933 201.522ZM31.4436 195.149C31.1306 193.881 30.3932 192.996 29.2312 192.494C28.0467 191.979 26.6207 191.927 24.9534 192.338C23.0685 192.803 21.6399 193.598 20.6676 194.722C19.6726 195.832 19.3383 197.049 19.6646 198.372C19.8882 199.278 20.427 199.982 21.2811 200.483C22.1171 200.988 22.9972 201.126 23.9215 200.898L27.7818 199.946L28.1691 199.879L28.1624 199.852C29.2498 199.584 30.1277 198.973 30.7963 198.02C31.4603 197.049 31.6761 196.092 31.4436 195.149Z" fill="black"/>
<path d="M24.346 170.809C24.1292 170.699 24.0381 170.529 24.0725 170.301C24.0884 170.074 24.2282 169.967 24.4919 169.98C25.4963 170.09 26.4635 170.598 27.3937 171.503C28.3238 172.408 28.8651 173.66 29.0175 175.258C29.1929 177.097 28.6896 178.702 27.5076 180.071C26.3238 181.421 24.6727 182.198 22.5543 182.4C20.6031 182.586 18.9169 182.109 17.4957 180.969C16.0558 179.832 15.2473 178.334 15.0701 176.475C14.9194 174.896 15.2272 173.601 15.9934 172.59C16.7392 171.563 17.6417 170.999 18.7009 170.898C19.5 170.821 20.0898 171.206 20.4704 172.051L23.7432 179.53C24.9209 179.099 25.8155 178.451 26.4268 177.586C27.0178 176.705 27.2593 175.697 27.1512 174.564C26.9686 172.65 26.0336 171.398 24.346 170.809ZM16.0019 176.808C16.1082 177.923 16.6773 178.779 17.7092 179.374C18.741 179.969 19.9816 180.198 21.4311 180.06C21.9885 180.007 22.4588 179.924 22.842 179.813L20.0193 173.81C19.791 173.381 19.4445 173.189 18.98 173.234C18.2738 173.301 17.5801 173.695 16.8989 174.416C16.2158 175.119 15.9168 175.917 16.0019 176.808Z" fill="black"/>
<path d="M26.3325 151.307C26.7258 151.288 27.0384 151.201 27.2702 151.043C27.4834 150.886 27.6224 150.715 27.6873 150.531C27.7336 150.346 27.7976 150.181 27.8793 150.036C27.9611 149.89 28.0765 149.821 28.2257 149.828C28.6172 149.847 28.7843 150.453 28.727 151.646C28.6947 152.317 28.5498 152.806 28.2922 153.111C28.0159 153.415 27.5128 153.578 26.783 153.599C28.0541 154.37 28.6421 155.744 28.5472 157.72C28.4719 159.287 28.0385 160.527 27.247 161.442C26.4555 162.357 25.3978 162.783 24.074 162.719C22.7679 162.675 21.7742 162.16 21.0927 161.175C20.4122 160.17 20.1082 158.913 20.1808 157.402C20.2525 155.911 20.6805 154.782 21.4648 154.016L20.707 154.036C18.9836 154.121 17.6898 154.405 16.8257 154.886C15.9616 155.368 15.5035 156.15 15.4515 157.231C15.4202 157.884 15.562 158.433 15.877 158.878C16.192 159.323 16.5412 159.638 16.9247 159.825C17.3091 159.993 17.6637 160.197 17.9886 160.437C18.3134 160.677 18.4687 160.946 18.4544 161.244C18.4382 161.58 18.332 161.845 18.1357 162.042C17.9403 162.219 17.6841 162.3 17.3671 162.285C16.584 162.247 15.9068 161.757 15.3354 160.814C14.7463 159.851 14.4867 158.643 14.5566 157.188C14.6381 155.491 15.2252 154.165 16.3177 153.208C17.3924 152.232 18.8666 151.695 20.74 151.599L26.3325 151.307ZM27.6818 157.062C27.7257 156.149 27.4725 155.389 26.9223 154.783C26.3534 154.176 25.6299 153.871 24.7518 153.866L23.4879 153.917C22.8095 154.034 22.2518 154.362 21.8147 154.902C21.3785 155.423 21.1412 156.084 21.1026 156.886C21.0569 157.837 21.2901 158.624 21.8021 159.246C22.3142 159.869 22.999 160.201 23.8567 160.242C24.9008 160.292 25.7919 160.027 26.53 159.446C27.2503 158.845 27.6343 158.05 27.6818 157.062Z" fill="black"/>
<path d="M29.5647 130.363C30.0222 130.455 30.3864 130.443 30.6575 130.326C30.9285 130.209 31.1007 130.063 31.1741 129.887C31.2292 129.708 31.3099 129.543 31.4163 129.393C31.5226 129.243 31.6581 129.185 31.8228 129.218C32.2071 129.295 32.2852 129.901 32.057 131.036C31.7773 132.427 30.9658 132.958 29.6226 132.631L29.4469 132.653C30.8148 133.804 31.3 135.368 30.9025 137.344C30.5934 138.881 29.8051 140.008 28.5377 140.724C27.2556 141.418 25.6173 141.565 23.6225 141.164L18.7638 140.187C18.3612 140.106 17.9877 140.211 17.6433 140.504C17.3025 140.778 17.0772 140.904 16.9674 140.882L16.8851 140.865C16.6655 140.821 16.5558 140.656 16.5561 140.371L16.6081 137.982C16.616 137.47 16.7755 137.245 17.0866 137.307L24.3005 138.787C25.8926 139.107 27.1831 139.081 28.1719 138.708C29.1461 138.314 29.7381 137.595 29.9479 136.552C30.1467 135.564 29.928 134.663 29.2919 133.85C28.6594 133.018 27.721 132.477 26.4766 132.227L20.6022 131.046C20.2179 130.968 19.8517 131.085 19.5036 131.396C19.1592 131.688 18.9229 131.822 18.7948 131.796L18.7124 131.779C18.4928 131.735 18.3832 131.57 18.3835 131.285L18.441 128.869C18.4452 128.374 18.6028 128.159 18.9139 128.221L29.5647 130.363Z" fill="black"/>
<path d="M36.0882 118.226C35.7247 119.286 35.1014 120.009 34.2185 120.397C33.3239 120.761 32.2233 120.719 30.9168 120.27L22.998 117.553L22.3982 119.301C22.3073 119.566 22.1295 119.653 21.8646 119.562L21.5998 119.471C21.3349 119.38 21.248 119.202 21.3388 118.937L21.666 117.984C22.078 116.783 21.4696 115.825 19.8407 115.108C19.4997 114.951 19.3747 114.741 19.4655 114.476L19.5564 114.211C19.6534 113.928 19.8784 113.848 20.2315 113.969L22.7566 114.806L24.0108 111.151C24.0471 111.045 24.1215 110.972 24.2341 110.932C24.335 110.868 24.4384 110.854 24.5443 110.89L24.8092 110.981C25.074 111.072 25.161 111.25 25.0701 111.515L23.816 115.169L31.7612 117.896C32.4674 118.138 33.0663 118.176 33.5577 118.009C34.0491 117.842 34.3827 117.503 34.5584 116.991C34.7523 116.426 34.7655 115.927 34.5981 115.495C34.4192 115.039 34.1004 114.702 33.6419 114.486C33.4603 114.325 33.4235 114.144 33.5315 113.945C33.6279 113.721 33.7909 113.649 34.0204 113.727C34.8856 114.024 35.5357 114.603 35.9709 115.462C36.3945 116.299 36.4336 117.22 36.0882 118.226Z" fill="black"/>
<path d="M33.0485 91.2186C33.1643 90.9843 33.3226 90.9168 33.5234 91.0161L33.5987 91.0533C33.7494 91.1277 33.8757 91.3776 33.9779 91.8028C34.0883 92.2114 34.2946 92.5944 34.5968 92.952L42.7198 102.869C43.2318 103.476 43.5887 103.913 43.7903 104.179C44.0086 104.454 44.3195 104.899 44.7231 105.515C45.135 106.114 45.4002 106.609 45.5189 107.001C45.6544 107.401 45.7233 107.872 45.7259 108.415C45.7534 108.949 45.6514 109.451 45.4198 109.919C44.9815 110.806 44.375 111.422 43.6002 111.768C42.8422 112.123 42.1954 112.167 41.6599 111.903C41.3587 111.754 41.1574 111.55 41.056 111.292C40.9546 111.034 40.9784 110.754 41.1272 110.453C41.2678 110.168 41.5049 109.983 41.8384 109.898C42.1887 109.821 42.5351 109.816 42.8777 109.881C43.2285 109.929 43.5748 109.903 43.9166 109.801C44.2834 109.691 44.5537 109.46 44.7273 109.108C45.2153 108.121 44.3977 106.447 42.2747 104.086L29.2747 103.658C28.8156 103.66 28.3819 103.758 27.9738 103.952C27.5739 104.129 27.2986 104.181 27.148 104.106L27.0727 104.069C26.8719 103.97 26.8335 103.795 26.9576 103.544L28.5703 100.28C28.686 100.046 28.8443 99.9786 29.0452 100.078L29.1205 100.115C29.2376 100.173 29.3343 100.314 29.4104 100.539C29.4782 100.74 29.5624 100.906 29.6632 101.039C29.7473 101.164 30.0148 101.255 30.4659 101.311L40.7618 101.902L34.227 94.2059C33.9919 93.9232 33.7617 93.7782 33.5363 93.7709C33.2941 93.7553 33.094 93.8021 32.9359 93.9114C32.761 94.0124 32.5862 94.1134 32.4113 94.2144C32.2365 94.3154 32.0989 94.3411 31.9985 94.2914L31.9232 94.2542C31.7223 94.155 31.684 93.9798 31.808 93.7288L33.0485 91.2186Z" fill="black"/>
<path d="M57.6215 58.1435C57.793 57.9463 57.9632 57.9212 58.1323 58.0682L58.1956 58.1234C58.3083 58.2214 58.3469 58.4899 58.3113 58.929C58.2739 59.3418 58.3541 59.7331 58.5519 60.1031L64.1978 70.2088C64.3938 70.5524 64.3815 70.8509 64.161 71.1045L63.8119 71.5059C63.5546 71.8017 63.2484 71.8693 62.8932 71.7088L53.3378 67.5914L58.722 76.5047C58.9302 76.8342 58.918 77.1327 58.6852 77.4004L58.4463 77.675C58.2136 77.9426 57.9073 78.0103 57.5277 77.8779L46.4794 73.9836C46.0997 73.8513 45.7133 73.812 45.3201 73.8659C44.9392 73.9057 44.6924 73.8766 44.5797 73.7786L44.5163 73.7234C44.3473 73.5764 44.3547 73.3973 44.5384 73.186L46.8537 70.524C47.0252 70.3268 47.1954 70.3017 47.3644 70.4487L47.4278 70.5038C47.5264 70.5896 47.5567 70.7396 47.5187 70.954C47.4807 71.1683 47.4893 71.3861 47.5444 71.6072C47.5995 71.8283 47.7905 72.0068 48.1176 72.1428L56.9308 75.5776L51.2397 66.249C51.0634 65.9967 51.0548 65.779 51.2141 65.5959L51.7993 64.8803C51.9463 64.7113 52.1631 64.6896 52.4497 64.8151L62.5278 69.3129L57.8913 61.1613C57.6953 60.8177 57.4648 60.6419 57.1996 60.6339C56.9344 60.6259 56.6729 60.6706 56.415 60.768C56.1694 60.8512 55.9973 60.85 55.8988 60.7642L55.8354 60.7091C55.6664 60.5621 55.6737 60.383 55.8575 60.1717L57.6215 58.1435Z" fill="black"/>
<path d="M63.8972 49.0777C63.4604 49.4573 63.0112 49.6375 62.5494 49.6184C62.0876 49.5994 61.6853 49.3926 61.3424 48.9981C60.9995 48.6036 60.8508 48.1764 60.8962 47.7165C60.9435 47.2302 61.1785 46.8034 61.6011 46.436C62.0097 46.0809 62.451 45.9199 62.925 45.9531C63.3868 45.9722 63.7891 46.179 64.132 46.5735C64.4749 46.968 64.6236 47.3952 64.5782 47.8551C64.5327 48.315 64.3057 48.7225 63.8972 49.0777ZM73.2332 62.2945C72.9655 62.5272 72.7521 62.552 72.5929 62.3688L72.5194 62.2843C72.4337 62.1857 72.4175 62.039 72.4708 61.8442C72.5119 61.6354 72.5407 61.4125 72.5573 61.1755C72.5617 60.9244 72.472 60.6932 72.2883 60.4818L66.8146 54.1842C66.5329 53.8601 66.1612 53.6886 65.6994 53.6695C65.2377 53.6504 64.9762 53.6056 64.9149 53.5352L64.8782 53.4929C64.7925 53.3943 64.8063 53.1968 64.9197 52.9004L65.8489 50.683C66.0009 50.4025 66.1507 50.2476 66.2983 50.2182C66.46 50.1766 66.6143 50.2404 66.7612 50.4094L74.1269 58.8838C74.2738 59.0529 74.4447 59.1641 74.6394 59.2174C74.8219 59.2566 74.994 59.2554 75.1557 59.2138C75.3174 59.1722 75.4772 59.1569 75.6352 59.168C75.781 59.165 75.8906 59.2057 75.9641 59.2903L76.0376 59.3748C76.1968 59.5579 76.1284 59.7781 75.8326 60.0353L73.2332 62.2945Z" fill="black"/>
<path d="M86.1063 52.4921C85.1924 53.1396 84.2639 53.3629 83.3207 53.1618C82.382 52.9347 81.5133 52.2577 80.7147 51.1306L75.8745 44.2995L74.3667 45.3679C74.1382 45.5298 73.943 45.4965 73.7812 45.2681L73.6193 45.0396C73.4574 44.8111 73.4907 44.616 73.7192 44.4541L74.5416 43.8713C75.5773 43.1375 75.6435 42.0039 74.7401 40.4707C74.5547 40.1445 74.5763 39.9004 74.8047 39.7385L75.0332 39.5767C75.2769 39.404 75.5066 39.47 75.7225 39.7746L77.2832 41.9288L80.436 39.6949C80.5273 39.6301 80.6305 39.6142 80.7454 39.6472C80.8647 39.6542 80.9567 39.7033 81.0215 39.7947L81.1834 40.0232C81.3452 40.2517 81.3119 40.4468 81.0835 40.6087L77.9307 42.8426L82.7871 49.6965C83.2187 50.3057 83.6828 50.6862 84.1791 50.8378C84.6754 50.9894 85.1445 50.9087 85.5862 50.5958C86.0736 50.2504 86.3756 49.8534 86.4923 49.4046C86.6135 48.9299 86.5512 48.4707 86.3055 48.0271C86.2522 47.7903 86.3277 47.6225 86.532 47.5234C86.7408 47.3984 86.9154 47.4348 87.0557 47.6328C87.5845 48.3791 87.7744 49.2283 87.6253 50.1804C87.4808 51.1064 86.9744 51.877 86.1063 52.4921Z" fill="black"/>
<path d="M104.784 38.9055C104.991 39.2185 105.296 39.4168 105.698 39.5003C106.101 39.5838 106.337 39.6916 106.406 39.8238L106.459 39.9229C106.563 40.1211 106.45 40.3072 106.119 40.481L103.146 42.0455C102.816 42.2194 102.598 42.2072 102.494 42.0089L102.442 41.9098C102.381 41.7942 102.394 41.6394 102.482 41.4456C102.587 41.243 102.674 41.0283 102.744 40.8014C102.806 40.558 102.764 40.3167 102.617 40.0776L99.7092 35.153C98.8956 33.7671 98.0207 32.8458 97.0844 32.3893C96.1481 31.9327 95.2422 31.9348 94.3667 32.3955C93.4581 32.8735 92.8842 33.5868 92.645 34.5353C92.4058 35.4837 92.547 36.4536 93.0685 37.4447L96.2367 43.4661C96.4018 43.78 96.7104 43.9656 97.1625 44.0231C97.6059 44.064 97.8623 44.1505 97.9319 44.2827L97.971 44.357C98.084 44.5718 97.967 44.7704 97.6201 44.953L94.5227 46.5827C94.2088 46.7478 93.9954 46.723 93.8824 46.5083L93.8433 46.4339C93.7737 46.3018 93.8312 46.0501 94.0155 45.6789C94.2077 45.2825 94.2212 44.9273 94.0561 44.6134L86.6897 30.6131C86.542 30.3323 86.342 30.1527 86.0899 30.0744C85.8456 29.9709 85.6148 29.9131 85.3975 29.9009C85.188 29.8635 85.0571 29.7952 85.005 29.6961L84.9659 29.6218C84.8703 29.4401 84.912 29.2388 85.0911 29.018L86.6537 27.0568C86.8163 26.8447 86.981 26.7369 87.148 26.7335C87.3062 26.7135 87.4375 26.8026 87.5418 27.0009L91.7164 35.0555C91.8723 33.3071 92.7597 32.0071 94.3786 31.1553C95.6671 30.4773 96.9799 30.3666 98.317 30.8232C99.6619 31.2546 100.853 32.3363 101.891 34.0683L104.784 38.9055Z" fill="black"/>
<path d="M119.615 35.5393C117.566 36.2414 115.671 36.1513 113.928 35.2688C112.196 34.3626 111.01 32.9736 110.368 31.1019C109.739 29.2654 109.833 27.5262 110.652 25.8841C111.464 24.2243 112.779 23.0827 114.598 22.4592C116.558 21.7873 118.389 21.8898 120.091 22.7668C121.804 23.62 122.984 24.9913 123.632 26.8807C124.268 28.7348 124.218 30.4885 123.482 32.1417C122.74 33.7772 121.451 34.9098 119.615 35.5393ZM119.633 34.5563C120.675 34.1991 121.38 33.4641 121.748 32.3512C122.134 31.2322 122.076 29.9399 121.574 28.4743C120.932 26.6026 119.952 25.1823 118.633 24.2136C117.308 23.2272 115.975 22.964 114.633 23.4241C113.503 23.8115 112.736 24.5677 112.332 25.6927C111.923 26.8001 111.969 28.0866 112.471 29.5522C113.077 31.318 114.068 32.7145 115.447 33.7417C116.825 34.769 118.22 35.0405 119.633 34.5563Z" fill="black"/>
<path d="M144.506 26.7952C144.587 27.2547 144.732 27.5891 144.94 27.7986C145.148 28.0081 145.347 28.1149 145.538 28.1189C145.725 28.1046 145.907 28.1194 146.086 28.1635C146.264 28.2076 146.368 28.3123 146.398 28.4777C146.466 28.8637 145.931 29.158 144.792 29.3608C143.395 29.6094 142.603 29.0488 142.416 27.679L142.332 27.5234C141.761 29.2176 140.483 30.2413 138.498 30.5946C136.955 30.8693 135.618 30.548 134.487 29.6305C133.372 28.6913 132.637 27.2202 132.28 25.217L131.412 20.3376C131.34 19.9333 131.105 19.6244 130.706 19.4109C130.326 19.1941 130.127 19.0306 130.107 18.9203L130.092 18.8376C130.053 18.6171 130.166 18.4547 130.432 18.3505L132.674 17.5249C133.154 17.3447 133.422 17.4108 133.477 17.7232L134.74 24.9782C135.025 26.5771 135.521 27.7685 136.23 28.5525C136.953 29.3149 137.839 29.6029 138.886 29.4164C139.878 29.2398 140.637 28.7067 141.161 27.8171C141.704 26.9242 141.864 25.8529 141.641 24.6032L140.591 18.7039C140.523 18.318 140.28 18.0199 139.863 17.8096C139.465 17.5961 139.255 17.425 139.232 17.2964L139.217 17.2137C139.178 16.9931 139.291 16.8308 139.557 16.7266L141.827 15.8961C142.288 15.7191 142.547 15.7869 142.602 16.0993L144.506 26.7952Z" fill="black"/>
<path d="M158.188 28.4253C157.069 28.4746 156.168 28.1593 155.484 27.4794C154.818 26.7801 154.454 25.7404 154.393 24.3604L154.025 15.9965L152.179 16.0779C151.899 16.0902 151.753 15.9565 151.741 15.6768L151.728 15.397C151.716 15.1173 151.85 14.9713 152.129 14.959L153.136 14.9146C154.404 14.8587 155.074 13.9417 155.145 12.1635C155.166 11.7889 155.316 11.5954 155.596 11.5831L155.876 11.5708C156.174 11.5576 156.332 11.7375 156.348 12.1105L156.493 14.7667L160.353 14.5966C160.465 14.5917 160.561 14.6342 160.639 14.7241C160.736 14.7946 160.787 14.8858 160.791 14.9977L160.804 15.2774C160.816 15.5572 160.682 15.7032 160.403 15.7155L156.542 15.8856L156.912 24.2775C156.945 25.0234 157.129 25.5945 157.464 25.9908C157.799 26.3871 158.237 26.5734 158.778 26.5495C159.375 26.5232 159.844 26.3531 160.185 26.0391C160.544 25.7057 160.74 25.2859 160.774 24.78C160.857 24.5521 161.012 24.4518 161.237 24.4793C161.48 24.4872 161.607 24.6124 161.618 24.8549C161.658 25.7687 161.358 26.5853 160.717 27.3049C160.094 28.005 159.251 28.3785 158.188 28.4253Z" fill="black"/>
<path d="M195.793 19.0315C195.773 19.1418 195.66 19.2449 195.454 19.3408C195.265 19.44 195.06 19.5836 194.837 19.7714C194.635 19.9441 194.507 20.1867 194.451 20.4991L191.777 35.523C191.728 35.7987 191.77 36.0431 191.903 36.2564C192.054 36.4728 192.201 36.6601 192.343 36.8182C192.504 36.9796 192.573 37.1246 192.55 37.2532L192.535 37.3359C192.496 37.5564 192.283 37.6324 191.898 37.5637L188.562 36.97C188.194 36.9046 188.03 36.7616 188.069 36.5411L188.084 36.4584C188.107 36.3298 188.213 36.2158 188.401 36.1166C188.608 36.0207 188.819 35.8972 189.036 35.7461C189.252 35.595 189.385 35.3817 189.434 35.106L190.508 29.0689C189.336 30.2253 187.849 30.6432 186.048 30.3227C184.302 30.012 182.919 29.1022 181.898 27.5933C180.877 26.0844 180.548 24.31 180.911 22.2701C181.268 20.2669 182.176 18.7316 183.636 17.6643C185.097 16.597 186.755 16.2285 188.611 16.5589C190.394 16.8761 191.677 17.8155 192.461 19.377L192.726 17.8884C192.765 17.6679 192.876 17.5264 193.057 17.4639C193.239 17.4015 193.45 17.4391 193.691 17.5768L195.478 18.4066C195.74 18.5292 195.85 18.7099 195.808 18.9488L195.793 19.0315ZM186.789 29.516C187.671 29.673 188.542 29.4677 189.401 28.9002C190.264 28.3143 190.804 27.4057 191.024 26.1744L191.779 21.9291C191.924 21.0069 191.663 20.0787 190.995 19.1446C190.349 18.1953 189.492 17.6258 188.427 17.4361C187.232 17.2235 186.173 17.528 185.249 18.3495C184.329 19.1527 183.722 20.3245 183.429 21.865C183.052 23.7698 183.178 25.4606 183.806 26.9375C184.438 28.3961 185.432 29.2556 186.789 29.516Z" fill="black"/>
<path d="M212.855 34.8902C212.704 35.3317 212.668 35.6944 212.749 35.9784C212.829 36.2625 212.951 36.4524 213.116 36.5483C213.286 36.6264 213.439 36.7281 213.574 36.8532C213.708 36.9783 213.748 37.1203 213.694 37.2793C213.567 37.6501 212.956 37.6478 211.861 37.2725C210.519 36.8125 210.098 35.9382 210.599 34.6497L210.601 34.4726C209.28 35.6775 207.666 35.953 205.759 35.2993C204.276 34.7908 203.263 33.8613 202.719 32.5108C202.199 31.1487 202.269 29.5052 202.929 27.5805L204.536 22.8923C204.669 22.5038 204.614 22.1197 204.369 21.7398C204.142 21.366 204.047 21.1261 204.083 21.0201L204.11 20.9407C204.183 20.7288 204.361 20.6417 204.644 20.6796L207.005 21.0449C207.512 21.1201 207.714 21.3077 207.611 21.6079L205.196 28.5649C204.67 30.1012 204.526 31.3839 204.765 32.4131C205.028 33.4306 205.663 34.1119 206.669 34.457C207.623 34.7838 208.545 34.6854 209.435 34.1617C210.342 33.644 211.002 32.7848 211.413 31.584L213.356 25.9158C213.484 25.545 213.416 25.1666 213.154 24.7807C212.909 24.4008 212.808 24.1491 212.85 24.0255L212.877 23.946C212.95 23.7341 213.128 23.6471 213.411 23.6849L215.798 24.0593C216.288 24.1284 216.481 24.3131 216.378 24.6133L212.855 34.8902Z" fill="black"/>
<path d="M231.496 42.0523C231.706 41.9299 231.898 41.945 232.071 42.0976C232.253 42.2336 232.268 42.4091 232.115 42.6242C231.478 43.4088 230.527 43.9471 229.263 44.2391C227.998 44.5311 226.653 44.3086 225.227 43.5715C223.585 42.723 222.509 41.4313 221.997 39.6963C221.503 37.9698 221.744 36.1614 222.721 34.2709C223.621 32.5297 224.935 31.3701 226.662 30.7921C228.398 30.1975 230.096 30.3287 231.754 31.1857C233.164 31.9142 234.086 32.8741 234.521 34.0655C234.981 35.2488 234.967 36.3131 234.478 37.2583C234.109 37.9713 233.467 38.2591 232.55 38.1217L224.49 36.8242C224.215 38.0478 224.276 39.1507 224.672 40.1328C225.093 41.1068 225.809 41.8553 226.821 42.3781C228.529 43.2608 230.087 43.1522 231.496 42.0523ZM230.969 31.7889C229.975 31.2747 228.947 31.2902 227.888 31.8354C226.829 32.3806 225.965 33.2999 225.297 34.5934C225.04 35.0909 224.854 35.5309 224.74 35.9134L231.316 36.7902C231.8 36.8301 232.149 36.6427 232.363 36.2282C232.689 35.598 232.733 34.8013 232.495 33.838C232.274 32.8833 231.765 32.2003 230.969 31.7889Z" fill="black"/>
<path d="M240.497 52.8323C239.096 51.8394 238.168 50.759 237.715 49.5912C237.276 48.4341 237.273 47.5509 237.704 46.9417C238.104 46.3781 238.6 46.3068 239.194 46.7277C239.453 46.9111 239.589 47.1558 239.601 47.4618C239.639 47.7632 239.622 48.0942 239.549 48.4547C239.477 48.8152 239.427 49.1919 239.401 49.5847C239.389 49.9884 239.504 50.4241 239.744 50.8919C239.995 51.3445 240.403 51.7704 240.966 52.1697C241.728 52.7093 242.476 52.9767 243.212 52.9717C243.958 52.9515 244.553 52.6292 244.995 52.0047C245.427 51.3955 245.518 50.7506 245.268 50.0702C245.033 49.4006 244.622 48.7544 244.033 48.1317C243.456 47.4937 242.889 46.8406 242.333 46.1722C241.777 45.5038 241.428 44.7532 241.286 43.9205C241.16 43.0985 241.388 42.2763 241.97 41.4539C242.596 40.5705 243.523 40.1178 244.751 40.0957C245.99 40.0585 247.234 40.4823 248.483 41.3672C249.808 42.3061 250.682 43.3487 251.106 44.4951C251.529 45.6414 251.503 46.5496 251.028 47.2197C250.866 47.4482 250.647 47.5792 250.372 47.6128C250.112 47.6572 249.867 47.5985 249.639 47.4366C249.365 47.2423 249.231 46.9304 249.238 46.5007C249.245 46.071 249.304 45.6325 249.416 45.185C249.542 44.7484 249.51 44.2451 249.319 43.6751C249.128 43.1051 248.712 42.5935 248.073 42.1402C247.403 41.6654 246.704 41.4565 245.977 41.5135C245.266 41.5813 244.711 41.897 244.311 42.4605C243.89 43.0545 243.797 43.6863 244.032 44.3559C244.293 45.0211 244.712 45.6727 245.289 46.3106C245.867 46.9486 246.426 47.5964 246.967 48.254C247.522 48.9224 247.858 49.6752 247.974 50.5124C248.116 51.3451 247.891 52.1803 247.297 53.018C246.671 53.9014 245.721 54.3379 244.447 54.3276C243.2 54.3128 241.883 53.8143 240.497 52.8323Z" fill="black"/>
<path d="M254.7 64.3761C253.873 63.6199 253.459 62.7597 253.456 61.7953C253.479 60.8298 253.957 59.8375 254.89 58.8186L260.542 52.6429L259.179 51.3952C258.973 51.2062 258.964 51.0084 259.153 50.8018L259.342 50.5953C259.531 50.3887 259.729 50.38 259.935 50.569L260.679 51.2496C261.615 52.1066 262.737 51.9315 264.045 50.7242C264.324 50.474 264.567 50.4435 264.774 50.6325L264.98 50.8216C265.201 51.0232 265.185 51.2617 264.933 51.5371L263.157 53.5182L266.008 56.1271C266.09 56.2027 266.128 56.3001 266.12 56.4194C266.138 56.5375 266.11 56.6379 266.034 56.7205L265.845 56.927C265.656 57.1336 265.458 57.1423 265.252 56.9533L262.401 54.3444L256.73 60.5407C256.226 61.0915 255.952 61.6255 255.909 62.1426C255.866 62.6598 256.044 63.1012 256.443 63.4667C256.884 63.87 257.336 64.0812 257.799 64.1003C258.288 64.1183 258.724 63.9603 259.106 63.6264C259.326 63.5241 259.506 63.5624 259.646 63.7412C259.812 63.9188 259.814 64.0971 259.65 64.2761C259.032 64.9508 258.242 65.3161 257.28 65.3718C256.345 65.4264 255.484 65.0945 254.7 64.3761Z" fill="black"/>
<path d="M275.386 62.0903C275 61.6593 274.813 61.2128 274.825 60.7508C274.838 60.2888 275.038 59.8834 275.428 59.5347C275.817 59.1859 276.242 59.0308 276.702 59.0693C277.189 59.1093 277.62 59.3378 277.993 59.7549C278.354 60.1581 278.522 60.597 278.496 61.0714C278.484 61.5334 278.283 61.9388 277.894 62.2875C277.504 62.6363 277.08 62.7914 276.619 62.7529C276.158 62.7144 275.748 62.4935 275.386 62.0903ZM262.311 71.6236C262.074 71.3594 262.046 71.1464 262.227 70.9844L262.311 70.9097C262.408 70.8225 262.554 70.8041 262.75 70.8545C262.959 70.8925 263.183 70.918 263.42 70.931C263.671 70.9316 263.901 70.8384 264.109 70.6516L270.324 65.084C270.644 64.7975 270.81 64.4233 270.822 63.9613C270.834 63.4993 270.875 63.2371 270.945 63.1749L270.986 63.1375C271.084 63.0503 271.281 63.0612 271.579 63.1701L273.81 64.066C274.093 64.2137 274.25 64.3611 274.282 64.5083C274.326 64.6693 274.265 64.8246 274.098 64.974L265.735 72.466C265.568 72.6155 265.459 72.788 265.409 72.9835C265.372 73.1665 265.376 73.3386 265.42 73.4996C265.464 73.6607 265.482 73.8203 265.473 73.9785C265.478 74.1242 265.439 74.2344 265.356 74.3091L265.273 74.3838C265.092 74.5458 264.871 74.4807 264.609 74.1888L262.311 71.6236Z" fill="black"/>
<path d="M273.526 86.0805C272.286 84.305 271.85 82.4579 272.218 80.5392C272.612 78.6251 273.621 77.1017 275.243 75.9691C276.835 74.8579 278.533 74.4694 280.337 74.8036C282.156 75.1271 283.616 76.0771 284.717 77.6536C285.903 79.3526 286.309 81.1408 285.935 83.0182C285.587 84.9002 284.594 86.4129 282.956 87.5562C281.349 88.6781 279.649 89.1132 277.857 88.8617C276.081 88.5994 274.637 87.6723 273.526 86.0805ZM274.476 85.8271C275.106 86.7302 276.007 87.2054 277.178 87.2528C278.36 87.3155 279.586 86.9034 280.857 86.0166C282.479 84.884 283.574 83.5504 284.142 82.0158C284.725 80.4705 284.611 79.1162 283.799 77.9529C283.115 76.9733 282.177 76.4445 280.984 76.3665C279.807 76.2778 278.583 76.6769 277.312 77.5637C275.782 78.6322 274.713 79.9705 274.105 81.5784C273.497 83.1864 273.621 84.6026 274.476 85.8271Z" fill="black"/>
<path d="M288.764 108.486C288.504 108.633 288.326 108.823 288.231 109.056C288.137 109.289 288.063 109.501 288.011 109.692C287.983 109.892 287.911 110.021 287.793 110.078L287.693 110.126C287.474 110.232 287.28 110.109 287.109 109.756L285.654 106.758C285.483 106.406 285.507 106.176 285.725 106.071L285.826 106.022C285.943 105.965 286.193 106.03 286.575 106.218C286.965 106.423 287.324 106.436 287.651 106.256L292.568 103.56C294.03 102.768 295.004 101.912 295.491 100.991C296.003 100.078 296.039 99.1689 295.599 98.262C295.151 97.3383 294.457 96.7413 293.517 96.4713C292.577 96.2012 291.603 96.3106 290.595 96.7994L284.473 99.769C284.272 99.8668 284.12 100.003 284.018 100.177C283.94 100.36 283.896 100.526 283.886 100.676C283.876 100.826 283.845 100.976 283.793 101.126C283.766 101.284 283.702 101.388 283.602 101.437L283.501 101.485C283.283 101.591 283.088 101.468 282.917 101.115L281.389 97.9663C281.226 97.6304 281.254 97.4095 281.472 97.3036L281.573 97.2547C281.707 97.1895 281.961 97.2635 282.334 97.4767C282.716 97.7067 283.074 97.7402 283.41 97.5773L291.043 93.8744C291.362 93.7196 291.561 93.5091 291.64 93.2429C291.743 92.9853 291.8 92.7397 291.811 92.5061C291.83 92.2893 291.899 92.1523 292.016 92.0953L292.092 92.0586C292.243 91.9853 292.434 92.0586 292.665 92.2784L294.489 93.7279C294.721 93.906 294.823 94.0742 294.796 94.2325C294.769 94.3908 294.655 94.5188 294.453 94.6166L292.614 95.5087C293.499 95.536 294.318 95.7921 295.072 96.277C295.834 96.7787 296.423 97.4579 296.838 98.3144C297.474 99.6244 297.541 100.94 297.041 102.262C296.549 103.6 295.4 104.78 293.593 105.802L288.764 108.486Z" fill="black"/>
<path d="M305.962 114.319C305.777 113.771 305.78 113.287 305.973 112.867C306.165 112.447 306.509 112.153 307.004 111.985C307.499 111.817 307.951 111.841 308.359 112.058C308.791 112.286 309.097 112.665 309.277 113.195C309.451 113.708 309.433 114.177 309.222 114.603C309.03 115.023 308.686 115.317 308.191 115.485C307.696 115.653 307.244 115.629 306.836 115.412C306.427 115.196 306.136 114.832 305.962 114.319ZM290.194 117.951C290.08 117.615 290.138 117.408 290.367 117.33L290.473 117.294C290.597 117.252 290.739 117.293 290.899 117.416C291.077 117.533 291.272 117.644 291.485 117.749C291.716 117.848 291.964 117.853 292.229 117.763L300.131 115.084C300.538 114.946 300.837 114.667 301.03 114.247C301.223 113.827 301.363 113.602 301.452 113.572L301.505 113.554C301.628 113.512 301.806 113.6 302.037 113.817L303.737 115.517C303.939 115.764 304.026 115.961 303.997 116.109C303.974 116.274 303.857 116.393 303.645 116.465L293.011 120.07C292.799 120.142 292.632 120.258 292.508 120.418C292.403 120.572 292.339 120.732 292.316 120.897C292.293 121.063 292.247 121.216 292.177 121.358C292.124 121.494 292.045 121.58 291.939 121.616L291.833 121.652C291.603 121.73 291.425 121.584 291.299 121.212L290.194 117.951Z" fill="black"/>
<path d="M298.314 141.218C298.025 141.297 297.806 141.437 297.657 141.639C297.508 141.841 297.384 142.028 297.286 142.201C297.21 142.388 297.108 142.494 296.98 142.521L296.87 142.543C296.633 142.592 296.474 142.424 296.396 142.04L295.727 138.776C295.648 138.392 295.728 138.176 295.965 138.127L296.075 138.104C296.203 138.078 296.429 138.203 296.752 138.48C297.08 138.775 297.424 138.876 297.786 138.783L303.216 137.384C304.828 136.977 305.984 136.388 306.683 135.616C307.405 134.858 307.664 133.986 307.462 132.998C307.256 131.993 306.73 131.243 305.886 130.749C305.042 130.255 304.071 130.121 302.974 130.345L296.308 131.711C296.089 131.756 295.908 131.851 295.766 131.994C295.646 132.152 295.563 132.303 295.516 132.446C295.469 132.588 295.402 132.726 295.314 132.858C295.249 133.005 295.162 133.09 295.052 133.112L294.942 133.135C294.705 133.183 294.546 133.016 294.468 132.632L293.765 129.203C293.69 128.837 293.771 128.63 294.009 128.581L294.119 128.559C294.265 128.529 294.493 128.663 294.802 128.962C295.114 129.279 295.454 129.4 295.819 129.325L304.131 127.622C304.478 127.551 304.723 127.396 304.864 127.157C305.028 126.933 305.144 126.709 305.212 126.485C305.285 126.28 305.385 126.164 305.513 126.138L305.595 126.121C305.76 126.087 305.927 126.206 306.096 126.476L307.506 128.331C307.686 128.56 307.744 128.749 307.678 128.895C307.613 129.042 307.471 129.138 307.252 129.183L305.249 129.593C306.1 129.838 306.83 130.289 307.441 130.945C308.056 131.619 308.459 132.423 308.65 133.355C308.942 134.782 308.683 136.073 307.872 137.23C307.065 138.406 305.659 139.265 303.656 139.809L298.314 141.218Z" fill="black"/>
<path d="M311.435 161.293C311.466 161.946 311.332 162.27 311.033 162.265C310.939 162.251 310.852 162.199 310.773 162.11C310.617 161.968 310.495 161.777 310.409 161.538C310.323 161.3 310.253 161.004 310.198 160.652C310.144 160.299 310.084 160.031 310.019 159.847C309.601 160.465 309.046 160.969 308.354 161.357C307.681 161.744 306.981 161.956 306.254 161.99C305.098 162.046 304.068 161.797 303.163 161.242C302.258 160.687 301.556 159.899 301.059 158.876C300.855 160.082 300.451 161.008 299.846 161.654C299.261 162.299 298.548 162.641 297.709 162.681C296.423 162.743 295.378 162.186 294.573 161.01C293.752 159.854 293.295 158.315 293.202 156.395C293.107 154.418 293.489 152.839 294.348 151.658C295.189 150.478 296.121 149.863 297.147 149.814C297.445 149.799 297.701 149.871 297.914 150.029C298.128 150.206 298.243 150.462 298.259 150.797C298.272 151.058 298.171 151.288 297.956 151.485C297.761 151.7 297.507 151.871 297.196 151.998C296.867 152.144 296.52 152.329 296.157 152.552C295.776 152.795 295.434 153.054 295.129 153.331C294.807 153.626 294.547 154.05 294.35 154.601C294.152 155.153 294.07 155.792 294.105 156.519C294.16 157.657 294.493 158.566 295.105 159.247C295.717 159.927 296.49 160.245 297.422 160.2C298.317 160.157 299.031 159.843 299.563 159.257C300.114 158.669 300.413 157.898 300.461 156.943C300.4 156.46 300.365 156.106 300.354 155.883C300.273 154.205 300.727 152.762 301.716 151.556C302.723 150.349 303.982 149.709 305.492 149.637C307.151 149.557 308.531 150.061 309.629 151.148C310.747 152.234 311.35 153.7 311.439 155.546C311.463 156.05 311.452 156.807 311.408 157.818C311.363 158.83 311.372 159.988 311.435 161.293ZM301.298 156.286C301.35 157.349 301.745 158.18 302.484 158.78C303.241 159.379 304.17 159.652 305.27 159.599C306.762 159.527 308.02 159.065 309.044 158.212C310.088 157.377 310.58 156.354 310.522 155.142C310.475 154.153 310.082 153.369 309.344 152.788C308.607 152.225 307.697 151.97 306.616 152.022C305.106 152.094 303.828 152.539 302.783 153.355C301.74 154.19 301.245 155.167 301.298 156.286Z" fill="black"/>
<path d="M307.518 197.051C307.47 197.307 307.335 197.415 307.115 197.373L307.033 197.358C306.868 197.327 306.679 197.12 306.466 196.738C306.25 196.374 305.948 196.06 305.561 195.797L295.071 188.429C294.415 187.982 293.953 187.657 293.688 187.455C293.404 187.249 292.984 186.904 292.43 186.419C291.872 185.953 291.484 185.547 291.264 185.202C291.026 184.853 290.833 184.417 290.685 183.895C290.514 183.388 290.478 182.878 290.575 182.364C290.759 181.392 291.177 180.635 291.831 180.094C292.465 179.549 293.076 179.332 293.663 179.443C293.993 179.505 294.242 179.647 294.409 179.869C294.576 180.091 294.629 180.366 294.566 180.697C294.507 181.008 294.329 181.25 294.03 181.422C293.713 181.59 293.381 181.688 293.034 181.718C292.683 181.765 292.357 181.884 292.055 182.074C291.731 182.279 291.533 182.574 291.46 182.959C291.255 184.041 292.493 185.434 295.173 187.137L307.809 184.055C308.251 183.929 308.642 183.718 308.983 183.422C309.32 183.143 309.572 183.02 309.737 183.051L309.819 183.067C310.039 183.108 310.124 183.267 310.072 183.542L309.395 187.118C309.347 187.375 309.213 187.483 308.993 187.441L308.91 187.426C308.782 187.401 308.65 187.291 308.517 187.095C308.398 186.92 308.272 186.783 308.139 186.681C308.024 186.584 307.742 186.569 307.293 186.636L297.217 188.834L305.58 194.49C305.882 194.699 306.143 194.777 306.362 194.723C306.6 194.673 306.78 194.574 306.903 194.427C307.044 194.282 307.185 194.138 307.327 193.994C307.468 193.85 307.593 193.788 307.704 193.809L307.786 193.824C308.006 193.866 308.09 194.024 308.038 194.299L307.518 197.051Z" fill="black"/>
<path d="M289.964 207.68C290.68 205.636 291.924 204.203 293.696 203.381C295.48 202.582 297.305 202.51 299.172 203.164C301.004 203.807 302.312 204.958 303.095 206.617C303.896 208.282 303.978 210.022 303.342 211.837C302.656 213.792 301.442 215.166 299.7 215.96C297.97 216.777 296.162 216.855 294.277 216.195C292.427 215.546 291.081 214.421 290.238 212.82C289.413 211.225 289.321 209.512 289.964 207.68ZM290.724 208.302C290.36 209.342 290.501 210.35 291.147 211.329C291.787 212.324 292.838 213.079 294.3 213.591C296.167 214.246 297.889 214.355 299.466 213.919C301.061 213.49 302.093 212.605 302.562 211.267C302.958 210.139 302.839 209.069 302.205 208.055C301.589 207.048 300.55 206.288 299.088 205.775C297.326 205.158 295.615 205.072 293.956 205.519C292.296 205.965 291.219 206.893 290.724 208.302Z" fill="black"/>
<path d="M281.423 232.641C281.011 232.421 280.659 232.328 280.366 232.361C280.073 232.395 279.866 232.485 279.745 232.632C279.64 232.788 279.515 232.922 279.37 233.035C279.225 233.148 279.078 233.165 278.93 233.085C278.585 232.901 278.685 232.298 279.231 231.277C279.9 230.027 280.831 229.752 282.022 230.453L282.197 230.483C281.219 228.986 281.206 227.349 282.158 225.571C282.897 224.189 283.977 223.338 285.398 223.018C286.825 222.723 288.436 223.056 290.23 224.016L294.6 226.355C294.962 226.548 295.35 226.555 295.764 226.374C296.17 226.21 296.422 226.155 296.521 226.207L296.595 226.247C296.792 226.353 296.85 226.542 296.767 226.816L296.027 229.087C295.872 229.576 295.654 229.745 295.374 229.595L288.895 226.096C287.463 225.33 286.22 224.982 285.166 225.053C284.119 225.15 283.345 225.667 282.843 226.605C282.367 227.494 282.317 228.419 282.691 229.382C283.056 230.36 283.798 231.149 284.918 231.748L290.201 234.575C290.546 234.76 290.931 234.754 291.354 234.557C291.768 234.377 292.033 234.317 292.148 234.379L292.222 234.419C292.419 234.524 292.477 234.714 292.394 234.987L291.641 237.284C291.495 237.756 291.281 237.917 291.002 237.767L281.423 232.641Z" fill="black"/>
<path d="M281.877 252.151C281.406 252.801 280.872 253.187 280.277 253.308C279.671 253.445 279.118 253.333 278.619 252.971C277.909 252.457 277.773 251.897 278.211 251.292C278.397 251.035 278.628 250.891 278.904 250.861C279.18 250.83 279.438 250.856 279.678 250.938C279.907 251.035 280.171 251.053 280.469 250.992C280.766 250.931 281.03 250.742 281.26 250.425C281.698 249.82 281.741 249.125 281.389 248.339C281.04 247.579 280.42 246.876 279.528 246.23L274.359 242.484C274.057 242.265 273.685 242.237 273.243 242.401C272.817 242.576 272.55 242.625 272.445 242.549L272.354 242.483C272.173 242.351 272.191 242.135 272.41 241.832L274.448 239.021C274.667 238.719 274.867 238.633 275.049 238.765L275.139 238.83C275.245 238.907 275.298 239.153 275.297 239.567C275.3 240.008 275.453 240.338 275.756 240.557L282.648 245.552C282.965 245.782 283.347 245.828 283.793 245.69C284.239 245.552 284.514 245.521 284.62 245.598L284.665 245.631C284.817 245.74 284.871 245.952 284.827 246.266L284.349 248.548C284.246 249.073 283.998 249.192 283.605 248.908L281.791 247.593C282.9 249.181 282.928 250.7 281.877 252.151Z" fill="black"/>
<path d="M251.589 264.276C253.217 262.848 255.005 262.212 256.953 262.366C258.899 262.547 260.524 263.381 261.828 264.869C263.108 266.329 263.681 267.973 263.548 269.803C263.427 271.647 262.643 273.203 261.198 274.47C259.64 275.836 257.907 276.437 256 276.272C254.091 276.134 252.478 275.313 251.162 273.812C249.869 272.338 249.25 270.697 249.302 268.888C249.367 267.093 250.129 265.556 251.589 264.276ZM251.946 265.192C251.118 265.918 250.744 266.866 250.826 268.036C250.894 269.217 251.439 270.391 252.46 271.556C253.765 273.043 255.211 273.985 256.799 274.38C258.399 274.789 259.732 274.526 260.799 273.591C261.697 272.804 262.12 271.813 262.066 270.619C262.024 269.439 261.493 268.266 260.471 267.101C259.241 265.698 257.793 264.782 256.128 264.356C254.463 263.929 253.069 264.208 251.946 265.192Z" fill="black"/>
<path d="M231.783 294.707C231.559 294.843 231.39 294.816 231.273 294.624L231.229 294.553C231.152 294.425 231.196 294.158 231.363 293.75C231.524 293.368 231.566 292.97 231.489 292.558L229.168 281.217C229.085 280.831 229.187 280.55 229.474 280.375L229.928 280.098C230.263 279.894 230.575 279.922 230.865 280.183L238.726 287L236.293 276.875C236.194 276.498 236.296 276.217 236.599 276.032L236.91 275.843C237.212 275.658 237.525 275.686 237.847 275.927L247.197 282.984C247.519 283.225 247.876 283.379 248.267 283.447C248.642 283.524 248.868 283.627 248.946 283.754L248.99 283.826C249.106 284.017 249.045 284.186 248.806 284.332L245.793 286.168C245.57 286.304 245.4 286.276 245.284 286.085L245.24 286.013C245.172 285.902 245.189 285.749 245.29 285.557C245.391 285.364 245.448 285.154 245.463 284.926C245.477 284.699 245.349 284.471 245.079 284.242L237.719 278.301L240.319 288.914C240.41 289.208 240.353 289.418 240.146 289.545L239.371 290.049C239.18 290.166 238.967 290.121 238.731 289.915L230.488 282.577L232.439 291.749C232.522 292.136 232.688 292.374 232.939 292.462C233.189 292.549 233.452 292.586 233.727 292.571C233.986 292.566 234.15 292.62 234.218 292.731L234.262 292.803C234.378 292.994 234.317 293.163 234.078 293.308L231.783 294.707Z" fill="black"/>
<path d="M207.204 292.62C207.079 292.349 206.904 292.156 206.679 292.043C206.455 291.93 206.25 291.84 206.063 291.772C205.866 291.729 205.744 291.646 205.696 291.525L205.656 291.42C205.568 291.194 205.706 291.01 206.072 290.868L209.177 289.659C209.542 289.517 209.768 289.559 209.857 289.785L209.897 289.889C209.945 290.011 209.859 290.255 209.641 290.62C209.405 290.992 209.364 291.349 209.516 291.69L211.809 296.807C212.481 298.328 213.257 299.368 214.136 299.927C215.004 300.511 215.907 300.62 216.847 300.254C217.804 299.882 218.454 299.238 218.799 298.322C219.144 297.407 219.113 296.427 218.707 295.384L216.238 289.043C216.157 288.834 216.034 288.672 215.868 288.556C215.692 288.464 215.53 288.407 215.381 288.385C215.232 288.363 215.085 288.32 214.94 288.256C214.785 288.217 214.687 288.145 214.646 288.04L214.605 287.936C214.517 287.71 214.656 287.526 215.021 287.384L218.283 286.114C218.631 285.978 218.849 286.024 218.937 286.25L218.977 286.354C219.031 286.493 218.937 286.74 218.695 287.095C218.435 287.457 218.373 287.812 218.508 288.159L221.586 296.065C221.715 296.396 221.909 296.611 222.168 296.71C222.416 296.834 222.656 296.911 222.888 296.941C223.103 296.977 223.234 297.057 223.281 297.178L223.312 297.257C223.373 297.413 223.284 297.598 223.047 297.81L221.455 299.512C221.259 299.728 221.083 299.817 220.928 299.777C220.772 299.738 220.654 299.613 220.572 299.405L219.831 297.5C219.733 298.379 219.412 299.176 218.868 299.888C218.306 300.607 217.582 301.14 216.695 301.485C215.338 302.013 214.021 301.975 212.744 301.37C211.45 300.773 210.366 299.532 209.493 297.649L207.204 292.62Z" fill="black"/>
</svg>
