<svg width="223" height="202" viewBox="0 0 223 202" fill="none" xmlns="http://www.w3.org/2000/svg">
<path d="M59.3474 175.937C60.6791 177.021 61.5323 178.161 61.9068 179.357C62.2668 180.541 62.2111 181.422 61.7397 182.001C61.3036 182.537 60.8033 182.574 60.2387 182.115C59.9927 181.914 59.8739 181.661 59.8823 181.355C59.8645 181.052 59.9038 180.723 60.0002 180.368C60.0965 180.013 60.1712 179.641 60.2241 179.25C60.2625 178.848 60.1774 178.406 59.9688 177.923C59.7483 177.455 59.3703 177.003 58.8347 176.566C58.111 175.977 57.3819 175.66 56.6477 175.616C55.9016 175.586 55.2869 175.868 54.8037 176.462C54.3322 177.041 54.1985 177.678 54.4024 178.374C54.5918 179.058 54.9592 179.73 55.5045 180.39C56.038 181.066 56.5598 181.755 57.0697 182.459C57.5797 183.163 57.8777 183.936 57.9637 184.776C58.0353 185.604 57.7528 186.41 57.1164 187.191C56.4328 188.031 55.4776 188.421 54.2507 188.36C53.0121 188.315 51.7993 187.809 50.6123 186.842C49.353 185.817 48.5505 184.718 48.205 183.546C47.8594 182.374 47.9459 181.47 48.4645 180.833C48.6413 180.616 48.8682 180.499 49.1453 180.484C49.4079 180.457 49.6478 180.532 49.8649 180.709C50.1255 180.921 50.2379 181.241 50.2021 181.67C50.1664 182.098 50.0781 182.532 49.9373 182.971C49.782 183.398 49.7806 183.902 49.933 184.484C50.0854 185.065 50.4656 185.603 51.0735 186.098C51.7104 186.617 52.3933 186.872 53.1223 186.864C53.8367 186.844 54.412 186.566 54.848 186.03C55.3077 185.466 55.4428 184.842 55.2534 184.158C55.0377 183.477 54.6631 182.799 54.1296 182.123C53.596 181.448 53.0815 180.765 52.5861 180.072C52.0761 179.368 51.7912 178.595 51.7315 177.752C51.6454 176.911 51.9265 176.093 52.5747 175.297C53.2583 174.457 54.2353 174.085 55.5055 174.181C56.7496 174.279 58.0302 174.864 59.3474 175.937Z" fill="black"/>
<path d="M39.4059 160.766C39.1636 160.79 38.9956 160.696 38.9019 160.485C38.7935 160.285 38.8538 160.12 39.0827 159.988C39.9889 159.541 41.0775 159.449 42.3484 159.712C43.6193 159.975 44.7488 160.739 45.7367 162.005C46.8739 163.461 47.3124 165.085 47.0521 166.874C46.7803 168.65 45.8058 170.192 44.1285 171.502C42.5836 172.708 40.9056 173.213 39.0945 173.016C37.2687 172.831 35.7814 172.003 34.6327 170.532C33.6563 169.281 33.2193 168.024 33.3217 166.76C33.398 165.493 33.8554 164.531 34.6941 163.877C35.3268 163.383 36.0308 163.39 36.8061 163.897L43.5875 168.443C44.3486 167.446 44.7543 166.419 44.8048 165.361C44.829 164.3 44.4908 163.321 43.79 162.423C42.6068 160.908 41.1454 160.355 39.4059 160.766ZM35.5974 170.312C36.2866 171.194 37.2263 171.609 38.4165 171.556C39.6066 171.503 40.7755 171.029 41.9231 170.133C42.3645 169.788 42.7167 169.466 42.9798 169.166L37.3716 165.623C36.9488 165.384 36.5535 165.409 36.1856 165.696C35.6265 166.133 35.2537 166.838 35.0673 167.813C34.8693 168.772 35.046 169.605 35.5974 170.312Z" fill="black"/>
<path d="M38.4396 151.414C38.6033 151.729 38.5775 151.942 38.3622 152.054L38.2877 152.093C38.1552 152.162 37.9081 152.112 37.5463 151.942C37.1594 151.765 36.8087 151.758 36.494 151.921L22.5341 159.184C22.2526 159.33 22.0595 159.525 21.9549 159.769C21.8251 160.005 21.741 160.228 21.7026 160.437C21.6642 160.646 21.5954 160.777 21.496 160.829L21.4463 160.854C21.3139 160.923 21.1211 160.876 20.868 160.713L18.9161 159.267C18.6875 159.07 18.5802 158.884 18.5941 158.709C18.5914 158.542 18.6811 158.411 18.8633 158.316L35.3569 149.736C35.6715 149.572 35.8629 149.272 35.931 148.837C35.974 148.394 36.0618 148.138 36.1942 148.069L36.2688 148.03C36.484 147.918 36.6778 148.028 36.8501 148.359L38.4396 151.414Z" fill="black"/>
<path d="M12.0389 141.68C11.7276 140.741 11.7142 139.841 11.999 138.979C12.2778 138.1 12.7716 137.543 13.4803 137.308C13.7284 137.226 13.9792 137.241 14.2329 137.354C14.4688 137.472 14.6367 137.682 14.7366 137.983C14.8893 138.444 14.868 138.824 14.6728 139.125C14.4539 139.414 14.182 139.632 13.8571 139.779C13.5263 139.908 13.2603 140.144 13.0591 140.486C12.852 140.811 12.8365 141.238 13.0128 141.77C13.2829 142.644 14.0054 143.044 15.1802 142.969C16.3491 142.876 17.5599 142.435 18.8126 141.646L19.5302 141.409L18.3053 137.714C18.2701 137.608 18.285 137.505 18.3501 137.404C18.3974 137.31 18.4654 137.248 18.554 137.219L18.8995 137.104C19.1299 137.028 19.2862 137.114 19.3684 137.362L20.5933 141.056L30.4003 137.804C30.666 137.716 30.8552 137.545 30.9678 137.292C31.0803 137.038 31.1663 136.793 31.2257 136.557C31.2792 136.304 31.368 136.156 31.492 136.115L31.5718 136.089C31.7844 136.018 31.9348 136.116 32.0229 136.382L33.2654 140.129C33.3535 140.395 33.2912 140.563 33.0786 140.633L32.9989 140.66C32.8749 140.701 32.7244 140.662 32.5475 140.544C32.3647 140.408 32.1583 140.289 31.9283 140.189C31.6923 140.07 31.4415 140.055 31.1757 140.143L21.3687 143.395L22.1001 145.601C22.1882 145.867 22.1171 146.038 21.8868 146.114L21.5413 146.229C21.2932 146.311 21.1251 146.219 21.037 145.953L20.3056 143.747L17.9934 144.514C16.6468 144.96 15.4308 144.941 14.3455 144.455C13.2601 143.969 12.4913 143.044 12.0389 141.68Z" fill="black"/>
<path d="M28.4911 108.646C28.4352 110.606 27.7162 112.247 26.3339 113.571C24.9335 114.876 23.2257 115.499 21.2105 115.442C19.158 115.383 17.516 114.683 16.2844 113.341C15.0533 111.98 14.4564 110.319 14.4936 108.36C14.5164 106.904 14.9257 105.645 15.7216 104.585C16.4993 103.505 17.2987 102.977 18.1197 103.001C18.7914 103.02 19.1073 103.402 19.0674 104.148C19.0386 104.502 18.8425 104.833 18.4789 105.14C18.0972 105.428 17.6883 105.687 17.2523 105.917C16.7981 106.128 16.3769 106.49 15.9889 107.002C15.6013 107.495 15.3972 108.105 15.3764 108.833C15.3435 109.99 15.7921 110.955 16.7225 111.728C17.6342 112.501 18.7897 112.908 20.1892 112.948C22.1297 113.003 23.7018 112.553 24.9055 111.598C26.0906 110.642 26.7054 109.38 26.7501 107.813C26.7762 106.898 26.5559 106.108 26.0894 105.441C25.6048 104.755 24.985 104.223 24.2301 103.847C24.0093 103.729 23.9304 103.549 23.9933 103.308C24.0562 103.067 24.2175 102.978 24.4771 103.042C25.6089 103.298 26.5715 103.923 27.3649 104.917C28.1587 105.892 28.5341 107.135 28.4911 108.646Z" fill="black"/>
<path d="M30.2289 84.0833C30.617 84.1498 30.9412 84.1314 31.2013 84.0279C31.4435 83.9195 31.616 83.7825 31.7189 83.617C31.8038 83.4467 31.9018 83.2992 32.013 83.1746C32.1241 83.05 32.2518 83.0073 32.3959 83.0464C32.7742 83.149 32.807 83.7768 32.4943 84.9298C32.3184 85.5784 32.0718 86.024 31.7545 86.2668C31.4192 86.5046 30.893 86.5553 30.1757 86.4188C31.2511 87.4454 31.5298 88.9136 31.0119 90.8232C30.6014 92.3366 29.9113 93.4549 28.9414 94.1782C27.9716 94.9016 26.8471 95.0898 25.568 94.7429C24.302 94.4188 23.4423 93.7021 22.9889 92.5927C22.5404 91.4653 22.514 90.172 22.9098 88.7127C23.3007 87.2715 23.9616 86.2612 24.8923 85.682L24.148 85.5382C22.4466 85.2508 21.1221 85.2493 20.1746 85.5339C19.2271 85.8184 18.6116 86.4832 18.3282 87.5281C18.1571 88.1586 18.1776 88.7251 18.3895 89.2274C18.6014 89.7297 18.8745 90.1132 19.2088 90.378C19.5481 90.6247 19.8505 90.9002 20.1162 91.2043C20.3818 91.5085 20.4755 91.8047 20.3974 92.0929C20.3094 92.4172 20.1485 92.654 19.9146 92.8033C19.6855 92.9346 19.4179 92.9587 19.1116 92.8756C18.355 92.6704 17.7991 92.0458 17.444 91.0018C17.0758 89.9348 17.0823 88.6987 17.4634 87.2935C17.9081 85.6541 18.7668 84.4848 20.0395 83.7856C21.2992 83.0634 22.8542 82.8566 24.7046 83.1651L30.2289 84.0833ZM30.3084 89.9942C30.5478 89.1114 30.464 88.315 30.057 87.6051C29.632 86.8902 28.9912 86.436 28.1347 86.2423L26.8893 86.0206C26.2017 85.9888 25.5864 86.1894 25.0434 86.6224C24.5054 87.0373 24.1313 87.6321 23.9212 88.4068C23.672 89.3256 23.7304 90.1441 24.0965 90.8623C24.4626 91.5805 25.06 92.052 25.8887 92.2768C26.8976 92.5505 27.825 92.4829 28.6708 92.074C29.5035 91.6423 30.0494 90.949 30.3084 89.9942Z" fill="black"/>
<path d="M26.4479 64.5388C26.8168 63.8259 27.2866 63.3649 27.8573 63.1558C28.4365 62.9301 28.9996 62.9589 29.5467 63.242C30.3259 63.6453 30.5438 64.1785 30.2006 64.8416C30.0548 65.1234 29.8478 65.3 29.5796 65.3714C29.3115 65.4428 29.0525 65.4559 28.8026 65.4107C28.5614 65.3489 28.2981 65.3702 28.0128 65.4748C27.7275 65.5793 27.4947 65.8057 27.3145 66.1538C26.9713 66.817 27.0326 67.5108 27.4984 68.2352C27.9562 68.9346 28.6741 69.5374 29.6522 70.0436L35.3219 72.9779C35.6534 73.1495 36.0253 73.1213 36.4376 72.8933C36.8333 72.6567 37.0892 72.5684 37.2052 72.6285L37.3047 72.68C37.5036 72.7829 37.5173 73.0002 37.3457 73.3318L35.7498 76.4153C35.5782 76.7468 35.393 76.8611 35.194 76.7582L35.0946 76.7067C34.9785 76.6466 34.8899 76.4116 34.8289 76.0017C34.7598 75.5666 34.5595 75.2632 34.2279 75.0916L26.6684 71.1791C26.3202 70.999 25.936 71.0103 25.5158 71.2132C25.0955 71.416 24.8273 71.4874 24.7113 71.4274L24.6616 71.4016C24.4958 71.3158 24.4109 71.1143 24.407 70.797L24.5397 68.4695C24.5638 67.9355 24.7914 67.7801 25.2224 68.0031L27.2118 69.0327C25.8788 67.6282 25.6242 66.1303 26.4479 64.5388Z" fill="black"/>
<path d="M47.2137 52.0938C47.1373 51.8628 47.1915 51.6782 47.3765 51.54C47.5471 51.3901 47.7218 51.4122 47.9006 51.6063C48.5374 52.3909 48.8684 53.432 48.8937 54.7296C48.9191 56.0271 48.4243 57.2978 47.4094 58.5416C46.241 59.9734 44.7553 60.7608 42.9522 60.9037C41.1609 61.0321 39.4409 60.4237 37.7922 59.0783C36.2736 57.8392 35.4093 56.3148 35.1994 54.5052C34.9751 52.6839 35.453 51.0501 36.6331 49.6038C37.6362 48.3745 38.7655 47.6697 40.0208 47.4894C41.2735 47.2828 42.3121 47.5159 43.1365 48.1886C43.7583 48.6961 43.9077 49.3841 43.5844 50.2526L40.6551 57.8728C41.7958 58.394 42.8874 58.562 43.93 58.3768C44.9699 58.1653 45.8498 57.6184 46.5697 56.7362C47.7853 55.2465 47.9999 53.6991 47.2137 52.0938ZM37.0618 50.4957C36.3537 51.3634 36.1574 52.3717 36.4728 53.5205C36.7882 54.6693 37.51 55.704 38.638 56.6245C39.0719 56.9785 39.4643 57.2505 39.8153 57.4405L42.0273 51.1865C42.1659 50.7214 42.0544 50.3413 41.6929 50.0463C41.1433 49.5979 40.3727 49.3907 39.3811 49.4248C38.4014 49.4445 37.6283 49.8015 37.0618 50.4957Z" fill="black"/>
<path d="M58.3941 27.3241C57.9043 27.6322 57.4327 27.7413 56.9793 27.6516C56.5259 27.5618 56.1601 27.2957 55.8819 26.8532C55.6037 26.4108 55.5223 25.9658 55.6378 25.5183C55.7591 25.0451 56.0569 24.6594 56.5309 24.3613C56.9892 24.0731 57.4499 23.9818 57.9132 24.0874C58.3666 24.1771 58.7324 24.4432 59.0107 24.8857C59.2889 25.3281 59.3703 25.7731 59.2548 26.2206C59.1393 26.6681 58.8524 27.0359 58.3941 27.3241ZM65.5902 41.8177C65.29 42.0065 65.0753 41.9982 64.9461 41.7928L64.8865 41.698C64.8169 41.5873 64.8234 41.4399 64.906 41.2557C64.9787 41.0556 65.0414 40.8398 65.0942 40.6081C65.137 40.3607 65.0839 40.1184 64.9349 39.8814L60.4929 32.818C60.2644 32.4546 59.9234 32.228 59.47 32.1382C59.0167 32.0484 58.7652 31.9641 58.7155 31.885L58.6857 31.8376C58.6161 31.727 58.6601 31.534 58.8176 31.2585L60.0763 29.2101C60.2695 28.9563 60.4413 28.8262 60.5916 28.8198C60.7578 28.8035 60.9005 28.8902 61.0198 29.0798L66.997 38.5846C67.1162 38.7742 67.268 38.9103 67.4522 38.9929C67.6265 39.0597 67.7968 39.085 67.9629 39.0687C68.1291 39.0524 68.2894 39.0618 68.4438 39.097C68.5883 39.1164 68.6904 39.1735 68.75 39.2683L68.8096 39.3631C68.9388 39.5685 68.8375 39.7756 68.5057 39.9843L65.5902 41.8177Z" fill="black"/>
<path d="M80.3332 34.3872C78.7373 35.0213 77.326 35.2104 76.0995 34.9545C74.8904 34.6918 74.148 34.2134 73.8723 33.5195C73.6173 32.8777 73.828 32.4223 74.5046 32.1535C74.7995 32.0364 75.0785 32.0561 75.3416 32.2127C75.6151 32.345 75.8833 32.5398 76.1461 32.7969C76.409 33.054 76.6978 33.3008 77.0127 33.5372C77.345 33.7667 77.7727 33.9081 78.296 33.9613C78.8124 33.9972 79.3916 33.8876 80.0334 33.6326C80.9008 33.288 81.5328 32.8059 81.9294 32.1863C82.3191 31.5494 82.3726 30.8754 82.09 30.1641C81.8143 29.4702 81.3231 29.0427 80.6164 28.8816C79.927 28.7136 79.1609 28.7067 78.3182 28.8607C77.4687 28.9974 76.6122 29.1167 75.7489 29.2187C74.8855 29.3207 74.066 29.2044 73.2903 28.8698C72.532 28.5284 71.9667 27.8893 71.5945 26.9525C71.1948 25.9463 71.3202 24.9223 71.9708 23.8805C72.6145 22.8213 73.6476 22.0091 75.0701 21.4439C76.5794 20.8443 77.9299 20.6793 79.1217 20.9489C80.3135 21.2186 81.061 21.7351 81.3643 22.4984C81.4677 22.7586 81.4584 23.0133 81.3365 23.2626C81.232 23.505 81.0496 23.6779 80.7894 23.7813C80.4771 23.9054 80.1427 23.8474 79.7863 23.6074C79.4298 23.3674 79.0942 23.0789 78.7796 22.742C78.4823 22.3981 78.0426 22.151 77.4606 22.0006C76.8786 21.8502 76.2233 21.9197 75.4947 22.2092C74.7314 22.5125 74.1757 22.9843 73.8276 23.6248C73.4968 24.2584 73.459 24.8961 73.714 25.538C73.9828 26.2145 74.4619 26.6368 75.1513 26.8048C75.8512 26.9485 76.6259 26.952 77.4755 26.8153C78.325 26.6787 79.1728 26.5628 80.0188 26.4677C80.8822 26.3657 81.6965 26.4941 82.4617 26.8529C83.2374 27.1875 83.8147 27.8318 84.1938 28.7859C84.5936 29.7921 84.4421 30.8264 83.7395 31.889C83.0473 32.9272 81.9119 33.76 80.3332 34.3872Z" fill="black"/>
<path d="M109.518 28.4013C108.399 28.441 107.5 28.118 106.822 27.4323C106.162 26.7273 105.807 25.6845 105.758 24.304L105.462 15.9373L103.615 16.0028C103.335 16.0127 103.19 15.8778 103.18 15.598L103.17 15.3181C103.16 15.0383 103.295 14.8934 103.575 14.8835L104.582 14.8478C105.851 14.8028 106.528 13.8915 106.615 12.114C106.639 11.7396 106.791 11.5474 107.071 11.5375L107.351 11.5276C107.649 11.517 107.805 11.6982 107.818 12.0713L107.94 14.7287L111.802 14.5917C111.914 14.5877 112.009 14.6311 112.087 14.7217C112.183 14.793 112.233 14.8846 112.237 14.9965L112.246 15.2764C112.256 15.5562 112.121 15.7011 111.842 15.711L107.98 15.848L108.278 24.2427C108.304 24.9889 108.483 25.5616 108.815 25.9607C109.147 26.3599 109.583 26.5499 110.124 26.5307C110.721 26.5095 111.191 26.3434 111.535 26.0323C111.897 25.702 112.097 25.284 112.135 24.7783C112.221 24.5511 112.376 24.4522 112.601 24.4816C112.844 24.4916 112.97 24.6179 112.979 24.8604C113.011 25.7745 112.704 26.5886 112.057 27.3027C111.428 27.9974 110.581 28.3636 109.518 28.4013Z" fill="black"/>
<path d="M132.511 28.5197C132.482 28.8937 132.601 29.2374 132.867 29.5506C133.133 29.8638 133.253 30.0939 133.227 30.2409L133.207 30.3511C133.168 30.5716 132.964 30.6489 132.597 30.5831L129.289 29.9906C128.922 29.9247 128.758 29.7816 128.798 29.5611L128.817 29.4508C128.84 29.3222 128.946 29.2084 129.134 29.1094C129.341 29.0137 129.542 28.898 129.737 28.7622C129.935 28.6081 130.05 28.3916 130.081 28.1127L130.813 22.4409C131.022 20.8475 130.898 19.5831 130.44 18.6476C129.982 17.7122 129.266 17.1572 128.292 16.9827C127.281 16.8017 126.39 17.0119 125.619 17.6132C124.847 18.2146 124.363 19.0665 124.165 20.169L122.965 26.8663C122.903 27.2154 123.032 27.5515 123.354 27.8746C123.678 28.1793 123.827 28.4052 123.801 28.5521L123.786 28.6348C123.744 28.8737 123.529 28.9586 123.143 28.8894L119.698 28.2722C119.349 28.2097 119.196 28.059 119.239 27.8201L119.254 27.7374C119.28 27.5904 119.48 27.4271 119.853 27.2475C120.249 27.0528 120.477 26.7809 120.54 26.4318L123.33 10.8597C123.386 10.5474 123.338 10.2829 123.188 10.0662C123.058 9.83447 122.912 9.64702 122.748 9.50385C122.605 9.34561 122.544 9.21136 122.564 9.10112L122.579 9.01843C122.615 8.81632 122.772 8.68318 123.049 8.61902L125.486 8.03172C125.745 7.96427 125.941 7.98046 126.075 8.08029C126.212 8.16175 126.261 8.31272 126.221 8.53321L124.566 17.4532C125.764 16.1695 127.262 15.6889 129.063 16.0116C130.496 16.2683 131.6 16.9876 132.375 18.1693C133.171 19.336 133.446 20.9214 133.201 22.9256L132.511 28.5197Z" fill="black"/>
<path d="M151.288 33.6487C151.49 33.5132 151.683 33.5161 151.865 33.6575C152.055 33.7817 152.081 33.9559 151.942 34.1802C151.356 35.0036 150.441 35.601 149.198 35.9725C147.954 36.344 146.597 36.2071 145.128 35.5619C143.435 34.8191 142.279 33.5981 141.659 31.8989C141.056 30.2072 141.183 28.3871 142.038 26.4386C142.826 24.6439 144.064 23.4034 145.751 22.7172C147.446 22.0138 149.148 22.0373 150.857 22.7876C152.31 23.4254 153.291 24.3249 153.801 25.4863C154.335 26.6382 154.388 27.7012 153.96 28.6755C153.638 29.4104 153.015 29.7383 152.091 29.6592L143.965 28.8748C143.768 30.1133 143.898 31.2101 144.356 32.1652C144.838 33.1106 145.6 33.8122 146.643 34.2699C148.403 35.0427 149.952 34.8356 151.288 33.6487ZM150.113 23.4392C149.087 22.989 148.063 23.0695 147.04 23.6807C146.018 24.2919 145.214 25.2641 144.629 26.5973C144.404 27.1101 144.247 27.561 144.157 27.9499L150.775 28.4086C151.26 28.4177 151.597 28.2087 151.784 27.7814C152.069 27.1318 152.063 26.3339 151.765 25.3876C151.484 24.4488 150.933 23.7994 150.113 23.4392Z" fill="black"/>
<path d="M176.577 41.9747C178.122 41.8131 179.518 42.3633 180.763 43.6253C182.009 44.8872 182.62 46.4091 182.595 48.1909C182.597 49.9729 181.88 51.572 180.446 52.9883C178.984 54.4309 177.323 55.1924 175.461 55.2728C173.626 55.3534 172.079 54.756 170.82 53.4807C169.522 52.1656 169.017 50.6444 169.305 48.9171L168.308 49.9403C168.096 50.1501 167.878 50.1421 167.655 49.9163L165.964 48.1631C165.767 47.9638 165.742 47.792 165.888 47.6478L165.948 47.5888C166.041 47.497 166.305 47.4723 166.74 47.5147C167.189 47.5704 167.546 47.4671 167.811 47.2048L178.97 36.1889C179.209 35.9529 179.336 35.6963 179.351 35.4192C179.366 35.1421 179.348 34.8978 179.296 34.6863C179.258 34.4616 179.286 34.3034 179.379 34.2116L179.438 34.1526C179.558 34.0346 179.776 34.0426 180.092 34.1766L182.403 35.0033C182.679 35.0974 182.844 35.2239 182.895 35.3826C182.96 35.5546 182.906 35.7259 182.734 35.8964L176.577 41.9747ZM171.202 52.5922C172.12 53.5221 173.206 53.9053 174.461 53.7418C175.743 53.5784 176.995 52.8935 178.217 51.687C179.598 50.3231 180.419 48.9095 180.679 47.446C180.966 45.9827 180.631 44.7662 179.673 43.7964C179.018 43.1322 178.195 42.8035 177.205 42.8104C176.228 42.8041 175.401 43.1353 174.723 43.8042L171.894 46.5975L171.595 46.8529L171.615 46.8729C170.818 47.6597 170.376 48.6336 170.289 49.7946C170.216 50.9689 170.52 51.9015 171.202 52.5922Z" fill="black"/>
<path d="M188.772 70.8702C189.016 70.8761 189.171 70.9894 189.239 71.2102C189.323 71.4213 189.243 71.5783 189 71.6813C188.047 72.0163 186.955 71.977 185.725 71.5635C184.494 71.15 183.465 70.2559 182.636 68.8811C181.682 67.2986 181.441 65.6344 181.914 63.8887C182.397 62.1589 183.55 60.7446 185.372 59.6458C187.051 58.6337 188.777 58.3339 190.552 58.7462C192.342 59.1489 193.719 60.1495 194.683 61.748C195.502 63.1068 195.785 64.4075 195.532 65.6502C195.304 66.8992 194.735 67.7984 193.823 68.3478C193.136 68.7623 192.438 68.671 191.729 68.0739L185.542 62.7475C184.667 63.6458 184.141 64.6169 183.964 65.6609C183.812 66.7113 184.031 67.724 184.619 68.6992C185.612 70.3457 186.996 71.0694 188.772 70.8702ZM193.699 61.851C193.12 60.8919 192.237 60.3672 191.049 60.2769C189.862 60.1867 188.644 60.5175 187.397 61.2693C186.918 61.5584 186.529 61.8362 186.232 62.1025L191.375 66.2931C191.766 66.5804 192.161 66.6035 192.561 66.3625C193.168 65.9963 193.623 65.3406 193.925 64.3956C194.237 63.4665 194.161 62.6183 193.699 61.851Z" fill="black"/>
<path d="M190.043 84.9526C189.506 83.3214 189.402 81.9013 189.731 80.6924C190.066 79.5013 190.589 78.789 191.298 78.5555C191.954 78.3395 192.396 78.5772 192.623 79.2687C192.723 79.5702 192.686 79.8475 192.514 80.1007C192.365 80.3657 192.155 80.6217 191.882 80.8686C191.61 81.1156 191.346 81.3891 191.091 81.6892C190.842 82.007 190.675 82.4255 190.591 82.9447C190.524 83.458 190.599 84.0426 190.815 84.6987C191.106 85.5852 191.55 86.245 192.144 86.6781C192.757 87.1054 193.426 87.1994 194.153 86.9601C194.862 86.7266 195.319 86.2619 195.522 85.5661C195.731 84.8881 195.784 84.1238 195.681 83.2734C195.596 82.4172 195.528 81.5551 195.478 80.6872C195.428 79.8193 195.593 79.0082 195.974 78.254C196.36 77.5176 197.032 76.9918 197.99 76.6766C199.018 76.338 200.033 76.5248 201.034 77.2368C202.052 77.9431 202.801 79.0231 203.28 80.477C203.787 82.0196 203.871 83.3776 203.53 84.551C203.189 85.7244 202.629 86.4396 201.849 86.6964C201.583 86.784 201.329 86.7594 201.087 86.6227C200.852 86.5038 200.69 86.3114 200.603 86.0454C200.498 85.7263 200.576 85.396 200.836 85.0546C201.097 84.7132 201.406 84.3956 201.761 84.1017C202.122 83.8256 202.395 83.4016 202.58 82.8297C202.765 82.2578 202.735 81.5995 202.49 80.8548C202.233 80.0747 201.796 79.4916 201.177 79.1057C200.565 78.7374 199.93 78.6613 199.274 78.8772C198.583 79.1049 198.133 79.5578 197.924 80.2358C197.738 80.9258 197.688 81.6989 197.773 82.5551C197.859 83.4114 197.923 84.2646 197.967 85.1148C198.017 85.9827 197.84 86.7878 197.436 87.5301C197.055 88.2842 196.378 88.8218 195.402 89.1429C194.374 89.4814 193.351 89.2681 192.332 88.5028C191.337 87.7495 190.575 86.5661 190.043 84.9526Z" fill="black"/>
<path d="M193.873 102.698C193.742 101.585 193.991 100.663 194.619 99.9316C195.268 99.2162 196.278 98.7778 197.65 98.6164L205.965 97.638L205.749 95.8027C205.716 95.5246 205.839 95.3692 206.117 95.3365L206.395 95.3038C206.673 95.271 206.829 95.3937 206.861 95.6718L206.979 96.6729C207.127 97.9335 208.091 98.5344 209.87 98.4755C210.245 98.4689 210.449 98.6047 210.481 98.8828L210.514 99.1608C210.549 99.4575 210.381 99.6276 210.01 99.6712L207.372 100.01L207.823 103.847C207.836 103.959 207.801 104.057 207.717 104.142C207.654 104.243 207.566 104.301 207.455 104.314L207.177 104.346C206.899 104.379 206.744 104.256 206.711 103.978L206.259 100.141L197.917 101.122C197.175 101.21 196.619 101.435 196.248 101.798C195.878 102.161 195.724 102.612 195.787 103.149C195.857 103.742 196.061 104.198 196.399 104.515C196.758 104.849 197.191 105.014 197.698 105.011C197.931 105.077 198.042 105.224 198.032 105.451C198.041 105.694 197.926 105.83 197.685 105.858C196.776 105.965 195.94 105.725 195.175 105.138C194.432 104.568 193.998 103.754 193.873 102.698Z" fill="black"/>
<path d="M192.032 130.654C192.481 128.746 193.517 127.283 195.137 126.265C196.772 125.27 198.571 125.003 200.533 125.466C202.531 125.937 203.998 126.954 204.934 128.517C205.865 130.099 206.115 131.845 205.684 133.757C205.368 135.179 204.713 136.328 203.72 137.207C202.741 138.107 201.851 138.463 201.052 138.275C200.398 138.121 200.165 137.682 200.355 136.96C200.454 136.619 200.713 136.335 201.131 136.107C201.563 135.902 202.016 135.731 202.489 135.593C202.977 135.478 203.462 135.209 203.945 134.786C204.424 134.381 204.747 133.824 204.915 133.116C205.18 131.989 204.935 130.953 204.18 130.008C203.443 129.067 202.393 128.436 201.03 128.115C199.141 127.669 197.51 127.793 196.139 128.486C194.785 129.184 193.928 130.296 193.569 131.822C193.359 132.712 193.415 133.531 193.738 134.278C194.074 135.048 194.574 135.693 195.237 136.214C195.43 136.374 195.471 136.566 195.361 136.789C195.25 137.013 195.075 137.067 194.833 136.953C193.776 136.473 192.959 135.667 192.383 134.534C191.802 133.419 191.685 132.126 192.032 130.654Z" fill="black"/>
<path d="M185.377 154.362C185.01 154.219 184.689 154.171 184.414 154.22C184.154 154.278 183.958 154.377 183.824 154.518C183.706 154.668 183.58 154.793 183.446 154.892C183.312 154.992 183.179 155.008 183.046 154.941C182.696 154.764 182.79 154.143 183.329 153.076C183.632 152.476 183.963 152.09 184.323 151.916C184.699 151.751 185.225 151.807 185.9 152.085C185.054 150.863 185.077 149.369 185.969 147.603C186.676 146.203 187.578 145.247 188.674 144.734C189.769 144.221 190.909 144.264 192.092 144.861C193.266 145.434 193.964 146.309 194.184 147.487C194.396 148.682 194.161 149.954 193.479 151.304C192.806 152.636 191.955 153.493 190.926 153.872L191.626 154.163C193.235 154.788 194.532 155.056 195.517 154.969C196.503 154.881 197.24 154.354 197.728 153.388C198.023 152.805 198.117 152.246 198.011 151.711C197.904 151.176 197.714 150.745 197.44 150.419C197.158 150.109 196.917 149.778 196.718 149.426C196.519 149.075 196.487 148.766 196.622 148.499C196.773 148.2 196.979 148 197.238 147.901C197.489 147.819 197.756 147.849 198.039 147.992C198.739 148.346 199.157 149.069 199.294 150.164C199.44 151.283 199.184 152.492 198.528 153.792C197.762 155.308 196.685 156.28 195.297 156.708C193.918 157.162 192.353 157.051 190.603 156.375L185.377 154.362ZM186.491 148.557C186.079 149.373 186 150.17 186.256 150.947C186.528 151.733 187.064 152.307 187.864 152.67L189.039 153.138C189.706 153.308 190.349 153.235 190.968 152.921C191.579 152.623 192.065 152.116 192.427 151.399C192.856 150.55 192.964 149.736 192.75 148.959C192.537 148.182 192.047 147.599 191.28 147.212C190.347 146.741 189.425 146.62 188.514 146.85C187.612 147.105 186.937 147.674 186.491 148.557Z" fill="black"/>
<path d="M185.139 174.268C184.634 174.891 184.081 175.248 183.48 175.338C182.867 175.442 182.322 175.301 181.843 174.913C181.161 174.361 181.055 173.795 181.525 173.214C181.725 172.968 181.963 172.837 182.24 172.821C182.517 172.805 182.773 172.844 183.009 172.939C183.233 173.048 183.495 173.08 183.795 173.035C184.096 172.99 184.37 172.816 184.616 172.511C185.086 171.931 185.166 171.239 184.856 170.435C184.548 169.658 183.967 168.923 183.111 168.23L178.149 164.213C177.859 163.978 177.489 163.93 177.039 164.07C176.604 164.222 176.336 164.257 176.234 164.175L176.147 164.105C175.973 163.964 176.003 163.748 176.238 163.458L178.423 160.76C178.658 160.469 178.863 160.395 179.037 160.536L179.124 160.606C179.225 160.688 179.265 160.936 179.242 161.35C179.222 161.79 179.357 162.128 179.647 162.363L186.262 167.719C186.567 167.966 186.946 168.032 187.398 167.918C187.851 167.804 188.128 167.788 188.229 167.871L188.273 167.906C188.418 168.023 188.46 168.238 188.4 168.549L187.801 170.802C187.67 171.321 187.415 171.427 187.038 171.122L185.297 169.712C186.32 171.356 186.267 172.875 185.139 174.268Z" fill="black"/>
<path d="M162.291 182.27C162.319 182.512 162.229 182.682 162.02 182.78C161.822 182.892 161.656 182.835 161.52 182.609C161.054 181.712 160.94 180.626 161.177 179.35C161.413 178.074 162.154 176.929 163.399 175.915C164.832 174.748 166.446 174.277 168.241 174.5C170.021 174.736 171.583 175.678 172.927 177.329C174.165 178.848 174.704 180.516 174.544 182.331C174.397 184.16 173.599 185.664 172.152 186.842C170.922 187.844 169.673 188.307 168.407 188.23C167.139 188.18 166.169 187.742 165.497 186.917C164.99 186.295 164.982 185.591 165.474 184.805L169.88 177.932C168.868 177.192 167.832 176.807 166.774 176.778C165.713 176.776 164.74 177.134 163.858 177.853C162.367 179.067 161.844 180.539 162.291 182.27ZM171.912 185.882C172.78 185.175 173.176 184.227 173.099 183.038C173.021 181.849 172.523 180.691 171.604 179.561C171.25 179.127 170.921 178.782 170.615 178.525L167.188 184.204C166.958 184.632 166.991 185.027 167.285 185.389C167.733 185.939 168.446 186.297 169.424 186.463C170.388 186.642 171.217 186.448 171.912 185.882Z" fill="black"/>
</svg>
