<svg width="150" height="150" viewBox="0 0 150 150" fill="none" xmlns="http://www.w3.org/2000/svg">
<rect x="7.14282" y="6.45166" width="135.714" height="137.097" fill="#E3F6FF"/>
<rect x="13.4921" width="123.016" height="6.45161" fill="#9FDFFF"/>
<rect x="13.4921" y="143.548" width="123.016" height="6.45161" fill="#9FDFFF"/>
<rect x="150" y="12.9032" width="125" height="7.14285" transform="rotate(90 150 12.9032)" fill="#9FDFFF"/>
<rect x="136.508" y="6.45166" width="6.34921" height="6.45161" fill="#9FDFFF"/>
<rect x="136.508" y="137.097" width="6.34921" height="6.45161" fill="#9FDFFF"/>
<rect width="125" height="7.14285" transform="matrix(5.42021e-08 1 1 -3.52511e-08 0 12.9032)" fill="#9FDFFF"/>
<rect width="6.34921" height="6.45161" transform="matrix(-1 0 0 1 13.4921 6.45166)" fill="#9FDFFF"/>
<rect width="6.34921" height="6.45161" transform="matrix(-1 0 0 1 13.4921 137.097)" fill="#9FDFFF"/>
<rect x="63.3813" y="61" width="8.0325" height="15.5821" fill="#9FDFFF"/>
<rect x="88.2091" y="66.194" width="8.16206" height="29.2091" transform="rotate(90 88.2091 66.194)" fill="#9FDFFF"/>
<rect x="61.1907" y="63.968" width="2.19068" height="2.22602" fill="#9FDFFF"/>
<rect x="71.4138" y="63.968" width="2.19068" height="2.22602" fill="#9FDFFF"/>
<rect x="73.6046" y="66.194" width="2.19068" height="2.22602" fill="#9FDFFF"/>
<rect x="61.1907" y="74.3561" width="16.7952" height="2.22602" fill="#9FDFFF"/>
<rect x="63.3813" y="76.5822" width="20.4464" height="2.22602" fill="#9FDFFF"/>
<rect x="65.572" y="78.8081" width="16.065" height="2.22602" fill="#9FDFFF"/>
<rect x="67.7627" y="81.0342" width="11.6836" height="2.22602" fill="#9FDFFF"/>
<rect x="69.9534" y="83.2601" width="7.30227" height="2.22602" fill="#9FDFFF"/>
<rect x="72.1441" y="85.4862" width="2.19068" height="2.22602" fill="#9FDFFF"/>
<rect width="8.0325" height="15.5821" transform="matrix(-1 0 0 1 86.0184 61)" fill="#9FDFFF"/>
<rect width="8.16206" height="2.19068" transform="matrix(4.30176e-08 1 1 -4.44164e-08 88.2091 66.194)" fill="#9FDFFF"/>
<rect width="2.19068" height="2.22602" transform="matrix(-1 0 0 1 88.2091 63.968)" fill="#9FDFFF"/>
<rect width="2.19068" height="2.22602" transform="matrix(-1 0 0 1 77.9859 63.968)" fill="#9FDFFF"/>
<rect width="2.19068" height="2.22602" transform="matrix(-1 0 0 1 75.7952 66.194)" fill="#9FDFFF"/>
<rect width="2.19068" height="2.22602" transform="matrix(-1 0 0 1 88.2091 74.3561)" fill="#9FDFFF"/>
<rect width="2.19068" height="2.22602" transform="matrix(-1 0 0 1 86.0184 76.5822)" fill="#9FDFFF"/>
<rect width="2.19068" height="2.22602" transform="matrix(-1 0 0 1 83.8278 78.8081)" fill="#9FDFFF"/>
<rect width="2.19068" height="2.22602" transform="matrix(-1 0 0 1 81.6371 81.0342)" fill="#9FDFFF"/>
<rect width="2.19068" height="2.22602" transform="matrix(-1 0 0 1 79.4464 83.2601)" fill="#9FDFFF"/>
<rect width="2.92091" height="2.22602" transform="matrix(-1 0 0 1 77.2557 85.4862)" fill="#9FDFFF"/>
<rect width="2.19068" height="2.22602" transform="matrix(-1 0 0 1 75.7952 87.7123)" fill="#9FDFFF"/>
</svg>
