<svg width="150" height="150" viewBox="0 0 150 150" fill="none" xmlns="http://www.w3.org/2000/svg">
<rect x="7.14285" y="6.45166" width="135.714" height="137.097" fill="#FFF4CE"/>
<rect x="13.4921" width="123.016" height="6.45161" fill="#FFDE65"/>
<rect x="13.4921" y="143.548" width="123.016" height="6.45161" fill="#FFDE65"/>
<rect x="150" y="12.9032" width="125" height="7.14285" transform="rotate(90 150 12.9032)" fill="#FFDE65"/>
<rect x="136.508" y="6.45166" width="6.34921" height="6.45161" fill="#FFDE65"/>
<rect x="136.508" y="137.097" width="6.34921" height="6.45161" fill="#FFDE65"/>
<rect width="125" height="7.14285" transform="matrix(5.42021e-08 1 1 -3.52511e-08 0 12.9032)" fill="#FFDE65"/>
<rect width="6.34921" height="6.45161" transform="matrix(-1 0 0 1 13.4921 6.45166)" fill="#FFDE65"/>
<rect width="6.34921" height="6.45161" transform="matrix(-1 0 0 1 13.4921 137.097)" fill="#FFDE65"/>
<rect x="29.3813" y="28" width="8.0325" height="15.5821" fill="#FFDE65"/>
<rect x="54.2091" y="33.194" width="8.16206" height="29.2091" transform="rotate(90 54.2091 33.194)" fill="#FFDE65"/>
<rect x="27.1907" y="30.968" width="2.19068" height="2.22602" fill="#FFDE65"/>
<rect x="37.4138" y="30.968" width="2.19068" height="2.22602" fill="#FFDE65"/>
<rect x="39.6046" y="33.194" width="2.19068" height="2.22602" fill="#FFDE65"/>
<rect x="27.1907" y="41.3561" width="16.7952" height="2.22602" fill="#FFDE65"/>
<rect x="29.3813" y="43.5822" width="20.4464" height="2.22602" fill="#FFDE65"/>
<rect x="31.5721" y="45.8081" width="16.065" height="2.22602" fill="#FFDE65"/>
<rect x="33.7627" y="48.0342" width="11.6836" height="2.22602" fill="#FFDE65"/>
<rect x="35.9534" y="50.2601" width="7.30227" height="2.22602" fill="#FFDE65"/>
<rect x="38.1441" y="52.4862" width="2.19068" height="2.22602" fill="#FFDE65"/>
<rect width="8.0325" height="15.5821" transform="matrix(-1 0 0 1 52.0184 28)" fill="#FFDE65"/>
<rect width="8.16206" height="2.19068" transform="matrix(4.30176e-08 1 1 -4.44164e-08 54.2091 33.194)" fill="#FFDE65"/>
<rect width="2.19068" height="2.22602" transform="matrix(-1 0 0 1 54.2091 30.968)" fill="#FFDE65"/>
<rect width="2.19068" height="2.22602" transform="matrix(-1 0 0 1 43.9859 30.968)" fill="#FFDE65"/>
<rect width="2.19068" height="2.22602" transform="matrix(-1 0 0 1 41.7952 33.194)" fill="#FFDE65"/>
<rect width="2.19068" height="2.22602" transform="matrix(-1 0 0 1 54.2091 41.3561)" fill="#FFDE65"/>
<rect width="2.19068" height="2.22602" transform="matrix(-1 0 0 1 52.0184 43.5822)" fill="#FFDE65"/>
<rect width="2.19068" height="2.22602" transform="matrix(-1 0 0 1 49.8277 45.8081)" fill="#FFDE65"/>
<rect width="2.19068" height="2.22602" transform="matrix(-1 0 0 1 47.6371 48.0342)" fill="#FFDE65"/>
<rect width="2.19068" height="2.22602" transform="matrix(-1 0 0 1 45.4464 50.2601)" fill="#FFDE65"/>
<rect width="2.92091" height="2.22602" transform="matrix(-1 0 0 1 43.2557 52.4862)" fill="#FFDE65"/>
<rect width="2.19068" height="2.22602" transform="matrix(-1 0 0 1 41.7952 54.7123)" fill="#FFDE65"/>
<rect x="97.3814" y="99" width="8.0325" height="15.5821" fill="#FFDE65"/>
<rect x="122.209" y="104.194" width="8.16206" height="29.2091" transform="rotate(90 122.209 104.194)" fill="#FFDE65"/>
<rect x="95.1907" y="101.968" width="2.19068" height="2.22602" fill="#FFDE65"/>
<rect x="105.414" y="101.968" width="2.19068" height="2.22602" fill="#FFDE65"/>
<rect x="107.605" y="104.194" width="2.19068" height="2.22602" fill="#FFDE65"/>
<rect x="95.1907" y="112.356" width="16.7952" height="2.22602" fill="#FFDE65"/>
<rect x="97.3813" y="114.582" width="20.4464" height="2.22602" fill="#FFDE65"/>
<rect x="99.5721" y="116.808" width="16.065" height="2.22602" fill="#FFDE65"/>
<rect x="101.763" y="119.034" width="11.6836" height="2.22602" fill="#FFDE65"/>
<rect x="103.953" y="121.26" width="7.30227" height="2.22602" fill="#FFDE65"/>
<rect x="106.144" y="123.486" width="2.19068" height="2.22602" fill="#FFDE65"/>
<rect width="8.0325" height="15.5821" transform="matrix(-1 0 0 1 120.018 99)" fill="#FFDE65"/>
<rect width="8.16206" height="2.19068" transform="matrix(4.30176e-08 1 1 -4.44164e-08 122.209 104.194)" fill="#FFDE65"/>
<rect width="2.19068" height="2.22602" transform="matrix(-1 0 0 1 122.209 101.968)" fill="#FFDE65"/>
<rect width="2.19068" height="2.22602" transform="matrix(-1 0 0 1 111.986 101.968)" fill="#FFDE65"/>
<rect width="2.19068" height="2.22602" transform="matrix(-1 0 0 1 109.795 104.194)" fill="#FFDE65"/>
<rect width="2.19068" height="2.22602" transform="matrix(-1 0 0 1 122.209 112.356)" fill="#FFDE65"/>
<rect width="2.19068" height="2.22602" transform="matrix(-1 0 0 1 120.018 114.582)" fill="#FFDE65"/>
<rect width="2.19068" height="2.22602" transform="matrix(-1 0 0 1 117.828 116.808)" fill="#FFDE65"/>
<rect width="2.19068" height="2.22602" transform="matrix(-1 0 0 1 115.637 119.034)" fill="#FFDE65"/>
<rect width="2.19068" height="2.22602" transform="matrix(-1 0 0 1 113.446 121.26)" fill="#FFDE65"/>
<rect width="2.92091" height="2.22602" transform="matrix(-1 0 0 1 111.256 123.486)" fill="#FFDE65"/>
<rect width="2.19068" height="2.22602" transform="matrix(-1 0 0 1 109.795 125.712)" fill="#FFDE65"/>
<rect x="63.3814" y="62" width="8.0325" height="15.5821" fill="#FFDE65"/>
<rect x="88.2091" y="67.194" width="8.16206" height="29.2091" transform="rotate(90 88.2091 67.194)" fill="#FFDE65"/>
<rect x="61.1907" y="64.968" width="2.19068" height="2.22602" fill="#FFDE65"/>
<rect x="71.4138" y="64.968" width="2.19068" height="2.22602" fill="#FFDE65"/>
<rect x="73.6046" y="67.194" width="2.19068" height="2.22602" fill="#FFDE65"/>
<rect x="61.1907" y="75.3561" width="16.7952" height="2.22602" fill="#FFDE65"/>
<rect x="63.3813" y="77.5822" width="20.4464" height="2.22602" fill="#FFDE65"/>
<rect x="65.5721" y="79.8081" width="16.065" height="2.22602" fill="#FFDE65"/>
<rect x="67.7627" y="82.0342" width="11.6836" height="2.22602" fill="#FFDE65"/>
<rect x="69.9534" y="84.2601" width="7.30227" height="2.22602" fill="#FFDE65"/>
<rect x="72.1441" y="86.4862" width="2.19068" height="2.22602" fill="#FFDE65"/>
<rect width="8.0325" height="15.5821" transform="matrix(-1 0 0 1 86.0184 62)" fill="#FFDE65"/>
<rect width="8.16206" height="2.19068" transform="matrix(4.30176e-08 1 1 -4.44164e-08 88.2091 67.194)" fill="#FFDE65"/>
<rect width="2.19068" height="2.22602" transform="matrix(-1 0 0 1 88.2091 64.968)" fill="#FFDE65"/>
<rect width="2.19068" height="2.22602" transform="matrix(-1 0 0 1 77.9859 64.968)" fill="#FFDE65"/>
<rect width="2.19068" height="2.22602" transform="matrix(-1 0 0 1 75.7952 67.194)" fill="#FFDE65"/>
<rect width="2.19068" height="2.22602" transform="matrix(-1 0 0 1 88.2091 75.3561)" fill="#FFDE65"/>
<rect width="2.19068" height="2.22602" transform="matrix(-1 0 0 1 86.0184 77.5822)" fill="#FFDE65"/>
<rect width="2.19068" height="2.22602" transform="matrix(-1 0 0 1 83.8277 79.8081)" fill="#FFDE65"/>
<rect width="2.19068" height="2.22602" transform="matrix(-1 0 0 1 81.6371 82.0342)" fill="#FFDE65"/>
<rect width="2.19068" height="2.22602" transform="matrix(-1 0 0 1 79.4464 84.2601)" fill="#FFDE65"/>
<rect width="2.92091" height="2.22602" transform="matrix(-1 0 0 1 77.2557 86.4862)" fill="#FFDE65"/>
<rect width="2.19068" height="2.22602" transform="matrix(-1 0 0 1 75.7952 88.7123)" fill="#FFDE65"/>
</svg>
