<svg width="150" height="150" viewBox="0 0 150 150" fill="none" xmlns="http://www.w3.org/2000/svg">
<rect x="7.14285" y="6.45166" width="135.714" height="137.097" fill="#F5EFFF"/>
<rect x="13.4921" width="123.016" height="6.45161" fill="#E4C1F9"/>
<rect x="13.4921" y="143.548" width="123.016" height="6.45161" fill="#E4C1F9"/>
<rect x="150" y="12.9032" width="125" height="7.14285" transform="rotate(90 150 12.9032)" fill="#E4C1F9"/>
<rect x="136.508" y="6.45166" width="6.34921" height="6.45161" fill="#E4C1F9"/>
<rect x="136.508" y="137.097" width="6.34921" height="6.45161" fill="#E4C1F9"/>
<rect width="125" height="7.14285" transform="matrix(5.42021e-08 1 1 -3.52511e-08 0 12.9032)" fill="#E4C1F9"/>
<rect width="6.34921" height="6.45161" transform="matrix(-1 0 0 1 13.4921 6.45166)" fill="#E4C1F9"/>
<rect width="6.34921" height="6.45161" transform="matrix(-1 0 0 1 13.4921 137.097)" fill="#E4C1F9"/>
<rect x="29.7782" y="30.6451" width="8.0325" height="15.5821" fill="#E4C1F9"/>
<rect x="54.6059" y="35.8391" width="8.16206" height="29.2091" transform="rotate(90 54.6059 35.8391)" fill="#E4C1F9"/>
<rect x="27.5875" y="33.6132" width="2.19068" height="2.22602" fill="#E4C1F9"/>
<rect x="37.8107" y="33.6132" width="2.19068" height="2.22602" fill="#E4C1F9"/>
<rect x="40.0014" y="35.8391" width="2.19068" height="2.22602" fill="#E4C1F9"/>
<rect x="27.5875" y="44.0012" width="16.7952" height="2.22602" fill="#E4C1F9"/>
<rect x="29.7782" y="46.2273" width="20.4464" height="2.22602" fill="#E4C1F9"/>
<rect x="31.9689" y="48.4532" width="16.065" height="2.22602" fill="#E4C1F9"/>
<rect x="34.1595" y="50.6793" width="11.6836" height="2.22602" fill="#E4C1F9"/>
<rect x="36.3503" y="52.9053" width="7.30227" height="2.22602" fill="#E4C1F9"/>
<rect x="38.5409" y="55.1313" width="2.19068" height="2.22602" fill="#E4C1F9"/>
<rect width="8.0325" height="15.5821" transform="matrix(-1 0 0 1 52.4152 30.6451)" fill="#E4C1F9"/>
<rect width="8.16206" height="2.19068" transform="matrix(4.30176e-08 1 1 -4.44164e-08 54.6059 35.8391)" fill="#E4C1F9"/>
<rect width="2.19068" height="2.22602" transform="matrix(-1 0 0 1 54.6059 33.6132)" fill="#E4C1F9"/>
<rect width="2.19068" height="2.22602" transform="matrix(-1 0 0 1 44.3827 33.6132)" fill="#E4C1F9"/>
<rect width="2.19068" height="2.22602" transform="matrix(-1 0 0 1 42.192 35.8391)" fill="#E4C1F9"/>
<rect width="2.19068" height="2.22602" transform="matrix(-1 0 0 1 54.6059 44.0012)" fill="#E4C1F9"/>
<rect width="2.19068" height="2.22602" transform="matrix(-1 0 0 1 52.4152 46.2273)" fill="#E4C1F9"/>
<rect width="2.19068" height="2.22602" transform="matrix(-1 0 0 1 50.2245 48.4532)" fill="#E4C1F9"/>
<rect width="2.19068" height="2.22602" transform="matrix(-1 0 0 1 48.0339 50.6793)" fill="#E4C1F9"/>
<rect width="2.19068" height="2.22602" transform="matrix(-1 0 0 1 45.8432 52.9053)" fill="#E4C1F9"/>
<rect width="2.92091" height="2.22602" transform="matrix(-1 0 0 1 43.6525 55.1313)" fill="#E4C1F9"/>
<rect width="2.19068" height="2.22602" transform="matrix(-1 0 0 1 42.192 57.3574)" fill="#E4C1F9"/>
<rect x="63.3814" y="61" width="8.0325" height="15.5821" fill="#E4C1F9"/>
<rect x="88.2091" y="66.194" width="8.16206" height="29.2091" transform="rotate(90 88.2091 66.194)" fill="#E4C1F9"/>
<rect x="61.1907" y="63.968" width="2.19068" height="2.22602" fill="#E4C1F9"/>
<rect x="71.4138" y="63.968" width="2.19068" height="2.22602" fill="#E4C1F9"/>
<rect x="73.6046" y="66.194" width="2.19068" height="2.22602" fill="#E4C1F9"/>
<rect x="61.1907" y="74.3561" width="16.7952" height="2.22602" fill="#E4C1F9"/>
<rect x="63.3813" y="76.5822" width="20.4464" height="2.22602" fill="#E4C1F9"/>
<rect x="65.5721" y="78.8081" width="16.065" height="2.22602" fill="#E4C1F9"/>
<rect x="67.7627" y="81.0342" width="11.6836" height="2.22602" fill="#E4C1F9"/>
<rect x="69.9534" y="83.2601" width="7.30227" height="2.22602" fill="#E4C1F9"/>
<rect x="72.1441" y="85.4862" width="2.19068" height="2.22602" fill="#E4C1F9"/>
<rect width="8.0325" height="15.5821" transform="matrix(-1 0 0 1 86.0184 61)" fill="#E4C1F9"/>
<rect width="8.16206" height="2.19068" transform="matrix(4.30176e-08 1 1 -4.44164e-08 88.2091 66.194)" fill="#E4C1F9"/>
<rect width="2.19068" height="2.22602" transform="matrix(-1 0 0 1 88.2091 63.968)" fill="#E4C1F9"/>
<rect width="2.19068" height="2.22602" transform="matrix(-1 0 0 1 77.9859 63.968)" fill="#E4C1F9"/>
<rect width="2.19068" height="2.22602" transform="matrix(-1 0 0 1 75.7952 66.194)" fill="#E4C1F9"/>
<rect width="2.19068" height="2.22602" transform="matrix(-1 0 0 1 88.2091 74.3561)" fill="#E4C1F9"/>
<rect width="2.19068" height="2.22602" transform="matrix(-1 0 0 1 86.0184 76.5822)" fill="#E4C1F9"/>
<rect width="2.19068" height="2.22602" transform="matrix(-1 0 0 1 83.8277 78.8081)" fill="#E4C1F9"/>
<rect width="2.19068" height="2.22602" transform="matrix(-1 0 0 1 81.6371 81.0342)" fill="#E4C1F9"/>
<rect width="2.19068" height="2.22602" transform="matrix(-1 0 0 1 79.4464 83.2601)" fill="#E4C1F9"/>
<rect width="2.92091" height="2.22602" transform="matrix(-1 0 0 1 77.2557 85.4862)" fill="#E4C1F9"/>
<rect width="2.19068" height="2.22602" transform="matrix(-1 0 0 1 75.7952 87.7123)" fill="#E4C1F9"/>
<rect x="99.6194" y="30.6451" width="8.0325" height="15.5821" fill="#E4C1F9"/>
<rect x="124.447" y="35.8391" width="8.16206" height="29.2091" transform="rotate(90 124.447 35.8391)" fill="#E4C1F9"/>
<rect x="97.4288" y="33.6132" width="2.19068" height="2.22602" fill="#E4C1F9"/>
<rect x="107.652" y="33.6132" width="2.19068" height="2.22602" fill="#E4C1F9"/>
<rect x="109.843" y="35.8391" width="2.19068" height="2.22602" fill="#E4C1F9"/>
<rect x="97.4288" y="44.0012" width="16.7952" height="2.22602" fill="#E4C1F9"/>
<rect x="99.6194" y="46.2273" width="20.4464" height="2.22602" fill="#E4C1F9"/>
<rect x="101.81" y="48.4532" width="16.065" height="2.22602" fill="#E4C1F9"/>
<rect x="104.001" y="50.6793" width="11.6836" height="2.22602" fill="#E4C1F9"/>
<rect x="106.191" y="52.9053" width="7.30227" height="2.22602" fill="#E4C1F9"/>
<rect x="108.382" y="55.1313" width="2.19068" height="2.22602" fill="#E4C1F9"/>
<rect width="8.0325" height="15.5821" transform="matrix(-1 0 0 1 122.257 30.6451)" fill="#E4C1F9"/>
<rect width="8.16206" height="2.19068" transform="matrix(4.30176e-08 1 1 -4.44164e-08 124.447 35.8391)" fill="#E4C1F9"/>
<rect width="2.19068" height="2.22602" transform="matrix(-1 0 0 1 124.447 33.6132)" fill="#E4C1F9"/>
<rect width="2.19068" height="2.22602" transform="matrix(-1 0 0 1 114.224 33.6132)" fill="#E4C1F9"/>
<rect width="2.19068" height="2.22602" transform="matrix(-1 0 0 1 112.033 35.8391)" fill="#E4C1F9"/>
<rect width="2.19068" height="2.22602" transform="matrix(-1 0 0 1 124.447 44.0012)" fill="#E4C1F9"/>
<rect width="2.19068" height="2.22602" transform="matrix(-1 0 0 1 122.257 46.2273)" fill="#E4C1F9"/>
<rect width="2.19068" height="2.22602" transform="matrix(-1 0 0 1 120.066 48.4532)" fill="#E4C1F9"/>
<rect width="2.19068" height="2.22602" transform="matrix(-1 0 0 1 117.875 50.6793)" fill="#E4C1F9"/>
<rect width="2.19068" height="2.22602" transform="matrix(-1 0 0 1 115.684 52.9053)" fill="#E4C1F9"/>
<rect width="2.92091" height="2.22602" transform="matrix(-1 0 0 1 113.494 55.1313)" fill="#E4C1F9"/>
<rect width="2.19068" height="2.22602" transform="matrix(-1 0 0 1 112.033 57.3574)" fill="#E4C1F9"/>
<rect x="29.7782" y="95.1613" width="8.0325" height="15.5821" fill="#E4C1F9"/>
<rect x="54.6059" y="100.355" width="8.16206" height="29.2091" transform="rotate(90 54.6059 100.355)" fill="#E4C1F9"/>
<rect x="27.5875" y="98.1294" width="2.19068" height="2.22602" fill="#E4C1F9"/>
<rect x="37.8107" y="98.1294" width="2.19068" height="2.22602" fill="#E4C1F9"/>
<rect x="40.0014" y="100.355" width="2.19068" height="2.22602" fill="#E4C1F9"/>
<rect x="27.5875" y="108.517" width="16.7952" height="2.22602" fill="#E4C1F9"/>
<rect x="29.7782" y="110.743" width="20.4464" height="2.22602" fill="#E4C1F9"/>
<rect x="31.9689" y="112.969" width="16.065" height="2.22602" fill="#E4C1F9"/>
<rect x="34.1595" y="115.195" width="11.6836" height="2.22602" fill="#E4C1F9"/>
<rect x="36.3503" y="117.421" width="7.30227" height="2.22602" fill="#E4C1F9"/>
<rect x="38.5409" y="119.647" width="2.19068" height="2.22602" fill="#E4C1F9"/>
<rect width="8.0325" height="15.5821" transform="matrix(-1 0 0 1 52.4152 95.1613)" fill="#E4C1F9"/>
<rect width="8.16206" height="2.19068" transform="matrix(4.30176e-08 1 1 -4.44164e-08 54.6059 100.355)" fill="#E4C1F9"/>
<rect width="2.19068" height="2.22602" transform="matrix(-1 0 0 1 54.6059 98.1294)" fill="#E4C1F9"/>
<rect width="2.19068" height="2.22602" transform="matrix(-1 0 0 1 44.3827 98.1294)" fill="#E4C1F9"/>
<rect width="2.19068" height="2.22602" transform="matrix(-1 0 0 1 42.192 100.355)" fill="#E4C1F9"/>
<rect width="2.19068" height="2.22602" transform="matrix(-1 0 0 1 54.6059 108.517)" fill="#E4C1F9"/>
<rect width="2.19068" height="2.22602" transform="matrix(-1 0 0 1 52.4152 110.743)" fill="#E4C1F9"/>
<rect width="2.19068" height="2.22602" transform="matrix(-1 0 0 1 50.2245 112.969)" fill="#E4C1F9"/>
<rect width="2.19068" height="2.22602" transform="matrix(-1 0 0 1 48.0339 115.195)" fill="#E4C1F9"/>
<rect width="2.19068" height="2.22602" transform="matrix(-1 0 0 1 45.8432 117.421)" fill="#E4C1F9"/>
<rect width="2.92091" height="2.22602" transform="matrix(-1 0 0 1 43.6525 119.647)" fill="#E4C1F9"/>
<rect width="2.19068" height="2.22602" transform="matrix(-1 0 0 1 42.192 121.873)" fill="#E4C1F9"/>
<rect x="99.6194" y="95.1613" width="8.0325" height="15.5821" fill="#E4C1F9"/>
<rect x="124.447" y="100.355" width="8.16206" height="29.2091" transform="rotate(90 124.447 100.355)" fill="#E4C1F9"/>
<rect x="97.4288" y="98.1294" width="2.19068" height="2.22602" fill="#E4C1F9"/>
<rect x="107.652" y="98.1294" width="2.19068" height="2.22602" fill="#E4C1F9"/>
<rect x="109.843" y="100.355" width="2.19068" height="2.22602" fill="#E4C1F9"/>
<rect x="97.4288" y="108.517" width="16.7952" height="2.22602" fill="#E4C1F9"/>
<rect x="99.6194" y="110.743" width="20.4464" height="2.22602" fill="#E4C1F9"/>
<rect x="101.81" y="112.969" width="16.065" height="2.22602" fill="#E4C1F9"/>
<rect x="104.001" y="115.195" width="11.6836" height="2.22602" fill="#E4C1F9"/>
<rect x="106.191" y="117.421" width="7.30227" height="2.22602" fill="#E4C1F9"/>
<rect x="108.382" y="119.647" width="2.19068" height="2.22602" fill="#E4C1F9"/>
<rect width="8.0325" height="15.5821" transform="matrix(-1 0 0 1 122.257 95.1613)" fill="#E4C1F9"/>
<rect width="8.16206" height="2.19068" transform="matrix(4.30176e-08 1 1 -4.44164e-08 124.447 100.355)" fill="#E4C1F9"/>
<rect width="2.19068" height="2.22602" transform="matrix(-1 0 0 1 124.447 98.1294)" fill="#E4C1F9"/>
<rect width="2.19068" height="2.22602" transform="matrix(-1 0 0 1 114.224 98.1294)" fill="#E4C1F9"/>
<rect width="2.19068" height="2.22602" transform="matrix(-1 0 0 1 112.033 100.355)" fill="#E4C1F9"/>
<rect width="2.19068" height="2.22602" transform="matrix(-1 0 0 1 124.447 108.517)" fill="#E4C1F9"/>
<rect width="2.19068" height="2.22602" transform="matrix(-1 0 0 1 122.257 110.743)" fill="#E4C1F9"/>
<rect width="2.19068" height="2.22602" transform="matrix(-1 0 0 1 120.066 112.969)" fill="#E4C1F9"/>
<rect width="2.19068" height="2.22602" transform="matrix(-1 0 0 1 117.875 115.195)" fill="#E4C1F9"/>
<rect width="2.19068" height="2.22602" transform="matrix(-1 0 0 1 115.684 117.421)" fill="#E4C1F9"/>
<rect width="2.92091" height="2.22602" transform="matrix(-1 0 0 1 113.494 119.647)" fill="#E4C1F9"/>
<rect width="2.19068" height="2.22602" transform="matrix(-1 0 0 1 112.033 121.873)" fill="#E4C1F9"/>
</svg>
