<svg width="150" height="150" viewBox="0 0 150 150" fill="none" xmlns="http://www.w3.org/2000/svg">
<rect x="7.14285" y="6.45166" width="135.714" height="137.097" fill="#FFE3E3"/>
<rect x="13.4921" width="123.016" height="6.45161" fill="#FF8080"/>
<rect x="13.4921" y="143.548" width="123.016" height="6.45161" fill="#FF8080"/>
<rect x="150" y="12.9032" width="125" height="7.14285" transform="rotate(90 150 12.9032)" fill="#FF8080"/>
<rect x="136.508" y="6.45166" width="6.34921" height="6.45161" fill="#FF8080"/>
<rect x="136.508" y="137.097" width="6.34921" height="6.45161" fill="#FF8080"/>
<rect width="125" height="7.14285" transform="matrix(5.42021e-08 1 1 -3.52511e-08 0 12.9032)" fill="#FF8080"/>
<rect width="6.34921" height="6.45161" transform="matrix(-1 0 0 1 13.4921 6.45166)" fill="#FF8080"/>
<rect width="6.34921" height="6.45161" transform="matrix(-1 0 0 1 13.4921 137.097)" fill="#FF8080"/>
<rect x="34.3814" y="22" width="8.0325" height="15.5821" fill="#FF8080"/>
<rect x="59.2091" y="27.1941" width="8.16206" height="29.2091" transform="rotate(90 59.2091 27.1941)" fill="#FF8080"/>
<rect x="32.1907" y="24.968" width="2.19068" height="2.22602" fill="#FF8080"/>
<rect x="42.4138" y="24.968" width="2.19068" height="2.22602" fill="#FF8080"/>
<rect x="44.6046" y="27.1941" width="2.19068" height="2.22602" fill="#FF8080"/>
<rect x="32.1907" y="35.3562" width="16.7952" height="2.22602" fill="#FF8080"/>
<rect x="34.3813" y="37.582" width="20.4464" height="2.22602" fill="#FF8080"/>
<rect x="36.5721" y="39.8081" width="16.065" height="2.22602" fill="#FF8080"/>
<rect x="38.7627" y="42.0342" width="11.6836" height="2.22602" fill="#FF8080"/>
<rect x="40.9534" y="44.2603" width="7.30227" height="2.22602" fill="#FF8080"/>
<rect x="43.1441" y="46.4863" width="2.19068" height="2.22602" fill="#FF8080"/>
<rect width="8.0325" height="15.5821" transform="matrix(-1 0 0 1 57.0184 22)" fill="#FF8080"/>
<rect width="8.16206" height="2.19068" transform="matrix(4.30176e-08 1 1 -4.44164e-08 59.2091 27.1941)" fill="#FF8080"/>
<rect width="2.19068" height="2.22602" transform="matrix(-1 0 0 1 59.2091 24.968)" fill="#FF8080"/>
<rect width="2.19068" height="2.22602" transform="matrix(-1 0 0 1 48.9859 24.968)" fill="#FF8080"/>
<rect width="2.19068" height="2.22602" transform="matrix(-1 0 0 1 46.7952 27.1941)" fill="#FF8080"/>
<rect width="2.19068" height="2.22602" transform="matrix(-1 0 0 1 59.2091 35.3562)" fill="#FF8080"/>
<rect width="2.19068" height="2.22602" transform="matrix(-1 0 0 1 57.0184 37.582)" fill="#FF8080"/>
<rect width="2.19068" height="2.22602" transform="matrix(-1 0 0 1 54.8277 39.8081)" fill="#FF8080"/>
<rect width="2.19068" height="2.22602" transform="matrix(-1 0 0 1 52.6371 42.0342)" fill="#FF8080"/>
<rect width="2.19068" height="2.22602" transform="matrix(-1 0 0 1 50.4464 44.2603)" fill="#FF8080"/>
<rect width="2.92091" height="2.22602" transform="matrix(-1 0 0 1 48.2557 46.4863)" fill="#FF8080"/>
<rect width="2.19068" height="2.22602" transform="matrix(-1 0 0 1 46.7952 48.7122)" fill="#FF8080"/>
<rect x="33.3814" y="62" width="8.0325" height="15.5821" fill="#FF8080"/>
<rect x="58.2091" y="67.1941" width="8.16206" height="29.2091" transform="rotate(90 58.2091 67.1941)" fill="#FF8080"/>
<rect x="31.1907" y="64.968" width="2.19068" height="2.22602" fill="#FF8080"/>
<rect x="41.4138" y="64.968" width="2.19068" height="2.22602" fill="#FF8080"/>
<rect x="43.6046" y="67.1941" width="2.19068" height="2.22602" fill="#FF8080"/>
<rect x="31.1907" y="75.3562" width="16.7952" height="2.22602" fill="#FF8080"/>
<rect x="33.3813" y="77.582" width="20.4464" height="2.22602" fill="#FF8080"/>
<rect x="35.5721" y="79.8081" width="16.065" height="2.22602" fill="#FF8080"/>
<rect x="37.7627" y="82.0342" width="11.6836" height="2.22602" fill="#FF8080"/>
<rect x="39.9534" y="84.2603" width="7.30227" height="2.22602" fill="#FF8080"/>
<rect x="42.1441" y="86.4863" width="2.19068" height="2.22602" fill="#FF8080"/>
<rect width="8.0325" height="15.5821" transform="matrix(-1 0 0 1 56.0184 62)" fill="#FF8080"/>
<rect width="8.16206" height="2.19068" transform="matrix(4.30176e-08 1 1 -4.44164e-08 58.2091 67.1941)" fill="#FF8080"/>
<rect width="2.19068" height="2.22602" transform="matrix(-1 0 0 1 58.2091 64.968)" fill="#FF8080"/>
<rect width="2.19068" height="2.22602" transform="matrix(-1 0 0 1 47.9859 64.968)" fill="#FF8080"/>
<rect width="2.19068" height="2.22602" transform="matrix(-1 0 0 1 45.7952 67.1941)" fill="#FF8080"/>
<rect width="2.19068" height="2.22602" transform="matrix(-1 0 0 1 58.2091 75.3562)" fill="#FF8080"/>
<rect width="2.19068" height="2.22602" transform="matrix(-1 0 0 1 56.0184 77.582)" fill="#FF8080"/>
<rect width="2.19068" height="2.22602" transform="matrix(-1 0 0 1 53.8277 79.8081)" fill="#FF8080"/>
<rect width="2.19068" height="2.22602" transform="matrix(-1 0 0 1 51.6371 82.0342)" fill="#FF8080"/>
<rect width="2.19068" height="2.22602" transform="matrix(-1 0 0 1 49.4464 84.2603)" fill="#FF8080"/>
<rect width="2.92091" height="2.22602" transform="matrix(-1 0 0 1 47.2557 86.4863)" fill="#FF8080"/>
<rect width="2.19068" height="2.22602" transform="matrix(-1 0 0 1 45.7952 88.7122)" fill="#FF8080"/>
<rect x="34.3814" y="103" width="8.0325" height="15.5821" fill="#FF8080"/>
<rect x="59.2091" y="108.194" width="8.16206" height="29.2091" transform="rotate(90 59.2091 108.194)" fill="#FF8080"/>
<rect x="32.1907" y="105.968" width="2.19068" height="2.22602" fill="#FF8080"/>
<rect x="42.4138" y="105.968" width="2.19068" height="2.22602" fill="#FF8080"/>
<rect x="44.6046" y="108.194" width="2.19068" height="2.22602" fill="#FF8080"/>
<rect x="32.1907" y="116.356" width="16.7952" height="2.22602" fill="#FF8080"/>
<rect x="34.3813" y="118.582" width="20.4464" height="2.22602" fill="#FF8080"/>
<rect x="36.5721" y="120.808" width="16.065" height="2.22602" fill="#FF8080"/>
<rect x="38.7627" y="123.034" width="11.6836" height="2.22602" fill="#FF8080"/>
<rect x="40.9534" y="125.26" width="7.30227" height="2.22602" fill="#FF8080"/>
<rect x="43.1441" y="127.486" width="2.19068" height="2.22602" fill="#FF8080"/>
<rect width="8.0325" height="15.5821" transform="matrix(-1 0 0 1 57.0184 103)" fill="#FF8080"/>
<rect width="8.16206" height="2.19068" transform="matrix(4.30176e-08 1 1 -4.44164e-08 59.2091 108.194)" fill="#FF8080"/>
<rect width="2.19068" height="2.22602" transform="matrix(-1 0 0 1 59.2091 105.968)" fill="#FF8080"/>
<rect width="2.19068" height="2.22602" transform="matrix(-1 0 0 1 48.9859 105.968)" fill="#FF8080"/>
<rect width="2.19068" height="2.22602" transform="matrix(-1 0 0 1 46.7952 108.194)" fill="#FF8080"/>
<rect width="2.19068" height="2.22602" transform="matrix(-1 0 0 1 59.2091 116.356)" fill="#FF8080"/>
<rect width="2.19068" height="2.22602" transform="matrix(-1 0 0 1 57.0184 118.582)" fill="#FF8080"/>
<rect width="2.19068" height="2.22602" transform="matrix(-1 0 0 1 54.8277 120.808)" fill="#FF8080"/>
<rect width="2.19068" height="2.22602" transform="matrix(-1 0 0 1 52.6371 123.034)" fill="#FF8080"/>
<rect width="2.19068" height="2.22602" transform="matrix(-1 0 0 1 50.4464 125.26)" fill="#FF8080"/>
<rect width="2.92091" height="2.22602" transform="matrix(-1 0 0 1 48.2557 127.486)" fill="#FF8080"/>
<rect width="2.19068" height="2.22602" transform="matrix(-1 0 0 1 46.7952 129.712)" fill="#FF8080"/>
<rect x="93.3813" y="21" width="8.0325" height="15.5821" fill="#FF8080"/>
<rect x="118.209" y="26.1941" width="8.16206" height="29.2091" transform="rotate(90 118.209 26.1941)" fill="#FF8080"/>
<rect x="91.1907" y="23.968" width="2.19068" height="2.22602" fill="#FF8080"/>
<rect x="101.414" y="23.968" width="2.19068" height="2.22602" fill="#FF8080"/>
<rect x="103.605" y="26.1941" width="2.19068" height="2.22602" fill="#FF8080"/>
<rect x="91.1907" y="34.3562" width="16.7952" height="2.22602" fill="#FF8080"/>
<rect x="93.3813" y="36.582" width="20.4464" height="2.22602" fill="#FF8080"/>
<rect x="95.5721" y="38.8081" width="16.065" height="2.22602" fill="#FF8080"/>
<rect x="97.7627" y="41.0342" width="11.6836" height="2.22602" fill="#FF8080"/>
<rect x="99.9534" y="43.2603" width="7.30227" height="2.22602" fill="#FF8080"/>
<rect x="102.144" y="45.4863" width="2.19068" height="2.22602" fill="#FF8080"/>
<rect width="8.0325" height="15.5821" transform="matrix(-1 0 0 1 116.018 21)" fill="#FF8080"/>
<rect width="8.16206" height="2.19068" transform="matrix(4.30176e-08 1 1 -4.44164e-08 118.209 26.1941)" fill="#FF8080"/>
<rect width="2.19068" height="2.22602" transform="matrix(-1 0 0 1 118.209 23.968)" fill="#FF8080"/>
<rect width="2.19068" height="2.22602" transform="matrix(-1 0 0 1 107.986 23.968)" fill="#FF8080"/>
<rect width="2.19068" height="2.22602" transform="matrix(-1 0 0 1 105.795 26.1941)" fill="#FF8080"/>
<rect width="2.19068" height="2.22602" transform="matrix(-1 0 0 1 118.209 34.3562)" fill="#FF8080"/>
<rect width="2.19068" height="2.22602" transform="matrix(-1 0 0 1 116.018 36.582)" fill="#FF8080"/>
<rect width="2.19068" height="2.22602" transform="matrix(-1 0 0 1 113.828 38.8081)" fill="#FF8080"/>
<rect width="2.19068" height="2.22602" transform="matrix(-1 0 0 1 111.637 41.0342)" fill="#FF8080"/>
<rect width="2.19068" height="2.22602" transform="matrix(-1 0 0 1 109.446 43.2603)" fill="#FF8080"/>
<rect width="2.92091" height="2.22602" transform="matrix(-1 0 0 1 107.256 45.4863)" fill="#FF8080"/>
<rect width="2.19068" height="2.22602" transform="matrix(-1 0 0 1 105.795 47.7122)" fill="#FF8080"/>
<rect x="92.3813" y="61" width="8.0325" height="15.5821" fill="#FF8080"/>
<rect x="117.209" y="66.1941" width="8.16206" height="29.2091" transform="rotate(90 117.209 66.1941)" fill="#FF8080"/>
<rect x="90.1907" y="63.968" width="2.19068" height="2.22602" fill="#FF8080"/>
<rect x="100.414" y="63.968" width="2.19068" height="2.22602" fill="#FF8080"/>
<rect x="102.605" y="66.1941" width="2.19068" height="2.22602" fill="#FF8080"/>
<rect x="90.1907" y="74.3562" width="16.7952" height="2.22602" fill="#FF8080"/>
<rect x="92.3813" y="76.582" width="20.4464" height="2.22602" fill="#FF8080"/>
<rect x="94.5721" y="78.8081" width="16.065" height="2.22602" fill="#FF8080"/>
<rect x="96.7627" y="81.0342" width="11.6836" height="2.22602" fill="#FF8080"/>
<rect x="98.9534" y="83.2603" width="7.30227" height="2.22602" fill="#FF8080"/>
<rect x="101.144" y="85.4863" width="2.19068" height="2.22602" fill="#FF8080"/>
<rect width="8.0325" height="15.5821" transform="matrix(-1 0 0 1 115.018 61)" fill="#FF8080"/>
<rect width="8.16206" height="2.19068" transform="matrix(4.30176e-08 1 1 -4.44164e-08 117.209 66.1941)" fill="#FF8080"/>
<rect width="2.19068" height="2.22602" transform="matrix(-1 0 0 1 117.209 63.968)" fill="#FF8080"/>
<rect width="2.19068" height="2.22602" transform="matrix(-1 0 0 1 106.986 63.968)" fill="#FF8080"/>
<rect width="2.19068" height="2.22602" transform="matrix(-1 0 0 1 104.795 66.1941)" fill="#FF8080"/>
<rect width="2.19068" height="2.22602" transform="matrix(-1 0 0 1 117.209 74.3562)" fill="#FF8080"/>
<rect width="2.19068" height="2.22602" transform="matrix(-1 0 0 1 115.018 76.582)" fill="#FF8080"/>
<rect width="2.19068" height="2.22602" transform="matrix(-1 0 0 1 112.828 78.8081)" fill="#FF8080"/>
<rect width="2.19068" height="2.22602" transform="matrix(-1 0 0 1 110.637 81.0342)" fill="#FF8080"/>
<rect width="2.19068" height="2.22602" transform="matrix(-1 0 0 1 108.446 83.2603)" fill="#FF8080"/>
<rect width="2.92091" height="2.22602" transform="matrix(-1 0 0 1 106.256 85.4863)" fill="#FF8080"/>
<rect width="2.19068" height="2.22602" transform="matrix(-1 0 0 1 104.795 87.7122)" fill="#FF8080"/>
<rect x="93.3813" y="102" width="8.0325" height="15.5821" fill="#FF8080"/>
<rect x="118.209" y="107.194" width="8.16206" height="29.2091" transform="rotate(90 118.209 107.194)" fill="#FF8080"/>
<rect x="91.1907" y="104.968" width="2.19068" height="2.22602" fill="#FF8080"/>
<rect x="101.414" y="104.968" width="2.19068" height="2.22602" fill="#FF8080"/>
<rect x="103.605" y="107.194" width="2.19068" height="2.22602" fill="#FF8080"/>
<rect x="91.1907" y="115.356" width="16.7952" height="2.22602" fill="#FF8080"/>
<rect x="93.3813" y="117.582" width="20.4464" height="2.22602" fill="#FF8080"/>
<rect x="95.5721" y="119.808" width="16.065" height="2.22602" fill="#FF8080"/>
<rect x="97.7627" y="122.034" width="11.6836" height="2.22602" fill="#FF8080"/>
<rect x="99.9534" y="124.26" width="7.30227" height="2.22602" fill="#FF8080"/>
<rect x="102.144" y="126.486" width="2.19068" height="2.22602" fill="#FF8080"/>
<rect width="8.0325" height="15.5821" transform="matrix(-1 0 0 1 116.018 102)" fill="#FF8080"/>
<rect width="8.16206" height="2.19068" transform="matrix(4.30176e-08 1 1 -4.44164e-08 118.209 107.194)" fill="#FF8080"/>
<rect width="2.19068" height="2.22602" transform="matrix(-1 0 0 1 118.209 104.968)" fill="#FF8080"/>
<rect width="2.19068" height="2.22602" transform="matrix(-1 0 0 1 107.986 104.968)" fill="#FF8080"/>
<rect width="2.19068" height="2.22602" transform="matrix(-1 0 0 1 105.795 107.194)" fill="#FF8080"/>
<rect width="2.19068" height="2.22602" transform="matrix(-1 0 0 1 118.209 115.356)" fill="#FF8080"/>
<rect width="2.19068" height="2.22602" transform="matrix(-1 0 0 1 116.018 117.582)" fill="#FF8080"/>
<rect width="2.19068" height="2.22602" transform="matrix(-1 0 0 1 113.828 119.808)" fill="#FF8080"/>
<rect width="2.19068" height="2.22602" transform="matrix(-1 0 0 1 111.637 122.034)" fill="#FF8080"/>
<rect width="2.19068" height="2.22602" transform="matrix(-1 0 0 1 109.446 124.26)" fill="#FF8080"/>
<rect width="2.92091" height="2.22602" transform="matrix(-1 0 0 1 107.256 126.486)" fill="#FF8080"/>
<rect width="2.19068" height="2.22602" transform="matrix(-1 0 0 1 105.795 128.712)" fill="#FF8080"/>
</svg>
