<svg width="71" height="56" viewBox="0 0 71 56" fill="none" xmlns="http://www.w3.org/2000/svg">
<rect x="16.605" y="4.3252" width="4.35163" height="4.3252" fill="#F5B0B0"/>
<rect x="4.35156" y="4.3252" width="12.2532" height="42.7967" fill="#FFDFDF"/>
<rect x="54.395" y="4.3252" width="12.2532" height="42.7967" fill="#FFDFDF"/>
<rect x="12.7114" y="8.65042" width="49.8145" height="43.5935" fill="#FFDFDF"/>
<rect y="4.3252" width="4.35161" height="8.53659" fill="#F5B0B0"/>
<rect x="4.35156" width="12.2532" height="4.3252" fill="#F5B0B0"/>
<rect x="20.9565" y="8.30893" width="29.0871" height="3.30081" fill="#F5B0B0"/>
<rect y="21.2845" width="4.35161" height="20.7154" fill="#F5B0B0"/>
<rect x="4.35156" y="42" width="4.35161" height="5.12195" fill="#F5B0B0"/>
<path d="M13.0547 52.2439H58.5176V56H13.0547V52.2439Z" fill="#F5B0B0"/>
<rect x="8.70312" y="47.1219" width="4.35161" height="5.12196" fill="#F5B0B0"/>
<rect width="4.35161" height="5.12195" transform="matrix(-1 0 0 1 67.2212 42)" fill="#F5B0B0"/>
<rect width="4.35161" height="5.12196" transform="matrix(-1 0 0 1 62.8691 47.1219)" fill="#F5B0B0"/>
<rect x="4.35156" y="12.8618" width="4.35161" height="8.42276" fill="#F5B0B0"/>
<rect width="4.35161" height="4.3252" transform="matrix(-1 0 0 1 54.395 4.3252)" fill="#F5B0B0"/>
<rect width="4.35162" height="20.7154" transform="matrix(-1 0 0 1 71 21.2845)" fill="#F5B0B0"/>
<rect width="4.35162" height="8.53659" transform="matrix(-1 0 0 1 71 4.3252)" fill="#F5B0B0"/>
<rect width="4.35162" height="8.42276" transform="matrix(-1 0 0 1 66.6484 12.8618)" fill="#F5B0B0"/>
<rect width="12.2532" height="4.3252" transform="matrix(-1 0 0 1 66.6484 0)" fill="#F5B0B0"/>
<rect x="19.7715" y="19.1219" width="6.37223" height="0.473305" fill="black"/>
<rect x="19.7715" y="26.9576" width="6.37223" height="0.473305" fill="black"/>
<rect x="26.6626" y="26.4449" width="6.33688" height="0.476183" transform="rotate(-90 26.6626 26.4449)" fill="black"/>
<rect x="26.145" y="19.5978" width="0.514938" height="0.511814" fill="black"/>
<rect x="26.145" y="26.4432" width="0.514938" height="0.511795" fill="black"/>
<rect width="6.33358" height="0.476181" transform="matrix(4.39779e-08 -1 -1 -4.34464e-08 19.2568 26.4416)" fill="black"/>
<rect width="0.514942" height="0.511814" transform="matrix(-1 0 0 1 19.7725 19.5978)" fill="black"/>
<rect width="0.514942" height="0.511795" transform="matrix(-1 0 0 1 19.7725 26.4432)" fill="black"/>
<rect x="19.2388" y="19.5772" width="7.44355" height="7.39837" fill="black"/>
<rect x="46.9116" y="19.1219" width="6.37223" height="0.473305" fill="black"/>
<rect x="46.9116" y="26.9576" width="6.37223" height="0.473305" fill="black"/>
<rect x="53.8027" y="26.4449" width="6.33688" height="0.476185" transform="rotate(-90 53.8027 26.4449)" fill="black"/>
<rect x="53.2852" y="19.5978" width="0.514931" height="0.511814" fill="black"/>
<rect x="53.2852" y="26.4432" width="0.514931" height="0.511795" fill="black"/>
<rect width="6.33358" height="0.476253" transform="matrix(4.39846e-08 -1 -1 -4.34398e-08 46.397 26.4416)" fill="black"/>
<rect width="0.514946" height="0.511814" transform="matrix(-1 0 0 1 46.9126 19.5978)" fill="black"/>
<rect width="0.514946" height="0.511795" transform="matrix(-1 0 0 1 46.9126 26.4432)" fill="black"/>
<rect x="46.3789" y="19.5772" width="7.44352" height="7.39837" fill="black"/>
<rect x="26.1099" y="27.4309" width="21.071" height="3.07317" fill="#F5B0B0"/>
<rect x="26.1099" y="30.5041" width="11.8374" height="3.09194" transform="rotate(90 26.1099 30.5041)" fill="#F5B0B0"/>
<rect x="50.2725" y="30.5041" width="11.8374" height="3.09193" transform="rotate(90 50.2725 30.5041)" fill="#F5B0B0"/>
<rect x="26.1099" y="42.3415" width="21.071" height="3.07317" fill="#F5B0B0"/>
<rect x="30.3467" y="34.2602" width="4.35161" height="4.3252" fill="#F5B0B0"/>
<rect x="38.5918" y="34.2602" width="4.35161" height="4.3252" fill="#F5B0B0"/>
</svg>
