<svg width="329" height="308" viewBox="0 0 329 308" fill="none" xmlns="http://www.w3.org/2000/svg">
<path d="M45.5092 204.78C44.1049 204.115 43.1983 202.92 42.7897 201.194C42.381 199.468 42.6501 197.851 43.597 196.341C44.5215 194.818 45.9646 193.824 47.9263 193.359C49.9244 192.886 51.7396 193.099 53.372 193.997C54.9819 194.882 55.9934 196.197 56.4063 197.94C56.8322 199.739 56.4733 201.301 55.3294 202.627L56.7125 202.27C57.0031 202.201 57.185 202.321 57.2581 202.63L57.7923 205.007C57.8568 205.28 57.7892 205.44 57.5894 205.487L57.5076 205.506C57.3805 205.536 57.142 205.42 56.7921 205.158C56.4379 204.877 56.0791 204.78 55.7158 204.866L40.4579 208.48C40.131 208.557 39.8891 208.71 39.7323 208.939C39.5755 209.168 39.4641 209.386 39.3982 209.594C39.314 209.806 39.2084 209.926 39.0813 209.957L38.9995 209.976C38.836 210.015 38.6542 209.895 38.4539 209.616L36.9087 207.709C36.7214 207.485 36.6468 207.291 36.685 207.129C36.719 206.948 36.854 206.83 37.0901 206.774L45.5092 204.78ZM55.6184 198.501C55.3172 197.23 54.588 196.338 53.4308 195.825C52.2511 195.299 50.8257 195.234 49.1546 195.629C47.2655 196.077 45.8295 196.858 44.8468 197.973C43.8415 199.075 43.4959 200.288 43.81 201.614C44.0251 202.522 44.5573 203.231 45.4067 203.739C46.238 204.252 47.1168 204.399 48.0432 204.18L51.9121 203.263L52.3 203.2L52.2936 203.173C53.3834 202.915 54.267 202.312 54.9444 201.365C55.6174 200.4 55.8421 199.446 55.6184 198.501Z" fill="black"/>
<path d="M49.2717 169.261C49.0668 169.13 48.9926 168.953 49.0492 168.729C49.0871 168.505 49.2367 168.412 49.498 168.45C50.4867 168.658 51.3997 169.258 52.237 170.25C53.0743 171.241 53.4908 172.54 53.4864 174.145C53.4813 175.993 52.8237 177.54 51.5136 178.788C50.2036 180.016 48.4846 180.627 46.3566 180.621C44.3966 180.616 42.765 179.977 41.4618 178.704C40.14 177.431 39.4816 175.861 39.4867 173.995C39.4911 172.408 39.9238 171.149 40.7851 170.218C41.6277 169.268 42.581 168.795 43.645 168.798C44.4476 168.8 44.9971 169.24 45.2934 170.118L47.8201 177.881C49.0343 177.567 49.9878 177.01 50.6807 176.209C51.3549 175.39 51.6936 174.411 51.6967 173.272C51.702 171.349 50.8937 170.012 49.2717 169.261ZM40.3816 174.417C40.3785 175.537 40.8613 176.444 41.8301 177.137C42.7989 177.83 44.0113 178.179 45.4672 178.183C46.0272 178.185 46.5033 178.148 46.8956 178.075L44.6727 171.825C44.4872 171.376 44.1612 171.151 43.6945 171.15C42.9852 171.148 42.2563 171.473 41.5078 172.124C40.7594 172.757 40.384 173.521 40.3816 174.417Z" fill="black"/>
<path d="M54.644 145.958C55.034 146.012 55.3574 145.983 55.614 145.871C55.8525 145.754 56.0205 145.612 56.1179 145.443C56.1972 145.27 56.2903 145.12 56.3974 144.991C56.5044 144.863 56.6306 144.816 56.7759 144.851C57.1574 144.941 57.2107 145.567 56.9358 146.73C56.7812 147.384 56.5493 147.837 56.2402 148.09C55.9128 148.339 55.3885 148.407 54.6671 148.294C55.7755 149.285 56.1021 150.743 55.6469 152.669C55.2861 154.195 54.6329 155.335 53.6872 156.09C52.7416 156.844 51.6239 157.069 50.3341 156.764C49.0582 156.482 48.1755 155.794 47.6861 154.7C47.2009 153.587 47.1323 152.296 47.4802 150.824C47.8237 149.371 48.4512 148.34 49.3625 147.73L48.6139 147.611C46.904 147.379 45.5801 147.421 44.6424 147.736C43.7047 148.052 43.1113 148.736 42.8622 149.79C42.7119 150.426 42.7508 150.991 42.9791 151.486C43.2073 151.982 43.4928 152.356 43.8356 152.61C44.1827 152.845 44.494 153.111 44.7695 153.406C45.0449 153.701 45.1483 153.994 45.0796 154.285C45.0023 154.612 44.8492 154.854 44.6203 155.011C44.3957 155.149 44.1289 155.182 43.8201 155.109C43.0572 154.929 42.4812 154.323 42.0921 153.291C41.6892 152.236 41.6553 151.001 41.9902 149.584C42.3811 147.931 43.2011 146.734 44.4503 145.994C45.6856 145.231 47.2331 144.973 49.0926 145.221L54.644 145.958ZM54.9166 151.863C55.1271 150.973 55.0173 150.18 54.5873 149.483C54.1391 148.783 53.4838 148.35 52.6215 148.184L51.3695 148.003C50.6812 147.994 50.0728 148.215 49.5443 148.665C49.0201 149.098 48.6656 149.704 48.481 150.485C48.2619 151.412 48.3471 152.228 48.7365 152.934C49.1259 153.64 49.7384 154.091 50.574 154.289C51.5913 154.529 52.5159 154.432 53.348 153.995C54.1661 153.537 54.689 152.826 54.9166 151.863Z" fill="black"/>
<path d="M64.2589 122.162C64.6742 122.374 65.0282 122.461 65.3208 122.422C65.6133 122.383 65.8188 122.289 65.9371 122.14C66.0388 121.983 66.1612 121.846 66.3042 121.731C66.4473 121.615 66.5936 121.596 66.7431 121.672C67.092 121.851 67.0027 122.455 66.4751 123.485C65.8284 124.748 64.9031 125.04 63.6991 124.36L63.5241 124.333C64.5282 125.812 64.5708 127.449 63.6518 129.244C62.9371 130.639 61.8726 131.51 60.4583 131.855C59.036 132.175 57.4194 131.871 55.6084 130.944L51.1973 128.685C50.8318 128.497 50.4436 128.498 50.0327 128.686C49.6303 128.857 49.3793 128.917 49.2796 128.866L49.2048 128.828C49.0054 128.726 48.9447 128.538 49.0225 128.263L49.7208 125.978C49.8675 125.487 50.082 125.314 50.3645 125.458L56.9061 128.84C58.3515 129.58 59.6006 129.906 60.6534 129.816C61.6981 129.7 62.4629 129.169 62.9479 128.222C63.4074 127.325 63.4415 126.399 63.05 125.443C62.667 124.471 61.9107 123.696 60.7809 123.117L55.4477 120.386C55.0988 120.207 54.7146 120.22 54.2952 120.425C53.8843 120.613 53.6207 120.677 53.5044 120.617L53.4297 120.579C53.2303 120.477 53.1695 120.289 53.2473 120.014L53.9584 117.704C54.0966 117.23 54.3069 117.065 54.5893 117.209L64.2589 122.162Z" fill="black"/>
<path d="M76.6624 108.95C75.9537 109.818 75.118 110.28 74.1554 110.337C73.19 110.368 72.1726 109.946 71.1029 109.072L64.62 103.775L63.4507 105.206C63.2735 105.423 63.0765 105.442 62.8597 105.265L62.6429 105.088C62.426 104.911 62.4062 104.714 62.5834 104.497L63.2212 103.717C64.0244 102.734 63.7866 101.623 62.5079 100.386C62.2424 100.12 62.1983 99.8795 62.3754 99.6626L62.5526 99.4458C62.7416 99.2146 62.9806 99.217 63.2697 99.4533L65.3472 101.115L67.7922 98.1226C67.863 98.0358 67.9582 97.9931 68.0777 97.9943C68.1946 97.9693 68.2964 97.9922 68.3831 98.0631L68.6 98.2402C68.8168 98.4174 68.8366 98.6144 68.6594 98.8312L66.2145 101.823L72.7191 107.138C73.2973 107.611 73.8458 107.854 74.3646 107.868C74.8834 107.882 75.314 107.68 75.6566 107.261C76.0345 106.798 76.2201 106.335 76.2132 105.871C76.2037 105.382 76.0215 104.955 75.6667 104.593C75.5523 104.379 75.5804 104.197 75.7511 104.047C75.9191 103.871 76.097 103.86 76.2849 104.014C76.9932 104.592 77.4022 105.36 77.5118 106.318C77.6188 107.249 77.3356 108.126 76.6624 108.95Z" fill="black"/>
<path d="M86.9833 80.2561C87.1865 80.0918 87.3585 80.0967 87.4993 80.2709L87.5521 80.3363C87.6578 80.4669 87.6679 80.7467 87.5826 81.1757C87.5119 81.593 87.5389 82.0272 87.6636 82.4784L90.8882 94.8855C91.0991 95.6512 91.2403 96.1971 91.312 96.5232C91.3953 96.8639 91.4913 97.3983 91.6 98.1266C91.7231 98.8432 91.7566 99.4042 91.7004 99.8097C91.6558 100.23 91.5211 100.687 91.2963 101.18C91.0976 101.677 90.7951 102.09 90.3886 102.418C89.6192 103.04 88.8103 103.346 87.9619 103.336C87.1253 103.34 86.5192 103.11 86.1437 102.645C85.9324 102.384 85.8349 102.115 85.8509 101.838C85.867 101.561 86.0057 101.317 86.267 101.105C86.5138 100.906 86.8064 100.837 87.1449 100.9C87.4952 100.977 87.8122 101.117 88.096 101.319C88.3943 101.51 88.72 101.631 89.073 101.682C89.4522 101.735 89.7943 101.638 90.0992 101.392C90.9556 100.7 90.9141 98.8371 89.9746 95.8041L78.348 89.9728C77.9301 89.7825 77.4953 89.69 77.0434 89.6952C76.6061 89.6887 76.3346 89.6201 76.229 89.4894L76.1762 89.4241C76.0354 89.2499 76.0739 89.0748 76.2916 88.8988L79.1224 86.6105C79.3256 86.4462 79.4977 86.4512 79.6385 86.6254L79.6913 86.6907C79.7734 86.7923 79.802 86.9612 79.7769 87.1975C79.7547 87.4075 79.7615 87.5941 79.7973 87.7571C79.8214 87.9057 80.0264 88.1 80.4124 88.34L89.5152 93.1871L86.8028 83.4623C86.7077 83.1072 86.5593 82.8791 86.3576 82.778C86.1442 82.6625 85.9428 82.6213 85.7535 82.6543C85.5525 82.6728 85.3514 82.6913 85.1503 82.7098C84.9493 82.7284 84.8135 82.6941 84.7431 82.607L84.6903 82.5416C84.5495 82.3674 84.588 82.1923 84.8057 82.0163L86.9833 80.2561Z" fill="black"/>
<path d="M117.373 65.9294C117.946 64.4849 119.08 63.5027 120.775 62.983C122.471 62.4632 124.102 62.6268 125.67 63.4738C127.25 64.2975 128.336 65.6731 128.927 67.6006C129.528 69.5637 129.434 71.3889 128.643 73.0762C127.864 74.7401 126.619 75.8347 124.905 76.3599C123.138 76.9015 121.556 76.6446 120.159 75.5892L120.604 76.9463C120.692 77.2318 120.584 77.4211 120.28 77.5141L117.943 78.2013C117.676 78.2834 117.512 78.2263 117.451 78.03L117.427 77.9497C117.388 77.8247 117.489 77.5792 117.728 77.213C117.985 76.8413 118.059 76.477 117.949 76.1201L113.354 61.1287C113.255 60.8075 113.087 60.5761 112.848 60.4345C112.609 60.2928 112.384 60.1959 112.173 60.1435C111.956 60.0733 111.829 59.9757 111.79 59.8508L111.766 59.7705C111.717 59.6098 111.825 59.4206 112.09 59.2026L113.893 57.537C114.104 57.3355 114.292 57.2485 114.457 57.2762C114.639 57.2983 114.766 57.4254 114.837 57.6574L117.373 65.9294ZM124.295 75.6099C125.544 75.227 126.387 74.4414 126.823 73.2534C127.272 72.042 127.244 70.6154 126.741 68.9735C126.172 67.1174 125.299 65.7352 124.123 64.8268C122.958 63.8951 121.725 63.629 120.422 64.0284C119.53 64.3019 118.857 64.879 118.405 65.7596C117.947 66.6224 117.858 67.5089 118.137 68.4191L119.302 72.2204L119.39 72.6034L119.417 72.5952C119.745 73.666 120.404 74.5087 121.393 75.1232C122.399 75.7322 123.367 75.8944 124.295 75.6099Z" fill="black"/>
<path d="M153.062 67.3798C153.179 67.1667 153.352 67.0812 153.579 67.1232C153.805 67.1465 153.907 67.2897 153.886 67.5529C153.742 68.5531 153.203 69.5031 152.268 70.4029C151.333 71.3028 150.064 71.8026 148.462 71.9023C146.617 72.0171 145.03 71.4613 143.701 70.2349C142.39 69.0073 141.669 67.3316 141.536 65.2077C141.415 63.2514 141.947 61.5818 143.132 60.1988C144.317 58.7972 145.841 58.0384 147.704 57.9224C149.287 57.8238 150.571 58.174 151.556 58.9731C152.559 59.7523 153.093 60.6729 153.159 61.7348C153.209 62.5359 152.805 63.1128 151.948 63.4654L144.366 66.4904C144.758 67.6816 145.376 68.597 146.22 69.2365C147.081 69.8561 148.08 70.1306 149.217 70.0598C151.136 69.9404 152.417 69.047 153.062 67.3798ZM147.34 58.8428C146.222 58.9124 145.349 59.453 144.72 60.4647C144.091 61.4764 143.822 62.7089 143.912 64.162C143.947 64.721 144.014 65.1937 144.112 65.5803L150.205 62.9567C150.641 62.7426 150.844 62.4026 150.815 61.9368C150.771 61.2289 150.4 60.5226 149.701 59.8179C149.021 59.1122 148.234 58.7871 147.34 58.8428Z" fill="black"/>
<path d="M178.971 60.2599C179.615 60.3687 179.903 60.5688 179.835 60.8602C179.801 60.9491 179.732 61.0226 179.627 61.0807C179.455 61.2031 179.243 61.2809 178.991 61.3141C178.74 61.3473 178.436 61.3528 178.08 61.3306C177.724 61.3084 177.449 61.3094 177.256 61.3335C177.77 61.8747 178.143 62.5245 178.375 63.283C178.61 64.0231 178.667 64.752 178.545 65.4699C178.353 66.611 177.889 67.5645 177.154 68.3301C176.419 69.0958 175.499 69.6125 174.393 69.8802C175.528 70.3368 176.346 70.9292 176.848 71.6576C177.353 72.3675 177.535 73.1366 177.395 73.9649C177.181 75.235 176.413 76.1371 175.093 76.6714C173.787 77.2272 172.187 77.345 170.291 77.025C168.34 76.6956 166.879 75.9852 165.908 74.8938C164.935 73.8207 164.533 72.778 164.704 71.7657C164.754 71.4712 164.879 71.2367 165.079 71.0622C165.297 70.8908 165.572 70.833 165.903 70.889C166.161 70.9325 166.363 71.0802 166.51 71.3322C166.678 71.5688 166.791 71.8529 166.848 72.1845C166.921 72.5375 167.028 72.9152 167.168 73.3175C167.324 73.7413 167.504 74.1314 167.709 74.4878C167.929 74.8658 168.288 75.2102 168.784 75.5212C169.281 75.8322 169.888 76.0483 170.606 76.1695C171.728 76.359 172.688 76.2275 173.483 75.775C174.279 75.3225 174.755 74.6361 174.91 73.7158C175.059 72.8323 174.904 72.0678 174.445 71.4224C173.989 70.7586 173.3 70.3014 172.377 70.0509C171.892 70.007 171.539 69.9663 171.318 69.929C169.662 69.6494 168.35 68.8979 167.383 67.6745C166.419 66.4326 166.062 65.0663 166.314 63.5754C166.591 61.9372 167.377 60.6976 168.674 59.8563C169.974 58.9967 171.535 58.7207 173.357 59.0284C173.854 59.1123 174.592 59.2841 175.57 59.5439C176.549 59.8038 177.682 60.0424 178.971 60.2599ZM171.914 69.0925C172.963 69.2696 173.859 69.0613 174.603 68.4675C175.35 67.8553 175.816 67.0062 175.999 65.9202C176.247 64.4477 176.065 63.1201 175.45 61.9373C174.857 60.7393 173.963 60.0393 172.766 59.8373C171.791 59.6726 170.94 59.8887 170.215 60.4856C169.508 61.0856 169.064 61.9194 168.884 62.9869C168.632 64.4779 168.794 65.8208 169.368 67.0157C169.961 68.2138 170.809 68.9061 171.914 69.0925Z" fill="black"/>
<path d="M196.059 62.4303C195.516 62.2289 195.143 61.921 194.938 61.5066C194.733 61.0922 194.722 60.64 194.904 60.15C195.086 59.66 195.39 59.3247 195.815 59.1441C196.265 58.9526 196.752 58.9543 197.277 59.1492C197.784 59.3376 198.137 59.6477 198.335 60.0797C198.54 60.4941 198.551 60.9463 198.369 61.4363C198.187 61.9263 197.883 62.2616 197.458 62.4421C197.033 62.6227 196.566 62.6187 196.059 62.4303ZM188.933 76.9586C188.6 76.8351 188.476 76.6597 188.561 76.4322L188.6 76.3272C188.645 76.2047 188.766 76.1202 188.963 76.0737C189.166 76.0096 189.375 75.9281 189.591 75.8291C189.813 75.7125 189.973 75.523 190.071 75.2605L192.975 67.4382C193.124 67.0357 193.097 66.6272 192.892 66.2128C192.688 65.7984 192.602 65.5474 192.634 65.4599L192.654 65.4074C192.699 65.2849 192.879 65.2024 193.194 65.1598L195.585 64.9127C195.904 64.9117 196.112 64.9689 196.208 65.0844C196.322 65.2063 196.34 65.3723 196.262 65.5823L192.355 76.1084C192.277 76.3183 192.261 76.5216 192.307 76.7181C192.36 76.897 192.444 77.0475 192.558 77.1695C192.672 77.2915 192.762 77.4244 192.828 77.5684C192.901 77.6949 192.917 77.8106 192.878 77.9156L192.839 78.0206C192.755 78.2481 192.529 78.2937 192.161 78.1572L188.933 76.9586Z" fill="black"/>
<path d="M214.341 87.406C214.199 87.6696 214.151 87.925 214.195 88.1722C214.239 88.4194 214.29 88.6379 214.348 88.8277C214.432 89.0114 214.439 89.1588 214.371 89.2698L214.312 89.365C214.184 89.5712 213.953 89.5709 213.62 89.3642L210.789 87.6071C210.456 87.4004 210.353 87.1939 210.481 86.9877L210.54 86.8926C210.609 86.7815 210.855 86.7036 211.279 86.6587C211.718 86.6237 212.028 86.4427 212.209 86.1157L214.924 81.21C215.737 79.759 216.103 78.5143 216.023 77.4757C215.968 76.4312 215.512 75.6431 214.656 75.1115C213.783 74.5701 212.878 74.4364 211.939 74.7104C211 74.9845 210.235 75.5973 209.644 76.5489L206.056 82.3299C205.938 82.5202 205.882 82.7163 205.889 82.9181C205.921 83.1139 205.973 83.2779 206.045 83.4103C206.116 83.5426 206.17 83.6859 206.206 83.8401C206.268 83.9884 206.27 84.11 206.211 84.2052L206.151 84.3004C206.024 84.5065 205.793 84.5063 205.46 84.2996L202.486 82.4538C202.169 82.257 202.074 82.0554 202.202 81.8492L202.261 81.7541C202.34 81.6272 202.594 81.5542 203.023 81.535C203.469 81.5257 203.79 81.3625 203.987 81.0453L208.461 73.8368C208.648 73.5355 208.703 73.2514 208.627 72.9845C208.577 72.7116 208.494 72.4734 208.378 72.27C208.279 72.0764 208.264 71.9241 208.333 71.8131L208.377 71.7417C208.465 71.599 208.666 71.5588 208.979 71.6211L211.295 71.8721C211.586 71.8989 211.762 71.9864 211.824 72.1346C211.886 72.2828 211.858 72.452 211.739 72.6424L210.662 74.3791C211.424 73.9295 212.253 73.7083 213.15 73.7154C214.062 73.7323 214.922 73.9918 215.731 74.4938C216.968 75.2616 217.729 76.3376 218.012 77.7218C218.311 79.1158 217.97 80.7275 216.988 82.5569L214.341 87.406Z" fill="black"/>
<path d="M227.372 101.184C226.171 99.9556 225.452 98.7265 225.215 97.4962C224.991 96.2793 225.146 95.4098 225.68 94.8878C226.174 94.405 226.675 94.4238 227.184 94.9444C227.406 95.1713 227.496 95.4363 227.453 95.7394C227.436 96.0428 227.36 96.3653 227.224 96.707C227.088 97.0487 226.972 97.4104 226.875 97.7921C226.791 98.1872 226.826 98.6364 226.979 99.1397C227.145 99.63 227.469 100.122 227.952 100.616C228.605 101.283 229.293 101.68 230.018 101.807C230.756 101.921 231.398 101.711 231.945 101.176C232.479 100.654 232.684 100.036 232.56 99.3213C232.449 98.6204 232.16 97.911 231.693 97.1929C231.239 96.4618 230.799 95.7176 230.372 94.9604C229.945 94.2032 229.736 93.4022 229.746 92.5575C229.768 91.7262 230.14 90.9582 230.861 90.2535C231.635 89.4966 232.628 89.2173 233.84 89.4158C235.066 89.6012 236.213 90.2411 237.283 91.3356C238.419 92.4968 239.092 93.6791 239.303 94.8827C239.514 96.0863 239.325 96.9752 238.738 97.5494C238.538 97.7452 238.299 97.8349 238.022 97.8186C237.758 97.8156 237.528 97.714 237.333 97.5138C237.098 97.2735 237.022 96.9427 237.106 96.5212C237.19 96.0998 237.327 95.6789 237.517 95.2586C237.719 94.8517 237.778 94.3508 237.692 93.7558C237.606 93.1608 237.289 92.583 236.741 92.0225C236.167 91.4352 235.517 91.1045 234.792 91.0303C234.08 90.9695 233.477 91.1805 232.983 91.6634C232.463 92.1723 232.258 92.7772 232.369 93.4781C232.506 94.1792 232.802 94.8954 233.255 95.6265C233.709 96.3576 234.143 97.0951 234.557 97.839C234.984 98.5962 235.18 99.397 235.144 100.241C235.134 101.086 234.763 101.867 234.028 102.585C233.254 103.342 232.242 103.601 230.99 103.363C229.765 103.124 228.559 102.398 227.372 101.184Z" fill="black"/>
<path d="M266.448 139.604C266.542 139.848 266.484 140.01 266.275 140.091L266.197 140.121C266.058 140.175 265.802 140.084 265.431 139.847C265.083 139.621 264.7 139.508 264.28 139.51L252.708 139.774C252.312 139.787 252.054 139.636 251.933 139.323L251.742 138.826C251.6 138.461 251.684 138.158 251.992 137.919L260.1 131.399L249.704 131.99C249.315 132.019 249.057 131.869 248.929 131.538L248.798 131.198C248.671 130.868 248.754 130.565 249.049 130.292L257.658 122.348C257.953 122.074 258.168 121.751 258.304 121.378C258.447 121.023 258.588 120.818 258.728 120.764L258.806 120.734C259.015 120.653 259.17 120.744 259.271 121.005L260.541 124.296C260.635 124.54 260.578 124.703 260.369 124.783L260.29 124.813C260.168 124.86 260.021 124.817 259.85 124.683C259.678 124.549 259.482 124.455 259.26 124.4C259.039 124.346 258.792 124.431 258.519 124.657L251.361 130.84L262.268 130.173C262.574 130.135 262.77 130.229 262.857 130.455L263.216 131.307C263.297 131.516 263.215 131.718 262.97 131.913L254.28 138.717L263.654 138.431C264.049 138.419 264.313 138.297 264.444 138.067C264.575 137.836 264.658 137.584 264.692 137.311C264.733 137.055 264.815 136.903 264.937 136.856L265.015 136.826C265.224 136.745 265.379 136.835 265.48 137.097L266.448 139.604Z" fill="black"/>
<path d="M272.602 155.9C272.518 155.327 272.609 154.852 272.875 154.474C273.14 154.095 273.532 153.869 274.049 153.793C274.566 153.718 275.006 153.823 275.368 154.11C275.752 154.413 275.984 154.841 276.065 155.395C276.143 155.931 276.04 156.389 275.756 156.77C275.491 157.148 275.099 157.375 274.582 157.451C274.065 157.526 273.625 157.42 273.262 157.134C272.9 156.847 272.68 156.436 272.602 155.9ZM256.436 156.615C256.385 156.264 256.479 156.071 256.719 156.036L256.83 156.02C256.959 156.001 257.091 156.067 257.227 156.217C257.38 156.364 257.552 156.509 257.743 156.651C257.951 156.79 258.195 156.84 258.472 156.799L266.728 155.596C267.153 155.534 267.498 155.314 267.764 154.936C268.029 154.557 268.208 154.361 268.301 154.348L268.356 154.34C268.486 154.321 268.644 154.439 268.832 154.695L270.196 156.675C270.35 156.954 270.4 157.164 270.345 157.304C270.292 157.463 270.155 157.558 269.934 157.59L258.823 159.21C258.601 159.242 258.415 159.326 258.265 159.461C258.134 159.593 258.042 159.739 257.989 159.897C257.937 160.056 257.863 160.199 257.769 160.326C257.693 160.45 257.599 160.52 257.488 160.536L257.377 160.552C257.137 160.587 256.989 160.411 256.932 160.023L256.436 156.615Z" fill="black"/>
<path d="M257.551 175.374C257.567 174.254 257.934 173.372 258.653 172.729C259.39 172.105 260.449 171.802 261.83 171.822L270.201 171.94L270.227 170.092C270.231 169.812 270.373 169.674 270.653 169.678L270.933 169.682C271.213 169.686 271.351 169.828 271.347 170.108L271.333 171.116C271.315 172.385 272.191 173.107 273.962 173.281C274.335 173.323 274.52 173.485 274.516 173.765L274.512 174.045C274.507 174.343 274.319 174.49 273.945 174.485L271.285 174.475L271.231 178.339C271.229 178.451 271.181 178.544 271.087 178.617C271.011 178.709 270.917 178.754 270.805 178.753L270.525 178.749C270.245 178.745 270.107 178.603 270.111 178.323L270.165 174.459L261.766 174.341C261.02 174.331 260.439 174.481 260.024 174.793C259.609 175.104 259.397 175.531 259.39 176.072C259.381 176.669 259.524 177.147 259.817 177.506C260.129 177.884 260.537 178.104 261.04 178.167C261.263 178.264 261.354 178.424 261.314 178.647C261.291 178.89 261.159 179.009 260.916 179.006C260.002 178.993 259.204 178.645 258.523 177.964C257.86 177.301 257.536 176.438 257.551 175.374Z" fill="black"/>
<path d="M256.124 201.794C255.752 201.747 255.403 201.849 255.077 202.099C254.751 202.35 254.515 202.459 254.37 202.425L254.261 202.4C254.042 202.35 253.975 202.143 254.059 201.779L254.811 198.505C254.895 198.141 255.046 197.984 255.264 198.034L255.373 198.059C255.501 198.088 255.609 198.2 255.699 198.392C255.784 198.604 255.89 198.81 256.016 199.011C256.161 199.217 256.371 199.342 256.648 199.386L262.278 200.393C263.859 200.679 265.128 200.617 266.085 200.204C267.041 199.792 267.63 199.104 267.852 198.14C268.082 197.139 267.915 196.239 267.352 195.439C266.789 194.639 265.962 194.114 264.87 193.863L258.239 192.34C257.893 192.26 257.551 192.373 257.213 192.678C256.893 192.988 256.66 193.126 256.514 193.093L256.432 193.074C256.196 193.019 256.122 192.801 256.209 192.419L256.993 189.008C257.073 188.662 257.231 188.517 257.467 188.571L257.549 188.59C257.695 188.623 257.848 188.831 258.009 189.213C258.184 189.617 258.445 189.859 258.791 189.938L274.209 193.481C274.518 193.552 274.785 193.517 275.008 193.377C275.246 193.26 275.44 193.122 275.591 192.965C275.756 192.831 275.893 192.776 276.003 192.801L276.084 192.82C276.285 192.866 276.41 193.029 276.461 193.309L276.929 195.772C276.984 196.034 276.958 196.229 276.852 196.358C276.764 196.491 276.61 196.532 276.392 196.482L267.563 194.396C268.787 195.654 269.194 197.174 268.785 198.957C268.459 200.376 267.687 201.444 266.469 202.16C265.265 202.898 263.668 203.097 261.678 202.754L256.124 201.794Z" fill="black"/>
<path d="M247.419 244.306C247.27 244.52 247.103 244.563 246.919 244.435L246.85 244.387C246.712 244.291 246.625 244.026 246.587 243.59C246.538 243.169 246.391 242.76 246.146 242.361L239.587 231.347C239.171 230.67 238.883 230.186 238.723 229.892C238.548 229.589 238.307 229.102 237.999 228.433C237.681 227.779 237.493 227.25 237.433 226.845C237.359 226.429 237.361 225.953 237.439 225.416C237.491 224.883 237.667 224.403 237.965 223.974C238.531 223.162 239.222 222.643 240.04 222.416C240.842 222.178 241.488 222.23 241.978 222.571C242.254 222.763 242.423 222.995 242.485 223.265C242.546 223.536 242.481 223.809 242.289 224.085C242.108 224.345 241.846 224.492 241.504 224.527C241.146 224.551 240.803 224.505 240.473 224.39C240.134 224.29 239.787 224.264 239.434 224.314C239.055 224.369 238.753 224.557 238.529 224.879C237.9 225.782 238.46 227.559 240.208 230.21L253 232.566C253.454 232.632 253.898 232.599 254.33 232.468C254.752 232.352 255.032 232.342 255.17 232.438L255.239 232.486C255.423 232.614 255.434 232.793 255.275 233.023L253.195 236.01C253.045 236.225 252.879 236.268 252.695 236.14L252.626 236.092C252.519 236.017 252.444 235.863 252.402 235.629C252.365 235.421 252.306 235.244 252.227 235.098C252.162 234.962 251.911 234.832 251.473 234.71L241.38 232.595L246.698 241.176C246.888 241.491 247.094 241.669 247.316 241.709C247.553 241.761 247.758 241.744 247.931 241.66C248.119 241.586 248.306 241.512 248.494 241.438C248.682 241.364 248.822 241.359 248.914 241.423L248.983 241.471C249.167 241.599 249.179 241.778 249.019 242.008L247.419 244.306Z" fill="black"/>
<path d="M223.751 249.584C225.377 248.154 227.164 247.514 229.111 247.666C231.057 247.843 232.684 248.675 233.991 250.161C235.273 251.618 235.849 253.262 235.718 255.092C235.6 256.936 234.819 258.493 233.375 259.763C231.82 261.132 230.088 261.735 228.181 261.573C226.271 261.437 224.657 260.62 223.338 259.12C222.044 257.648 221.421 256.008 221.471 254.199C221.533 252.404 222.293 250.866 223.751 249.584ZM224.109 250.499C223.282 251.227 222.91 252.175 222.994 253.344C223.064 254.526 223.61 255.699 224.634 256.862C225.94 258.348 227.388 259.287 228.976 259.68C230.577 260.086 231.91 259.821 232.975 258.884C233.872 258.095 234.293 257.104 234.237 255.91C234.194 254.73 233.661 253.558 232.637 252.395C231.405 250.993 229.955 250.081 228.289 249.656C226.624 249.232 225.23 249.513 224.109 250.499Z" fill="black"/>
<path d="M199.566 268.811C199.353 268.396 199.116 268.118 198.856 267.979C198.596 267.84 198.374 267.797 198.191 267.849C198.016 267.917 197.837 267.957 197.654 267.967C197.47 267.977 197.34 267.908 197.263 267.758C197.084 267.41 197.51 266.971 198.539 266.442C199.801 265.794 200.723 266.098 201.304 267.352L201.43 267.476C201.478 265.689 202.399 264.335 204.192 263.414C205.587 262.698 206.959 262.612 208.309 263.157C209.651 263.727 210.787 264.917 211.716 266.727L213.98 271.136C214.167 271.501 214.483 271.727 214.926 271.815C215.353 271.91 215.592 272.008 215.643 272.107L215.682 272.182C215.784 272.381 215.723 272.57 215.5 272.748L213.599 274.196C213.194 274.509 212.918 274.524 212.773 274.242L209.435 267.678C208.693 266.234 207.868 265.241 206.961 264.699C206.045 264.183 205.114 264.168 204.168 264.654C203.271 265.114 202.703 265.847 202.463 266.851C202.207 267.864 202.369 268.935 202.948 270.064L205.685 275.395C205.864 275.743 206.184 275.957 206.644 276.036C207.087 276.123 207.339 276.224 207.398 276.341L207.437 276.415C207.539 276.615 207.479 276.803 207.255 276.981L205.33 278.442C204.941 278.746 204.674 278.758 204.529 278.475L199.566 268.811Z" fill="black"/>
</svg>
