<svg width="261" height="253" viewBox="0 0 261 253" fill="none" xmlns="http://www.w3.org/2000/svg">
<path d="M90.9874 223.841C92.0255 224.262 92.7142 224.923 93.0535 225.826C93.3685 226.739 93.2667 227.836 92.7482 229.116L89.6055 236.876L91.3184 237.569C91.5779 237.675 91.6551 237.857 91.55 238.116L91.4449 238.376C91.3398 238.635 91.1575 238.713 90.898 238.607L89.9637 238.229C88.7872 237.753 87.7969 238.308 86.9928 239.896C86.818 240.228 86.6009 240.341 86.3414 240.236L86.0819 240.131C85.805 240.019 85.7367 239.79 85.8768 239.444L86.8494 236.968L83.268 235.517C83.1641 235.475 83.0952 235.397 83.061 235.283C83.0025 235.178 82.9943 235.074 83.0363 234.97L83.1414 234.711C83.2465 234.451 83.4289 234.374 83.6884 234.479L87.2698 235.93L90.423 228.144C90.7033 227.452 90.7734 226.856 90.6335 226.356C90.4935 225.857 90.1726 225.505 89.6709 225.302C89.1172 225.078 88.62 225.037 88.1791 225.181C87.714 225.335 87.3609 225.635 87.1198 226.081C86.9492 226.254 86.7671 226.281 86.5735 226.162C86.3555 226.054 86.2921 225.887 86.3832 225.662C86.7266 224.814 87.3393 224.196 88.2214 223.809C89.0792 223.431 90.0012 223.442 90.9874 223.841Z" fill="white"/>
<path d="M71.0347 215.955C71.2092 215.602 71.2839 215.286 71.2589 215.008C71.2241 214.745 71.142 214.54 71.0128 214.394C70.8737 214.264 70.7603 214.128 70.6726 213.986C70.5849 213.844 70.5803 213.71 70.6589 213.583C70.8651 213.249 71.4762 213.397 72.4921 214.025C73.0636 214.379 73.4204 214.743 73.5626 215.116C73.6949 215.505 73.5934 216.024 73.258 216.672C74.5487 215.935 76.0354 216.086 77.718 217.127C79.0514 217.952 79.9265 218.933 80.3432 220.069C80.7599 221.204 80.6195 222.336 79.9222 223.463C79.2506 224.584 78.3184 225.203 77.1258 225.322C75.9173 225.43 74.6702 225.086 73.3844 224.291C72.1145 223.505 71.3347 222.584 71.045 221.526L70.6948 222.199C69.9341 223.747 69.555 225.016 69.5575 226.006C69.56 226.995 70.0216 227.775 70.9422 228.344C71.4978 228.688 72.0466 228.83 72.5884 228.77C73.1303 228.71 73.5758 228.558 73.925 228.313C74.2582 228.058 74.6085 227.847 74.9757 227.679C75.343 227.511 75.6536 227.506 75.9076 227.663C76.1934 227.84 76.3744 228.062 76.4508 228.328C76.5113 228.585 76.4581 228.849 76.2911 229.119C75.8786 229.785 75.1214 230.14 74.0195 230.182C72.8918 230.231 71.709 229.872 70.4708 229.106C69.0263 228.212 68.1504 227.056 67.8433 225.637C67.5104 224.223 67.7557 222.674 68.5791 220.988L71.0347 215.955ZM76.7227 217.565C75.9449 217.084 75.1577 216.937 74.3612 217.125C73.5548 217.328 72.9366 217.813 72.5068 218.578L71.9391 219.709C71.7125 220.359 71.7292 221.006 71.9894 221.65C72.2336 222.284 72.6971 222.812 73.3796 223.234C74.1892 223.735 74.9904 223.913 75.7832 223.767C76.576 223.62 77.1983 223.182 77.6501 222.452C78.2001 221.563 78.3998 220.655 78.2492 219.728C78.0729 218.806 77.564 218.086 76.7227 217.565Z" fill="white"/>
<path d="M55.3278 201.846C55.3452 201.607 55.2863 201.273 55.1511 200.842C55.0032 200.425 54.9927 200.148 55.1196 200.011L55.1577 199.97C55.31 199.806 55.4888 199.819 55.6941 200.009L58.4252 202.541C58.6305 202.731 58.657 202.908 58.5048 203.073L58.4667 203.114C58.3779 203.209 58.1678 203.244 57.8366 203.217C57.4789 203.191 57.2929 203.336 57.2785 203.654L56.764 210.469L59.6571 210.479L61.7129 208.261C61.954 208.001 62.0333 207.654 61.9509 207.222C61.8421 206.79 61.8384 206.519 61.94 206.41L61.9971 206.348C62.162 206.17 62.3883 206.214 62.6757 206.481L65.1809 208.803C65.4547 209.057 65.5091 209.273 65.3441 209.451L65.287 209.513C65.1855 209.622 64.9291 209.652 64.5177 209.601C64.0936 209.564 63.761 209.676 63.5199 209.936L52.822 221.476C52.6062 221.709 52.497 221.964 52.4943 222.242C52.4789 222.533 52.4953 222.79 52.5433 223.012C52.5777 223.223 52.5568 223.369 52.4807 223.451L52.4426 223.492C52.3411 223.601 52.1438 223.622 51.8506 223.554L49.464 222.792C49.1825 222.684 49.0187 222.545 48.9726 222.375C48.9002 222.206 48.9338 222.046 49.0734 221.896L58.6291 211.588L51.0929 211.397C50.7647 211.45 50.5967 211.548 50.589 211.694C50.5686 211.853 50.5771 212.077 50.6145 212.367C50.6255 212.657 50.5866 212.85 50.4977 212.946L50.4406 213.007C50.2883 213.171 50.1027 213.152 49.8837 212.949L47.5633 210.798C47.3716 210.62 47.3456 210.456 47.4852 210.306L47.5423 210.244C47.6438 210.135 47.8138 210.088 48.0522 210.106C48.2779 210.137 48.5907 210.198 48.9904 210.288C49.39 210.379 49.7355 210.432 50.0267 210.447L54.5641 210.454L55.3278 201.846Z" fill="white"/>
<path d="M41.7036 188.501C41.4608 188.517 41.2956 188.419 41.2078 188.205C41.1051 188.003 41.17 187.839 41.4026 187.714C42.321 187.293 43.4118 187.232 44.6748 187.53C45.9378 187.829 47.0452 188.625 47.9969 189.917C49.0926 191.406 49.485 193.041 49.1743 194.822C48.8525 196.589 47.8347 198.103 46.1211 199.365C44.5427 200.527 42.8511 200.984 41.0463 200.737C39.2265 200.501 37.7632 199.631 36.6565 198.128C35.7158 196.85 35.3145 195.581 35.4526 194.32C35.5646 193.055 36.049 192.108 36.9059 191.477C37.5522 191.001 38.2558 191.028 39.0164 191.557L45.6667 196.292C46.4557 195.317 46.8903 194.302 46.9706 193.246C47.0248 192.186 46.7143 191.198 46.0392 190.281C44.8993 188.733 43.4541 188.139 41.7036 188.501ZM37.627 197.935C38.2911 198.836 39.2187 199.278 40.4098 199.258C41.601 199.239 42.7828 198.798 43.9553 197.935C44.4062 197.603 44.7674 197.29 45.0388 196.998L39.533 193.298C39.1171 193.048 38.7212 193.061 38.3454 193.338C37.7742 193.758 37.3816 194.453 37.1677 195.422C36.9427 196.375 37.0958 197.213 37.627 197.935Z" fill="white"/>
<path d="M28.3648 159.76C28.1279 159.704 27.9991 159.561 27.9784 159.331C27.9401 159.107 28.0504 158.97 28.3095 158.92C29.3114 158.788 30.3716 159.052 31.49 159.711C32.6084 160.369 33.4313 161.456 33.9588 162.973C34.5659 164.718 34.4579 166.396 33.6347 168.006C32.8053 169.599 31.3857 170.745 29.3759 171.445C27.5247 172.089 25.7735 172.026 24.1223 171.256C22.4535 170.493 21.3125 169.23 20.6992 167.467C20.1779 165.968 20.1694 164.637 20.6737 163.473C21.1543 162.298 21.8971 161.536 22.902 161.186C23.6601 160.922 24.3243 161.156 24.8947 161.886L29.8495 168.375C30.8912 167.676 31.6064 166.834 31.995 165.849C32.3598 164.853 32.3552 163.817 31.9811 162.741C31.3494 160.926 30.1439 159.932 28.3648 159.76ZM21.6834 167.569C22.0514 168.627 22.8072 169.322 23.9509 169.656C25.0946 169.989 26.3541 169.917 27.7293 169.438C28.2582 169.254 28.6955 169.063 29.0412 168.863L24.874 163.702C24.5505 163.34 24.1684 163.236 23.7277 163.389C23.0577 163.622 22.4774 164.17 21.9869 165.032C21.4902 165.877 21.389 166.723 21.6834 167.569Z" fill="white"/>
<path d="M15.0155 140.304C14.9747 140.027 15.0559 139.874 15.2591 139.844L15.3422 139.831C15.5084 139.807 15.7599 139.977 16.0967 140.343C16.4335 140.709 16.7684 140.933 17.1014 141.016L28.5493 143.802C28.9404 143.896 29.1604 144.109 29.2093 144.441L29.3357 145.3C29.3846 145.632 29.2367 145.909 28.8918 146.129L18.8181 152.678C18.5259 152.872 18.2658 153.156 18.0377 153.529C17.8069 153.884 17.6084 154.073 17.4422 154.098L17.3591 154.11C17.1559 154.14 17.0339 154.016 16.9932 153.739L16.4264 149.889C16.3883 149.63 16.4801 149.485 16.7017 149.452L16.7848 149.44C16.8587 149.429 17.0757 149.557 17.4359 149.825C17.7776 150.096 18.1143 150.14 18.4462 149.959L27.456 144.643L17.5619 142.222C17.2501 142.154 16.9994 142.182 16.8099 142.304C16.6176 142.408 16.4862 142.54 16.4156 142.702C16.345 142.863 16.2744 143.024 16.2038 143.186C16.1148 143.35 16.0148 143.44 15.904 143.456L15.8209 143.468C15.5993 143.501 15.4681 143.379 15.4273 143.102L15.0155 140.304Z" fill="white"/>
<path d="M24.5534 120.168C24.3538 120.029 24.2867 119.849 24.3522 119.627C24.399 119.405 24.5522 119.318 24.8117 119.367C25.7914 119.614 26.6799 120.249 27.4771 121.274C28.2744 122.298 28.6389 123.612 28.5707 125.216C28.4923 127.062 27.7737 128.582 26.4152 129.776C25.0574 130.952 23.3154 131.494 21.1893 131.404C19.2311 131.32 17.6262 130.617 16.3746 129.293C15.1043 127.969 14.5089 126.374 14.5881 124.509C14.6555 122.924 15.1379 121.683 16.0354 120.787C16.9151 119.872 17.8865 119.437 18.9495 119.482C19.7514 119.516 20.283 119.978 20.5441 120.867L22.7605 128.724C23.9862 128.458 24.9612 127.939 25.6853 127.167C26.3915 126.375 26.7689 125.41 26.8172 124.272C26.8988 122.351 26.1442 120.983 24.5534 120.168ZM15.4655 124.967C15.4179 126.086 15.8644 127.011 16.8048 127.742C17.7453 128.473 18.9429 128.87 20.3976 128.932C20.9571 128.956 21.4342 128.939 21.829 128.881L19.8562 122.547C19.6887 122.092 19.3718 121.854 18.9056 121.834C18.1969 121.804 17.4557 122.099 16.6819 122.72C15.909 123.323 15.5035 124.072 15.4655 124.967Z" fill="white"/>
<path d="M17.5713 103.212C17.74 102.428 18.0722 101.859 18.5679 101.508C19.0674 101.138 19.6183 101.018 20.2206 101.147C21.0783 101.331 21.4287 101.789 21.2718 102.519C21.2051 102.829 21.0518 103.054 20.8118 103.193C20.5718 103.332 20.3254 103.413 20.0724 103.435C19.8234 103.439 19.575 103.529 19.3272 103.704C19.0793 103.88 18.9142 104.16 18.8318 104.543C18.6749 105.273 18.9163 105.926 19.5561 106.503C20.1815 107.057 21.0326 107.45 22.1093 107.682L28.3507 109.024C28.7157 109.102 29.0672 108.977 29.4051 108.649C29.7247 108.317 29.9484 108.164 30.0761 108.192L30.1856 108.215C30.4046 108.262 30.4749 108.468 30.3964 108.833L29.6667 112.228C29.5883 112.593 29.4395 112.752 29.2205 112.705L29.111 112.681C28.9833 112.654 28.8361 112.45 28.6695 112.071C28.4885 111.669 28.2155 111.429 27.8505 111.35L19.5287 109.562C19.1454 109.479 18.7777 109.591 18.4255 109.897C18.0733 110.203 17.8333 110.343 17.7055 110.315L17.6508 110.303C17.4683 110.264 17.3335 110.092 17.2463 109.787L16.7628 107.506C16.6458 106.985 16.8246 106.775 17.2991 106.877L19.489 107.348C17.8339 106.343 17.1947 104.964 17.5713 103.212Z" fill="white"/>
<path d="M25.7463 80.3379C25.8447 80.0958 25.9976 80.0169 26.2051 80.1012L26.2829 80.1328C26.4386 80.196 26.5829 80.436 26.7159 80.8526C26.8558 81.252 27.0896 81.619 27.4171 81.9535L36.2429 91.2508C36.798 91.8187 37.1858 92.2281 37.4063 92.4789C37.6441 92.7367 37.9867 93.1579 38.4342 93.7427C38.8887 94.3101 39.1895 94.7849 39.3365 95.167C39.5008 95.5561 39.604 96.0211 39.6462 96.5621C39.7127 97.0928 39.6476 97.6003 39.4509 98.0845C39.0785 99.0011 38.5186 99.6602 37.7712 100.062C37.0411 100.47 36.3993 100.562 35.8459 100.337C35.5346 100.211 35.319 100.023 35.199 99.7724C35.079 99.5222 35.0822 99.2414 35.2087 98.9301C35.3281 98.6361 35.5511 98.4346 35.8775 98.3254C36.2212 98.2232 36.5663 98.1921 36.9127 98.2321C37.2661 98.2548 37.6096 98.2029 37.943 98.0765C38.3008 97.9397 38.5535 97.6898 38.701 97.3266C39.1155 96.3062 38.1778 94.6963 35.8879 92.4967L22.8914 93.0199C22.4337 93.0556 22.0084 93.185 21.6155 93.4082C21.2296 93.6141 20.9588 93.6855 20.8032 93.6223L20.7254 93.5906C20.5178 93.5063 20.4668 93.3345 20.5721 93.0751L21.9421 89.7027C22.0404 89.4606 22.1934 89.3817 22.4009 89.466L22.4787 89.4976C22.5998 89.5468 22.7065 89.6808 22.799 89.8997C22.8811 90.0942 22.9773 90.2542 23.0876 90.3796C23.1805 90.4979 23.454 90.5687 23.9079 90.592L34.2195 90.4288L27.1399 83.2311C26.8848 82.9663 26.6446 82.8385 26.4192 82.8477C26.1765 82.8498 25.9804 82.9112 25.8307 83.0317C25.6637 83.1452 25.4967 83.2587 25.3297 83.3722C25.1627 83.4857 25.0273 83.5214 24.9235 83.4792L24.8457 83.4476C24.6382 83.3633 24.5871 83.1914 24.6925 82.932L25.7463 80.3379Z" fill="white"/>
<path d="M44.2995 75.4641C43.7092 76.4159 42.9405 76.9825 41.9933 77.1639C41.0401 77.3195 39.9766 77.0333 38.8027 76.3053L31.6879 71.8927L30.7139 73.4632C30.5664 73.7012 30.3736 73.7464 30.1356 73.5988L29.8977 73.4512C29.6597 73.3036 29.6146 73.1109 29.7621 72.8729L30.2934 72.0163C30.9624 70.9376 30.5828 69.8674 29.1544 68.8059C28.8569 68.5774 28.7818 68.3442 28.9294 68.1062L29.077 67.8682C29.2344 67.6144 29.4718 67.5859 29.789 67.7827L32.0643 69.1609L34.1009 65.8771C34.1599 65.7819 34.2488 65.7272 34.3674 65.713C34.4801 65.673 34.584 65.6825 34.6792 65.7416L34.9171 65.8891C35.1551 66.0367 35.2003 66.2295 35.0527 66.4674L33.0161 69.7512L40.1547 74.1785C40.7892 74.572 41.3646 74.7422 41.8809 74.6889C42.3971 74.6357 42.7979 74.3791 43.0832 73.919C43.3981 73.4114 43.522 72.9282 43.4551 72.4693C43.3822 71.9848 43.1464 71.586 42.7476 71.2727C42.6064 71.0753 42.6107 70.8913 42.7605 70.7206C42.9043 70.5242 43.0793 70.49 43.2855 70.6179C44.0628 71.1 44.5678 71.8086 44.8006 72.7437C45.0273 73.6531 44.8603 74.5599 44.2995 75.4641Z" fill="white"/>
<path d="M56.7418 56.0666C57.045 56.2875 57.3998 56.3667 57.8061 56.3042C58.2124 56.2417 58.4713 56.2602 58.5826 56.3597L58.6661 56.4343C58.8332 56.5836 58.7923 56.7974 58.5436 57.0758L56.3048 59.5813C56.056 59.8596 55.8481 59.9242 55.6811 59.775L55.5976 59.7003C55.5001 59.6133 55.4587 59.4636 55.4732 59.2512C55.5001 59.025 55.5069 58.7932 55.4936 58.556C55.4663 58.3064 55.3421 58.0952 55.1209 57.9226L50.675 54.3254C49.4282 53.3114 48.2864 52.7543 47.2496 52.6539C46.2128 52.5535 45.3647 52.8722 44.7055 53.6099C44.0215 54.3755 43.7332 55.2444 43.8407 56.2166C43.9482 57.1889 44.4196 58.0481 45.2547 58.7944L50.3283 63.328C50.5928 63.5643 50.9468 63.6303 51.3904 63.5261C51.8202 63.4094 52.0907 63.4008 52.202 63.5003L52.2647 63.5563C52.4456 63.718 52.4055 63.9449 52.1443 64.2373L49.8122 66.8471C49.5759 67.1116 49.3673 67.163 49.1863 67.0013L49.1237 66.9453C49.0123 66.8458 48.9781 66.5899 49.021 66.1777C49.0625 65.7391 48.951 65.4016 48.6865 65.1653L36.89 54.6243C36.6533 54.4128 36.4032 54.3145 36.1397 54.3293C35.8746 54.3178 35.6381 54.3443 35.4302 54.4089C35.2209 54.4471 35.0744 54.4289 34.9909 54.3542L34.9283 54.2983C34.7752 54.1615 34.7439 53.9583 34.8345 53.6888L35.6127 51.3051C35.6909 51.0495 35.8076 50.8909 35.9628 50.8293C36.104 50.7553 36.2582 50.7929 36.4252 50.9422L43.1526 57.0287C42.6874 55.3362 43.0642 53.8079 44.2831 52.4439C45.2532 51.3581 46.4444 50.7954 47.8568 50.7557C49.2676 50.6896 50.762 51.2865 52.3399 52.5462L56.7418 56.0666Z" fill="white"/>
<path d="M55.6257 38.3971C55.1765 38.7618 54.7214 38.9269 54.2606 38.8923C53.7997 38.8578 53.4045 38.6376 53.0751 38.2318C52.7457 37.826 52.6114 37.3941 52.6722 36.9359C52.7358 36.4515 52.9849 36.0329 53.4197 35.6799C53.8399 35.3387 54.2864 35.1926 54.759 35.2417C55.2199 35.2763 55.615 35.4964 55.9445 35.9022C56.2739 36.308 56.4082 36.74 56.3474 37.1981C56.2865 37.6562 56.046 38.0559 55.6257 38.3971ZM64.5128 51.92C64.2375 52.1435 64.0233 52.1611 63.8704 51.9727L63.7998 51.8857C63.7174 51.7843 63.7061 51.6372 63.766 51.4443C63.814 51.237 63.8503 51.0152 63.8749 50.7788C63.8876 50.528 63.8058 50.2939 63.6293 50.0766L58.3701 43.5987C58.0995 43.2654 57.7337 43.0814 57.2728 43.0468C56.812 43.0123 56.5521 42.9587 56.4933 42.8863L56.458 42.8428C56.3756 42.7414 56.3961 42.5444 56.5193 42.252L57.5225 40.0671C57.6838 39.7919 57.8387 39.6421 57.9872 39.6177C58.1502 39.5815 58.3023 39.6504 58.4435 39.8243L65.5205 48.5411C65.6617 48.715 65.8287 48.8319 66.0215 48.8917C66.2026 48.9371 66.3747 48.9417 66.5377 48.9055C66.7006 48.8694 66.8609 48.8595 67.0185 48.8758C67.1642 48.8777 67.2724 48.9221 67.343 49.009L67.4136 49.096C67.5666 49.2844 67.4909 49.5021 67.1866 49.7492L64.5128 51.92Z" fill="white"/>
<path d="M83.8332 36.6868C83.9972 36.9371 84.1984 37.1018 84.4367 37.181C84.6751 37.2601 84.8915 37.3195 85.0859 37.3592C85.2873 37.3734 85.4203 37.4373 85.485 37.5508L85.5404 37.6482C85.6604 37.859 85.5501 38.0615 85.2094 38.2554L82.3137 39.9038C81.9731 40.0977 81.7427 40.0892 81.6227 39.8783L81.5672 39.781C81.5026 39.6674 81.5516 39.414 81.7144 39.0206C81.8933 38.6181 81.8823 38.2592 81.6814 37.944L78.6677 33.2158C77.7809 31.8089 76.8621 30.8928 75.9112 30.4676C74.9673 30.0168 74.0573 30.0408 73.1813 30.5395C72.2891 31.0474 71.7391 31.7793 71.5315 32.7352C71.3239 33.6911 71.4971 34.6557 72.0512 35.629L75.4172 41.5421C75.528 41.7368 75.6736 41.8794 75.8541 41.97C76.0415 42.0351 76.2105 42.0678 76.361 42.0681C76.5115 42.0683 76.6631 42.0894 76.8158 42.1313C76.9756 42.1478 77.0831 42.2047 77.1385 42.302L77.1939 42.3994C77.314 42.6103 77.2037 42.8127 76.863 43.0066L73.8213 44.7381C73.4969 44.9228 73.2746 44.9097 73.1546 44.6988L73.0991 44.6014C73.0253 44.4717 73.0824 44.2136 73.2706 43.8273C73.475 43.4317 73.4848 43.0717 73.3002 42.7472L69.103 35.3741C68.9276 35.0659 68.7044 34.8815 68.4337 34.8208C68.1698 34.7347 67.921 34.6938 67.6872 34.698C67.4695 34.693 67.3284 34.6338 67.2638 34.5202L67.2222 34.4472C67.1391 34.3012 67.1996 34.1057 67.4038 33.8606L68.7301 31.9457C68.8926 31.7028 69.0537 31.5896 69.2134 31.6061C69.3731 31.6226 69.5084 31.7282 69.6192 31.9228L70.6304 33.6992C70.5995 32.8147 70.8011 31.9803 71.2354 31.1962C71.6858 30.4027 72.3247 29.7706 73.1521 29.2996C74.4174 28.5793 75.7258 28.4252 77.0773 28.8372C78.445 29.24 79.6981 30.3094 80.8367 32.0455L83.8332 36.6868Z" fill="white"/>
<path d="M99.6939 18.5184C100.315 18.3164 100.663 18.3603 100.738 18.6501C100.749 18.7446 100.722 18.8418 100.656 18.9417C100.56 19.1299 100.408 19.297 100.201 19.443C99.993 19.5891 99.7263 19.7347 99.4005 19.8798C99.0748 20.025 98.8318 20.1531 98.6716 20.2641C99.3782 20.5054 100.01 20.9085 100.566 21.4734C101.117 22.0206 101.505 22.6403 101.73 23.3326C102.088 24.4332 102.119 25.4931 101.822 26.5121C101.525 27.5312 100.949 28.4153 100.093 29.1646C101.31 29.0437 102.31 29.1898 103.092 29.6029C103.868 29.9982 104.386 30.5953 104.646 31.3941C105.044 32.619 104.782 33.7741 103.859 34.8593C102.959 35.9566 101.596 36.8025 99.7671 37.397C97.8854 38.0088 96.2617 38.0559 94.896 37.5381C93.5361 37.0381 92.6974 36.3 92.3799 35.3236C92.2876 35.0396 92.2895 34.774 92.3858 34.5267C92.4998 34.2738 92.7166 34.0953 93.0362 33.9914C93.2847 33.9106 93.5323 33.9479 93.7791 34.1032C94.0379 34.2349 94.2696 34.4344 94.4742 34.7015C94.7024 34.9807 94.9718 35.266 95.2825 35.5576C95.6168 35.8611 95.9572 36.1233 96.3039 36.3443C96.674 36.5772 97.1512 36.7165 97.7352 36.7622C98.3193 36.8078 98.9575 36.7181 99.6498 36.493C100.733 36.1409 101.522 35.58 102.018 34.8103C102.513 34.0407 102.617 33.2121 102.328 32.3245C102.051 31.4724 101.56 30.8667 100.854 30.5073C100.142 30.1301 99.3196 30.0444 98.3854 30.25C97.9354 30.4355 97.6039 30.563 97.3909 30.6322C95.7932 31.1517 94.2824 31.0933 92.8586 30.4571C91.429 29.8031 90.4804 28.7572 90.0128 27.3193C89.4991 25.7394 89.6221 24.2763 90.3817 22.9301C91.1356 21.5662 92.3912 20.5985 94.1486 20.027C94.6279 19.8712 95.3613 19.6818 96.3488 19.4589C97.3362 19.2359 98.4513 18.9224 99.6939 18.5184ZM97.5312 29.615C98.543 29.286 99.2411 28.6861 99.6253 27.8152C100.004 26.9267 100.023 25.9587 99.6822 24.9114C99.2204 23.4912 98.4433 22.3993 97.351 21.6356C96.2706 20.8485 95.1535 20.6425 93.9997 21.0177C93.0588 21.3236 92.4052 21.9091 92.0387 22.7741C91.69 23.6334 91.683 24.5778 92.0178 25.6074C92.4853 27.0453 93.2504 28.1608 94.313 28.9537C95.3933 29.7409 96.4661 29.9613 97.5312 29.615Z" fill="white"/>
<path d="M130.393 28.28C128.228 28.28 126.464 27.58 125.101 26.18C123.757 24.7613 123.085 23.0627 123.085 21.084C123.085 19.1427 123.738 17.528 125.045 16.24C126.352 14.9333 127.966 14.28 129.889 14.28C131.961 14.28 133.66 14.9707 134.985 16.352C136.329 17.7147 137.001 19.3947 137.001 21.392C137.001 23.352 136.385 24.9947 135.153 26.32C133.921 27.6267 132.334 28.28 130.393 28.28ZM130.729 27.356C131.83 27.356 132.736 26.8893 133.445 25.956C134.173 25.0227 134.537 23.7813 134.537 22.232C134.537 20.2533 134.07 18.592 133.137 17.248C132.204 15.8853 131.028 15.204 129.609 15.204C128.414 15.204 127.444 15.6707 126.697 16.604C125.95 17.5187 125.577 18.7507 125.577 20.3C125.577 22.1667 126.062 23.8093 127.033 25.228C128.004 26.6467 129.236 27.356 130.729 27.356Z" fill="white"/>
<path d="M157.399 29.4414C157.355 29.7375 157.396 29.9942 157.522 30.2116C157.648 30.4289 157.771 30.6169 157.89 30.7756C158.031 30.9199 158.088 31.0559 158.061 31.1838L158.038 31.2934C157.988 31.5308 157.771 31.609 157.387 31.5281L154.127 30.8401C153.744 30.7592 153.577 30.6 153.627 30.3626L153.65 30.253C153.677 30.1251 153.882 29.9681 154.265 29.7817C154.666 29.5993 154.896 29.3234 154.954 28.9543L155.837 23.4172C156.107 21.7762 156.027 20.4812 155.598 19.5321C155.191 18.5686 154.494 17.9828 153.508 17.7747C152.503 17.5627 151.606 17.7454 150.816 18.3228C150.027 18.9002 149.516 19.7369 149.285 20.8328L147.88 27.4901C147.834 27.7093 147.848 27.9127 147.923 28.1002C148.02 28.2733 148.125 28.4098 148.237 28.5099C148.35 28.6099 148.449 28.7263 148.536 28.859C148.644 28.9773 148.687 29.0912 148.664 29.2008L148.641 29.3104C148.591 29.5478 148.374 29.6261 147.99 29.5451L144.566 28.8225C144.201 28.7454 144.043 28.5882 144.093 28.3507L144.116 28.2411C144.147 28.095 144.361 27.9399 144.758 27.7756C145.174 27.6153 145.42 27.3525 145.497 26.9872L147.249 18.686C147.322 18.339 147.277 18.0529 147.115 17.8279C146.975 17.5884 146.816 17.3927 146.638 17.2407C146.478 17.0926 146.412 16.9546 146.439 16.8268L146.456 16.7446C146.491 16.5802 146.666 16.474 146.981 16.4261L149.244 15.8734C149.527 15.7995 149.723 15.8218 149.831 15.9401C149.94 16.0584 149.971 16.2271 149.925 16.4463L149.503 18.4462C150.066 17.7639 150.771 17.2735 151.616 16.9749C152.479 16.6801 153.377 16.631 154.308 16.8276C155.733 17.1282 156.814 17.881 157.552 19.086C158.308 20.2948 158.536 21.9264 158.236 23.9807L157.399 29.4414Z" fill="white"/>
<path d="M176.909 34.7766C177.11 34.6396 177.303 34.6411 177.486 34.7811C177.677 34.9039 177.704 35.0779 177.566 35.3032C176.987 36.1309 176.077 36.7351 174.836 37.1157C173.595 37.4964 172.237 37.3695 170.763 36.7351C169.065 36.0048 167.9 34.7924 167.268 33.0979C166.652 31.4107 166.765 29.5897 167.606 27.6349C168.381 25.8345 169.609 24.5849 171.291 23.8862C172.981 23.1704 174.683 23.1813 176.398 23.9189C177.856 24.546 178.843 25.4383 179.361 26.5959C179.904 27.7437 179.965 28.8063 179.545 29.7837C179.227 30.5211 178.607 30.8536 177.683 30.7812L169.551 30.0568C169.363 31.2968 169.502 32.3926 169.966 33.3442C170.455 34.2861 171.222 34.982 172.268 35.432C174.034 36.1918 175.581 35.9733 176.909 34.7766ZM175.658 24.576C174.629 24.1334 173.606 24.2215 172.588 24.8402C171.57 25.4589 170.773 26.437 170.198 27.7745C169.977 28.2889 169.823 28.741 169.736 29.1306L176.357 29.5404C176.843 29.546 177.178 29.3344 177.362 28.9057C177.642 28.2541 177.63 27.4563 177.325 26.5122C177.037 25.5755 176.481 24.9301 175.658 24.576Z" fill="white"/>
<path d="M202.855 55.4508C202.61 55.7325 202.522 56.0893 202.592 56.521C202.676 56.9651 202.681 57.2293 202.607 57.3138L202.552 57.3772C202.418 57.5322 202.245 57.5177 202.033 57.334L200.259 55.7906C200.047 55.6068 200.026 55.39 200.193 55.1402L201.07 54.047C200.264 54.2619 199.451 54.2591 198.628 54.0386C197.832 53.8163 197.11 53.4234 196.462 52.8599C195.124 51.6962 194.405 50.2049 194.304 48.3859C194.204 46.567 194.834 44.8758 196.193 43.3123C197.528 41.777 199.097 40.9268 200.898 40.7615C202.699 40.5962 204.304 41.1261 205.712 42.351C206.952 43.429 207.575 44.7748 207.582 46.3886L211.587 41.7827C211.808 41.5292 211.908 41.2575 211.888 40.9679C211.882 40.6904 211.838 40.4421 211.756 40.2228C211.689 40.0158 211.698 39.863 211.784 39.7644L211.821 39.7222C211.943 39.5813 212.153 39.5535 212.45 39.6386L214.657 40.5565C215.241 40.7672 215.367 41.0627 215.037 41.443L202.855 55.4508ZM197.512 52.5485C198.188 53.1365 199.034 53.4017 200.048 53.3442C201.089 53.2849 202.02 52.7833 202.841 51.8396L202.862 51.858L203.778 50.7621L205.616 48.6493C206.24 47.9309 206.512 46.9924 206.431 45.8337C206.377 44.6731 205.934 43.7315 205.103 43.0087C204.188 42.2125 203.123 41.9295 201.908 42.1597C200.72 42.3881 199.605 43.0878 198.562 44.2587C197.259 45.699 196.498 47.2142 196.278 48.804C196.071 50.3798 196.482 51.628 197.512 52.5485Z" fill="white"/>
<path d="M215.785 70.3481C215.497 70.617 215.316 70.8863 215.241 71.1561C215.181 71.4145 215.186 71.6348 215.255 71.8168C215.34 71.9874 215.398 72.1547 215.43 72.3185C215.462 72.4824 215.419 72.6099 215.301 72.7011C214.99 72.9404 214.47 72.587 213.741 71.6408C213.331 71.1085 213.125 70.6427 213.123 70.2432C213.137 69.8323 213.414 69.3825 213.957 68.8937C212.489 69.1296 211.151 68.464 209.943 66.8969C208.986 65.655 208.512 64.4292 208.522 63.2193C208.532 62.0095 209.062 61 210.112 60.1909C211.135 59.3784 212.226 59.1269 213.384 59.4364C214.553 59.7608 215.599 60.5217 216.522 61.7192C217.434 62.9019 217.839 64.0391 217.738 65.1306L218.302 64.6247C219.56 63.4432 220.362 62.3891 220.708 61.4623C221.054 60.5355 220.897 59.6434 220.236 58.7859C219.837 58.2685 219.373 57.9423 218.845 57.8074C218.317 57.6725 217.846 57.6582 217.433 57.7644C217.032 57.8855 216.629 57.9599 216.227 57.9876C215.824 58.0153 215.531 57.9109 215.349 57.6743C215.144 57.4082 215.052 57.1369 215.075 56.8603C215.109 56.5985 215.251 56.3707 215.503 56.177C216.124 55.6983 216.957 55.6332 218.003 55.9815C219.076 56.3333 220.057 57.0857 220.945 58.2389C221.983 59.5843 222.395 60.9752 222.182 62.4117C221.996 63.8517 221.221 65.2153 219.856 66.5028L215.785 70.3481ZM211.029 66.8378C211.587 67.5622 212.272 67.9769 213.084 68.0819C213.91 68.1756 214.659 67.9398 215.331 67.3746L216.261 66.5167C216.702 65.9881 216.914 65.3767 216.897 64.6825C216.892 64.003 216.645 63.3455 216.154 62.7097C215.573 61.9557 214.886 61.5074 214.093 61.3648C213.299 61.2222 212.562 61.413 211.882 61.9373C211.054 62.5755 210.548 63.355 210.362 64.2759C210.202 65.2003 210.425 66.0542 211.029 66.8378Z" fill="white"/>
<path d="M236.41 84.3952C236.527 84.629 236.485 84.796 236.284 84.8961L236.209 84.9336C236.059 85.0087 235.784 84.9585 235.383 84.783C234.991 84.6242 234.561 84.5573 234.093 84.5821L221.283 85.0653C220.49 85.1067 219.926 85.1274 219.593 85.1273C219.242 85.1355 218.699 85.1144 217.965 85.064C217.238 85.0303 216.683 84.9424 216.299 84.8004C215.899 84.6666 215.481 84.4369 215.047 84.1111C214.605 83.8104 214.267 83.4263 214.034 82.9587C213.592 82.0736 213.467 81.2179 213.659 80.3916C213.835 79.5735 214.19 79.031 214.724 78.7641C215.025 78.614 215.308 78.5765 215.576 78.6518C215.843 78.727 216.051 78.9149 216.201 79.2155C216.343 79.4994 216.347 79.7999 216.214 80.1171C216.063 80.4426 215.859 80.7222 215.6 80.9558C215.349 81.2062 215.161 81.4983 215.036 81.8321C214.902 82.191 214.923 82.5458 215.098 82.8965C215.59 83.8818 217.418 84.2415 220.582 83.9756L228.776 73.8737C229.051 73.5065 229.235 73.1017 229.327 72.6593C229.427 72.2336 229.553 71.9832 229.703 71.9081L229.778 71.8706C229.979 71.7705 230.141 71.8457 230.267 72.0962L231.893 75.3525C232.01 75.5863 231.968 75.7533 231.768 75.8534L231.692 75.8909C231.576 75.9493 231.404 75.9409 231.179 75.8657C230.979 75.7988 230.795 75.7653 230.628 75.7653C230.478 75.7569 230.244 75.9154 229.927 76.2408L223.237 84.0894L233.317 83.53C233.685 83.5134 233.939 83.4175 234.081 83.2423C234.24 83.0587 234.323 82.8709 234.332 82.6789C234.357 82.4785 234.382 82.2782 234.407 82.0779C234.432 81.8775 234.495 81.7523 234.595 81.7023L234.67 81.6647C234.871 81.5646 235.034 81.6398 235.159 81.8903L236.41 84.3952Z" fill="white"/>
<path d="M233.926 119.009C233.544 119.106 233.255 119.254 233.06 119.455C232.883 119.652 232.781 119.847 232.754 120.04C232.746 120.231 232.716 120.405 232.665 120.564C232.614 120.723 232.515 120.814 232.367 120.837C231.98 120.897 231.695 120.337 231.512 119.156C231.409 118.492 231.453 117.985 231.644 117.634C231.854 117.28 232.314 117.02 233.025 116.853C231.625 116.352 230.774 115.124 230.471 113.169C230.231 111.619 230.407 110.317 230.999 109.262C231.591 108.207 232.542 107.578 233.852 107.375C235.14 107.156 236.217 107.462 237.082 108.291C237.95 109.139 238.5 110.31 238.731 111.804C238.96 113.28 238.767 114.471 238.152 115.379L238.89 115.208C240.562 114.779 241.772 114.242 242.522 113.597C243.273 112.952 243.565 112.094 243.399 111.024C243.299 110.379 243.05 109.869 242.652 109.497C242.254 109.124 241.849 108.884 241.436 108.778C241.026 108.691 240.637 108.562 240.271 108.392C239.905 108.222 239.699 107.99 239.653 107.695C239.602 107.363 239.652 107.081 239.805 106.849C239.961 106.636 240.196 106.505 240.51 106.457C241.284 106.337 242.046 106.682 242.795 107.491C243.565 108.316 244.061 109.448 244.284 110.887C244.544 112.566 244.235 113.983 243.356 115.139C242.499 116.311 241.162 117.132 239.346 117.602L233.926 119.009ZM231.451 113.64C231.591 114.544 231.991 115.238 232.651 115.721C233.33 116.202 234.1 116.356 234.962 116.185L236.19 115.881C236.831 115.631 237.311 115.198 237.632 114.581C237.954 113.983 238.054 113.288 237.932 112.495C237.786 111.554 237.4 110.83 236.773 110.322C236.147 109.815 235.409 109.627 234.561 109.758C233.528 109.919 232.708 110.357 232.101 111.075C231.516 111.808 231.299 112.663 231.451 113.64Z" fill="white"/>
<path d="M231.833 132.64C231.851 131.52 232.219 130.639 232.939 129.997C233.677 129.374 234.736 129.073 236.117 129.094L244.488 129.225L244.517 127.377C244.521 127.097 244.663 126.959 244.943 126.963L245.223 126.968C245.503 126.972 245.641 127.114 245.637 127.394L245.621 128.402C245.601 129.671 246.477 130.394 248.248 130.571C248.62 130.614 248.805 130.776 248.8 131.056L248.796 131.336C248.791 131.635 248.602 131.781 248.229 131.775L245.569 131.762L245.509 135.625C245.507 135.737 245.459 135.83 245.364 135.903C245.288 135.995 245.194 136.04 245.082 136.039L244.802 136.034C244.522 136.03 244.384 135.888 244.389 135.608L244.449 131.744L236.05 131.614C235.303 131.602 234.722 131.752 234.307 132.063C233.891 132.373 233.679 132.799 233.671 133.341C233.661 133.938 233.803 134.416 234.096 134.776C234.408 135.154 234.815 135.375 235.318 135.439C235.541 135.535 235.632 135.696 235.591 135.919C235.568 136.161 235.436 136.281 235.193 136.277C234.279 136.263 233.481 135.914 232.801 135.231C232.139 134.568 231.817 133.704 231.833 132.64Z" fill="white"/>
<path d="M228.204 165.689C227.818 165.609 227.494 165.616 227.23 165.71C226.984 165.809 226.807 165.94 226.698 166.102C226.607 166.269 226.504 166.413 226.388 166.533C226.273 166.654 226.144 166.692 226.001 166.647C225.627 166.531 225.616 165.903 225.971 164.762C226.17 164.12 226.432 163.683 226.758 163.452C227.102 163.227 227.629 163.195 228.341 163.357C227.304 162.293 227.078 160.815 227.664 158.926C228.129 157.428 228.859 156.335 229.855 155.647C230.85 154.959 231.98 154.812 233.246 155.205C234.5 155.574 235.333 156.321 235.746 157.446C236.154 158.589 236.133 159.883 235.685 161.327C235.243 162.753 234.546 163.739 233.595 164.284L234.333 164.455C236.023 164.803 237.347 164.852 238.304 164.602C239.261 164.352 239.9 163.71 240.221 162.676C240.415 162.052 240.415 161.485 240.221 160.975C240.027 160.466 239.768 160.073 239.444 159.796C239.114 159.537 238.821 159.251 238.567 158.938C238.312 158.624 238.229 158.325 238.318 158.039C238.417 157.718 238.587 157.488 238.826 157.347C239.06 157.224 239.328 157.209 239.631 157.304C240.38 157.536 240.913 158.18 241.23 159.236C241.559 160.316 241.508 161.551 241.077 162.941C240.573 164.564 239.673 165.701 238.376 166.354C237.091 167.03 235.53 167.181 233.692 166.806L228.204 165.689ZM228.338 159.779C228.067 160.653 228.122 161.452 228.503 162.176C228.902 162.906 229.526 163.383 230.375 163.607L231.611 163.874C232.297 163.93 232.919 163.752 233.478 163.339C234.03 162.944 234.426 162.363 234.663 161.596C234.946 160.687 234.917 159.867 234.577 159.136C234.237 158.405 233.657 157.912 232.837 157.658C231.838 157.348 230.909 157.382 230.049 157.76C229.201 158.161 228.631 158.835 228.338 159.779Z" fill="white"/>
<path d="M214.284 187.144C214.904 186.212 215.69 185.669 216.642 185.517C217.6 185.391 218.654 185.711 219.804 186.475L226.778 191.107L227.801 189.567C227.956 189.334 228.15 189.295 228.383 189.45L228.616 189.605C228.849 189.76 228.889 189.954 228.734 190.187L228.176 191.027C227.474 192.084 227.82 193.165 229.214 194.271C229.505 194.509 229.573 194.744 229.418 194.977L229.263 195.211C229.097 195.459 228.859 195.48 228.548 195.274L226.317 193.826L224.179 197.044C224.117 197.138 224.027 197.19 223.908 197.2C223.794 197.237 223.69 197.224 223.597 197.162L223.364 197.007C223.131 196.852 223.091 196.658 223.246 196.425L225.384 193.206L218.387 188.559C217.765 188.145 217.195 187.957 216.677 187.995C216.16 188.032 215.751 188.276 215.452 188.727C215.121 189.224 214.982 189.703 215.035 190.164C215.093 190.651 215.316 191.057 215.705 191.382C215.84 191.584 215.83 191.768 215.675 191.934C215.525 192.125 215.349 192.154 215.147 192.02C214.385 191.514 213.902 190.79 213.698 189.848C213.5 188.932 213.695 188.031 214.284 187.144Z" fill="white"/>
<path d="M219.271 207.457C219.652 207.021 220.072 206.78 220.532 206.735C220.992 206.691 221.419 206.84 221.813 207.183C222.207 207.527 222.413 207.929 222.432 208.391C222.452 208.879 222.278 209.334 221.91 209.757C221.554 210.165 221.14 210.385 220.665 210.417C220.205 210.462 219.778 210.313 219.384 209.97C218.99 209.626 218.784 209.224 218.766 208.762C218.747 208.3 218.916 207.865 219.271 207.457ZM208.201 195.655C208.434 195.387 208.642 195.333 208.825 195.493L208.909 195.566C209.008 195.652 209.044 195.795 209.018 195.996C209.006 196.208 209.009 196.433 209.025 196.67C209.055 196.919 209.176 197.136 209.387 197.32L215.677 202.802C216.001 203.084 216.393 203.203 216.853 203.158C217.313 203.113 217.578 203.121 217.648 203.183L217.691 203.219C217.789 203.305 217.803 203.503 217.731 203.812L217.117 206.136C217.005 206.435 216.878 206.609 216.736 206.659C216.582 206.722 216.42 206.68 216.251 206.533L207.787 199.156C207.618 199.009 207.433 198.922 207.233 198.896C207.047 198.883 206.876 198.908 206.722 198.971C206.568 199.035 206.411 199.072 206.253 199.083C206.109 199.106 205.995 199.081 205.911 199.007L205.826 198.933C205.643 198.774 205.681 198.547 205.938 198.251L208.201 195.655Z" fill="white"/>
<path d="M184.348 219.335C184.108 219.048 183.77 218.894 183.333 218.873C182.908 218.866 182.655 218.811 182.577 218.706L182.509 218.617C182.375 218.438 182.456 218.236 182.754 218.012L185.437 215.989C185.735 215.764 185.952 215.741 186.087 215.92L186.154 216.01C186.233 216.114 186.217 216.372 186.106 216.782C185.995 217.193 186.059 217.542 186.299 217.829L189.809 222.021C190.985 223.425 192.058 224.275 193.03 224.572C193.986 224.879 194.889 224.713 195.739 224.072C196.454 223.533 196.859 222.783 196.954 221.824C197.034 220.875 196.774 219.972 196.175 219.115C195.89 218.862 195.585 218.519 195.259 218.087L191.888 213.615C191.663 213.317 191.346 213.159 190.935 213.142C190.509 213.135 190.257 213.08 190.179 212.976L190.111 212.886C189.976 212.707 190.051 212.511 190.334 212.298L192.972 210.309C193.285 210.073 193.509 210.044 193.644 210.223L193.711 210.312C193.79 210.417 193.781 210.669 193.685 211.068C193.574 211.479 193.631 211.834 193.856 212.132L197.311 216.716C198.221 217.923 199.209 218.675 200.273 218.971C201.335 219.293 202.26 219.156 203.05 218.561C203.825 217.976 204.254 217.197 204.338 216.222C204.421 215.248 204.158 214.324 203.547 213.452L199.378 207.969C199.154 207.671 198.821 207.524 198.38 207.529C197.925 207.545 197.658 207.501 197.579 207.396L197.512 207.307C197.377 207.128 197.459 206.926 197.757 206.702L200.552 204.595C200.85 204.37 201.066 204.347 201.201 204.526L201.268 204.615C201.347 204.72 201.323 204.983 201.198 205.405C201.072 205.827 201.121 206.187 201.346 206.486L206.453 213.26C206.644 213.514 206.876 213.666 207.149 213.718C207.421 213.769 207.666 213.784 207.882 213.761C208.11 213.753 208.263 213.801 208.342 213.905L208.392 213.972C208.493 214.106 208.466 214.302 208.31 214.56L207.173 216.68C207.043 216.942 206.897 217.075 206.737 217.079C206.561 217.094 206.406 217.012 206.271 216.833L205.075 215.246C205.207 216.104 205.118 216.931 204.806 217.727C204.491 218.55 203.983 219.225 203.283 219.753C202.448 220.382 201.532 220.733 200.536 220.807C199.535 220.906 198.559 220.696 197.605 220.176C197.895 221.149 197.883 222.094 197.567 223.009C197.264 223.94 196.702 224.714 195.882 225.332C194.675 226.242 193.389 226.568 192.026 226.31C190.659 226.078 189.26 225.122 187.83 223.442L184.348 219.335Z" fill="white"/>
<path d="M166.925 229.468C166.885 229.709 166.752 229.847 166.524 229.884C166.303 229.937 166.159 229.837 166.09 229.582C165.89 228.591 166.079 227.516 166.659 226.354C167.238 225.193 168.266 224.296 169.742 223.665C171.441 222.938 173.122 222.93 174.786 223.64C176.433 224.356 177.674 225.693 178.511 227.65C179.282 229.452 179.341 231.203 178.687 232.904C178.041 234.621 176.86 235.847 175.144 236.581C173.685 237.205 172.358 237.306 171.162 236.884C169.956 236.486 169.144 235.797 168.726 234.819C168.41 234.081 168.597 233.402 169.286 232.783L175.416 227.39C174.647 226.399 173.757 225.744 172.748 225.425C171.728 225.13 170.695 225.206 169.648 225.654C167.881 226.41 166.973 227.682 166.925 229.468ZM175.178 235.592C176.208 235.152 176.849 234.35 177.103 233.186C177.356 232.022 177.196 230.77 176.624 229.432C176.403 228.917 176.182 228.494 175.959 228.163L171.099 232.678C170.761 233.025 170.683 233.414 170.867 233.843C171.145 234.495 171.732 235.036 172.626 235.465C173.504 235.902 174.354 235.945 175.178 235.592Z" fill="white"/>
</svg>
