<svg width="284" height="268" viewBox="0 0 284 268" fill="none" xmlns="http://www.w3.org/2000/svg">
<path d="M65.0308 207.865C65.2997 207.606 65.4185 207.259 65.3871 206.823C65.3428 206.373 65.361 206.109 65.4417 206.032L65.5022 205.973C65.6501 205.831 65.8211 205.86 66.0154 206.062L67.6467 207.756C67.841 207.958 67.8434 208.176 67.6542 208.41L66.6846 209.421C67.5058 209.279 68.3163 209.353 69.116 209.646C69.8894 209.937 70.5739 210.393 71.1695 211.011C72.3995 212.289 72.9841 213.838 72.9233 215.658C72.8625 217.479 72.0858 219.108 70.5932 220.545C69.1276 221.956 67.4904 222.665 65.6816 222.67C63.8729 222.676 62.3212 222.006 61.0264 220.661C59.887 219.478 59.3853 218.082 59.5214 216.474L55.1244 220.708C54.8823 220.941 54.7586 221.203 54.7531 221.493C54.7347 221.77 54.7563 222.021 54.8181 222.247C54.8669 222.459 54.8442 222.611 54.7501 222.701L54.7097 222.74C54.5753 222.87 54.3639 222.879 54.0755 222.768L51.9578 221.658C51.3951 221.397 51.2952 221.091 51.6583 220.742L65.0308 207.865ZM70.096 211.229C69.4746 210.583 68.6559 210.244 67.6399 210.212C66.5976 210.179 65.626 210.596 64.7251 211.464L64.7057 211.444L63.6965 212.454L61.6795 214.396C60.9937 215.057 60.6399 215.967 60.6179 217.129C60.5696 218.29 60.9274 219.267 61.6913 220.06C62.5329 220.934 63.5687 221.31 64.7987 221.188C66.0024 221.066 67.1755 220.467 68.3179 219.393C69.7422 218.074 70.6342 216.632 70.9938 215.067C71.34 213.516 71.0407 212.237 70.096 211.229Z" fill="black"/>
<path d="M58.0227 194.115C59.1591 195.958 59.489 197.827 59.0125 199.722C58.5102 201.61 57.417 203.074 55.7327 204.112C54.0802 205.131 52.3629 205.422 50.5807 204.986C48.7827 204.56 47.3792 203.528 46.3702 201.891C45.2828 200.128 44.9792 198.319 45.4595 196.466C45.914 194.607 46.9914 193.153 48.6916 192.105C50.36 191.076 52.0815 190.739 53.8562 191.092C55.6151 191.455 57.0039 192.462 58.0227 194.115ZM57.0599 194.314C56.4819 193.376 55.6095 192.851 54.4428 192.737C53.2662 192.607 52.0186 192.948 50.6997 193.762C49.0155 194.8 47.8462 196.069 47.192 197.569C46.5219 199.079 46.5591 200.437 47.3036 201.645C47.9306 202.662 48.8373 203.243 50.0236 203.389C51.194 203.544 52.4387 203.216 53.7575 202.402C55.3464 201.423 56.49 200.148 57.1882 198.577C57.8864 197.006 57.8436 195.585 57.0599 194.314Z" fill="black"/>
<path d="M45.0076 170.442C45.2837 170.326 45.4824 170.159 45.6038 169.939C45.7252 169.719 45.8233 169.517 45.8979 169.333C45.9487 169.138 46.0359 169.019 46.1593 168.976L46.2652 168.939C46.4945 168.86 46.6733 169.006 46.8016 169.376L47.892 172.525C48.0202 172.895 47.9697 173.12 47.7404 173.199L47.6346 173.236C47.5111 173.279 47.2709 173.184 46.914 172.952C46.551 172.702 46.1962 172.648 45.8495 172.787L40.6495 174.885C39.1041 175.499 38.0353 176.234 37.4431 177.091C36.8272 177.937 36.6842 178.836 37.0141 179.788C37.35 180.758 37.9689 181.433 38.8706 181.812C39.7723 182.191 40.7523 182.198 41.8107 181.831L48.24 179.604C48.4517 179.531 48.6186 179.414 48.7407 179.253C48.839 179.081 48.9021 178.921 48.9299 178.773C48.9577 178.625 49.0062 178.48 49.0754 178.337C49.1208 178.183 49.1964 178.088 49.3023 178.051L49.4081 178.015C49.6374 177.935 49.8162 178.081 49.9445 178.451L51.0898 181.758C51.212 182.111 51.1584 182.327 50.9291 182.407L50.8233 182.443C50.6822 182.492 50.439 182.389 50.0936 182.133C49.7421 181.86 49.39 181.784 49.0372 181.906L41.0204 184.683C40.6852 184.799 40.463 184.984 40.3539 185.239C40.2209 185.483 40.1351 185.72 40.0965 185.951C40.0517 186.164 39.9676 186.292 39.8442 186.335L39.7648 186.362C39.606 186.417 39.4249 186.322 39.2213 186.076L37.5816 184.422C37.3726 184.217 37.2908 184.038 37.3362 183.884C37.3817 183.73 37.5102 183.617 37.7219 183.543L39.6533 182.874C38.7781 182.743 37.9948 182.392 37.3034 181.822C36.6058 181.233 36.1013 180.49 35.7898 179.59C35.3133 178.214 35.4013 176.9 36.0538 175.646C36.7002 174.376 37.9809 173.339 39.8961 172.538L45.0076 170.442Z" fill="black"/>
<path d="M31.8798 162.622C32.024 162.806 32.0271 162.995 31.889 163.188C31.7479 163.363 31.5714 163.383 31.3597 163.248C30.4298 162.552 29.5244 162.173 28.6437 162.111C28.3583 162.102 28.234 162.208 28.2709 162.429C28.3353 162.816 28.2433 163.172 27.9948 163.497C27.7247 163.807 27.3504 164.002 26.8717 164.082C26.3377 164.171 25.8804 164.096 25.4999 163.856C25.1163 163.599 24.8815 163.212 24.7955 162.696C24.7126 162.199 24.8276 161.754 25.1406 161.361C25.4505 160.95 25.9185 160.692 26.5445 160.588C28.441 160.272 30.2194 160.95 31.8798 162.622Z" fill="black"/>
<path d="M43.8109 145.779C43.8476 146.899 43.5222 147.797 42.8346 148.473C42.1278 149.131 41.0841 149.483 39.7035 149.528L31.336 149.802L31.3965 151.649C31.4057 151.929 31.2704 152.074 30.9905 152.083L30.7107 152.092C30.4308 152.101 30.2863 151.966 30.2771 151.686L30.2441 150.678C30.2025 149.41 29.2931 148.73 27.5158 148.639C27.1415 148.614 26.9497 148.461 26.9405 148.181L26.9314 147.902C26.9216 147.603 27.1033 147.448 27.4764 147.435L30.134 147.32L30.0075 143.458C30.0038 143.346 30.0474 143.252 30.1382 143.174C30.2098 143.078 30.3015 143.028 30.4135 143.025L30.6933 143.016C30.9732 143.006 31.1177 143.142 31.1269 143.422L31.2534 147.284L39.6489 147.008C40.3952 146.984 40.9684 146.806 41.3684 146.476C41.7685 146.145 41.9596 145.709 41.9419 145.168C41.9223 144.571 41.7575 144.1 41.4473 143.756C41.118 143.393 40.7005 143.192 40.1949 143.152C39.968 143.067 39.8695 142.911 39.8995 142.686C39.9102 142.443 40.0368 142.317 40.2793 142.309C41.1935 142.279 42.0068 142.589 42.7191 143.238C43.4121 143.869 43.7761 144.716 43.8109 145.779Z" fill="black"/>
<path d="M34.6797 117.828C33.773 116.566 33.5586 115.081 34.0367 113.374C34.5147 111.666 35.5335 110.381 37.093 109.519C38.6396 108.634 40.3835 108.463 42.3249 109.006C44.3022 109.56 45.7874 110.625 46.7804 112.202C47.7605 113.755 48.009 115.395 47.5259 117.121C47.0277 118.9 45.9572 120.093 44.3143 120.7L45.6969 121.058C45.9845 121.138 46.0856 121.331 46 121.637L45.3164 123.975C45.2409 124.245 45.1043 124.352 44.9065 124.296L44.8257 124.274C44.6998 124.238 44.5474 124.021 44.3683 123.622C44.1943 123.205 43.9275 122.946 43.568 122.846L28.4685 118.619C28.145 118.528 27.8592 118.545 27.6111 118.669C27.3631 118.794 27.16 118.931 27.0018 119.08C26.8256 119.225 26.6746 119.28 26.5488 119.244L26.4679 119.222C26.3061 119.176 26.2051 118.983 26.1648 118.643L25.7365 116.226C25.6812 115.939 25.7095 115.733 25.8217 115.61C25.9389 115.468 26.1143 115.43 26.348 115.495L34.6797 117.828ZM46.565 117.23C46.9172 115.972 46.7112 114.838 45.9468 113.829C45.1695 112.798 43.954 112.05 42.3002 111.587C40.4308 111.064 38.7961 111.052 37.3962 111.552C35.9833 112.029 35.0933 112.923 34.7259 114.235C34.4743 115.134 34.5969 116.012 35.0938 116.868C35.5727 117.719 36.2705 118.273 37.1873 118.53L41.0161 119.602L41.386 119.734L41.3936 119.707C42.4721 120.009 43.537 119.91 44.5881 119.41C45.6443 118.891 46.3033 118.165 46.565 117.23Z" fill="black"/>
<path d="M53.236 92.767C53.1135 92.5566 53.1285 92.3648 53.2811 92.1915C53.4171 92.0096 53.5926 91.9952 53.8076 92.1483C54.5924 92.7848 55.1309 93.7352 55.4232 94.9997C55.7155 96.2642 55.4933 97.6096 54.7566 99.0359C53.9085 100.678 52.617 101.755 50.8821 102.266C49.1558 102.761 47.3473 102.52 45.4566 101.544C43.7152 100.644 42.5553 99.3308 41.9769 97.6033C41.3818 95.8673 41.5127 94.1701 42.3693 92.5116C43.0974 91.1019 44.0571 90.1794 45.2484 89.7442C46.4316 89.2839 47.4959 89.2979 48.4412 89.7861C49.1543 90.1545 49.4423 90.797 49.305 91.7135L48.0095 99.7739C49.2332 100.049 50.336 99.9881 51.318 99.5919C52.292 99.1706 53.0402 98.454 53.5628 97.4424C54.4451 95.7341 54.3362 94.1756 53.236 92.767ZM42.9726 93.2959C42.4586 94.291 42.4744 95.3181 43.0198 96.3772C43.5653 97.4363 44.4848 98.3 45.7785 98.9682C46.276 99.2252 46.7161 99.4104 47.0986 99.524L47.9739 92.9483C48.0136 92.4646 47.8262 92.1157 47.4116 91.9015C46.7813 91.576 45.9846 91.5322 45.0214 91.77C44.0667 91.9912 43.3838 92.4999 42.9726 93.2959Z" fill="black"/>
<path d="M71.9074 75.6243C71.1259 76.4266 70.2532 76.8142 69.2892 76.7872C68.3248 76.7338 67.348 76.2252 66.3585 75.2613L60.3616 69.4194L59.0721 70.7431C58.8767 70.9437 58.6787 70.9463 58.4782 70.7509L58.2776 70.5555C58.0771 70.3602 58.0745 70.1622 58.2698 69.9616L58.9732 69.2396C59.8589 68.3304 59.7188 67.2036 58.5527 65.8592C58.3114 65.5719 58.2884 65.328 58.4838 65.1275L58.6791 64.9269C58.8876 64.713 59.1255 64.7362 59.3929 64.9968L61.3178 66.8328L64.0141 64.065C64.0922 63.9848 64.1908 63.9505 64.3097 63.9622C64.4283 63.9474 64.5277 63.9791 64.608 64.0572L64.8085 64.2526C65.0091 64.448 65.0117 64.646 64.8163 64.8465L62.12 67.6143L68.137 73.4758C68.6718 73.9968 69.197 74.2869 69.7126 74.3462C70.2282 74.4054 70.6749 74.2412 71.0526 73.8534C71.4694 73.4256 71.6946 72.9804 71.7282 72.5179C71.7614 72.0291 71.617 71.5888 71.2951 71.197C71.1997 70.9738 71.2436 70.795 71.4267 70.6606C71.6094 70.4998 71.7876 70.5041 71.9614 70.6734C72.6166 71.3117 72.9571 72.1124 72.9829 73.0757C73.0084 74.0126 72.6499 74.8622 71.9074 75.6243Z" fill="black"/>
<path d="M84.7813 64.7885C83.0128 66.0379 81.1681 66.484 79.2474 66.1268C77.3311 65.7436 75.8021 64.744 74.6604 63.128C73.5403 61.5424 73.1422 59.8466 73.4662 58.0407C73.7795 56.2196 74.7213 54.7543 76.2916 53.6449C77.9839 52.4494 79.7698 52.0333 81.6493 52.3968C83.5333 52.7342 85.0515 53.7186 86.2039 55.3499C87.3349 56.9507 87.7796 58.6478 87.5381 60.4411C87.2858 62.2192 86.3669 63.6683 84.7813 64.7885ZM84.5226 63.8399C85.4221 63.2045 85.8922 62.3009 85.933 61.1294C85.9891 59.947 85.5701 58.7231 84.6762 57.4577C83.5345 55.8417 82.1947 54.7541 80.6569 54.1949C79.1084 53.6205 77.7548 53.7426 76.5961 54.5611C75.6203 55.2505 75.0968 56.1917 75.0255 57.3848C74.9435 58.5627 75.3494 59.7843 76.2434 61.0497C77.3205 62.5743 78.6647 63.6359 80.276 64.2345C81.8874 64.8331 83.3029 64.7016 84.5226 63.8399Z" fill="black"/>
<path d="M102.805 54.81C100.811 55.6553 98.9141 55.6994 97.113 54.9425C95.3218 54.1611 94.04 52.8595 93.2676 51.0379C92.5097 49.2506 92.4809 47.509 93.181 45.8131C93.8739 44.1 95.1054 42.8682 96.8755 42.1176C98.7831 41.3087 100.617 41.2814 102.376 42.0358C104.145 42.7656 105.42 44.05 106.2 45.8888C106.965 47.6933 107.039 49.4461 106.422 51.1473C105.798 52.8312 104.592 54.0521 102.805 54.81ZM102.754 53.8281C103.767 53.3982 104.419 52.6151 104.707 51.4789C105.013 50.3354 104.864 49.0505 104.259 47.6241C103.487 45.8024 102.408 44.4551 101.024 43.5821C99.6332 42.6919 98.2845 42.5237 96.9784 43.0776C95.8786 43.5439 95.1671 44.3525 94.844 45.5033C94.5137 46.6369 94.6509 47.9168 95.2558 49.3432C95.9845 51.0618 97.0726 52.3846 98.5201 53.3118C99.9675 54.239 101.379 54.4111 102.754 53.8281Z" fill="black"/>
<path d="M140.036 44.7575C140.097 45.1277 140.295 45.4329 140.629 45.6731C140.962 45.9134 141.134 46.108 141.143 46.257L141.151 46.3688C141.165 46.5923 140.986 46.7162 140.614 46.7403L137.261 46.9577C136.888 46.9819 136.695 46.8822 136.68 46.6587L136.673 46.5469C136.664 46.4165 136.74 46.2807 136.899 46.1394C137.077 45.997 137.244 45.8365 137.401 45.6579C137.556 45.4608 137.616 45.2231 137.579 44.9449L136.93 39.263C136.752 37.6659 136.328 36.4681 135.659 35.6697C134.99 34.8714 134.162 34.5042 133.174 34.5682C132.15 34.6346 131.335 35.0522 130.73 35.821C130.125 36.5897 129.859 37.5329 129.932 38.6506L130.372 45.4403C130.395 45.7942 130.601 46.0895 130.991 46.3261C131.379 46.5441 131.578 46.7276 131.588 46.8767L131.593 46.9605C131.609 47.2026 131.421 47.3364 131.03 47.3618L127.537 47.5883C127.183 47.6112 126.998 47.5016 126.983 47.2594L126.977 47.1756C126.968 47.0266 127.122 46.8201 127.442 46.5562C127.779 46.2725 127.936 45.9537 127.913 45.5997L126.89 29.8129C126.869 29.4962 126.76 29.2508 126.561 29.0766C126.38 28.8826 126.193 28.7357 125.999 28.636C125.823 28.5165 125.732 28.4009 125.724 28.2891L125.719 28.2053C125.706 28.0004 125.826 27.8336 126.079 27.7049L128.305 26.5504C128.54 26.423 128.735 26.3917 128.889 26.4565C129.041 26.5027 129.125 26.6376 129.139 26.8611L129.67 35.9178C130.525 34.3846 131.865 33.5588 133.69 33.4404C135.143 33.3462 136.387 33.78 137.423 34.7417C138.475 35.6835 139.122 37.1567 139.365 39.1613L140.036 44.7575Z" fill="black"/>
<path d="M159.452 46.4787C159.433 46.872 159.49 47.1915 159.624 47.4374C159.761 47.6647 159.918 47.8195 160.094 47.9017C160.274 47.9655 160.432 48.045 160.569 48.1404C160.706 48.2357 160.764 48.3573 160.742 48.5051C160.686 48.893 160.067 49.0012 158.884 48.8295C158.219 48.733 157.747 48.5419 157.468 48.2561C157.192 47.9519 157.078 47.4356 157.127 46.7071C156.237 47.8983 154.813 48.3518 152.855 48.0675C151.304 47.8422 150.11 47.2918 149.275 46.4161C148.441 45.5404 148.118 44.4468 148.309 43.1352C148.478 41.8394 149.086 40.8996 150.133 40.316C151.198 39.735 152.479 39.5531 153.975 39.7703C155.453 39.9848 156.535 40.5192 157.222 41.3734L157.275 40.6172C157.356 38.8936 157.198 37.5786 156.801 36.6722C156.405 35.7658 155.671 35.2349 154.599 35.0793C153.953 34.9855 153.393 35.0739 152.92 35.3448C152.447 35.6156 152.099 35.9329 151.876 36.2967C151.672 36.6632 151.435 36.9966 151.165 37.297C150.895 37.5973 150.612 37.726 150.317 37.6831C149.984 37.6348 149.73 37.5036 149.553 37.2894C149.396 37.0778 149.339 36.815 149.385 36.501C149.498 35.7251 150.051 35.0981 151.044 34.6199C152.059 34.1259 153.287 33.9834 154.728 34.1926C156.409 34.4366 157.673 35.1483 158.521 36.3276C159.389 37.4911 159.782 39.0099 159.698 40.884L159.452 46.4787ZM153.594 47.2693C154.499 47.4007 155.279 47.2216 155.935 46.7321C156.594 46.2241 156.967 45.5333 157.056 44.6597L157.127 43.3967C157.075 42.7102 156.802 42.1235 156.307 41.6367C155.83 41.1525 155.195 40.8527 154.4 40.7374C153.458 40.6007 152.653 40.7572 151.984 41.2071C151.315 41.6571 150.919 42.3069 150.795 43.1566C150.645 44.1911 150.824 45.1036 151.332 45.8941C151.861 46.6688 152.615 47.1272 153.594 47.2693Z" fill="black"/>
<path d="M178.156 39.9282C178.916 40.1865 179.442 40.5821 179.734 41.1151C180.044 41.6541 180.099 42.2152 179.901 42.7984C179.619 43.6291 179.124 43.9243 178.417 43.6841C178.117 43.5819 177.911 43.4037 177.801 43.1492C177.69 42.8947 177.638 42.6406 177.646 42.3868C177.671 42.139 177.61 41.8819 177.464 41.6154C177.318 41.3489 177.06 41.1526 176.688 41.0265C175.981 40.7862 175.305 40.9505 174.658 41.5193C174.035 42.0764 173.546 42.8764 173.192 43.9192L171.138 49.9637C171.017 50.3171 171.101 50.6807 171.388 51.0542C171.681 51.4101 171.807 51.6499 171.764 51.7737L171.728 51.8797C171.656 52.0918 171.444 52.1378 171.09 52.0176L167.803 50.9005C167.449 50.7803 167.309 50.6142 167.381 50.4022L167.417 50.2961C167.459 50.1724 167.678 50.0497 168.074 49.9281C168.494 49.7947 168.764 49.5513 168.884 49.1979L171.623 41.1385C171.749 40.7674 171.68 40.3892 171.417 40.004C171.154 39.6187 171.043 39.3642 171.085 39.2405L171.103 39.1875C171.163 39.0108 171.35 38.8967 171.663 38.8454L173.984 38.6288C174.516 38.5729 174.703 38.7747 174.547 39.2342L173.826 41.3551C175.016 39.8272 176.459 39.3516 178.156 39.9282Z" fill="black"/>
<path d="M194.116 60.796C193.932 61.1207 193.917 61.4877 194.071 61.8971C194.241 62.3156 194.298 62.5736 194.243 62.671L194.202 62.7441C194.1 62.9227 193.928 62.9429 193.684 62.8047L191.639 61.644C191.395 61.5058 191.331 61.2976 191.446 61.0194L192.088 59.7741C191.341 60.1445 190.543 60.3032 189.693 60.2502C188.869 60.1902 188.083 59.9483 187.336 59.5246C185.794 58.6494 184.793 57.3304 184.334 55.5675C183.875 53.8046 184.157 52.0221 185.179 50.22C186.183 48.4504 187.552 47.3059 189.284 46.7867C191.017 46.2675 192.695 46.4684 194.319 47.3897C195.747 48.2003 196.625 49.3959 196.952 50.9762L199.964 45.6674C200.13 45.3751 200.174 45.089 200.097 44.8091C200.036 44.5384 199.944 44.3037 199.82 44.1049C199.713 43.9154 199.692 43.7638 199.756 43.6502L199.784 43.6015C199.876 43.4391 200.076 43.3702 200.384 43.3947L202.73 43.8565C203.344 43.9473 203.526 44.2118 203.278 44.6502L194.116 60.796ZM188.304 59.0111C189.083 59.4533 189.964 59.5456 190.948 59.2879C191.956 59.0232 192.769 58.347 193.386 57.2592L193.411 57.2731L194.091 56.0173L195.473 53.582C195.943 52.754 196.023 51.7802 195.714 50.6605C195.431 49.5338 194.81 48.6987 193.852 48.1551C192.797 47.5563 191.697 47.4902 190.552 47.9567C189.433 48.4162 188.478 49.3233 187.688 50.6778C186.698 52.3478 186.252 53.9838 186.352 55.5857C186.461 57.1714 187.112 58.3132 188.304 59.0111Z" fill="black"/>
<path d="M213.009 80.3915C211.583 78.7613 210.949 76.9725 211.107 75.0251C211.29 73.0796 212.127 71.4556 213.616 70.1533C215.078 68.8756 216.724 68.3048 218.553 68.4408C220.397 68.5646 221.952 69.3502 223.217 70.7977C224.581 72.3577 225.179 74.0911 225.011 75.9981C224.87 77.9068 224.047 79.5185 222.544 80.833C221.068 82.1231 219.426 82.7404 217.617 82.6852C215.822 82.6176 214.286 81.8531 213.009 80.3915ZM213.925 80.0363C214.65 80.8655 215.597 81.2399 216.767 81.1597C217.949 81.0935 219.123 80.5505 220.289 79.5308C221.779 78.2285 222.723 76.7838 223.12 75.1965C223.532 73.597 223.271 72.2632 222.337 71.1951C221.551 70.2956 220.561 69.872 219.367 69.9241C218.187 69.964 217.013 70.4938 215.847 71.5135C214.441 72.7421 213.524 74.1886 213.095 75.8531C212.666 77.5176 212.943 78.912 213.925 80.0363Z" fill="black"/>
<path d="M229.754 101.59C229.501 101.75 229.332 101.948 229.249 102.185C229.165 102.422 229.102 102.637 229.059 102.831C229.041 103.032 228.975 103.164 228.86 103.226L228.762 103.28C228.549 103.396 228.348 103.282 228.161 102.938L226.565 100.013C226.378 99.6684 226.39 99.4383 226.603 99.3221L226.702 99.2685C226.816 99.2059 227.069 99.2596 227.459 99.4294C227.858 99.6157 228.217 99.6112 228.536 99.4161L233.319 96.489C234.741 95.628 235.674 94.7261 236.117 93.7831C236.584 92.8475 236.577 91.9373 236.094 91.0523C235.603 90.151 234.881 89.5878 233.929 89.3628C232.977 89.1378 232.01 89.2934 231.026 89.8296L225.053 93.0873C224.856 93.1946 224.711 93.3376 224.617 93.5163C224.549 93.7026 224.513 93.8709 224.51 94.0214C224.507 94.1718 224.483 94.323 224.438 94.475C224.419 94.6344 224.36 94.7409 224.262 94.7945L224.163 94.8482C223.95 94.9644 223.75 94.8504 223.562 94.5062L221.886 91.4335C221.708 91.1057 221.725 90.8837 221.938 90.7676L222.036 90.7139C222.167 90.6424 222.424 90.7043 222.807 90.8995C223.199 91.111 223.559 91.1274 223.887 90.9487L231.335 86.8866C231.646 86.7168 231.835 86.4971 231.9 86.2274C231.991 85.9653 232.037 85.7172 232.037 85.4833C232.046 85.2658 232.107 85.1258 232.222 85.0632L232.296 85.023C232.443 84.9426 232.638 85.0066 232.879 85.2152L234.77 86.5762C235.009 86.7431 235.12 86.9063 235.1 87.0657C235.081 87.2251 234.973 87.3584 234.776 87.4656L232.982 88.4443C233.867 88.4295 234.697 88.6463 235.473 89.0947C236.258 89.5596 236.879 90.2099 237.335 91.0457C238.032 92.324 238.162 93.635 237.725 94.9787C237.298 96.3388 236.206 97.5723 234.449 98.6791L229.754 101.59Z" fill="black"/>
<path d="M250.037 132.427C250.08 132.685 249.991 132.832 249.77 132.868L249.687 132.882C249.521 132.909 249.273 132.78 248.942 132.493C248.614 132.226 248.223 132.035 247.769 131.92L235.389 128.593C234.619 128.398 234.075 128.251 233.756 128.152C233.419 128.056 232.907 127.875 232.22 127.61C231.536 127.363 231.032 127.115 230.707 126.866C230.364 126.619 230.033 126.277 229.715 125.837C229.381 125.419 229.172 124.952 229.087 124.436C228.927 123.46 229.061 122.606 229.489 121.873C229.898 121.144 230.398 120.731 230.987 120.634C231.319 120.579 231.601 120.627 231.834 120.778C232.067 120.929 232.211 121.17 232.265 121.502C232.317 121.815 232.232 122.103 232.01 122.367C231.77 122.633 231.492 122.84 231.176 122.986C230.862 123.151 230.596 123.375 230.378 123.657C230.144 123.96 230.059 124.305 230.122 124.692C230.301 125.778 231.941 126.663 235.042 127.345L245.857 120.118C246.229 119.849 246.524 119.516 246.743 119.121C246.965 118.744 247.158 118.542 247.324 118.515L247.407 118.501C247.628 118.465 247.761 118.585 247.807 118.861L248.397 122.453C248.44 122.711 248.35 122.858 248.129 122.894L248.047 122.908C247.918 122.929 247.757 122.87 247.564 122.732C247.392 122.609 247.226 122.522 247.067 122.473C246.926 122.42 246.656 122.503 246.256 122.72L237.544 128.238L247.339 130.686C247.695 130.778 247.967 130.762 248.154 130.637C248.36 130.508 248.495 130.354 248.56 130.173C248.643 129.989 248.727 129.805 248.81 129.621C248.893 129.437 248.99 129.336 249.101 129.318L249.183 129.304C249.404 129.268 249.538 129.388 249.583 129.664L250.037 132.427Z" fill="black"/>
<path d="M236.578 148.355C236.678 146.192 237.458 144.462 238.919 143.165C240.398 141.888 242.126 141.295 244.102 141.386C246.042 141.475 247.625 142.201 248.851 143.566C250.097 144.931 250.675 146.574 250.587 148.495C250.492 150.565 249.724 152.23 248.283 153.49C246.86 154.77 245.151 155.364 243.156 155.273C241.198 155.183 239.585 154.492 238.318 153.2C237.069 151.91 236.489 150.295 236.578 148.355ZM237.486 148.734C237.435 149.834 237.86 150.759 238.76 151.511C239.659 152.281 240.882 152.702 242.43 152.773C244.406 152.864 246.087 152.474 247.473 151.603C248.877 150.733 249.611 149.59 249.677 148.173C249.731 146.979 249.31 145.988 248.412 145.199C247.532 144.412 246.319 143.982 244.771 143.911C242.906 143.825 241.243 144.235 239.781 145.139C238.32 146.044 237.555 147.242 237.486 148.734Z" fill="black"/>
<path d="M234.607 174.595C234.156 174.475 233.792 174.465 233.514 174.565C233.236 174.665 233.056 174.8 232.971 174.971C232.905 175.147 232.815 175.306 232.699 175.449C232.584 175.592 232.445 175.642 232.283 175.599C231.904 175.498 231.863 174.889 232.161 173.77C232.525 172.399 233.368 171.918 234.689 172.328L234.865 172.317C233.571 171.084 233.182 169.493 233.701 167.545C234.104 166.03 234.96 164.954 236.269 164.317C237.591 163.703 239.235 163.657 241.202 164.18L245.991 165.454C246.388 165.559 246.767 165.477 247.129 165.206C247.486 164.953 247.718 164.841 247.827 164.87L247.908 164.891C248.124 164.949 248.224 165.12 248.206 165.405L248.007 167.786C247.968 168.297 247.795 168.512 247.488 168.43L240.379 166.511C238.809 166.093 237.52 166.04 236.51 166.351C235.513 166.685 234.878 167.366 234.605 168.394C234.346 169.368 234.509 170.281 235.094 171.132C235.674 172.001 236.577 172.598 237.804 172.924L243.595 174.464C243.973 174.565 244.346 174.471 244.713 174.182C245.074 173.912 245.318 173.793 245.445 173.826L245.526 173.848C245.742 173.906 245.842 174.077 245.824 174.362L245.618 176.77C245.583 177.263 245.413 177.469 245.106 177.387L234.607 174.595Z" fill="black"/>
<path d="M238.681 193.844C238.333 194.567 237.877 195.042 237.313 195.267C236.741 195.51 236.177 195.497 235.622 195.23C234.831 194.85 234.598 194.323 234.921 193.65C235.059 193.364 235.261 193.182 235.527 193.103C235.793 193.024 236.051 193.003 236.302 193.041C236.545 193.096 236.808 193.067 237.09 192.954C237.372 192.841 237.598 192.608 237.768 192.255C238.092 191.582 238.01 190.89 237.524 190.179C237.046 189.494 236.311 188.912 235.318 188.435L229.565 185.667C229.229 185.505 228.858 185.544 228.453 185.784C228.064 186.032 227.811 186.127 227.693 186.071L227.592 186.022C227.39 185.925 227.37 185.708 227.532 185.372L229.038 182.243C229.199 181.907 229.381 181.787 229.583 181.884L229.684 181.933C229.802 181.99 229.897 182.222 229.97 182.63C230.052 183.063 230.261 183.36 230.597 183.522L238.268 187.213C238.621 187.383 239.005 187.36 239.419 187.145C239.833 186.93 240.099 186.851 240.217 186.908L240.267 186.932C240.435 187.013 240.526 187.212 240.539 187.529L240.474 189.859C240.466 190.394 240.243 190.556 239.806 190.345L237.787 189.374C239.16 190.739 239.458 192.229 238.681 193.844Z" fill="black"/>
<path d="M218.642 199.921C219.649 198.531 220.739 197.614 221.912 197.173C223.073 196.746 223.957 196.752 224.561 197.19C225.121 197.595 225.187 198.093 224.76 198.682C224.574 198.939 224.328 199.072 224.022 199.081C223.72 199.116 223.389 199.095 223.029 199.019C222.67 198.943 222.293 198.89 221.901 198.859C221.497 198.843 221.06 198.953 220.59 199.189C220.135 199.435 219.705 199.838 219.3 200.398C218.752 201.154 218.477 201.899 218.475 202.635C218.487 203.382 218.803 203.979 219.423 204.428C220.028 204.866 220.672 204.964 221.355 204.721C222.027 204.493 222.677 204.088 223.306 203.506C223.95 202.936 224.609 202.376 225.283 201.827C225.957 201.278 226.711 200.937 227.545 200.803C228.368 200.685 229.188 200.922 230.005 201.513C230.881 202.148 231.325 203.079 231.334 204.308C231.358 205.547 230.922 206.786 230.024 208.026C229.071 209.341 228.02 210.205 226.869 210.616C225.718 211.027 224.81 210.992 224.145 210.51C223.918 210.346 223.79 210.126 223.759 209.85C223.717 209.59 223.779 209.346 223.943 209.119C224.14 208.847 224.453 208.717 224.883 208.728C225.312 208.74 225.75 208.803 226.197 208.919C226.632 209.05 227.135 209.023 227.707 208.838C228.279 208.653 228.795 208.243 229.255 207.608C229.737 206.943 229.953 206.246 229.904 205.519C229.843 204.807 229.533 204.248 228.974 203.843C228.384 203.416 227.753 203.316 227.081 203.544C226.413 203.798 225.758 204.21 225.114 204.781C224.47 205.352 223.816 205.904 223.153 206.438C222.479 206.987 221.723 207.315 220.884 207.423C220.05 207.556 219.217 207.322 218.386 206.719C217.509 206.084 217.082 205.13 217.106 203.856C217.134 202.609 217.646 201.297 218.642 199.921Z" fill="black"/>
<path d="M205.003 220.961C205.048 221.201 204.969 221.376 204.767 221.488C204.578 221.613 204.408 221.568 204.257 221.351C203.732 220.488 203.546 219.411 203.696 218.122C203.847 216.833 204.51 215.641 205.684 214.547C207.036 213.286 208.614 212.708 210.42 212.811C212.212 212.926 213.834 213.762 215.285 215.319C216.622 216.753 217.271 218.38 217.234 220.201C217.209 222.036 216.514 223.59 215.149 224.863C213.988 225.945 212.774 226.49 211.506 226.499C210.236 226.533 209.239 226.162 208.514 225.383C207.966 224.796 207.912 224.094 208.35 223.278L212.285 216.125C211.226 215.454 210.167 215.14 209.109 215.182C208.05 215.25 207.104 215.673 206.271 216.449C204.865 217.76 204.442 219.264 205.003 220.961ZM214.845 223.921C215.664 223.158 215.995 222.185 215.839 221.004C215.682 219.823 215.107 218.7 214.114 217.635C213.732 217.226 213.38 216.903 213.059 216.667L210.019 222.564C209.819 223.006 209.877 223.397 210.196 223.739C210.679 224.257 211.415 224.567 212.402 224.668C213.375 224.781 214.19 224.532 214.845 223.921Z" fill="black"/>
<path d="M195.832 222.878C196.126 222.679 196.341 222.681 196.476 222.882L196.523 222.952C196.607 223.076 196.585 223.327 196.457 223.706C196.324 224.11 196.357 224.459 196.555 224.754L205.341 237.808C205.518 238.071 205.734 238.241 205.988 238.318C206.237 238.42 206.467 238.479 206.68 238.493C206.892 238.508 207.029 238.562 207.092 238.655L207.123 238.701C207.207 238.825 207.182 239.022 207.048 239.292L205.83 241.394C205.661 241.643 205.488 241.771 205.312 241.777C205.146 241.798 205.006 241.724 204.892 241.553L194.51 226.129C194.312 225.835 193.993 225.679 193.553 225.66C193.108 225.667 192.844 225.609 192.76 225.485L192.713 225.415C192.578 225.214 192.665 225.009 192.975 224.801L195.832 222.878Z" fill="black"/>
<path d="M189.603 250.203C188.715 250.638 187.824 250.772 186.933 250.605C186.024 250.447 185.406 250.032 185.078 249.362C184.963 249.127 184.944 248.876 185.022 248.61C185.107 248.36 185.293 248.166 185.578 248.026C186.014 247.813 186.394 247.783 186.718 247.936C187.034 248.114 187.286 248.354 187.476 248.656C187.648 248.967 187.918 249.199 188.284 249.352C188.633 249.514 189.059 249.472 189.562 249.226C190.392 248.841 190.691 248.071 190.459 246.917C190.21 245.771 189.611 244.631 188.661 243.495L188.329 242.816L184.832 244.526C184.732 244.575 184.627 244.574 184.519 244.523C184.419 244.489 184.349 244.43 184.308 244.346L184.148 244.019C184.041 243.801 184.105 243.634 184.34 243.52L187.837 241.81L183.298 232.528C183.175 232.277 182.98 232.112 182.713 232.035C182.447 231.957 182.193 231.905 181.951 231.878C181.692 231.859 181.534 231.791 181.477 231.673L181.44 231.598C181.341 231.397 181.418 231.234 181.67 231.111L185.216 229.377C185.468 229.254 185.643 229.293 185.741 229.494L185.778 229.57C185.835 229.687 185.817 229.841 185.724 230.033C185.614 230.232 185.524 230.452 185.455 230.694C185.369 230.944 185.388 231.194 185.511 231.446L190.05 240.727L192.138 239.706C192.389 239.583 192.568 239.631 192.675 239.849L192.835 240.176C192.95 240.411 192.881 240.59 192.63 240.713L190.542 241.734L191.612 243.922C192.235 245.196 192.379 246.404 192.044 247.545C191.708 248.685 190.895 249.572 189.603 250.203Z" fill="black"/>
</svg>
