<svg width="296" height="280" viewBox="0 0 296 280" fill="none" xmlns="http://www.w3.org/2000/svg">
<path d="M81.7503 263.277C81.0452 262.894 80.5939 262.415 80.3965 261.84C80.1827 261.256 80.223 260.694 80.5173 260.153C80.9364 259.382 81.4739 259.175 82.1299 259.532C82.4087 259.683 82.581 259.894 82.6469 260.163C82.7128 260.433 82.7206 260.692 82.6702 260.941C82.6035 261.181 82.6195 261.445 82.7182 261.732C82.8169 262.019 83.0384 262.257 83.3828 262.444C84.0387 262.801 84.7336 262.754 85.4675 262.303C86.1761 261.859 86.7934 261.154 87.3196 260.186L90.3694 254.578C90.5477 254.25 90.5272 253.878 90.3076 253.461C90.0792 253.06 89.9962 252.803 90.0586 252.688L90.1121 252.59C90.2191 252.393 90.4366 252.384 90.7646 252.562L93.8148 254.221C94.1427 254.399 94.2532 254.586 94.1462 254.783L94.0927 254.882C94.0303 254.996 93.7935 255.08 93.3824 255.133C92.946 255.193 92.6386 255.387 92.4602 255.715L88.3938 263.193C88.2065 263.537 88.21 263.922 88.4042 264.346C88.5984 264.77 88.6643 265.04 88.6019 265.155L88.5751 265.204C88.486 265.368 88.2827 265.449 87.9654 265.446L85.6411 265.266C85.1077 265.231 84.957 265 85.1888 264.574L86.259 262.606C84.8275 263.91 83.3246 264.133 81.7503 263.277Z" fill="black"/>
<path d="M69.338 243.06C69.1103 243.146 68.9236 243.1 68.7779 242.921C68.621 242.756 68.6358 242.581 68.8224 242.394C69.5798 241.725 70.6063 241.351 71.9017 241.272C73.1971 241.193 74.4872 241.634 75.7721 242.597C77.2512 243.705 78.0996 245.156 78.3173 246.952C78.52 248.736 77.9835 250.48 76.7078 252.183C75.5328 253.752 74.0457 254.679 72.2464 254.964C70.4359 255.264 68.7837 254.854 67.2896 253.735C66.0197 252.784 65.2686 251.685 65.0363 250.438C64.7779 249.195 64.9677 248.148 65.6055 247.296C66.0867 246.654 66.7679 246.476 67.6492 246.763L75.3844 249.373C75.8578 248.212 75.9803 247.114 75.7519 246.08C75.4974 245.05 74.9145 244.193 74.0031 243.511C72.4642 242.358 70.9092 242.208 69.338 243.06ZM68.1629 253.27C69.0593 253.941 70.0749 254.095 71.2096 253.733C72.3443 253.37 73.3481 252.606 74.221 251.44C74.5567 250.992 74.8121 250.589 74.9874 250.23L68.6469 248.28C68.1765 248.161 67.8013 248.288 67.5216 248.661C67.0963 249.229 66.9214 250.008 66.9967 250.997C67.057 251.975 67.4458 252.733 68.1629 253.27Z" fill="black"/>
<path d="M49.4138 219.754C49.6819 219.494 49.8101 219.145 49.7986 218.708C49.7731 218.283 49.8094 218.027 49.9075 217.941L49.9916 217.867C50.1599 217.719 50.3672 217.785 50.6137 218.066L52.832 220.589C53.0785 220.87 53.1176 221.084 52.9493 221.232L52.8652 221.306C52.7671 221.392 52.5089 221.395 52.0908 221.315C51.6727 221.236 51.3296 221.326 51.0615 221.586L47.1454 225.401C45.8331 226.679 45.0656 227.814 44.8431 228.804C44.6082 229.781 44.842 230.669 45.5445 231.468C46.136 232.141 46.9138 232.489 47.8779 232.512C48.8297 232.52 49.7105 232.193 50.5203 231.531C50.7514 231.228 51.0702 230.898 51.4768 230.541L55.6829 226.844C55.9633 226.598 56.0969 226.269 56.0837 225.858C56.0582 225.433 56.0945 225.177 56.1926 225.091L56.2767 225.017C56.445 224.869 56.6462 224.929 56.8803 225.195L59.0616 227.677C59.3204 227.971 59.3657 228.192 59.1975 228.34L59.1133 228.414C59.0152 228.5 58.7632 228.511 58.3574 228.445C57.9393 228.365 57.5901 228.448 57.3097 228.695L52.9984 232.484C51.8628 233.482 51.1873 234.524 50.972 235.607C50.7303 236.69 50.9361 237.602 51.5892 238.345C52.2301 239.075 53.0396 239.444 54.0177 239.454C54.9958 239.464 55.8968 239.132 56.7206 238.458L61.8756 233.889C62.156 233.643 62.2773 233.3 62.2394 232.861C62.1892 232.408 62.2132 232.139 62.3113 232.052L62.3955 231.978C62.5637 231.83 62.7711 231.897 63.0175 232.177L65.3282 234.806C65.5747 235.086 65.6138 235.301 65.4456 235.448L65.3615 235.522C65.2633 235.609 64.999 235.605 64.5686 235.511C64.1382 235.417 63.7827 235.493 63.5023 235.74L57.1301 241.341C56.8917 241.551 56.7571 241.793 56.7261 242.069C56.6951 242.345 56.6992 242.59 56.7383 242.804C56.7634 243.03 56.7268 243.187 56.6287 243.273L56.5656 243.328C56.4394 243.439 56.2418 243.427 55.9729 243.29L53.7739 242.315C53.5032 242.205 53.3598 242.07 53.3436 241.911C53.3151 241.737 53.385 241.576 53.5533 241.428L55.0464 240.116C54.2005 240.312 53.3689 240.285 52.5518 240.034C51.7084 239.782 50.997 239.326 50.4178 238.667C49.7277 237.882 49.3086 236.995 49.1607 236.007C48.9863 235.017 49.1228 234.027 49.5701 233.037C48.621 233.399 47.6781 233.458 46.7416 233.212C45.7911 232.979 44.9769 232.477 44.2991 231.706C43.3009 230.57 42.8792 229.313 43.0342 227.934C43.1628 226.553 44.0111 225.087 45.5793 223.535L49.4138 219.754Z" fill="black"/>
<path d="M37.5128 203.544C37.2698 203.531 37.1176 203.414 37.0561 203.191C36.9785 202.978 37.0626 202.823 37.3085 202.727C38.2709 202.419 39.361 202.489 40.579 202.937C41.797 203.386 42.8008 204.309 43.5904 205.706C44.4994 207.315 44.6926 208.986 44.1701 210.717C43.6384 212.433 42.4462 213.814 40.5934 214.86C38.8869 215.824 37.1526 216.075 35.3906 215.613C33.6123 215.16 32.2641 214.12 31.346 212.495C30.5655 211.114 30.3196 209.805 30.6081 208.57C30.8712 207.328 31.466 206.446 32.3924 205.922C33.0912 205.527 33.7864 205.639 34.478 206.256L40.5114 211.755C41.4117 210.882 41.9652 209.926 42.1717 208.888C42.3528 207.842 42.1633 206.823 41.6032 205.832C40.6575 204.158 39.2941 203.395 37.5128 203.544ZM32.3327 212.42C32.8836 213.395 33.7514 213.945 34.9363 214.069C36.1211 214.192 37.3474 213.896 38.6151 213.18C39.1027 212.905 39.4987 212.638 39.8033 212.38L34.7818 208.046C34.3989 207.747 34.0043 207.713 33.598 207.943C32.9804 208.291 32.5072 208.934 32.1785 209.87C31.8406 210.79 31.892 211.64 32.3327 212.42Z" fill="black"/>
<path d="M28.6387 174.195C28.9889 174.064 29.2466 173.796 29.4118 173.391C29.5592 172.992 29.6952 172.772 29.8198 172.733L29.9265 172.699C30.14 172.631 30.3032 172.775 30.4162 173.131L31.4328 176.334C31.5458 176.689 31.4955 176.901 31.282 176.969L31.1753 177.003C31.0507 177.042 30.8131 176.942 30.4623 176.7C30.1116 176.459 29.7611 176.404 29.4109 176.535L24.2916 178.454C22.5762 179.096 21.4175 179.826 20.8154 180.644C20.2077 181.444 20.0648 182.351 20.3867 183.365C20.6578 184.219 21.2302 184.85 22.104 185.258C22.9721 185.649 23.91 185.704 24.9176 185.423C25.2509 185.239 25.6755 185.065 26.1914 184.901L31.5289 183.207C31.8848 183.094 32.1392 182.846 32.2923 182.465C32.4397 182.066 32.5757 181.846 32.7002 181.807L32.807 181.773C33.0205 181.705 33.1809 181.84 33.2882 182.178L34.2879 185.327C34.4065 185.701 34.359 185.922 34.1455 185.989L34.0388 186.023C33.9142 186.063 33.6794 185.971 33.3343 185.747C32.9836 185.506 32.6303 185.442 32.2745 185.555L26.8035 187.292C25.3624 187.749 24.3254 188.431 23.6925 189.337C23.0362 190.231 22.8577 191.149 23.157 192.092C23.4507 193.017 24.0433 193.681 24.9349 194.084C25.8264 194.486 26.7849 194.544 27.8104 194.258L34.367 192.147C34.7229 192.034 34.9717 191.769 35.1134 191.352C35.2496 190.917 35.3799 190.68 35.5044 190.64L35.6112 190.606C35.8247 190.539 35.9879 190.683 36.1009 191.038L37.1599 194.374C37.2728 194.73 37.2226 194.942 37.0091 195.01L36.9023 195.044C36.7778 195.083 36.5373 194.973 36.1809 194.714C35.8245 194.455 35.4684 194.382 35.1126 194.495L27.0262 197.062C26.7238 197.158 26.5029 197.326 26.3637 197.567C26.2245 197.807 26.1297 198.033 26.0794 198.244C26.0114 198.462 25.9151 198.59 25.7905 198.63L25.7105 198.655C25.5503 198.706 25.3745 198.615 25.1831 198.382L23.5615 196.605C23.3579 196.396 23.2808 196.215 23.3302 196.062C23.374 195.891 23.5026 195.772 23.7161 195.704L25.611 195.103C24.7572 194.943 24.0068 194.584 23.3595 194.026C22.6888 193.455 22.2207 192.752 21.9552 191.916C21.6389 190.919 21.6117 189.939 21.8735 188.974C22.1119 187.998 22.6348 187.146 23.4422 186.42C22.4275 186.37 21.5407 186.044 20.7819 185.443C20.0053 184.848 19.4617 184.06 19.151 183.082C18.6935 181.641 18.8129 180.32 19.509 179.12C20.1817 177.908 21.548 176.906 23.6079 176.115L28.6387 174.195Z" fill="black"/>
<path d="M17.1028 163.11C15.8052 162.256 15.0747 160.945 14.9113 159.18C14.7479 157.414 15.2406 155.85 16.3893 154.487C17.5177 153.108 19.0856 152.326 21.093 152.14C23.1376 151.951 24.9053 152.415 26.3959 153.533C27.8663 154.635 28.6841 156.077 28.8492 157.862C29.0194 159.702 28.4456 161.199 27.1275 162.352L28.5469 162.192C28.8443 162.165 29.0076 162.309 29.0368 162.625L29.2334 165.053C29.2592 165.332 29.1698 165.481 28.9654 165.5L28.8817 165.507C28.7516 165.519 28.5317 165.371 28.2219 165.062C27.9104 164.735 27.5688 164.588 27.1971 164.623L11.5838 166.068C11.2492 166.098 10.9883 166.216 10.801 166.421C10.6137 166.626 10.473 166.826 10.3786 167.023C10.2657 167.221 10.1442 167.325 10.0141 167.338L9.93045 167.345C9.76316 167.361 9.59985 167.217 9.4405 166.913L8.17722 164.808C8.02304 164.56 7.97624 164.358 8.03683 164.202C8.0957 164.028 8.24595 163.93 8.48758 163.908L17.1028 163.11ZM27.9905 158.307C27.8701 157.006 27.2728 156.021 26.1986 155.351C25.1041 154.665 23.7018 154.401 21.9918 154.56C20.0587 154.738 18.5276 155.311 17.3986 156.278C16.2492 157.228 15.7373 158.381 15.8628 159.738C15.9488 160.668 16.3768 161.444 17.1467 162.066C17.8981 162.69 18.7478 162.958 19.6957 162.871L23.6548 162.504L24.0477 162.496L24.0451 162.468C25.1604 162.365 26.1195 161.892 26.9226 161.049C27.724 160.187 28.08 159.273 27.9905 158.307Z" fill="black"/>
<path d="M24.8888 133.142C24.6935 132.996 24.632 132.814 24.7043 132.595C24.7579 132.374 24.9136 132.292 25.1716 132.348C26.1432 132.626 27.0117 133.288 27.7771 134.336C28.5425 135.384 28.8665 136.709 28.749 138.31C28.6139 140.153 27.849 141.65 26.4543 142.802C25.061 143.935 23.3032 144.424 21.1809 144.268C19.2262 144.125 17.6436 143.373 16.4333 142.011C15.2044 140.648 14.6582 139.036 14.7947 137.174C14.9108 135.592 15.4312 134.367 16.3558 133.499C17.2632 132.611 18.2475 132.205 19.3086 132.283C20.1091 132.342 20.6262 132.82 20.8599 133.717L22.8337 141.638C24.067 141.411 25.0575 140.922 25.805 140.172C26.5353 139.402 26.9421 138.449 27.0253 137.313C27.166 135.396 26.4538 134.005 24.8888 133.142ZM15.6576 137.659C15.5757 138.776 15.9935 139.714 16.9111 140.474C17.8286 141.234 19.0134 141.667 20.4655 141.773C21.024 141.814 21.5015 141.812 21.8979 141.766L20.1206 135.375C19.9672 134.915 19.6578 134.667 19.1924 134.633C18.485 134.581 17.735 134.854 16.9426 135.451C16.1515 136.029 15.7232 136.765 15.6576 137.659Z" fill="black"/>
<path d="M18.092 116.221C18.2656 115.437 18.6013 114.871 19.0991 114.523C19.601 114.156 20.1527 114.039 20.7541 114.172C21.6107 114.362 21.9582 114.821 21.7967 115.55C21.7281 115.86 21.5733 116.084 21.3325 116.222C21.0916 116.36 20.8447 116.439 20.5916 116.459C20.3426 116.461 20.0936 116.55 19.8447 116.724C19.5958 116.898 19.4289 117.177 19.3441 117.559C19.1826 118.288 19.4199 118.943 20.0561 119.524C20.678 120.082 21.5266 120.481 22.6019 120.719L28.8348 122.1C29.1993 122.18 29.5515 122.058 29.8914 121.731C30.2131 121.401 30.4378 121.25 30.5654 121.278L30.6747 121.303C30.8934 121.351 30.9624 121.558 30.8816 121.922L30.1307 125.312C30.0499 125.676 29.9002 125.834 29.6815 125.786L29.5722 125.762C29.4446 125.733 29.2987 125.529 29.1344 125.149C28.956 124.746 28.6845 124.504 28.32 124.423L20.0095 122.582C19.6268 122.497 19.2584 122.607 18.9042 122.911C18.5501 123.215 18.3093 123.353 18.1817 123.324L18.127 123.312C17.9448 123.272 17.811 123.099 17.7258 122.793L17.2566 120.51C17.1429 119.987 17.3229 119.779 17.7968 119.884L19.9837 120.368C18.335 119.353 17.7044 117.97 18.092 116.221Z" fill="black"/>
<path d="M40.4956 95.143C40.0129 96.1537 39.3108 96.801 38.3891 97.0848C37.4587 97.3438 36.3702 97.1757 35.1237 96.5804L27.569 92.9725L26.7727 94.6401C26.652 94.8928 26.4653 94.9588 26.2127 94.8381L25.96 94.7174C25.7073 94.5968 25.6413 94.4101 25.762 94.1574L26.1964 93.2478C26.7434 92.1024 26.249 91.0802 24.7131 90.1813C24.3923 89.9867 24.2922 89.7631 24.4129 89.5104L24.5336 89.2577C24.6623 88.9882 24.8951 88.9339 25.232 89.0948L27.6444 90.2158L29.3095 86.7291C29.3578 86.628 29.4401 86.5639 29.5565 86.5367C29.6641 86.4847 29.7685 86.4828 29.8695 86.5311L30.1222 86.6517C30.3749 86.7724 30.4409 86.9591 30.3202 87.2117L28.655 90.6985L36.235 94.3185C36.9088 94.6402 37.4993 94.7464 38.0067 94.637C38.514 94.5277 38.8843 94.2287 39.1176 93.7402C39.375 93.2012 39.4454 92.7073 39.3287 92.2586C39.2032 91.7849 38.9252 91.4143 38.4945 91.1465C38.3326 90.9658 38.3168 90.7824 38.447 90.5963C38.5684 90.3854 38.7386 90.3322 38.9576 90.4368C39.7829 90.831 40.3625 91.4801 40.6961 92.3841C41.0209 93.2633 40.9541 94.1829 40.4956 95.143Z" fill="black"/>
<path d="M48.9735 80.5324C47.7607 82.3262 46.1929 83.3956 44.2699 83.7403C42.3418 84.0592 40.5582 83.6646 38.919 82.5564C37.3107 81.4691 36.339 80.0235 36.0038 78.2196C35.6531 76.4053 36.0162 74.7017 37.093 73.1089C38.2535 71.3924 39.777 70.3719 41.6636 70.0476C43.5453 69.6974 45.3134 70.0816 46.9681 71.2002C48.5919 72.298 49.6077 73.7283 50.0157 75.4912C50.4082 77.2437 50.0608 78.9241 48.9735 80.5324ZM48.3962 79.7365C49.013 78.8241 49.1335 77.8127 48.7575 76.7023C48.392 75.5765 47.5675 74.5797 46.284 73.712C44.6448 72.6038 43.0071 72.0599 41.3709 72.0804C39.7193 72.0904 38.4962 72.6831 37.7016 73.8584C37.0326 74.8481 36.8755 75.9136 37.2305 77.0549C37.5701 78.1858 38.3817 79.185 39.6652 80.0528C41.2116 81.0983 42.8443 81.6162 44.5632 81.6066C46.2822 81.597 47.5598 80.9736 48.3962 79.7365Z" fill="black"/>
<path d="M81.2306 45.2074C81.4748 45.4904 81.8155 45.6391 82.2526 45.6535C82.6783 45.6531 82.9313 45.7045 83.0116 45.8075L83.0804 45.8959C83.2181 46.0726 83.1397 46.2756 82.8452 46.5051L80.1948 48.5703C79.9003 48.7997 79.6842 48.8261 79.5465 48.6494L79.4777 48.5611C79.3974 48.458 79.4094 48.2001 79.5138 47.7875C79.6183 47.3748 79.5484 47.027 79.3042 46.7439L75.7275 42.6091C74.5295 41.2235 73.4425 40.3903 72.4665 40.1095C71.5052 39.8173 70.6049 39.9982 69.7656 40.6521C69.0588 41.2029 68.6657 41.9588 68.5864 42.9198C68.5217 43.8695 68.7959 44.768 69.4089 45.6156C69.6973 45.8642 70.0078 46.202 70.3406 46.629L73.7825 51.0463C74.0119 51.3408 74.3321 51.4936 74.7431 51.5047C75.1687 51.5044 75.4217 51.5557 75.502 51.6588L75.5709 51.7471C75.7086 51.9238 75.6375 52.1212 75.3577 52.3392L72.7515 54.3699C72.4423 54.6108 72.2188 54.6429 72.0812 54.4663L72.0123 54.3779C71.932 54.2748 71.9367 54.0227 72.0264 53.6215C72.1308 53.2089 72.0683 52.8553 71.8388 52.5608L68.3109 48.033C67.3815 46.8403 66.3822 46.1044 65.3129 45.8254C64.2468 45.5202 63.3236 45.6716 62.5432 46.2797C61.7775 46.8763 61.3607 47.6625 61.2928 48.6383C61.2249 49.6141 61.5032 50.5332 62.1277 51.3954L66.3834 56.8116C66.6128 57.1061 66.9478 57.2474 67.3882 57.2355C67.8433 57.2122 68.111 57.2521 68.1913 57.3552L68.2601 57.4435C68.3978 57.6202 68.3194 57.8233 68.0249 58.0527L65.264 60.2039C64.9696 60.4334 64.7535 60.4598 64.6158 60.2831L64.547 60.1947C64.4666 60.0917 64.4861 59.8281 64.6052 59.4039C64.7243 58.9798 64.6692 58.6205 64.4397 58.326L59.2252 51.6337C59.0302 51.3834 58.7959 51.2346 58.5225 51.1873C58.249 51.1401 58.0043 51.1297 57.7882 51.1561C57.5606 51.1677 57.4067 51.122 57.3264 51.0189L57.2748 50.9527C57.1715 50.8202 57.1959 50.6237 57.3479 50.3632L58.4511 48.2258C58.577 47.9621 58.7201 47.8269 58.8805 47.8202C59.0557 47.802 59.2121 47.8813 59.3498 48.058L60.5717 49.6262C60.4252 48.77 60.5015 47.9416 60.8004 47.1407C61.1025 46.3137 61.5996 45.6305 62.2917 45.0913C63.1163 44.4488 64.0262 44.0829 65.0215 43.9937C66.0201 43.8782 67.0001 44.073 67.9616 44.578C67.6562 43.6091 67.6538 42.6644 67.9542 41.7441C68.2432 40.809 68.7926 40.026 69.6024 39.3949C70.7951 38.4656 72.0751 38.1191 73.4423 38.3553C74.8128 38.5653 76.2265 39.4989 77.6834 41.156L81.2306 45.2074Z" fill="black"/>
<path d="M99.0809 35.7401C99.2853 36.0767 99.5119 36.3091 99.7607 36.4375C100.001 36.5491 100.218 36.5894 100.41 36.5585C100.595 36.5107 100.77 36.4879 100.937 36.4901C101.104 36.4922 101.22 36.5604 101.285 36.6949C101.456 37.0477 101.004 37.4844 99.9287 38.005C99.3238 38.2979 98.8257 38.4043 98.4344 38.3242C98.0349 38.2272 97.6513 37.8634 97.2836 37.2325C97.2146 38.7177 96.2897 39.8915 94.5088 40.7538C93.0975 41.4371 91.8008 41.6502 90.6185 41.3931C89.4363 41.1359 88.5564 40.4109 87.9788 39.2181C87.3926 38.0501 87.3692 36.9311 87.9088 35.861C88.4652 34.7828 89.4238 33.9142 90.7847 33.2552C92.1287 32.6044 93.3247 32.4401 94.3725 32.7624L93.9926 32.1063C93.093 30.6339 92.225 29.6335 91.3885 29.1053C90.552 28.577 89.6465 28.5488 88.672 29.0206C88.084 29.3054 87.67 29.6925 87.43 30.182C87.19 30.6715 87.0799 31.1293 87.0995 31.5553C87.1359 31.9732 87.1265 32.3822 87.0714 32.7822C87.0162 33.1823 86.8542 33.4474 86.5854 33.5775C86.283 33.7239 85.9987 33.7579 85.7325 33.6794C85.4831 33.5927 85.2893 33.4066 85.151 33.121C84.8094 32.4153 84.9159 31.586 85.4707 30.633C86.0342 29.655 86.9711 28.8487 88.2816 28.2142C89.8104 27.4739 91.2563 27.3545 92.6191 27.8561C93.9905 28.3327 95.167 29.3704 96.1485 30.9691L99.0809 35.7401ZM94.6728 39.6789C95.496 39.2803 96.0419 38.6945 96.3106 37.9215C96.5711 37.1316 96.4934 36.3501 96.0774 35.5767L95.4275 34.4914C95.0002 33.9517 94.4451 33.619 93.7621 33.4935C93.0959 33.3598 92.4016 33.4678 91.6792 33.8176C90.8223 34.2325 90.2431 34.8137 89.9413 35.5613C89.6396 36.3088 89.6759 37.069 90.0501 37.8418C90.5056 38.7827 91.1652 39.4381 92.0288 39.8081C92.901 40.1531 93.7823 40.11 94.6728 39.6789Z" fill="black"/>
<path d="M119.27 29.6196C119.466 29.7567 119.784 29.8775 120.223 29.982C120.657 30.0687 120.9 30.2016 120.953 30.3807L120.968 30.4344C121.031 30.6493 120.929 30.7962 120.66 30.8751L117.087 31.9237C116.818 32.0026 116.652 31.9345 116.589 31.7196L116.573 31.6658C116.537 31.5405 116.615 31.3425 116.808 31.0719C117.013 30.7781 116.983 30.5437 116.718 30.3686L111.128 26.4355L109.638 28.9154L110.49 31.817C110.59 32.1574 110.846 32.403 111.26 32.5539C111.687 32.6816 111.921 32.8171 111.963 32.9604L111.987 33.041C112.055 33.2738 111.901 33.4454 111.525 33.5558L108.247 34.5177C107.889 34.6229 107.676 34.559 107.608 34.3261L107.584 34.2455C107.542 34.1023 107.648 33.8669 107.902 33.5394C108.151 33.194 108.225 32.8512 108.125 32.5109L103.694 17.4116C103.605 17.1072 103.442 16.8827 103.205 16.7382C102.963 16.5758 102.734 16.4582 102.518 16.3854C102.32 16.3074 102.205 16.2146 102.173 16.1071L102.158 16.0534C102.116 15.9101 102.199 15.73 102.408 15.5131L104.284 13.8535C104.521 13.6672 104.725 13.5978 104.894 13.6453C105.077 13.6697 105.197 13.7804 105.254 13.9774L109.212 27.4646L113.236 21.0896C113.36 20.781 113.361 20.5861 113.24 20.505C113.113 20.4059 112.916 20.2983 112.649 20.1823C112.394 20.043 112.248 19.9108 112.211 19.7854L112.188 19.7048C112.125 19.4898 112.236 19.3403 112.523 19.2562L115.559 18.3653C115.81 18.2917 115.964 18.3534 116.022 18.5504L116.045 18.631C116.088 18.7743 116.04 18.9439 115.903 19.1397C115.761 19.3177 115.548 19.5551 115.266 19.852C114.983 20.1489 114.761 20.4184 114.598 20.6606L112.269 24.5543L119.27 29.6196Z" fill="black"/>
<path d="M137.581 24.3559C137.685 24.136 137.852 24.04 138.081 24.0678C138.308 24.0771 138.419 24.2138 138.414 24.4777C138.333 25.4848 137.853 26.4664 136.976 27.4224C136.098 28.3784 134.862 28.9558 133.269 29.1545C131.436 29.3833 129.817 28.9268 128.415 27.785C127.03 26.6409 126.206 25.013 125.943 22.9014C125.7 20.9564 126.128 19.2571 127.226 17.8034C128.321 16.3311 129.795 15.4794 131.648 15.2483C133.222 15.0519 134.525 15.322 135.558 16.0585C136.607 16.7742 137.197 17.66 137.328 18.7158C137.428 19.5123 137.061 20.113 136.227 20.518L128.846 24.0065C129.311 25.1712 129.985 26.0466 130.867 26.6326C131.765 27.1977 132.779 27.4098 133.909 27.2689C135.817 27.0309 137.041 26.0599 137.581 24.3559ZM131.342 16.1894C130.23 16.3281 129.392 16.9218 128.827 17.9705C128.262 19.0192 128.069 20.2659 128.249 21.7107C128.319 22.2664 128.415 22.7341 128.537 23.1139L134.456 20.1181C134.877 19.8775 135.059 19.5256 135.001 19.0625C134.914 18.3586 134.499 17.6767 133.759 17.0166C133.036 16.3542 132.231 16.0785 131.342 16.1894Z" fill="black"/>
<path d="M172.3 16.7212C172.559 16.7567 172.673 16.8855 172.642 17.1074L172.631 17.1906C172.608 17.3571 172.411 17.5561 172.04 17.7878C171.688 18.022 171.39 18.339 171.146 18.739L164.314 29.5861C163.901 30.2642 163.6 30.741 163.411 31.0165C163.22 31.3106 162.897 31.7466 162.44 32.3245C162.003 32.905 161.617 33.3137 161.283 33.5504C160.946 33.8056 160.521 34.0204 160.007 34.1948C159.509 34.3902 159.001 34.4523 158.484 34.3812C157.503 34.2465 156.727 33.8666 156.153 33.2414C155.577 32.6347 155.33 32.0354 155.411 31.4437C155.457 31.1108 155.586 30.8553 155.799 30.6773C156.012 30.4993 156.284 30.4332 156.617 30.4789C156.932 30.5221 157.182 30.6884 157.368 30.9777C157.552 31.2856 157.668 31.6124 157.714 31.9579C157.779 32.306 157.915 32.6261 158.119 32.918C158.34 33.231 158.645 33.4141 159.033 33.4675C160.124 33.6174 161.453 32.3114 163.019 29.5495L159.305 17.0841C159.158 16.6493 158.927 16.2691 158.614 15.9434C158.319 15.6203 158.183 15.3755 158.206 15.2091L158.218 15.1258C158.248 14.9039 158.402 14.812 158.68 14.8501L162.286 15.3455C162.545 15.3811 162.659 15.5098 162.628 15.7317L162.617 15.815C162.599 15.9444 162.496 16.0809 162.306 16.2245C162.138 16.3521 162.007 16.4848 161.912 16.6226C161.821 16.7419 161.82 17.0244 161.909 17.47L164.612 27.4224L169.84 18.7856C170.033 18.4731 170.098 18.2087 170.034 17.9926C169.972 17.758 169.864 17.583 169.71 17.4677C169.559 17.3339 169.408 17.2 169.256 17.0662C169.105 16.9324 169.037 16.81 169.052 16.699L169.064 16.6158C169.094 16.3939 169.248 16.302 169.526 16.3401L172.3 16.7212Z" fill="black"/>
<path d="M183.718 33.9046C181.654 33.252 180.183 32.0529 179.305 30.3073C178.451 28.5496 178.323 26.7273 178.919 24.8407C179.504 22.9896 180.614 21.6469 182.248 20.8126C183.887 19.9605 185.624 19.8241 187.457 20.4036C189.433 21.028 190.844 22.1985 191.692 23.9151C192.563 25.6194 192.697 27.4238 192.095 29.3283C191.504 31.1972 190.422 32.5778 188.848 33.4702C187.279 34.3449 185.569 34.4896 183.718 33.9046ZM184.317 33.1248C185.367 33.4567 186.371 33.2846 187.329 32.6084C188.304 31.9379 189.026 30.864 189.492 29.3867C190.089 27.5 190.145 25.7753 189.66 24.2125C189.18 22.6319 188.264 21.6278 186.912 21.2002C185.773 20.8402 184.706 20.9926 183.713 21.6575C182.726 22.3047 181.998 23.3669 181.531 24.8442C180.969 26.624 180.936 28.3366 181.434 29.9818C181.932 31.6271 182.893 32.6747 184.317 33.1248Z" fill="black"/>
<path d="M208.818 41.9599C208.603 42.3739 208.513 42.7273 208.55 43.0201C208.587 43.3129 208.68 43.5189 208.828 43.6382C208.985 43.741 209.121 43.8643 209.236 44.008C209.35 44.1518 209.369 44.2983 209.291 44.4473C209.11 44.795 208.506 44.7017 207.48 44.1674C206.221 43.5124 205.936 42.5852 206.623 41.3857L206.651 41.2109C205.166 42.2053 203.529 42.2372 201.74 41.3064C200.349 40.5825 199.486 39.5123 199.15 38.0959C198.839 36.6715 199.153 35.0569 200.093 33.252L202.381 28.8558C202.57 28.4915 202.573 28.1033 202.387 27.6912C202.219 27.2877 202.16 27.0363 202.212 26.937L202.25 26.8625C202.354 26.6638 202.543 26.6042 202.817 26.6838L205.097 27.3971C205.587 27.547 205.759 27.7627 205.613 28.0442L202.188 34.5635C201.438 36.004 201.105 37.251 201.188 38.3043C201.296 39.3497 201.822 40.118 202.766 40.6093C203.66 41.0746 204.586 41.1147 205.544 40.7295C206.519 40.3529 207.299 39.6017 207.885 38.4757L210.652 33.1605C210.833 32.8128 210.822 32.4286 210.62 32.0078C210.435 31.5957 210.373 31.3317 210.433 31.2158L210.472 31.1413C210.575 30.9426 210.764 30.8831 211.038 30.9626L213.343 31.6889C213.817 31.8302 213.98 32.0415 213.834 32.323L208.818 41.9599Z" fill="black"/>
<path d="M228.382 41.5764C229.029 42.0512 229.412 42.5866 229.53 43.1828C229.663 43.7899 229.548 44.3418 229.183 44.8385C228.664 45.5459 228.104 45.6787 227.502 45.2371C227.246 45.0493 227.104 44.8175 227.075 44.5415C227.045 44.2655 227.073 44.0076 227.156 43.7678C227.254 43.539 227.274 43.2756 227.215 42.9776C227.156 42.6795 226.968 42.4145 226.652 42.1826C226.05 41.741 225.355 41.6942 224.567 42.0422C223.805 42.3863 223.099 43.0023 222.447 43.8903L218.671 49.0376C218.45 49.3386 218.421 49.7104 218.582 50.153C218.755 50.5805 218.802 50.847 218.725 50.9523L218.659 51.0426C218.526 51.2232 218.309 51.2031 218.008 50.9823L215.209 48.9285C214.908 48.7077 214.824 48.5069 214.956 48.3263L215.022 48.236C215.1 48.1307 215.346 48.0795 215.76 48.0826C216.201 48.0817 216.531 47.9308 216.752 47.6297L221.787 40.7667C222.019 40.4506 222.067 40.0693 221.932 39.6227C221.797 39.1761 221.768 38.9001 221.845 38.7948L221.878 38.7496C221.988 38.5991 222.201 38.5465 222.515 38.5917L224.794 39.0829C225.317 39.1894 225.436 39.4383 225.149 39.8296L223.824 41.6356C225.418 40.5361 226.937 40.5164 228.382 41.5764Z" fill="black"/>
<path d="M230.906 62.2243C229.682 61.0193 228.941 59.804 228.68 58.5784C228.433 57.366 228.572 56.4937 229.096 55.9617C229.581 55.4696 230.082 55.479 230.601 55.9898C230.827 56.2125 230.921 56.4757 230.884 56.7796C230.873 57.0833 230.803 57.4072 230.674 57.7514C230.544 58.0956 230.435 58.4594 230.346 58.8429C230.269 59.2395 230.312 59.6879 230.475 60.1883C230.65 60.6753 230.984 61.1612 231.476 61.6458C232.141 62.3007 232.837 62.6848 233.564 62.798C234.303 62.8979 234.942 62.6753 235.479 62.13C236.003 61.598 236.196 60.9761 236.059 60.2644C235.935 59.5657 235.632 58.8619 235.152 58.1528C234.684 57.4303 234.23 56.6946 233.788 55.9456C233.347 55.1966 233.123 54.3998 233.117 53.555C233.123 52.7234 233.481 51.9485 234.188 51.2303C234.947 50.4589 235.935 50.1609 237.151 50.3364C238.38 50.4986 239.539 51.1167 240.63 52.1908C241.787 53.3303 242.482 54.4998 242.716 55.6992C242.95 56.8985 242.778 57.7908 242.202 58.376C242.005 58.5755 241.769 58.6697 241.491 58.6587C241.227 58.6607 240.996 58.5634 240.796 58.367C240.557 58.1312 240.475 57.8018 240.551 57.3789C240.627 56.9559 240.756 56.5325 240.937 56.1087C241.132 55.6981 241.181 55.1961 241.084 54.6029C240.987 54.0096 240.659 53.4379 240.101 52.8878C239.516 52.3115 238.86 51.9931 238.133 51.9327C237.42 51.8853 236.821 52.1077 236.337 52.5998C235.826 53.1185 235.632 53.7272 235.757 54.4258C235.907 55.1242 236.216 55.8347 236.684 56.5571C237.151 57.2795 237.599 58.0086 238.027 58.7445C238.468 59.4936 238.679 60.2905 238.659 61.1355C238.666 61.9802 238.309 62.7683 237.588 63.4998C236.829 64.2712 235.821 64.5495 234.565 64.3347C233.336 64.1197 232.116 63.4163 230.906 62.2243Z" fill="black"/>
<path d="M250.03 78.4677C250.272 78.4509 250.438 78.5492 250.526 78.7627C250.629 78.9651 250.564 79.1289 250.332 79.254C249.414 79.6763 248.323 79.7389 247.06 79.4418C245.796 79.1446 244.688 78.3502 243.735 77.0586C242.637 75.5718 242.243 73.9373 242.551 72.155C242.871 70.3878 243.887 68.8724 245.599 67.6086C247.176 66.4447 248.867 65.9854 250.672 66.2307C252.492 66.4649 253.957 67.3329 255.065 68.8348C256.007 70.1114 256.41 71.3801 256.274 72.641C256.163 73.9057 255.68 74.8541 254.824 75.4859C254.178 75.9626 253.474 75.9367 252.713 75.4082L246.057 70.681C245.269 71.6569 244.836 72.6728 244.757 73.7288C244.704 74.7887 245.016 75.7767 245.692 76.6928C246.834 78.2397 248.28 78.8314 250.03 78.4677ZM254.095 69.029C253.43 68.1278 252.502 67.6876 251.311 67.7084C250.119 67.7291 248.938 68.1718 247.767 69.0365C247.316 69.369 246.955 69.6818 246.684 69.9746L252.194 73.6681C252.611 73.9177 253.007 73.904 253.382 73.6268C253.953 73.2056 254.344 72.5104 254.557 71.5414C254.781 70.5873 254.627 69.7499 254.095 69.029Z" fill="black"/>
<path d="M251.052 87.7433C250.88 87.4334 250.9 87.2194 251.112 87.1015L251.185 87.0607C251.316 86.9881 251.564 87.0315 251.93 87.1908C252.322 87.3574 252.673 87.3545 252.983 87.1821L266.735 79.5332C267.012 79.379 267.2 79.1785 267.297 78.9319C267.421 78.6925 267.498 78.4677 267.531 78.2573C267.564 78.047 267.629 77.9146 267.727 77.8602L267.776 77.833C267.906 77.7604 268.1 77.802 268.358 77.9578L270.349 79.3492C270.583 79.5395 270.696 79.7225 270.687 79.8984C270.694 80.0652 270.608 80.1985 270.428 80.2983L254.181 89.3355C253.871 89.5079 253.688 89.8126 253.632 90.2495C253.601 90.6937 253.521 90.9521 253.39 91.0247L253.317 91.0656C253.105 91.1835 252.908 91.0794 252.726 90.7531L251.052 87.7433Z" fill="black"/>
<path d="M277.784 95.7067C278.165 96.6195 278.247 97.5162 278.028 98.3966C277.817 99.2943 277.366 99.8871 276.677 100.175C276.436 100.276 276.185 100.28 275.924 100.187C275.679 100.086 275.496 99.8899 275.374 99.5971C275.187 99.1493 275.179 98.7681 275.351 98.4534C275.547 98.1488 275.802 97.9109 276.115 97.7396C276.435 97.5857 276.682 97.3305 276.857 96.9742C277.039 96.6351 277.022 96.2073 276.806 95.6906C276.471 94.8395 275.72 94.4957 274.554 94.6592C273.396 94.84 272.222 95.3711 271.032 96.2527L270.335 96.5442L271.836 100.135C271.879 100.238 271.872 100.343 271.814 100.447C271.774 100.545 271.711 100.612 271.625 100.648L271.289 100.788C271.065 100.882 270.903 100.808 270.802 100.567L269.301 96.9761L259.768 100.961C259.51 101.068 259.334 101.253 259.241 101.515C259.148 101.776 259.081 102.027 259.04 102.267C259.006 102.524 258.928 102.677 258.808 102.728L258.73 102.76C258.523 102.846 258.366 102.761 258.258 102.502L256.736 98.8596C256.628 98.6012 256.677 98.4288 256.884 98.3425L256.961 98.3101C257.082 98.2597 257.235 98.2868 257.42 98.3914C257.613 98.5132 257.827 98.6157 258.064 98.6987C258.309 98.7989 258.56 98.7951 258.818 98.6871L268.351 94.7027L267.455 92.5585C267.347 92.3001 267.405 92.1242 267.629 92.0306L267.965 91.8902C268.206 91.7894 268.38 91.8682 268.488 92.1265L269.384 94.2708L271.632 93.3314C272.941 92.7843 274.155 92.7119 275.274 93.1141C276.393 93.5164 277.23 94.3806 277.784 95.7067Z" fill="black"/>
<path d="M268.643 134.055C268.261 134.152 267.973 134.3 267.777 134.5C267.599 134.697 267.497 134.892 267.47 135.085C267.461 135.275 267.431 135.449 267.38 135.608C267.328 135.767 267.229 135.858 267.081 135.881C266.694 135.94 266.41 135.379 266.229 134.198C266.128 133.534 266.173 133.027 266.365 132.676C266.575 132.323 267.036 132.064 267.747 131.898C266.348 131.395 265.499 130.165 265.2 128.209C264.962 126.659 265.141 125.357 265.735 124.303C266.329 123.249 267.281 122.622 268.591 122.421C269.88 122.205 270.956 122.513 271.82 123.344C272.686 124.193 273.234 125.365 273.463 126.86C273.688 128.336 273.493 129.527 272.876 130.434L273.615 130.264C275.287 129.838 276.499 129.303 277.25 128.66C278.002 128.016 278.295 127.159 278.132 126.089C278.033 125.443 277.785 124.933 277.388 124.56C276.991 124.186 276.586 123.946 276.173 123.839C275.763 123.751 275.375 123.621 275.009 123.451C274.643 123.28 274.437 123.047 274.392 122.752C274.341 122.42 274.393 122.138 274.546 121.907C274.702 121.694 274.937 121.564 275.251 121.516C276.026 121.397 276.787 121.744 277.534 122.554C278.303 123.381 278.797 124.514 279.017 125.953C279.274 127.632 278.962 129.049 278.081 130.204C277.222 131.374 275.884 132.192 274.067 132.659L268.643 134.055ZM266.178 128.682C266.317 129.587 266.716 130.281 267.375 130.765C268.053 131.247 268.823 131.403 269.685 131.233L270.913 130.932C271.555 130.683 272.036 130.25 272.358 129.635C272.682 129.038 272.783 128.342 272.662 127.549C272.518 126.608 272.133 125.883 271.507 125.374C270.882 124.866 270.145 124.676 269.296 124.806C268.263 124.964 267.442 125.402 266.834 126.118C266.247 126.85 266.029 127.704 266.178 128.682Z" fill="black"/>
<path d="M279.771 163.675C279.557 165.436 278.744 166.86 277.333 167.948C275.938 169.056 274.24 169.489 272.238 169.245C270.2 168.997 268.571 168.168 267.351 166.76C266.147 165.372 265.654 163.789 265.871 162.01C266.078 160.305 266.884 159.012 268.289 158.13L262.314 157.402C262.017 157.366 261.765 157.429 261.557 157.592C261.349 157.755 261.18 157.913 261.048 158.066C260.896 158.235 260.755 158.312 260.625 158.296L260.542 158.286C260.301 158.257 260.203 158.057 260.248 157.686L260.665 154.268C260.712 153.879 260.856 153.699 261.097 153.728L261.18 153.738C261.292 153.752 261.396 153.821 261.494 153.946C261.573 154.068 261.643 154.189 261.703 154.31C261.761 154.448 261.867 154.583 262.02 154.715C262.174 154.846 262.371 154.927 262.612 154.956L277.343 156.751C277.695 156.794 278.023 156.646 278.328 156.307C278.651 155.97 278.886 155.811 279.035 155.829L279.118 155.839C279.34 155.866 279.489 156.034 279.564 156.344L280.293 158.464C280.471 159.012 280.31 159.256 279.809 159.195L277.978 158.944C278.649 159.458 279.141 160.129 279.454 160.957C279.783 161.806 279.889 162.712 279.771 163.675ZM266.801 161.785C266.645 163.063 267.021 164.143 267.929 165.025C268.853 165.927 270.168 166.483 271.873 166.69C273.8 166.925 275.416 166.699 276.722 166.012C278.047 165.327 278.791 164.308 278.956 162.955C279.06 162.103 278.848 161.297 278.32 160.537C277.808 159.797 277.133 159.32 276.294 159.105L271.541 158.526C270.43 158.391 269.392 158.65 268.429 159.304C267.463 159.976 266.92 160.803 266.801 161.785Z" fill="black"/>
<path d="M274.942 186.49C274.721 187.262 274.352 187.807 273.834 188.125C273.311 188.461 272.753 188.544 272.161 188.375C271.317 188.133 270.998 187.654 271.203 186.936C271.29 186.631 271.458 186.417 271.707 186.294C271.956 186.171 272.207 186.107 272.461 186.102C272.71 186.114 272.963 186.041 273.222 185.882C273.481 185.724 273.665 185.456 273.773 185.079C273.978 184.361 273.78 183.693 273.18 183.075C272.593 182.48 271.77 182.031 270.711 181.728L264.573 179.974C264.214 179.871 263.855 179.972 263.496 180.277C263.155 180.588 262.922 180.725 262.796 180.689L262.689 180.658C262.473 180.597 262.417 180.386 262.519 180.027L263.474 176.689C263.576 176.33 263.735 176.181 263.951 176.243L264.058 176.274C264.184 176.31 264.317 176.523 264.458 176.912C264.612 177.325 264.868 177.583 265.227 177.685L273.412 180.025C273.789 180.133 274.163 180.046 274.535 179.764C274.907 179.482 275.155 179.358 275.281 179.394L275.335 179.41C275.514 179.461 275.637 179.642 275.704 179.952L276.034 182.26C276.116 182.788 275.924 182.985 275.457 182.852L273.304 182.236C274.888 183.349 275.434 184.767 274.942 186.49Z" fill="black"/>
<path d="M272.794 199.418C273.016 198.884 273.338 198.523 273.76 198.335C274.182 198.146 274.634 198.152 275.117 198.353C275.6 198.554 275.923 198.87 276.087 199.303C276.261 199.759 276.24 200.246 276.025 200.763C275.817 201.263 275.494 201.603 275.054 201.784C274.632 201.973 274.18 201.966 273.697 201.766C273.215 201.565 272.891 201.248 272.728 200.816C272.564 200.384 272.586 199.918 272.794 199.418ZM258.553 191.735C258.689 191.407 258.869 191.29 259.093 191.383L259.196 191.426C259.317 191.476 259.397 191.601 259.436 191.799C259.492 192.004 259.565 192.216 259.656 192.436C259.764 192.663 259.947 192.83 260.205 192.938L267.909 196.143C268.305 196.308 268.715 196.296 269.137 196.108C269.559 195.919 269.813 195.843 269.899 195.879L269.951 195.901C270.071 195.951 270.147 196.134 270.177 196.45L270.331 198.849C270.32 199.168 270.255 199.373 270.136 199.465C270.009 199.574 269.843 199.586 269.636 199.5L259.27 195.187C259.063 195.101 258.86 195.077 258.662 195.116C258.481 195.162 258.328 195.24 258.201 195.349C258.075 195.458 257.939 195.543 257.792 195.603C257.663 195.671 257.547 195.683 257.443 195.64L257.34 195.597C257.116 195.504 257.079 195.276 257.23 194.914L258.553 191.735Z" fill="black"/>
<path d="M250.245 208.006C251.341 206.138 252.837 204.971 254.735 204.505C256.638 204.064 258.444 204.344 260.15 205.346C261.824 206.328 262.886 207.709 263.335 209.488C263.801 211.276 263.547 213 262.574 214.658C261.525 216.445 260.069 217.56 258.207 218.004C256.351 218.473 254.562 218.202 252.84 217.191C251.15 216.199 250.045 214.836 249.525 213.103C249.022 211.379 249.262 209.68 250.245 208.006ZM250.871 208.763C250.314 209.713 250.258 210.73 250.704 211.814C251.14 212.914 252.027 213.857 253.363 214.641C255.069 215.643 256.738 216.081 258.37 215.957C260.017 215.841 261.2 215.172 261.918 213.949C262.523 212.918 262.612 211.845 262.185 210.729C261.774 209.622 260.901 208.676 259.565 207.892C257.955 206.947 256.292 206.534 254.578 206.653C252.863 206.772 251.627 207.475 250.871 208.763Z" fill="black"/>
<path d="M249.229 233.561C248.722 234.183 248.168 234.538 247.566 234.626C246.953 234.728 246.408 234.584 245.93 234.195C245.25 233.641 245.146 233.074 245.618 232.496C245.818 232.25 246.057 232.119 246.334 232.104C246.611 232.089 246.868 232.13 247.103 232.225C247.326 232.335 247.588 232.368 247.889 232.324C248.19 232.28 248.464 232.106 248.712 231.802C249.183 231.224 249.265 230.532 248.958 229.727C248.653 228.949 248.074 228.212 247.22 227.516L242.271 223.483C241.982 223.247 241.612 223.199 241.162 223.337C240.726 223.488 240.458 223.522 240.356 223.439L240.27 223.369C240.096 223.227 240.127 223.012 240.363 222.722L242.557 220.031C242.792 219.741 242.997 219.668 243.171 219.809L243.258 219.88C243.359 219.962 243.397 220.211 243.373 220.624C243.352 221.064 243.486 221.402 243.775 221.638L250.373 227.016C250.677 227.264 251.055 227.331 251.508 227.219C251.961 227.106 252.238 227.091 252.34 227.174L252.383 227.209C252.528 227.327 252.569 227.542 252.508 227.853L251.902 230.104C251.769 230.622 251.514 230.727 251.138 230.421L249.402 229.005C250.419 230.653 250.361 232.172 249.229 233.561Z" fill="black"/>
<path d="M242.156 244.593C242.571 244.19 243.01 243.985 243.472 243.979C243.934 243.972 244.347 244.156 244.712 244.531C245.076 244.906 245.248 245.324 245.228 245.786C245.208 246.274 244.997 246.713 244.596 247.103C244.207 247.481 243.776 247.666 243.301 247.659C242.838 247.666 242.425 247.482 242.061 247.107C241.697 246.732 241.524 246.314 241.544 245.852C241.564 245.39 241.768 244.971 242.156 244.593ZM232.1 231.916C232.355 231.668 232.566 231.632 232.736 231.806L232.814 231.886C232.905 231.98 232.929 232.126 232.887 232.323C232.857 232.534 232.841 232.758 232.837 232.995C232.847 233.246 232.949 233.472 233.144 233.673L238.96 239.657C239.259 239.965 239.64 240.115 240.102 240.109C240.564 240.102 240.827 240.132 240.892 240.199L240.931 240.239C241.023 240.333 241.02 240.531 240.923 240.833L240.118 243.099C239.982 243.387 239.841 243.55 239.696 243.588C239.536 243.639 239.379 243.583 239.223 243.423L231.398 235.371C231.241 235.21 231.065 235.109 230.867 235.066C230.683 235.037 230.511 235.048 230.352 235.098C230.193 235.149 230.034 235.173 229.876 235.171C229.73 235.182 229.619 235.147 229.541 235.067L229.463 234.987C229.293 234.813 229.349 234.589 229.631 234.316L232.1 231.916Z" fill="black"/>
<path d="M219.745 242.329C220.63 241.643 221.548 241.38 222.499 241.541C223.447 241.727 224.344 242.366 225.19 243.458L230.319 250.075L231.78 248.943C232.001 248.771 232.198 248.796 232.369 249.017L232.541 249.239C232.712 249.46 232.687 249.656 232.466 249.828L231.669 250.445C230.666 251.223 230.649 252.358 231.617 253.851C231.816 254.169 231.805 254.414 231.584 254.586L231.363 254.757C231.127 254.94 230.894 254.884 230.665 254.589L229.014 252.504L225.96 254.871C225.871 254.94 225.769 254.96 225.653 254.932C225.533 254.93 225.439 254.885 225.371 254.797L225.199 254.575C225.027 254.354 225.052 254.158 225.274 253.986L228.328 251.619L223.181 244.98C222.724 244.39 222.244 244.029 221.741 243.899C221.239 243.769 220.774 243.87 220.346 244.202C219.874 244.568 219.589 244.977 219.492 245.431C219.391 245.91 219.473 246.366 219.738 246.799C219.801 247.033 219.733 247.204 219.533 247.312C219.33 247.446 219.154 247.417 219.005 247.225C218.445 246.502 218.219 245.662 218.327 244.704C218.431 243.773 218.904 242.981 219.745 242.329Z" fill="black"/>
<path d="M207.164 266.459C206.937 266.587 206.768 266.554 206.658 266.359L206.616 266.286C206.534 266.14 206.57 265.862 206.724 265.453C206.863 265.053 206.907 264.62 206.859 264.155L205.718 251.386C205.636 250.596 205.587 250.035 205.57 249.701C205.543 249.351 205.537 248.808 205.549 248.072C205.545 247.345 205.605 246.786 205.727 246.396C205.84 245.989 206.048 245.56 206.351 245.11C206.629 244.653 206.995 244.296 207.45 244.038C208.311 243.551 209.159 243.383 209.994 243.532C210.82 243.666 211.38 243.992 211.674 244.512C211.84 244.805 211.892 245.086 211.83 245.357C211.769 245.628 211.592 245.846 211.299 246.011C211.023 246.167 210.723 246.187 210.4 246.069C210.067 245.936 209.777 245.746 209.53 245.499C209.268 245.262 208.966 245.089 208.626 244.981C208.261 244.866 207.908 244.905 207.567 245.098C206.608 245.64 206.342 247.484 206.77 250.63L217.28 258.294C217.661 258.551 218.074 258.714 218.521 258.783C218.951 258.861 219.208 258.973 219.29 259.12L219.332 259.193C219.442 259.388 219.375 259.554 219.132 259.692L215.963 261.484C215.736 261.612 215.567 261.579 215.456 261.384L215.415 261.311C215.351 261.197 215.35 261.026 215.414 260.797C215.47 260.593 215.494 260.408 215.486 260.242C215.487 260.091 215.316 259.866 214.975 259.565L206.793 253.287L207.869 263.326C207.905 263.692 208.014 263.941 208.196 264.074C208.388 264.223 208.579 264.297 208.772 264.295C208.973 264.31 209.174 264.325 209.376 264.34C209.577 264.355 209.705 264.411 209.76 264.508L209.802 264.581C209.912 264.776 209.845 264.943 209.602 265.081L207.164 266.459Z" fill="black"/>
</svg>
