<svg width="219" height="209" viewBox="0 0 219 209" fill="none" xmlns="http://www.w3.org/2000/svg">
<path d="M53.1416 145.479C53.9171 146.73 54.2893 147.893 54.2581 148.966C54.2186 150.026 53.9268 150.724 53.3828 151.062C52.8797 151.373 52.4637 151.264 52.135 150.734C51.9916 150.503 51.9662 150.264 52.0587 150.019C52.1292 149.768 52.2531 149.512 52.4305 149.252C52.6078 148.991 52.7725 148.71 52.9246 148.409C53.0682 148.094 53.1231 147.712 53.0892 147.262C53.0416 146.821 52.8619 146.349 52.55 145.846C52.1285 145.166 51.6265 144.705 51.044 144.464C50.4479 144.231 49.871 144.287 49.3134 144.633C48.7695 144.97 48.4828 145.449 48.4533 146.07C48.4154 146.677 48.525 147.324 48.7819 148.012C49.0252 148.708 49.255 149.413 49.4711 150.126C49.6872 150.839 49.7126 151.548 49.5471 152.253C49.3733 152.945 48.9191 153.518 48.1848 153.973C47.396 154.462 46.513 154.51 45.5359 154.118C44.5452 153.735 43.7042 152.985 43.013 151.87C42.2796 150.687 41.9369 149.572 41.9849 148.526C42.0329 147.48 42.3561 146.771 42.9545 146.4C43.1585 146.274 43.3748 146.243 43.6035 146.309C43.8238 146.36 43.9972 146.488 44.1236 146.692C44.2754 146.937 44.2768 147.228 44.128 147.565C43.9792 147.902 43.7863 148.228 43.5494 148.545C43.3041 148.847 43.1618 149.255 43.1226 149.769C43.0833 150.283 43.2407 150.825 43.5948 151.397C43.9657 151.995 44.4476 152.393 45.0404 152.59C45.6249 152.774 46.1687 152.71 46.6719 152.398C47.2022 152.069 47.4864 151.601 47.5242 150.994C47.5401 150.382 47.4263 149.728 47.183 149.031C46.9397 148.335 46.7142 147.637 46.5065 146.938C46.2903 146.224 46.276 145.518 46.4635 144.818C46.6289 144.113 47.0856 143.529 47.8336 143.065C48.6223 142.577 49.5179 142.549 50.5204 142.981C51.5008 143.409 52.3745 144.242 53.1416 145.479Z" fill="black"/>
<path d="M42.0767 129.137C41.8739 129.088 41.7641 128.965 41.7472 128.768C41.7152 128.576 41.8103 128.459 42.0326 128.416C42.8918 128.308 43.7995 128.538 44.7556 129.106C45.7118 129.675 46.413 130.61 46.8593 131.912C47.3731 133.41 47.2741 134.848 46.5623 136.225C45.8454 137.588 44.6243 138.564 42.8989 139.156C41.3097 139.701 39.8089 139.64 38.3966 138.975C36.9691 138.314 35.9959 137.227 35.4769 135.713C35.0358 134.427 35.0336 133.286 35.4703 132.29C35.8867 131.285 36.5263 130.634 37.389 130.338C38.0398 130.115 38.6082 130.318 39.0943 130.946L43.3165 136.526C44.2121 135.932 44.8283 135.213 45.1651 134.37C45.4816 133.517 45.4816 132.629 45.165 131.706C44.6305 130.147 43.6011 129.291 42.0767 129.137ZM36.3202 135.805C36.6316 136.713 37.2768 137.312 38.2558 137.602C39.2348 137.892 40.3146 137.835 41.4951 137.43C41.9492 137.274 42.3248 137.112 42.6218 136.942L39.0697 132.502C38.7938 132.191 38.4667 132.1 38.0883 132.23C37.5131 132.427 37.0137 132.894 36.5899 133.632C36.161 134.354 36.0711 135.078 36.3202 135.805Z" fill="black"/>
<path d="M44.3702 122.894C44.4147 123.195 44.3341 123.361 44.1284 123.391L44.0572 123.402C43.9306 123.42 43.7444 123.31 43.4988 123.072C43.235 122.82 42.9527 122.716 42.652 122.761L29.3098 124.738C29.0407 124.778 28.8297 124.882 28.6767 125.05C28.5055 125.205 28.3751 125.362 28.2854 125.521C28.1958 125.68 28.1035 125.766 28.0085 125.78L27.961 125.787C27.8344 125.806 27.6914 125.714 27.5319 125.511L26.3553 123.793C26.2251 123.57 26.1903 123.389 26.2506 123.251C26.2952 123.115 26.4045 123.034 26.5786 123.008L42.3424 120.671C42.6431 120.627 42.882 120.438 43.059 120.104C43.2178 119.757 43.3605 119.574 43.4871 119.556L43.5584 119.545C43.7641 119.515 43.8905 119.658 43.9374 119.974L44.3702 122.894Z" fill="black"/>
<path d="M25.8287 108.75C25.8392 107.902 26.0803 107.169 26.552 106.551C27.0239 105.917 27.5799 105.604 28.2198 105.612C28.4438 105.614 28.6428 105.697 28.8168 105.859C28.9748 106.021 29.0521 106.238 29.0487 106.51C29.0436 106.926 28.9198 107.228 28.6775 107.417C28.4193 107.59 28.138 107.691 27.8336 107.719C27.5295 107.731 27.248 107.848 26.9892 108.068C26.7307 108.273 26.5984 108.616 26.5925 109.096C26.5667 109.879 27.0403 110.405 28.013 110.673C28.986 110.925 30.0903 110.907 31.3259 110.618L31.9739 110.626L32.0153 107.291C32.0165 107.195 32.0575 107.115 32.1382 107.052C32.203 106.989 32.2754 106.958 32.3554 106.959L32.6674 106.963C32.8754 106.965 32.978 107.079 32.9752 107.303L32.9338 110.638L41.7891 110.748C42.0291 110.751 42.2302 110.666 42.3924 110.492C42.5545 110.318 42.6927 110.143 42.8069 109.969C42.9213 109.778 43.0344 109.684 43.1464 109.685L43.2184 109.686C43.4104 109.688 43.5049 109.809 43.5019 110.049L43.46 113.433C43.457 113.673 43.3595 113.792 43.1675 113.79L43.0955 113.789C42.9835 113.787 42.8724 113.714 42.7622 113.569C42.6522 113.407 42.5181 113.253 42.3599 113.108C42.2019 112.946 42.0029 112.863 41.7629 112.86L32.9076 112.75L32.8829 114.742C32.8799 114.982 32.7745 115.101 32.5665 115.098L32.2545 115.094C32.0305 115.092 31.92 114.97 31.923 114.73L31.9477 112.738L29.8599 112.712C28.6439 112.697 27.6643 112.341 26.9209 111.644C26.1775 110.947 25.8134 109.982 25.8287 108.75Z" fill="black"/>
<path d="M48.0811 89.1025C47.4877 90.6742 46.4458 91.8029 44.9554 92.4886C43.4558 93.1537 41.8977 93.1811 40.2811 92.5707C38.6346 91.9489 37.5002 90.922 36.878 89.4899C36.2614 88.0428 36.2424 86.5305 36.8209 84.9532C37.2468 83.78 37.9305 82.8752 38.872 82.2388C39.8043 81.5817 40.5997 81.3775 41.2583 81.6262C41.7971 81.8297 41.946 82.228 41.705 82.8211C41.5826 83.0998 41.3312 83.3127 40.9507 83.4598C40.5609 83.5863 40.1571 83.6818 39.7394 83.7464C39.3123 83.7903 38.87 83.9654 38.4124 84.2714C37.9604 84.5625 37.6242 85 37.4037 85.5838C37.0533 86.5118 37.1468 87.4193 37.6841 88.3063C38.2064 89.1877 39.0289 89.8403 40.1515 90.2642C41.7082 90.852 43.1079 90.9273 44.3504 90.49C45.578 90.0471 46.4292 89.197 46.904 87.9397C47.181 87.2062 47.2238 86.5041 47.0324 85.8332C46.8317 85.1418 46.4782 84.538 45.9719 84.0218C45.8262 83.8642 45.8126 83.6965 45.9309 83.5189C46.0493 83.3413 46.2048 83.3145 46.3974 83.4385C47.2427 83.9629 47.8476 84.7386 48.2123 85.7657C48.5827 86.7778 48.539 87.89 48.0811 89.1025Z" fill="black"/>
<path d="M55.6259 71.3737C55.9217 71.5362 56.1895 71.612 56.4292 71.6009C56.6557 71.5809 56.8338 71.5182 56.9635 71.4129C57.08 71.2986 57.2007 71.2066 57.3256 71.1367C57.4505 71.0669 57.5659 71.068 57.6717 71.14C57.9495 71.329 57.8004 71.8468 57.2244 72.6935C56.9004 73.1697 56.5759 73.4617 56.2509 73.5696C55.9127 73.6685 55.4722 73.5623 54.9292 73.251C55.5132 74.3837 55.3282 75.6511 54.3742 77.0534C53.6182 78.1646 52.7461 78.8775 51.758 79.1922C50.7698 79.5068 49.8061 79.3447 48.8669 78.7056C47.9319 78.0889 47.4359 77.2676 47.379 76.242C47.3311 75.2031 47.6717 74.1479 48.4007 73.0763C49.1207 72.0181 49.9388 71.3845 50.8549 71.1757L50.2922 70.8508C48.9941 70.1419 47.9215 69.7701 47.0742 69.7355C46.2269 69.7009 45.5422 70.0672 45.0202 70.8345C44.7052 71.2975 44.5633 71.7621 44.5944 72.2284C44.6255 72.6947 44.7394 73.0818 44.9362 73.3899C45.142 73.6847 45.31 73.9925 45.4401 74.3132C45.5702 74.634 45.5633 74.9002 45.4193 75.1119C45.2573 75.35 45.0606 75.4968 44.8293 75.5523C44.6071 75.5946 44.3835 75.5392 44.1586 75.3862C43.603 75.0082 43.3274 74.3466 43.3319 73.4014C43.3321 72.434 43.6832 71.4343 44.3852 70.4025C45.2042 69.1987 46.2272 68.4916 47.454 68.2813C48.6766 68.0487 49.9943 68.3163 51.4072 69.084L55.6259 71.3737ZM54.0363 76.1848C54.4773 75.5366 54.6322 74.868 54.5011 74.1789C54.3568 73.4808 53.9648 72.9335 53.3251 72.5369L52.3781 72.0088C51.8299 71.7906 51.2753 71.7809 50.7142 71.9798C50.1622 72.1654 49.6927 72.5427 49.3057 73.1115C48.8466 73.7862 48.665 74.4656 48.7606 75.15C48.8562 75.8343 49.2083 76.3835 49.8168 76.7975C50.5576 77.3015 51.3279 77.5062 52.1275 77.4117C52.923 77.2949 53.5592 76.886 54.0363 76.1848Z" fill="black"/>
<path d="M56.946 55.9096C57.4444 55.4353 57.954 55.1933 58.4748 55.1835C59.0072 55.1628 59.4554 55.3436 59.8194 55.7261C60.3379 56.2708 60.3653 56.7638 59.9017 57.205C59.7046 57.3925 59.4875 57.4777 59.2503 57.4605C59.013 57.4433 58.7995 57.3814 58.6098 57.2749C58.4316 57.1573 58.2123 57.1009 57.9519 57.1058C57.6915 57.1107 57.4396 57.2289 57.1962 57.4606C56.7326 57.9018 56.5881 58.481 56.7627 59.1983C56.9379 59.893 57.3509 60.5823 58.0017 61.2661L61.774 65.23C61.9946 65.4618 62.3038 65.543 62.7017 65.4736C63.0885 65.3927 63.3205 65.3927 63.3977 65.4739L63.4638 65.5434C63.5962 65.6825 63.5465 65.8624 63.3147 66.083L61.1589 68.1346C60.9271 68.3552 60.745 68.3959 60.6126 68.2569L60.5465 68.1873C60.4693 68.1062 60.4633 67.891 60.5285 67.5418C60.5943 67.17 60.5169 66.8681 60.2963 66.6363L55.2665 61.3512C55.0348 61.1078 54.7204 61.0095 54.3231 61.0562C53.9259 61.103 53.6887 61.0858 53.6114 61.0046L53.5783 60.9699C53.468 60.854 53.4557 60.6669 53.5413 60.4088L54.3001 58.5602C54.469 58.1343 54.6969 58.0721 54.9837 58.3734L56.3073 59.7643C55.6204 58.2534 55.8333 56.9685 56.946 55.9096Z" fill="black"/>
<path d="M76.1183 52.6272C76.121 52.4186 76.2166 52.2842 76.4051 52.2241C76.5853 52.1503 76.7206 52.2171 76.8112 52.4244C77.1075 53.2382 77.0844 54.1743 76.7419 55.2327C76.3993 56.2911 75.6429 57.1821 74.4725 57.9058C73.1253 58.7389 71.7013 58.9611 70.2005 58.5723C68.7133 58.1751 67.49 57.2009 66.5307 55.6495C65.6471 54.2206 65.3735 52.7438 65.7098 51.219C66.0377 49.6806 66.882 48.4906 68.2429 47.6491C69.3996 46.9338 70.5117 46.6788 71.5792 46.884C72.6519 47.0672 73.4281 47.5467 73.9077 48.3223C74.2696 48.9075 74.198 49.5067 73.6931 50.1199L69.1875 55.4739C69.9658 56.2154 70.8032 56.657 71.6997 56.7986C72.6015 56.9183 73.4674 56.7214 74.2975 56.2081C75.6991 55.3414 76.3061 54.1477 76.1183 52.6272ZM68.3406 48.4916C67.5241 48.9965 67.0829 49.7585 67.017 50.7775C66.951 51.7965 67.2463 52.8367 67.9027 53.8981C68.1551 54.3064 68.3969 54.6366 68.6281 54.8887L72.1702 50.4408C72.4127 50.1028 72.4287 49.7637 72.2183 49.4235C71.8986 48.9063 71.3322 48.5229 70.5193 48.2731C69.72 48.0149 68.9938 48.0877 68.3406 48.4916Z" fill="black"/>
<path d="M89.6015 36.8503C89.1184 36.9628 88.7058 36.9193 88.3636 36.7197C88.0214 36.5201 87.7995 36.2022 87.6979 35.7659C87.5962 35.3295 87.6548 34.9463 87.8736 34.616C88.1044 34.2666 88.4535 34.0374 88.921 33.9285C89.3729 33.8233 89.7718 33.8782 90.1176 34.0934C90.4598 34.293 90.6817 34.611 90.7833 35.0473C90.8849 35.4836 90.8263 35.8669 90.6075 36.1971C90.3887 36.5274 90.0534 36.7451 89.6015 36.8503ZM91.3759 50.6064C91.0799 50.6753 90.9082 50.6085 90.8611 50.406L90.8393 50.3125C90.8139 50.2034 90.8604 50.0858 90.9789 49.9596C91.0937 49.8179 91.2049 49.6605 91.3125 49.4876C91.4165 49.2991 91.4412 49.088 91.3868 48.8543L89.7645 41.8887C89.6811 41.5303 89.4682 41.2513 89.1261 41.0517C88.7839 40.8521 88.6037 40.7133 88.5855 40.6354L88.5747 40.5887C88.5493 40.4796 88.6389 40.3355 88.8436 40.1564L90.4366 38.849C90.6641 38.6974 90.8397 38.6401 90.9633 38.6771C91.1025 38.7103 91.1939 38.8205 91.2374 39.0075L93.4204 48.3806C93.4639 48.5676 93.5488 48.7204 93.6749 48.8388C93.7975 48.9417 93.9283 49.0098 94.0675 49.0431C94.2067 49.0764 94.3339 49.1289 94.4492 49.2007C94.5608 49.2568 94.6275 49.3316 94.6493 49.4251L94.6711 49.5186C94.7183 49.7212 94.5782 49.8606 94.251 49.9368L91.3759 50.6064Z" fill="black"/>
<path d="M104.24 48.9397C102.77 49.0069 101.573 48.7652 100.651 48.2147C99.7453 47.6635 99.2776 47.0682 99.2484 46.4288C99.2214 45.8374 99.5196 45.5275 100.143 45.4991C100.415 45.4866 100.635 45.5807 100.805 45.7812C100.989 45.9649 101.152 46.1978 101.293 46.4796C101.434 46.7615 101.599 47.0423 101.788 47.3219C101.993 47.6009 102.3 47.8351 102.709 48.0246C103.117 48.1982 103.617 48.2715 104.208 48.2445C105.008 48.208 105.655 47.9942 106.149 47.6033C106.643 47.1963 106.875 46.6652 106.845 46.0099C106.816 45.3705 106.538 44.8867 106.01 44.5584C105.499 44.2294 104.88 44.0094 104.154 43.8984C103.428 43.7714 102.7 43.6285 101.972 43.4695C101.244 43.3105 100.613 42.987 100.078 42.4989C99.5592 42.0101 99.2801 41.3341 99.2407 40.471C99.1983 39.5439 99.5865 38.7494 100.405 38.0874C101.223 37.4094 102.287 37.0404 103.598 36.9806C104.989 36.9171 106.129 37.1613 107.019 37.7133C107.909 38.2653 108.37 38.8929 108.402 39.5962C108.413 39.8359 108.334 40.0397 108.166 40.2076C108.013 40.3747 107.817 40.4637 107.578 40.4747C107.29 40.4878 107.035 40.3473 106.813 40.0531C106.592 39.7589 106.401 39.4313 106.24 39.0702C106.095 38.7085 105.808 38.3852 105.379 38.1005C104.949 37.8158 104.399 37.6888 103.728 37.7194C103.025 37.7515 102.442 37.9783 101.981 38.3998C101.536 38.8206 101.327 39.3266 101.354 39.918C101.382 40.5414 101.652 41.0176 102.164 41.3466C102.69 41.6589 103.317 41.8785 104.044 42.0055C104.77 42.1325 105.49 42.2758 106.202 42.4355C106.93 42.5945 107.553 42.9263 108.073 43.4312C108.608 43.9193 108.895 44.6029 108.935 45.482C108.978 46.409 108.566 47.2046 107.699 47.8689C106.848 48.5164 105.695 48.8733 104.24 48.9397Z" fill="black"/>
<path d="M126.772 52.0486C125.854 51.7676 125.216 51.2544 124.859 50.5091C124.521 49.7532 124.526 48.8092 124.872 47.677L126.973 40.8154L125.458 40.3517C125.229 40.2814 125.149 40.1316 125.22 39.9021L125.29 39.6726C125.36 39.4431 125.51 39.3635 125.74 39.4338L126.566 39.6867C127.606 40.0052 128.41 39.4565 128.977 38.0406C129.102 37.7439 129.278 37.6308 129.508 37.701L129.737 37.7713C129.982 37.8462 130.058 38.0367 129.964 38.3427L129.319 40.5298L132.486 41.4994C132.578 41.5275 132.643 41.5892 132.681 41.6844C132.739 41.769 132.753 41.8572 132.725 41.949L132.655 42.1785C132.585 42.408 132.435 42.4876 132.205 42.4173L129.038 41.4478L126.931 48.3323C126.743 48.9443 126.728 49.4584 126.885 49.8746C127.042 50.2908 127.343 50.5668 127.786 50.7026C128.276 50.8525 128.703 50.8496 129.069 50.6938C129.455 50.5274 129.734 50.2447 129.906 49.8456C130.039 49.6855 130.192 49.6488 130.366 49.7356C130.561 49.8118 130.627 49.9493 130.566 50.1482C130.337 50.8979 129.86 51.4714 129.136 51.8689C128.432 52.2557 127.644 52.3156 126.772 52.0486Z" fill="black"/>
<path d="M144.002 58.1006C143.873 58.3955 143.873 58.7071 144.001 59.0354C144.129 59.3636 144.162 59.5836 144.1 59.6953L144.053 59.7791C143.959 59.9467 143.773 59.9524 143.493 59.7963L140.98 58.3907C140.7 58.2345 140.608 58.0727 140.701 57.9051L140.748 57.8213C140.803 57.7235 140.92 57.6609 141.101 57.6334C141.295 57.6138 141.49 57.5762 141.686 57.5208C141.89 57.4514 142.043 57.3081 142.146 57.0908L144.326 52.7003C144.942 51.4681 145.195 50.4089 145.086 49.5228C144.976 48.6367 144.551 47.9867 143.811 47.5729C143.043 47.1434 142.262 47.0643 141.469 47.3357C140.676 47.607 140.045 48.1616 139.576 48.9996L136.73 54.0899C136.582 54.3552 136.593 54.6637 136.763 55.0154C136.94 55.3531 136.998 55.5778 136.936 55.6896L136.9 55.7524C136.799 55.934 136.602 55.9427 136.308 55.7788L133.69 54.3147C133.424 54.1663 133.343 54.0014 133.444 53.8198L133.479 53.757C133.542 53.6452 133.749 53.5689 134.102 53.5279C134.477 53.4807 134.738 53.3245 134.887 53.0592L141.505 41.2236C141.637 40.9862 141.673 40.7587 141.611 40.5409C141.571 40.317 141.505 40.1241 141.412 39.9623C141.341 39.7942 141.329 39.6683 141.376 39.5845L141.411 39.5217C141.497 39.3681 141.661 39.304 141.904 39.3296L144.043 39.5359C144.271 39.5536 144.426 39.6216 144.506 39.74C144.595 39.8443 144.592 39.9803 144.498 40.1479L140.661 46.9115C141.991 46.2065 143.339 46.2366 144.708 47.0019C145.797 47.6109 146.49 48.5025 146.787 49.6767C147.105 50.8446 146.885 52.2062 146.125 53.7613L144.002 58.1006Z" fill="black"/>
<path d="M156.165 66.4912C156.367 66.438 156.522 66.4941 156.63 66.6597C156.749 66.8136 156.721 66.9619 156.546 67.1046C155.841 67.6078 154.933 67.8359 153.821 67.7889C152.71 67.7419 151.649 67.2514 150.638 66.3173C149.475 65.2419 148.88 63.9292 148.854 62.3791C148.838 60.8399 149.45 59.4006 150.688 58.0613C151.829 56.8277 153.179 56.169 154.738 56.0852C156.308 55.9897 157.68 56.485 158.855 57.5712C159.854 58.4944 160.397 59.4978 160.485 60.5813C160.595 61.6639 160.341 62.5401 159.722 63.2097C159.255 63.7149 158.658 63.8062 157.932 63.4837L151.568 60.5743C151.062 61.5226 150.86 62.4476 150.964 63.3494C151.089 64.2502 151.511 65.0319 152.227 65.6945C153.437 66.8132 154.75 67.0788 156.165 66.4912ZM158.069 57.8907C157.365 57.239 156.512 57.0177 155.513 57.2267C154.513 57.4357 153.59 57.9984 152.743 58.9148C152.417 59.2672 152.163 59.5886 151.982 59.8787L157.216 62.1021C157.606 62.2453 157.937 62.1701 158.209 61.8764C158.622 61.4299 158.84 60.7817 158.863 59.9316C158.898 59.0924 158.633 58.4121 158.069 57.8907Z" fill="black"/>
<path d="M172.469 78.1309C173.766 78.4324 174.743 79.2687 175.399 80.6397C176.055 82.0108 176.124 83.4146 175.606 84.8513C175.108 86.2955 174.08 87.3906 172.522 88.1366C170.934 88.8964 169.375 89.0485 167.844 88.5927C166.335 88.1444 165.249 87.2275 164.585 85.8421C163.902 84.4133 163.918 83.0395 164.635 81.7208L163.541 82.2709C163.31 82.3814 163.136 82.314 163.019 82.0686L162.139 80.1749C162.035 79.9584 162.063 79.8122 162.222 79.7362L162.287 79.7051C162.388 79.6567 162.609 79.7106 162.949 79.8668C163.297 80.0374 163.615 80.0536 163.904 79.9155L176.027 74.1131C176.287 73.9888 176.461 73.8164 176.551 73.5961C176.641 73.3758 176.694 73.1728 176.712 72.987C176.744 72.7944 176.81 72.6738 176.911 72.6255L176.976 72.5944C177.106 72.5322 177.28 72.5996 177.499 72.7966L179.14 74.1131C179.338 74.2668 179.435 74.4152 179.433 74.5583C179.437 74.7158 179.346 74.8395 179.158 74.9293L172.469 78.1309ZM165.143 85.2291C165.627 86.2393 166.4 86.8538 167.463 87.0725C168.546 87.2987 169.752 87.0941 171.08 86.4586C172.581 85.7402 173.642 84.8246 174.262 83.7117C174.904 82.6064 174.972 81.5269 174.468 80.4734C174.123 79.7518 173.548 79.2552 172.744 78.9837C171.954 78.7053 171.192 78.7423 170.456 79.0945L167.382 80.5659L167.068 80.6893L167.078 80.7109C166.213 81.1254 165.582 81.7908 165.187 82.7072C164.799 83.638 164.784 84.4786 165.143 85.2291Z" fill="black"/>
<path d="M173.532 103.191C173.728 103.264 173.822 103.399 173.815 103.597C173.824 103.791 173.715 103.896 173.49 103.912C172.624 103.916 171.75 103.579 170.869 102.9C169.988 102.22 169.404 101.208 169.117 99.8622C168.787 98.313 169.058 96.8974 169.93 95.6155C170.805 94.3492 172.135 93.5259 173.919 93.1456C175.562 92.7953 177.044 93.0354 178.366 93.866C179.704 94.6933 180.54 95.8893 180.874 97.4541C181.157 98.7843 181.023 99.9172 180.469 100.853C179.935 101.801 179.222 102.37 178.33 102.561C177.658 102.704 177.118 102.435 176.71 101.753L173.188 95.7061C172.228 96.1889 171.53 96.8285 171.094 97.6248C170.678 98.4334 170.571 99.315 170.775 100.27C171.118 101.881 172.038 102.855 173.532 103.191ZM180.048 97.2622C179.847 96.3233 179.279 95.6511 178.342 95.2455C177.404 94.84 176.326 94.7674 175.105 95.0276C174.636 95.1276 174.243 95.244 173.928 95.3766L176.922 100.211C177.158 100.553 177.472 100.682 177.863 100.599C178.458 100.472 179.01 100.068 179.519 99.3871C180.031 98.7216 180.208 98.0133 180.048 97.2622Z" fill="black"/>
<path d="M170.342 113.231C170.364 111.759 170.677 110.58 171.282 109.692C171.886 108.821 172.509 108.39 173.149 108.399C173.741 108.408 174.032 108.724 174.023 109.348C174.019 109.62 173.912 109.834 173.702 109.991C173.507 110.165 173.265 110.313 172.975 110.437C172.685 110.561 172.395 110.708 172.105 110.88C171.814 111.068 171.562 111.36 171.348 111.757C171.15 112.155 171.047 112.649 171.038 113.241C171.027 114.041 171.201 114.7 171.562 115.217C171.938 115.734 172.454 115.998 173.11 116.007C173.75 116.017 174.25 115.768 174.609 115.261C174.968 114.77 175.225 114.166 175.38 113.448C175.55 112.731 175.736 112.013 175.939 111.296C176.141 110.579 176.502 109.968 177.022 109.464C177.541 108.975 178.232 108.737 179.096 108.75C180.024 108.763 180.794 109.198 181.406 110.055C182.033 110.912 182.337 111.997 182.318 113.309C182.298 114.701 181.986 115.824 181.381 116.68C180.777 117.535 180.123 117.957 179.419 117.947C179.179 117.944 178.98 117.853 178.823 117.675C178.665 117.512 178.588 117.311 178.591 117.071C178.596 116.783 178.751 116.537 179.058 116.334C179.365 116.13 179.704 115.959 180.074 115.82C180.444 115.698 180.783 115.431 181.093 115.019C181.403 114.608 181.563 114.066 181.573 113.394C181.583 112.69 181.392 112.095 180.999 111.609C180.606 111.14 180.113 110.901 179.521 110.892C178.897 110.883 178.406 111.124 178.047 111.615C177.703 112.122 177.446 112.734 177.276 113.452C177.105 114.169 176.919 114.879 176.717 115.58C176.514 116.297 176.146 116.9 175.61 117.388C175.091 117.892 174.391 118.138 173.512 118.125C172.584 118.112 171.814 117.653 171.203 116.748C170.608 115.859 170.321 114.687 170.342 113.231Z" fill="black"/>
<path d="M168.591 126.981C168.797 126.043 169.256 125.365 169.97 124.948C170.695 124.55 171.637 124.478 172.793 124.731L179.803 126.265L180.142 124.717C180.193 124.483 180.336 124.391 180.571 124.443L180.805 124.494C181.04 124.545 181.131 124.688 181.08 124.923L180.895 125.767C180.663 126.83 181.275 127.586 182.733 128.036C183.038 128.136 183.166 128.303 183.114 128.537L183.063 128.772C183.008 129.022 182.825 129.113 182.512 129.044L180.28 128.58L179.572 131.816C179.551 131.909 179.495 131.979 179.403 132.024C179.323 132.089 179.237 132.111 179.143 132.09L178.908 132.039C178.674 131.988 178.582 131.845 178.634 131.61L179.342 128.375L172.308 126.836C171.683 126.699 171.169 126.726 170.767 126.916C170.365 127.107 170.115 127.429 170.016 127.882C169.906 128.382 169.944 128.808 170.129 129.16C170.326 129.53 170.631 129.785 171.043 129.925C171.213 130.044 171.262 130.194 171.19 130.375C171.13 130.574 170.998 130.652 170.795 130.608C170.029 130.44 169.419 130.012 168.963 129.322C168.52 128.652 168.396 127.872 168.591 126.981Z" fill="black"/>
<path d="M160.096 146.719C160.995 145.299 162.243 144.404 163.841 144.033C165.444 143.684 166.975 143.971 168.436 144.895C169.923 145.836 170.827 147.071 171.148 148.599C171.46 150.14 171.173 151.625 170.289 153.054C169.635 154.117 168.783 154.865 167.732 155.299C166.687 155.754 165.867 155.794 165.272 155.418C164.785 155.11 164.719 154.69 165.075 154.157C165.251 153.909 165.54 153.751 165.943 153.684C166.35 153.638 166.765 153.626 167.187 153.647C167.614 153.69 168.083 153.608 168.592 153.401C169.094 153.207 169.511 152.846 169.845 152.319C170.375 151.48 170.467 150.573 170.119 149.595C169.785 148.627 169.111 147.822 168.097 147.18C166.691 146.291 165.335 145.935 164.03 146.112C162.739 146.299 161.733 146.96 161.015 148.095C160.596 148.758 160.412 149.437 160.464 150.133C160.522 150.851 160.746 151.513 161.138 152.121C161.249 152.305 161.228 152.472 161.077 152.622C160.925 152.772 160.767 152.767 160.603 152.606C159.881 151.922 159.445 151.041 159.295 149.961C159.136 148.895 159.403 147.814 160.096 146.719Z" fill="black"/>
<path d="M149.132 162.563C148.875 162.344 148.628 162.216 148.391 162.178C148.165 162.152 147.978 162.178 147.83 162.254C147.693 162.343 147.556 162.409 147.419 162.452C147.283 162.495 147.17 162.471 147.081 162.379C146.847 162.138 147.098 161.661 147.832 160.948C148.246 160.547 148.623 160.326 148.963 160.286C149.314 160.257 149.724 160.45 150.193 160.864C149.849 159.637 150.286 158.433 151.503 157.252C152.468 156.316 153.466 155.794 154.497 155.685C155.528 155.576 156.439 155.929 157.231 156.744C158.022 157.537 158.342 158.441 158.191 159.457C158.029 160.484 157.482 161.449 156.552 162.352C155.634 163.243 154.705 163.699 153.765 163.719L154.251 164.15C155.379 165.106 156.355 165.687 157.178 165.891C158.001 166.096 158.745 165.875 159.411 165.229C159.813 164.839 160.046 164.413 160.109 163.95C160.173 163.487 160.139 163.085 160.009 162.743C159.867 162.413 159.764 162.078 159.701 161.737C159.639 161.397 159.699 161.137 159.883 160.959C160.089 160.759 160.312 160.654 160.549 160.647C160.776 160.65 160.983 160.749 161.173 160.945C161.641 161.427 161.777 162.131 161.582 163.055C161.387 164.003 160.842 164.911 159.946 165.78C158.901 166.794 157.757 167.281 156.513 167.239C155.268 167.221 154.031 166.693 152.802 165.656L149.132 162.563ZM151.659 158.171C151.096 158.717 150.81 159.34 150.799 160.042C150.8 160.755 151.073 161.37 151.62 161.887L152.441 162.595C152.934 162.92 153.475 163.041 154.065 162.959C154.643 162.889 155.179 162.614 155.673 162.135C156.258 161.567 156.573 160.938 156.618 160.248C156.662 159.559 156.428 158.95 155.915 158.422C155.291 157.779 154.578 157.423 153.776 157.354C152.973 157.308 152.268 157.58 151.659 158.171Z" fill="black"/>
<path d="M144.721 177.443C144.137 177.807 143.589 177.941 143.077 177.846C142.551 177.759 142.149 177.491 141.869 177.043C141.471 176.405 141.544 175.917 142.087 175.578C142.318 175.434 142.548 175.394 142.776 175.459C143.005 175.524 143.202 175.627 143.366 175.77C143.517 175.921 143.721 176.021 143.977 176.068C144.233 176.116 144.503 176.051 144.788 175.873C145.331 175.535 145.59 174.996 145.563 174.259C145.532 173.543 145.266 172.784 144.767 171.983L141.871 167.34C141.702 167.069 141.415 166.927 141.012 166.915C140.616 166.916 140.389 166.869 140.33 166.774L140.279 166.693C140.178 166.53 140.263 166.364 140.534 166.194L143.059 164.619C143.331 164.45 143.517 164.447 143.619 164.61L143.67 164.691C143.729 164.786 143.691 164.998 143.557 165.327C143.418 165.678 143.433 165.989 143.602 166.261L147.463 172.452C147.641 172.737 147.929 172.896 148.327 172.931C148.726 172.965 148.955 173.03 149.014 173.125L149.039 173.165C149.124 173.301 149.099 173.487 148.963 173.723L147.847 175.38C147.595 175.763 147.36 175.778 147.139 175.425L146.123 173.796C146.492 175.414 146.024 176.63 144.721 177.443Z" fill="black"/>
<path d="M125.28 176.792C125.235 176.996 125.115 177.108 124.918 177.129C124.727 177.165 124.607 177.073 124.561 176.851C124.434 175.994 124.646 175.082 125.195 174.115C125.744 173.147 126.664 172.427 127.956 171.954C129.444 171.41 130.884 171.479 132.275 172.163C133.652 172.851 134.653 174.052 135.28 175.765C135.858 177.343 135.828 178.845 135.191 180.27C134.56 181.711 133.493 182.706 131.99 183.256C130.713 183.723 129.572 183.749 128.568 183.333C127.554 182.937 126.891 182.311 126.577 181.454C126.341 180.808 126.532 180.236 127.15 179.737L132.643 175.402C132.03 174.518 131.299 173.917 130.449 173.597C129.59 173.298 128.702 173.317 127.786 173.652C126.238 174.218 125.403 175.265 125.28 176.792ZM132.064 182.411C132.966 182.081 133.552 181.424 133.822 180.439C134.092 179.454 134.012 178.376 133.583 177.204C133.418 176.753 133.248 176.381 133.073 176.088L128.706 179.73C128.401 180.012 128.317 180.341 128.454 180.717C128.663 181.288 129.14 181.777 129.886 182.186C130.617 182.6 131.343 182.675 132.064 182.411Z" fill="black"/>
</svg>
