<svg width="1440" height="1024" viewBox="0 0 1440 1024" fill="none" xmlns="http://www.w3.org/2000/svg">
<g clip-path="url(#clip0)">
<rect width="1440" height="1024" fill="#FFF3EA"/>
<path d="M93.4167 77.6042C92.3526 76.5396 91.0892 75.6951 89.6987 75.1189C88.3081 74.5428 86.8177 74.2462 85.3125 74.2462C83.8073 74.2462 82.3169 74.5428 80.9264 75.1189C79.5358 75.6951 78.2724 76.5396 77.2084 77.6042L75 79.8125L72.7917 77.6042C70.6423 75.4548 67.7272 74.2473 64.6875 74.2473C61.6479 74.2473 58.7327 75.4548 56.5834 77.6042C54.434 79.7535 53.2265 82.6687 53.2265 85.7084C53.2265 88.748 54.434 91.6632 56.5834 93.8125L58.7917 96.0209L75 112.229L91.2084 96.0209L93.4167 93.8125C94.4813 92.7484 95.3258 91.485 95.9019 90.0945C96.4781 88.704 96.7747 87.2135 96.7747 85.7084C96.7747 84.2032 96.4781 82.7127 95.9019 81.3222C95.3258 79.9317 94.4813 78.6683 93.4167 77.6042Z" fill="#FA8497" stroke="#FA8497" stroke-width="2" stroke-linecap="round" stroke-linejoin="round"/>
<path d="M273.417 77.6042C272.353 76.5396 271.089 75.6951 269.699 75.1189C268.308 74.5428 266.818 74.2462 265.312 74.2462C263.807 74.2462 262.317 74.5428 260.926 75.1189C259.536 75.6951 258.272 76.5396 257.208 77.6042L255 79.8125L252.792 77.6042C250.642 75.4548 247.727 74.2473 244.687 74.2473C241.648 74.2473 238.733 75.4548 236.583 77.6042C234.434 79.7535 233.226 82.6687 233.226 85.7084C233.226 88.748 234.434 91.6632 236.583 93.8125L238.792 96.0209L255 112.229L271.208 96.0209L273.417 93.8125C274.481 92.7484 275.326 91.485 275.902 90.0945C276.478 88.704 276.775 87.2135 276.775 85.7084C276.775 84.2032 276.478 82.7127 275.902 81.3222C275.326 79.9317 274.481 78.6683 273.417 77.6042Z" fill="#FA8497" stroke="#FA8497" stroke-width="2" stroke-linecap="round" stroke-linejoin="round"/>
<path d="M453.417 77.6042C452.353 76.5396 451.089 75.6951 449.699 75.1189C448.308 74.5428 446.818 74.2462 445.312 74.2462C443.807 74.2462 442.317 74.5428 440.926 75.1189C439.536 75.6951 438.272 76.5396 437.208 77.6042L435 79.8125L432.792 77.6042C430.642 75.4548 427.727 74.2473 424.687 74.2473C421.648 74.2473 418.733 75.4548 416.583 77.6042C414.434 79.7535 413.226 82.6687 413.226 85.7084C413.226 88.748 414.434 91.6632 416.583 93.8125L418.792 96.0209L435 112.229L451.208 96.0209L453.417 93.8125C454.481 92.7484 455.326 91.485 455.902 90.0945C456.478 88.704 456.775 87.2135 456.775 85.7084C456.775 84.2032 456.478 82.7127 455.902 81.3222C455.326 79.9317 454.481 78.6683 453.417 77.6042Z" fill="#FA8497" stroke="#FA8497" stroke-width="2" stroke-linecap="round" stroke-linejoin="round"/>
<path d="M633.417 77.6042C632.353 76.5396 631.089 75.6951 629.699 75.1189C628.308 74.5428 626.818 74.2462 625.313 74.2462C623.807 74.2462 622.317 74.5428 620.926 75.1189C619.536 75.6951 618.272 76.5396 617.208 77.6042L615 79.8125L612.792 77.6042C610.642 75.4548 607.727 74.2473 604.688 74.2473C601.648 74.2473 598.733 75.4548 596.583 77.6042C594.434 79.7535 593.226 82.6687 593.226 85.7084C593.226 88.748 594.434 91.6632 596.583 93.8125L598.792 96.0209L615 112.229L631.208 96.0209L633.417 93.8125C634.481 92.7484 635.326 91.485 635.902 90.0945C636.478 88.704 636.775 87.2135 636.775 85.7084C636.775 84.2032 636.478 82.7127 635.902 81.3222C635.326 79.9317 634.481 78.6683 633.417 77.6042Z" fill="#FA8497" stroke="#FA8497" stroke-width="2" stroke-linecap="round" stroke-linejoin="round"/>
<path d="M813.417 77.6042C812.353 76.5396 811.089 75.6951 809.699 75.1189C808.308 74.5428 806.818 74.2462 805.313 74.2462C803.807 74.2462 802.317 74.5428 800.926 75.1189C799.536 75.6951 798.272 76.5396 797.208 77.6042L795 79.8125L792.792 77.6042C790.642 75.4548 787.727 74.2473 784.688 74.2473C781.648 74.2473 778.733 75.4548 776.583 77.6042C774.434 79.7535 773.226 82.6687 773.226 85.7084C773.226 88.748 774.434 91.6632 776.583 93.8125L778.792 96.0209L795 112.229L811.208 96.0209L813.417 93.8125C814.481 92.7484 815.326 91.485 815.902 90.0945C816.478 88.704 816.775 87.2135 816.775 85.7084C816.775 84.2032 816.478 82.7127 815.902 81.3222C815.326 79.9317 814.481 78.6683 813.417 77.6042Z" fill="#FA8497" stroke="#FA8497" stroke-width="2" stroke-linecap="round" stroke-linejoin="round"/>
<path d="M993.417 77.6042C992.353 76.5396 991.089 75.6951 989.699 75.1189C988.308 74.5428 986.818 74.2462 985.313 74.2462C983.807 74.2462 982.317 74.5428 980.926 75.1189C979.536 75.6951 978.272 76.5396 977.208 77.6042L975 79.8125L972.792 77.6042C970.642 75.4548 967.727 74.2473 964.688 74.2473C961.648 74.2473 958.733 75.4548 956.583 77.6042C954.434 79.7535 953.226 82.6687 953.226 85.7084C953.226 88.748 954.434 91.6632 956.583 93.8125L958.792 96.0209L975 112.229L991.208 96.0209L993.417 93.8125C994.481 92.7484 995.326 91.485 995.902 90.0945C996.478 88.704 996.775 87.2135 996.775 85.7084C996.775 84.2032 996.478 82.7127 995.902 81.3222C995.326 79.9317 994.481 78.6683 993.417 77.6042Z" fill="#FA8497" stroke="#FA8497" stroke-width="2" stroke-linecap="round" stroke-linejoin="round"/>
<path d="M1173.42 77.6042C1172.35 76.5396 1171.09 75.6951 1169.7 75.1189C1168.31 74.5428 1166.82 74.2462 1165.31 74.2462C1163.81 74.2462 1162.32 74.5428 1160.93 75.1189C1159.54 75.6951 1158.27 76.5396 1157.21 77.6042L1155 79.8125L1152.79 77.6042C1150.64 75.4548 1147.73 74.2473 1144.69 74.2473C1141.65 74.2473 1138.73 75.4548 1136.58 77.6042C1134.43 79.7535 1133.23 82.6687 1133.23 85.7084C1133.23 88.748 1134.43 91.6632 1136.58 93.8125L1138.79 96.0209L1155 112.229L1171.21 96.0209L1173.42 93.8125C1174.48 92.7484 1175.33 91.485 1175.9 90.0945C1176.48 88.704 1176.77 87.2135 1176.77 85.7084C1176.77 84.2032 1176.48 82.7127 1175.9 81.3222C1175.33 79.9317 1174.48 78.6683 1173.42 77.6042Z" fill="#FA8497" stroke="#FA8497" stroke-width="2" stroke-linecap="round" stroke-linejoin="round"/>
<path d="M1353.42 77.6042C1352.35 76.5396 1351.09 75.6951 1349.7 75.1189C1348.31 74.5428 1346.82 74.2462 1345.31 74.2462C1343.81 74.2462 1342.32 74.5428 1340.93 75.1189C1339.54 75.6951 1338.27 76.5396 1337.21 77.6042L1335 79.8125L1332.79 77.6042C1330.64 75.4548 1327.73 74.2473 1324.69 74.2473C1321.65 74.2473 1318.73 75.4548 1316.58 77.6042C1314.43 79.7535 1313.23 82.6687 1313.23 85.7084C1313.23 88.748 1314.43 91.6632 1316.58 93.8125L1318.79 96.0209L1335 112.229L1351.21 96.0209L1353.42 93.8125C1354.48 92.7484 1355.33 91.485 1355.9 90.0945C1356.48 88.704 1356.77 87.2135 1356.77 85.7084C1356.77 84.2032 1356.48 82.7127 1355.9 81.3222C1355.33 79.9317 1354.48 78.6683 1353.42 77.6042Z" fill="#FA8497" stroke="#FA8497" stroke-width="2" stroke-linecap="round" stroke-linejoin="round"/>
<path d="M93.4167 359.604C92.3526 358.54 91.0892 357.695 89.6987 357.119C88.3081 356.543 86.8177 356.246 85.3125 356.246C83.8073 356.246 82.3169 356.543 80.9264 357.119C79.5358 357.695 78.2724 358.54 77.2084 359.604L75 361.813L72.7917 359.604C70.6423 357.455 67.7272 356.247 64.6875 356.247C61.6479 356.247 58.7327 357.455 56.5834 359.604C54.434 361.754 53.2265 364.669 53.2265 367.708C53.2265 370.748 54.434 373.663 56.5834 375.813L58.7917 378.021L75 394.229L91.2084 378.021L93.4167 375.813C94.4813 374.748 95.3258 373.485 95.9019 372.095C96.4781 370.704 96.7747 369.214 96.7747 367.708C96.7747 366.203 96.4781 364.713 95.9019 363.322C95.3258 361.932 94.4813 360.668 93.4167 359.604Z" fill="#FA8497" stroke="#FA8497" stroke-width="2" stroke-linecap="round" stroke-linejoin="round"/>
<path d="M273.417 359.604C272.353 358.54 271.089 357.695 269.699 357.119C268.308 356.543 266.818 356.246 265.312 356.246C263.807 356.246 262.317 356.543 260.926 357.119C259.536 357.695 258.272 358.54 257.208 359.604L255 361.813L252.792 359.604C250.642 357.455 247.727 356.247 244.687 356.247C241.648 356.247 238.733 357.455 236.583 359.604C234.434 361.754 233.226 364.669 233.226 367.708C233.226 370.748 234.434 373.663 236.583 375.813L238.792 378.021L255 394.229L271.208 378.021L273.417 375.813C274.481 374.748 275.326 373.485 275.902 372.095C276.478 370.704 276.775 369.214 276.775 367.708C276.775 366.203 276.478 364.713 275.902 363.322C275.326 361.932 274.481 360.668 273.417 359.604Z" fill="#FA8497" stroke="#FA8497" stroke-width="2" stroke-linecap="round" stroke-linejoin="round"/>
<path d="M453.417 359.604C452.353 358.54 451.089 357.695 449.699 357.119C448.308 356.543 446.818 356.246 445.312 356.246C443.807 356.246 442.317 356.543 440.926 357.119C439.536 357.695 438.272 358.54 437.208 359.604L435 361.813L432.792 359.604C430.642 357.455 427.727 356.247 424.687 356.247C421.648 356.247 418.733 357.455 416.583 359.604C414.434 361.754 413.226 364.669 413.226 367.708C413.226 370.748 414.434 373.663 416.583 375.813L418.792 378.021L435 394.229L451.208 378.021L453.417 375.813C454.481 374.748 455.326 373.485 455.902 372.095C456.478 370.704 456.775 369.214 456.775 367.708C456.775 366.203 456.478 364.713 455.902 363.322C455.326 361.932 454.481 360.668 453.417 359.604Z" fill="#FA8497" stroke="#FA8497" stroke-width="2" stroke-linecap="round" stroke-linejoin="round"/>
<path d="M633.417 359.604C632.353 358.54 631.089 357.695 629.699 357.119C628.308 356.543 626.818 356.246 625.313 356.246C623.807 356.246 622.317 356.543 620.926 357.119C619.536 357.695 618.272 358.54 617.208 359.604L615 361.813L612.792 359.604C610.642 357.455 607.727 356.247 604.688 356.247C601.648 356.247 598.733 357.455 596.583 359.604C594.434 361.754 593.226 364.669 593.226 367.708C593.226 370.748 594.434 373.663 596.583 375.813L598.792 378.021L615 394.229L631.208 378.021L633.417 375.813C634.481 374.748 635.326 373.485 635.902 372.095C636.478 370.704 636.775 369.214 636.775 367.708C636.775 366.203 636.478 364.713 635.902 363.322C635.326 361.932 634.481 360.668 633.417 359.604Z" fill="#FA8497" stroke="#FA8497" stroke-width="2" stroke-linecap="round" stroke-linejoin="round"/>
<path d="M813.417 359.604C812.353 358.54 811.089 357.695 809.699 357.119C808.308 356.543 806.818 356.246 805.313 356.246C803.807 356.246 802.317 356.543 800.926 357.119C799.536 357.695 798.272 358.54 797.208 359.604L795 361.813L792.792 359.604C790.642 357.455 787.727 356.247 784.688 356.247C781.648 356.247 778.733 357.455 776.583 359.604C774.434 361.754 773.226 364.669 773.226 367.708C773.226 370.748 774.434 373.663 776.583 375.813L778.792 378.021L795 394.229L811.208 378.021L813.417 375.813C814.481 374.748 815.326 373.485 815.902 372.095C816.478 370.704 816.775 369.214 816.775 367.708C816.775 366.203 816.478 364.713 815.902 363.322C815.326 361.932 814.481 360.668 813.417 359.604Z" fill="#FA8497" stroke="#FA8497" stroke-width="2" stroke-linecap="round" stroke-linejoin="round"/>
<path d="M993.417 359.604C992.353 358.54 991.089 357.695 989.699 357.119C988.308 356.543 986.818 356.246 985.313 356.246C983.807 356.246 982.317 356.543 980.926 357.119C979.536 357.695 978.272 358.54 977.208 359.604L975 361.813L972.792 359.604C970.642 357.455 967.727 356.247 964.688 356.247C961.648 356.247 958.733 357.455 956.583 359.604C954.434 361.754 953.226 364.669 953.226 367.708C953.226 370.748 954.434 373.663 956.583 375.813L958.792 378.021L975 394.229L991.208 378.021L993.417 375.813C994.481 374.748 995.326 373.485 995.902 372.095C996.478 370.704 996.775 369.214 996.775 367.708C996.775 366.203 996.478 364.713 995.902 363.322C995.326 361.932 994.481 360.668 993.417 359.604Z" fill="#FA8497" stroke="#FA8497" stroke-width="2" stroke-linecap="round" stroke-linejoin="round"/>
<path d="M1173.42 359.604C1172.35 358.54 1171.09 357.695 1169.7 357.119C1168.31 356.543 1166.82 356.246 1165.31 356.246C1163.81 356.246 1162.32 356.543 1160.93 357.119C1159.54 357.695 1158.27 358.54 1157.21 359.604L1155 361.813L1152.79 359.604C1150.64 357.455 1147.73 356.247 1144.69 356.247C1141.65 356.247 1138.73 357.455 1136.58 359.604C1134.43 361.754 1133.23 364.669 1133.23 367.708C1133.23 370.748 1134.43 373.663 1136.58 375.813L1138.79 378.021L1155 394.229L1171.21 378.021L1173.42 375.813C1174.48 374.748 1175.33 373.485 1175.9 372.095C1176.48 370.704 1176.77 369.214 1176.77 367.708C1176.77 366.203 1176.48 364.713 1175.9 363.322C1175.33 361.932 1174.48 360.668 1173.42 359.604Z" fill="#FA8497" stroke="#FA8497" stroke-width="2" stroke-linecap="round" stroke-linejoin="round"/>
<path d="M1353.42 359.604C1352.35 358.54 1351.09 357.695 1349.7 357.119C1348.31 356.543 1346.82 356.246 1345.31 356.246C1343.81 356.246 1342.32 356.543 1340.93 357.119C1339.54 357.695 1338.27 358.54 1337.21 359.604L1335 361.813L1332.79 359.604C1330.64 357.455 1327.73 356.247 1324.69 356.247C1321.65 356.247 1318.73 357.455 1316.58 359.604C1314.43 361.754 1313.23 364.669 1313.23 367.708C1313.23 370.748 1314.43 373.663 1316.58 375.813L1318.79 378.021L1335 394.229L1351.21 378.021L1353.42 375.813C1354.48 374.748 1355.33 373.485 1355.9 372.095C1356.48 370.704 1356.77 369.214 1356.77 367.708C1356.77 366.203 1356.48 364.713 1355.9 363.322C1355.33 361.932 1354.48 360.668 1353.42 359.604Z" fill="#FA8497" stroke="#FA8497" stroke-width="2" stroke-linecap="round" stroke-linejoin="round"/>
<path d="M18.4167 218.604C17.3526 217.54 16.0892 216.695 14.6987 216.119C13.3081 215.543 11.8177 215.246 10.3125 215.246C8.80734 215.246 7.31691 215.543 5.92637 216.119C4.53583 216.695 3.27243 217.54 2.20836 218.604L2.45206e-05 220.813L-2.20831 218.604C-4.35767 216.455 -7.27282 215.247 -10.3125 215.247C-13.3521 215.247 -16.2673 216.455 -18.4166 218.604C-20.566 220.754 -21.7735 223.669 -21.7735 226.708C-21.7735 229.748 -20.566 232.663 -18.4166 234.813L-16.2083 237.021L2.45206e-05 253.229L16.2084 237.021L18.4167 234.813C19.4813 233.748 20.3258 232.485 20.9019 231.095C21.4781 229.704 21.7747 228.214 21.7747 226.708C21.7747 225.203 21.4781 223.713 20.9019 222.322C20.3258 220.932 19.4813 219.668 18.4167 218.604Z" fill="#FA8497" stroke="#FA8497" stroke-width="2" stroke-linecap="round" stroke-linejoin="round"/>
<path d="M198.417 218.604C197.353 217.54 196.089 216.695 194.699 216.119C193.308 215.543 191.818 215.246 190.313 215.246C188.807 215.246 187.317 215.543 185.926 216.119C184.536 216.695 183.272 217.54 182.208 218.604L180 220.813L177.792 218.604C175.642 216.455 172.727 215.247 169.688 215.247C166.648 215.247 163.733 216.455 161.583 218.604C159.434 220.754 158.227 223.669 158.227 226.708C158.227 229.748 159.434 232.663 161.583 234.813L163.792 237.021L180 253.229L196.208 237.021L198.417 234.813C199.481 233.748 200.326 232.485 200.902 231.095C201.478 229.704 201.775 228.214 201.775 226.708C201.775 225.203 201.478 223.713 200.902 222.322C200.326 220.932 199.481 219.668 198.417 218.604Z" fill="#FA8497" stroke="#FA8497" stroke-width="2" stroke-linecap="round" stroke-linejoin="round"/>
<path d="M378.417 218.604C377.353 217.54 376.089 216.695 374.699 216.119C373.308 215.543 371.818 215.246 370.312 215.246C368.807 215.246 367.317 215.543 365.926 216.119C364.536 216.695 363.272 217.54 362.208 218.604L360 220.813L357.792 218.604C355.642 216.455 352.727 215.247 349.687 215.247C346.648 215.247 343.733 216.455 341.583 218.604C339.434 220.754 338.226 223.669 338.226 226.708C338.226 229.748 339.434 232.663 341.583 234.813L343.792 237.021L360 253.229L376.208 237.021L378.417 234.813C379.481 233.748 380.326 232.485 380.902 231.095C381.478 229.704 381.775 228.214 381.775 226.708C381.775 225.203 381.478 223.713 380.902 222.322C380.326 220.932 379.481 219.668 378.417 218.604Z" fill="#FA8497" stroke="#FA8497" stroke-width="2" stroke-linecap="round" stroke-linejoin="round"/>
<path d="M558.417 218.604C557.353 217.54 556.089 216.695 554.699 216.119C553.308 215.543 551.818 215.246 550.313 215.246C548.807 215.246 547.317 215.543 545.926 216.119C544.536 216.695 543.272 217.54 542.208 218.604L540 220.813L537.792 218.604C535.642 216.455 532.727 215.247 529.688 215.247C526.648 215.247 523.733 216.455 521.583 218.604C519.434 220.754 518.226 223.669 518.226 226.708C518.226 229.748 519.434 232.663 521.583 234.813L523.792 237.021L540 253.229L556.208 237.021L558.417 234.813C559.481 233.748 560.326 232.485 560.902 231.095C561.478 229.704 561.775 228.214 561.775 226.708C561.775 225.203 561.478 223.713 560.902 222.322C560.326 220.932 559.481 219.668 558.417 218.604Z" fill="#FA8497" stroke="#FA8497" stroke-width="2" stroke-linecap="round" stroke-linejoin="round"/>
<path d="M738.417 218.604C737.353 217.54 736.089 216.695 734.699 216.119C733.308 215.543 731.818 215.246 730.313 215.246C728.807 215.246 727.317 215.543 725.926 216.119C724.536 216.695 723.272 217.54 722.208 218.604L720 220.813L717.792 218.604C715.642 216.455 712.727 215.247 709.688 215.247C706.648 215.247 703.733 216.455 701.583 218.604C699.434 220.754 698.226 223.669 698.226 226.708C698.226 229.748 699.434 232.663 701.583 234.813L703.792 237.021L720 253.229L736.208 237.021L738.417 234.813C739.481 233.748 740.326 232.485 740.902 231.095C741.478 229.704 741.775 228.214 741.775 226.708C741.775 225.203 741.478 223.713 740.902 222.322C740.326 220.932 739.481 219.668 738.417 218.604Z" fill="#FA8497" stroke="#FA8497" stroke-width="2" stroke-linecap="round" stroke-linejoin="round"/>
<path d="M918.417 218.604C917.353 217.54 916.089 216.695 914.699 216.119C913.308 215.543 911.818 215.246 910.313 215.246C908.807 215.246 907.317 215.543 905.926 216.119C904.536 216.695 903.272 217.54 902.208 218.604L900 220.813L897.792 218.604C895.642 216.455 892.727 215.247 889.688 215.247C886.648 215.247 883.733 216.455 881.583 218.604C879.434 220.754 878.226 223.669 878.226 226.708C878.226 229.748 879.434 232.663 881.583 234.813L883.792 237.021L900 253.229L916.208 237.021L918.417 234.813C919.481 233.748 920.326 232.485 920.902 231.095C921.478 229.704 921.775 228.214 921.775 226.708C921.775 225.203 921.478 223.713 920.902 222.322C920.326 220.932 919.481 219.668 918.417 218.604Z" fill="#FA8497" stroke="#FA8497" stroke-width="2" stroke-linecap="round" stroke-linejoin="round"/>
<path d="M1098.42 218.604C1097.35 217.54 1096.09 216.695 1094.7 216.119C1093.31 215.543 1091.82 215.246 1090.31 215.246C1088.81 215.246 1087.32 215.543 1085.93 216.119C1084.54 216.695 1083.27 217.54 1082.21 218.604L1080 220.813L1077.79 218.604C1075.64 216.455 1072.73 215.247 1069.69 215.247C1066.65 215.247 1063.73 216.455 1061.58 218.604C1059.43 220.754 1058.23 223.669 1058.23 226.708C1058.23 229.748 1059.43 232.663 1061.58 234.813L1063.79 237.021L1080 253.229L1096.21 237.021L1098.42 234.813C1099.48 233.748 1100.33 232.485 1100.9 231.095C1101.48 229.704 1101.77 228.214 1101.77 226.708C1101.77 225.203 1101.48 223.713 1100.9 222.322C1100.33 220.932 1099.48 219.668 1098.42 218.604Z" fill="#FA8497" stroke="#FA8497" stroke-width="2" stroke-linecap="round" stroke-linejoin="round"/>
<path d="M1278.42 218.604C1277.35 217.54 1276.09 216.695 1274.7 216.119C1273.31 215.543 1271.82 215.246 1270.31 215.246C1268.81 215.246 1267.32 215.543 1265.93 216.119C1264.54 216.695 1263.27 217.54 1262.21 218.604L1260 220.813L1257.79 218.604C1255.64 216.455 1252.73 215.247 1249.69 215.247C1246.65 215.247 1243.73 216.455 1241.58 218.604C1239.43 220.754 1238.23 223.669 1238.23 226.708C1238.23 229.748 1239.43 232.663 1241.58 234.813L1243.79 237.021L1260 253.229L1276.21 237.021L1278.42 234.813C1279.48 233.748 1280.33 232.485 1280.9 231.095C1281.48 229.704 1281.77 228.214 1281.77 226.708C1281.77 225.203 1281.48 223.713 1280.9 222.322C1280.33 220.932 1279.48 219.668 1278.42 218.604Z" fill="#FA8497" stroke="#FA8497" stroke-width="2" stroke-linecap="round" stroke-linejoin="round"/>
<path d="M1458.42 218.604C1457.35 217.54 1456.09 216.695 1454.7 216.119C1453.31 215.543 1451.82 215.246 1450.31 215.246C1448.81 215.246 1447.32 215.543 1445.93 216.119C1444.54 216.695 1443.27 217.54 1442.21 218.604L1440 220.813L1437.79 218.604C1435.64 216.455 1432.73 215.247 1429.69 215.247C1426.65 215.247 1423.73 216.455 1421.58 218.604C1419.43 220.754 1418.23 223.669 1418.23 226.708C1418.23 229.748 1419.43 232.663 1421.58 234.813L1423.79 237.021L1440 253.229L1456.21 237.021L1458.42 234.813C1459.48 233.748 1460.33 232.485 1460.9 231.095C1461.48 229.704 1461.77 228.214 1461.77 226.708C1461.77 225.203 1461.48 223.713 1460.9 222.322C1460.33 220.932 1459.48 219.668 1458.42 218.604Z" fill="#FA8497" stroke="#FA8497" stroke-width="2" stroke-linecap="round" stroke-linejoin="round"/>
<path d="M18.4167 500.604C17.3526 499.54 16.0892 498.695 14.6987 498.119C13.3081 497.543 11.8177 497.246 10.3125 497.246C8.80734 497.246 7.31691 497.543 5.92637 498.119C4.53583 498.695 3.27243 499.54 2.20836 500.604L2.45206e-05 502.813L-2.20831 500.604C-4.35767 498.455 -7.27282 497.247 -10.3125 497.247C-13.3521 497.247 -16.2673 498.455 -18.4166 500.604C-20.566 502.754 -21.7735 505.669 -21.7735 508.708C-21.7735 511.748 -20.566 514.663 -18.4166 516.813L-16.2083 519.021L2.45206e-05 535.229L16.2084 519.021L18.4167 516.813C19.4813 515.748 20.3258 514.485 20.9019 513.095C21.4781 511.704 21.7747 510.214 21.7747 508.708C21.7747 507.203 21.4781 505.713 20.9019 504.322C20.3258 502.932 19.4813 501.668 18.4167 500.604Z" fill="#FA8497" stroke="#FA8497" stroke-width="2" stroke-linecap="round" stroke-linejoin="round"/>
<path d="M198.417 500.604C197.353 499.54 196.089 498.695 194.699 498.119C193.308 497.543 191.818 497.246 190.313 497.246C188.807 497.246 187.317 497.543 185.926 498.119C184.536 498.695 183.272 499.54 182.208 500.604L180 502.813L177.792 500.604C175.642 498.455 172.727 497.247 169.688 497.247C166.648 497.247 163.733 498.455 161.583 500.604C159.434 502.754 158.227 505.669 158.227 508.708C158.227 511.748 159.434 514.663 161.583 516.813L163.792 519.021L180 535.229L196.208 519.021L198.417 516.813C199.481 515.748 200.326 514.485 200.902 513.095C201.478 511.704 201.775 510.214 201.775 508.708C201.775 507.203 201.478 505.713 200.902 504.322C200.326 502.932 199.481 501.668 198.417 500.604Z" fill="#FA8497" stroke="#FA8497" stroke-width="2" stroke-linecap="round" stroke-linejoin="round"/>
<path d="M378.417 500.604C377.353 499.54 376.089 498.695 374.699 498.119C373.308 497.543 371.818 497.246 370.312 497.246C368.807 497.246 367.317 497.543 365.926 498.119C364.536 498.695 363.272 499.54 362.208 500.604L360 502.813L357.792 500.604C355.642 498.455 352.727 497.247 349.687 497.247C346.648 497.247 343.733 498.455 341.583 500.604C339.434 502.754 338.226 505.669 338.226 508.708C338.226 511.748 339.434 514.663 341.583 516.813L343.792 519.021L360 535.229L376.208 519.021L378.417 516.813C379.481 515.748 380.326 514.485 380.902 513.095C381.478 511.704 381.775 510.214 381.775 508.708C381.775 507.203 381.478 505.713 380.902 504.322C380.326 502.932 379.481 501.668 378.417 500.604Z" fill="#FA8497" stroke="#FA8497" stroke-width="2" stroke-linecap="round" stroke-linejoin="round"/>
<path d="M558.417 500.604C557.353 499.54 556.089 498.695 554.699 498.119C553.308 497.543 551.818 497.246 550.313 497.246C548.807 497.246 547.317 497.543 545.926 498.119C544.536 498.695 543.272 499.54 542.208 500.604L540 502.813L537.792 500.604C535.642 498.455 532.727 497.247 529.688 497.247C526.648 497.247 523.733 498.455 521.583 500.604C519.434 502.754 518.226 505.669 518.226 508.708C518.226 511.748 519.434 514.663 521.583 516.813L523.792 519.021L540 535.229L556.208 519.021L558.417 516.813C559.481 515.748 560.326 514.485 560.902 513.095C561.478 511.704 561.775 510.214 561.775 508.708C561.775 507.203 561.478 505.713 560.902 504.322C560.326 502.932 559.481 501.668 558.417 500.604Z" fill="#FA8497" stroke="#FA8497" stroke-width="2" stroke-linecap="round" stroke-linejoin="round"/>
<path d="M738.417 500.604C737.353 499.54 736.089 498.695 734.699 498.119C733.308 497.543 731.818 497.246 730.313 497.246C728.807 497.246 727.317 497.543 725.926 498.119C724.536 498.695 723.272 499.54 722.208 500.604L720 502.813L717.792 500.604C715.642 498.455 712.727 497.247 709.688 497.247C706.648 497.247 703.733 498.455 701.583 500.604C699.434 502.754 698.226 505.669 698.226 508.708C698.226 511.748 699.434 514.663 701.583 516.813L703.792 519.021L720 535.229L736.208 519.021L738.417 516.813C739.481 515.748 740.326 514.485 740.902 513.095C741.478 511.704 741.775 510.214 741.775 508.708C741.775 507.203 741.478 505.713 740.902 504.322C740.326 502.932 739.481 501.668 738.417 500.604Z" fill="#FA8497" stroke="#FA8497" stroke-width="2" stroke-linecap="round" stroke-linejoin="round"/>
<path d="M918.417 500.604C917.353 499.54 916.089 498.695 914.699 498.119C913.308 497.543 911.818 497.246 910.313 497.246C908.807 497.246 907.317 497.543 905.926 498.119C904.536 498.695 903.272 499.54 902.208 500.604L900 502.813L897.792 500.604C895.642 498.455 892.727 497.247 889.688 497.247C886.648 497.247 883.733 498.455 881.583 500.604C879.434 502.754 878.226 505.669 878.226 508.708C878.226 511.748 879.434 514.663 881.583 516.813L883.792 519.021L900 535.229L916.208 519.021L918.417 516.813C919.481 515.748 920.326 514.485 920.902 513.095C921.478 511.704 921.775 510.214 921.775 508.708C921.775 507.203 921.478 505.713 920.902 504.322C920.326 502.932 919.481 501.668 918.417 500.604Z" fill="#FA8497" stroke="#FA8497" stroke-width="2" stroke-linecap="round" stroke-linejoin="round"/>
<path d="M1098.42 500.604C1097.35 499.54 1096.09 498.695 1094.7 498.119C1093.31 497.543 1091.82 497.246 1090.31 497.246C1088.81 497.246 1087.32 497.543 1085.93 498.119C1084.54 498.695 1083.27 499.54 1082.21 500.604L1080 502.813L1077.79 500.604C1075.64 498.455 1072.73 497.247 1069.69 497.247C1066.65 497.247 1063.73 498.455 1061.58 500.604C1059.43 502.754 1058.23 505.669 1058.23 508.708C1058.23 511.748 1059.43 514.663 1061.58 516.813L1063.79 519.021L1080 535.229L1096.21 519.021L1098.42 516.813C1099.48 515.748 1100.33 514.485 1100.9 513.095C1101.48 511.704 1101.77 510.214 1101.77 508.708C1101.77 507.203 1101.48 505.713 1100.9 504.322C1100.33 502.932 1099.48 501.668 1098.42 500.604Z" fill="#FA8497" stroke="#FA8497" stroke-width="2" stroke-linecap="round" stroke-linejoin="round"/>
<path d="M1278.42 500.604C1277.35 499.54 1276.09 498.695 1274.7 498.119C1273.31 497.543 1271.82 497.246 1270.31 497.246C1268.81 497.246 1267.32 497.543 1265.93 498.119C1264.54 498.695 1263.27 499.54 1262.21 500.604L1260 502.813L1257.79 500.604C1255.64 498.455 1252.73 497.247 1249.69 497.247C1246.65 497.247 1243.73 498.455 1241.58 500.604C1239.43 502.754 1238.23 505.669 1238.23 508.708C1238.23 511.748 1239.43 514.663 1241.58 516.813L1243.79 519.021L1260 535.229L1276.21 519.021L1278.42 516.813C1279.48 515.748 1280.33 514.485 1280.9 513.095C1281.48 511.704 1281.77 510.214 1281.77 508.708C1281.77 507.203 1281.48 505.713 1280.9 504.322C1280.33 502.932 1279.48 501.668 1278.42 500.604Z" fill="#FA8497" stroke="#FA8497" stroke-width="2" stroke-linecap="round" stroke-linejoin="round"/>
<path d="M1458.42 500.604C1457.35 499.54 1456.09 498.695 1454.7 498.119C1453.31 497.543 1451.82 497.246 1450.31 497.246C1448.81 497.246 1447.32 497.543 1445.93 498.119C1444.54 498.695 1443.27 499.54 1442.21 500.604L1440 502.813L1437.79 500.604C1435.64 498.455 1432.73 497.247 1429.69 497.247C1426.65 497.247 1423.73 498.455 1421.58 500.604C1419.43 502.754 1418.23 505.669 1418.23 508.708C1418.23 511.748 1419.43 514.663 1421.58 516.813L1423.79 519.021L1440 535.229L1456.21 519.021L1458.42 516.813C1459.48 515.748 1460.33 514.485 1460.9 513.095C1461.48 511.704 1461.77 510.214 1461.77 508.708C1461.77 507.203 1461.48 505.713 1460.9 504.322C1460.33 502.932 1459.48 501.668 1458.42 500.604Z" fill="#FA8497" stroke="#FA8497" stroke-width="2" stroke-linecap="round" stroke-linejoin="round"/>
<path d="M96.4167 923.604C95.3526 922.54 94.0892 921.695 92.6987 921.119C91.3081 920.543 89.8177 920.246 88.3125 920.246C86.8073 920.246 85.3169 920.543 83.9264 921.119C82.5358 921.695 81.2724 922.54 80.2084 923.604L78 925.813L75.7917 923.604C73.6423 921.455 70.7272 920.247 67.6875 920.247C64.6479 920.247 61.7327 921.455 59.5834 923.604C57.434 925.754 56.2265 928.669 56.2265 931.708C56.2265 934.748 57.434 937.663 59.5834 939.813L61.7917 942.021L78 958.229L94.2084 942.021L96.4167 939.813C97.4813 938.748 98.3258 937.485 98.9019 936.095C99.4781 934.704 99.7747 933.214 99.7747 931.708C99.7747 930.203 99.4781 928.713 98.9019 927.322C98.3258 925.932 97.4813 924.668 96.4167 923.604Z" fill="#FA8497" stroke="#FA8497" stroke-width="2" stroke-linecap="round" stroke-linejoin="round"/>
<path d="M276.417 923.604C275.353 922.54 274.089 921.695 272.699 921.119C271.308 920.543 269.818 920.246 268.312 920.246C266.807 920.246 265.317 920.543 263.926 921.119C262.536 921.695 261.272 922.54 260.208 923.604L258 925.813L255.792 923.604C253.642 921.455 250.727 920.247 247.687 920.247C244.648 920.247 241.733 921.455 239.583 923.604C237.434 925.754 236.226 928.669 236.226 931.708C236.226 934.748 237.434 937.663 239.583 939.813L241.792 942.021L258 958.229L274.208 942.021L276.417 939.813C277.481 938.748 278.326 937.485 278.902 936.095C279.478 934.704 279.775 933.214 279.775 931.708C279.775 930.203 279.478 928.713 278.902 927.322C278.326 925.932 277.481 924.668 276.417 923.604Z" fill="#FA8497" stroke="#FA8497" stroke-width="2" stroke-linecap="round" stroke-linejoin="round"/>
<path d="M456.417 923.604C455.353 922.54 454.089 921.695 452.699 921.119C451.308 920.543 449.818 920.246 448.312 920.246C446.807 920.246 445.317 920.543 443.926 921.119C442.536 921.695 441.272 922.54 440.208 923.604L438 925.813L435.792 923.604C433.642 921.455 430.727 920.247 427.687 920.247C424.648 920.247 421.733 921.455 419.583 923.604C417.434 925.754 416.226 928.669 416.226 931.708C416.226 934.748 417.434 937.663 419.583 939.813L421.792 942.021L438 958.229L454.208 942.021L456.417 939.813C457.481 938.748 458.326 937.485 458.902 936.095C459.478 934.704 459.775 933.214 459.775 931.708C459.775 930.203 459.478 928.713 458.902 927.322C458.326 925.932 457.481 924.668 456.417 923.604Z" fill="#FA8497" stroke="#FA8497" stroke-width="2" stroke-linecap="round" stroke-linejoin="round"/>
<path d="M636.417 923.604C635.353 922.54 634.089 921.695 632.699 921.119C631.308 920.543 629.818 920.246 628.313 920.246C626.807 920.246 625.317 920.543 623.926 921.119C622.536 921.695 621.272 922.54 620.208 923.604L618 925.813L615.792 923.604C613.642 921.455 610.727 920.247 607.688 920.247C604.648 920.247 601.733 921.455 599.583 923.604C597.434 925.754 596.226 928.669 596.226 931.708C596.226 934.748 597.434 937.663 599.583 939.813L601.792 942.021L618 958.229L634.208 942.021L636.417 939.813C637.481 938.748 638.326 937.485 638.902 936.095C639.478 934.704 639.775 933.214 639.775 931.708C639.775 930.203 639.478 928.713 638.902 927.322C638.326 925.932 637.481 924.668 636.417 923.604Z" fill="#FA8497" stroke="#FA8497" stroke-width="2" stroke-linecap="round" stroke-linejoin="round"/>
<path d="M816.417 923.604C815.353 922.54 814.089 921.695 812.699 921.119C811.308 920.543 809.818 920.246 808.313 920.246C806.807 920.246 805.317 920.543 803.926 921.119C802.536 921.695 801.272 922.54 800.208 923.604L798 925.813L795.792 923.604C793.642 921.455 790.727 920.247 787.688 920.247C784.648 920.247 781.733 921.455 779.583 923.604C777.434 925.754 776.226 928.669 776.226 931.708C776.226 934.748 777.434 937.663 779.583 939.813L781.792 942.021L798 958.229L814.208 942.021L816.417 939.813C817.481 938.748 818.326 937.485 818.902 936.095C819.478 934.704 819.775 933.214 819.775 931.708C819.775 930.203 819.478 928.713 818.902 927.322C818.326 925.932 817.481 924.668 816.417 923.604Z" fill="#FA8497" stroke="#FA8497" stroke-width="2" stroke-linecap="round" stroke-linejoin="round"/>
<path d="M996.417 923.604C995.353 922.54 994.089 921.695 992.699 921.119C991.308 920.543 989.818 920.246 988.313 920.246C986.807 920.246 985.317 920.543 983.926 921.119C982.536 921.695 981.272 922.54 980.208 923.604L978 925.813L975.792 923.604C973.642 921.455 970.727 920.247 967.688 920.247C964.648 920.247 961.733 921.455 959.583 923.604C957.434 925.754 956.226 928.669 956.226 931.708C956.226 934.748 957.434 937.663 959.583 939.813L961.792 942.021L978 958.229L994.208 942.021L996.417 939.813C997.481 938.748 998.326 937.485 998.902 936.095C999.478 934.704 999.775 933.214 999.775 931.708C999.775 930.203 999.478 928.713 998.902 927.322C998.326 925.932 997.481 924.668 996.417 923.604Z" fill="#FA8497" stroke="#FA8497" stroke-width="2" stroke-linecap="round" stroke-linejoin="round"/>
<path d="M1176.42 923.604C1175.35 922.54 1174.09 921.695 1172.7 921.119C1171.31 920.543 1169.82 920.246 1168.31 920.246C1166.81 920.246 1165.32 920.543 1163.93 921.119C1162.54 921.695 1161.27 922.54 1160.21 923.604L1158 925.813L1155.79 923.604C1153.64 921.455 1150.73 920.247 1147.69 920.247C1144.65 920.247 1141.73 921.455 1139.58 923.604C1137.43 925.754 1136.23 928.669 1136.23 931.708C1136.23 934.748 1137.43 937.663 1139.58 939.813L1141.79 942.021L1158 958.229L1174.21 942.021L1176.42 939.813C1177.48 938.748 1178.33 937.485 1178.9 936.095C1179.48 934.704 1179.77 933.214 1179.77 931.708C1179.77 930.203 1179.48 928.713 1178.9 927.322C1178.33 925.932 1177.48 924.668 1176.42 923.604Z" fill="#FA8497" stroke="#FA8497" stroke-width="2" stroke-linecap="round" stroke-linejoin="round"/>
<path d="M1356.42 923.604C1355.35 922.54 1354.09 921.695 1352.7 921.119C1351.31 920.543 1349.82 920.246 1348.31 920.246C1346.81 920.246 1345.32 920.543 1343.93 921.119C1342.54 921.695 1341.27 922.54 1340.21 923.604L1338 925.813L1335.79 923.604C1333.64 921.455 1330.73 920.247 1327.69 920.247C1324.65 920.247 1321.73 921.455 1319.58 923.604C1317.43 925.754 1316.23 928.669 1316.23 931.708C1316.23 934.748 1317.43 937.663 1319.58 939.813L1321.79 942.021L1338 958.229L1354.21 942.021L1356.42 939.813C1357.48 938.748 1358.33 937.485 1358.9 936.095C1359.48 934.704 1359.77 933.214 1359.77 931.708C1359.77 930.203 1359.48 928.713 1358.9 927.322C1358.33 925.932 1357.48 924.668 1356.42 923.604Z" fill="#FA8497" stroke="#FA8497" stroke-width="2" stroke-linecap="round" stroke-linejoin="round"/>
<path d="M93.4167 641.604C92.3526 640.54 91.0892 639.695 89.6987 639.119C88.3081 638.543 86.8177 638.246 85.3125 638.246C83.8073 638.246 82.3169 638.543 80.9264 639.119C79.5358 639.695 78.2724 640.54 77.2084 641.604L75 643.813L72.7917 641.604C70.6423 639.455 67.7272 638.247 64.6875 638.247C61.6479 638.247 58.7327 639.455 56.5834 641.604C54.434 643.754 53.2265 646.669 53.2265 649.708C53.2265 652.748 54.434 655.663 56.5834 657.813L58.7917 660.021L75 676.229L91.2084 660.021L93.4167 657.813C94.4813 656.748 95.3258 655.485 95.9019 654.095C96.4781 652.704 96.7747 651.214 96.7747 649.708C96.7747 648.203 96.4781 646.713 95.9019 645.322C95.3258 643.932 94.4813 642.668 93.4167 641.604Z" fill="#FA8497" stroke="#FA8497" stroke-width="2" stroke-linecap="round" stroke-linejoin="round"/>
<path d="M273.417 641.604C272.353 640.54 271.089 639.695 269.699 639.119C268.308 638.543 266.818 638.246 265.312 638.246C263.807 638.246 262.317 638.543 260.926 639.119C259.536 639.695 258.272 640.54 257.208 641.604L255 643.813L252.792 641.604C250.642 639.455 247.727 638.247 244.687 638.247C241.648 638.247 238.733 639.455 236.583 641.604C234.434 643.754 233.226 646.669 233.226 649.708C233.226 652.748 234.434 655.663 236.583 657.813L238.792 660.021L255 676.229L271.208 660.021L273.417 657.813C274.481 656.748 275.326 655.485 275.902 654.095C276.478 652.704 276.775 651.214 276.775 649.708C276.775 648.203 276.478 646.713 275.902 645.322C275.326 643.932 274.481 642.668 273.417 641.604Z" fill="#FA8497" stroke="#FA8497" stroke-width="2" stroke-linecap="round" stroke-linejoin="round"/>
<path d="M453.417 641.604C452.353 640.54 451.089 639.695 449.699 639.119C448.308 638.543 446.818 638.246 445.312 638.246C443.807 638.246 442.317 638.543 440.926 639.119C439.536 639.695 438.272 640.54 437.208 641.604L435 643.813L432.792 641.604C430.642 639.455 427.727 638.247 424.687 638.247C421.648 638.247 418.733 639.455 416.583 641.604C414.434 643.754 413.226 646.669 413.226 649.708C413.226 652.748 414.434 655.663 416.583 657.813L418.792 660.021L435 676.229L451.208 660.021L453.417 657.813C454.481 656.748 455.326 655.485 455.902 654.095C456.478 652.704 456.775 651.214 456.775 649.708C456.775 648.203 456.478 646.713 455.902 645.322C455.326 643.932 454.481 642.668 453.417 641.604Z" fill="#FA8497" stroke="#FA8497" stroke-width="2" stroke-linecap="round" stroke-linejoin="round"/>
<path d="M633.417 641.604C632.353 640.54 631.089 639.695 629.699 639.119C628.308 638.543 626.818 638.246 625.313 638.246C623.807 638.246 622.317 638.543 620.926 639.119C619.536 639.695 618.272 640.54 617.208 641.604L615 643.813L612.792 641.604C610.642 639.455 607.727 638.247 604.688 638.247C601.648 638.247 598.733 639.455 596.583 641.604C594.434 643.754 593.226 646.669 593.226 649.708C593.226 652.748 594.434 655.663 596.583 657.813L598.792 660.021L615 676.229L631.208 660.021L633.417 657.813C634.481 656.748 635.326 655.485 635.902 654.095C636.478 652.704 636.775 651.214 636.775 649.708C636.775 648.203 636.478 646.713 635.902 645.322C635.326 643.932 634.481 642.668 633.417 641.604Z" fill="#FA8497" stroke="#FA8497" stroke-width="2" stroke-linecap="round" stroke-linejoin="round"/>
<path d="M813.417 641.604C812.353 640.54 811.089 639.695 809.699 639.119C808.308 638.543 806.818 638.246 805.313 638.246C803.807 638.246 802.317 638.543 800.926 639.119C799.536 639.695 798.272 640.54 797.208 641.604L795 643.813L792.792 641.604C790.642 639.455 787.727 638.247 784.688 638.247C781.648 638.247 778.733 639.455 776.583 641.604C774.434 643.754 773.226 646.669 773.226 649.708C773.226 652.748 774.434 655.663 776.583 657.813L778.792 660.021L795 676.229L811.208 660.021L813.417 657.813C814.481 656.748 815.326 655.485 815.902 654.095C816.478 652.704 816.775 651.214 816.775 649.708C816.775 648.203 816.478 646.713 815.902 645.322C815.326 643.932 814.481 642.668 813.417 641.604Z" fill="#FA8497" stroke="#FA8497" stroke-width="2" stroke-linecap="round" stroke-linejoin="round"/>
<path d="M993.417 641.604C992.353 640.54 991.089 639.695 989.699 639.119C988.308 638.543 986.818 638.246 985.313 638.246C983.807 638.246 982.317 638.543 980.926 639.119C979.536 639.695 978.272 640.54 977.208 641.604L975 643.813L972.792 641.604C970.642 639.455 967.727 638.247 964.688 638.247C961.648 638.247 958.733 639.455 956.583 641.604C954.434 643.754 953.226 646.669 953.226 649.708C953.226 652.748 954.434 655.663 956.583 657.813L958.792 660.021L975 676.229L991.208 660.021L993.417 657.813C994.481 656.748 995.326 655.485 995.902 654.095C996.478 652.704 996.775 651.214 996.775 649.708C996.775 648.203 996.478 646.713 995.902 645.322C995.326 643.932 994.481 642.668 993.417 641.604Z" fill="#FA8497" stroke="#FA8497" stroke-width="2" stroke-linecap="round" stroke-linejoin="round"/>
<path d="M1173.42 641.604C1172.35 640.54 1171.09 639.695 1169.7 639.119C1168.31 638.543 1166.82 638.246 1165.31 638.246C1163.81 638.246 1162.32 638.543 1160.93 639.119C1159.54 639.695 1158.27 640.54 1157.21 641.604L1155 643.813L1152.79 641.604C1150.64 639.455 1147.73 638.247 1144.69 638.247C1141.65 638.247 1138.73 639.455 1136.58 641.604C1134.43 643.754 1133.23 646.669 1133.23 649.708C1133.23 652.748 1134.43 655.663 1136.58 657.813L1138.79 660.021L1155 676.229L1171.21 660.021L1173.42 657.813C1174.48 656.748 1175.33 655.485 1175.9 654.095C1176.48 652.704 1176.77 651.214 1176.77 649.708C1176.77 648.203 1176.48 646.713 1175.9 645.322C1175.33 643.932 1174.48 642.668 1173.42 641.604Z" fill="#FA8497" stroke="#FA8497" stroke-width="2" stroke-linecap="round" stroke-linejoin="round"/>
<path d="M1353.42 641.604C1352.35 640.54 1351.09 639.695 1349.7 639.119C1348.31 638.543 1346.82 638.246 1345.31 638.246C1343.81 638.246 1342.32 638.543 1340.93 639.119C1339.54 639.695 1338.27 640.54 1337.21 641.604L1335 643.813L1332.79 641.604C1330.64 639.455 1327.73 638.247 1324.69 638.247C1321.65 638.247 1318.73 639.455 1316.58 641.604C1314.43 643.754 1313.23 646.669 1313.23 649.708C1313.23 652.748 1314.43 655.663 1316.58 657.813L1318.79 660.021L1335 676.229L1351.21 660.021L1353.42 657.813C1354.48 656.748 1355.33 655.485 1355.9 654.095C1356.48 652.704 1356.77 651.214 1356.77 649.708C1356.77 648.203 1356.48 646.713 1355.9 645.322C1355.33 643.932 1354.48 642.668 1353.42 641.604Z" fill="#FA8497" stroke="#FA8497" stroke-width="2" stroke-linecap="round" stroke-linejoin="round"/>
<path d="M18.4167 782.604C17.3526 781.54 16.0892 780.695 14.6987 780.119C13.3081 779.543 11.8177 779.246 10.3125 779.246C8.80734 779.246 7.31691 779.543 5.92637 780.119C4.53583 780.695 3.27243 781.54 2.20836 782.604L2.45206e-05 784.813L-2.20831 782.604C-4.35767 780.455 -7.27282 779.247 -10.3125 779.247C-13.3521 779.247 -16.2673 780.455 -18.4166 782.604C-20.566 784.754 -21.7735 787.669 -21.7735 790.708C-21.7735 793.748 -20.566 796.663 -18.4166 798.813L-16.2083 801.021L2.45206e-05 817.229L16.2084 801.021L18.4167 798.813C19.4813 797.748 20.3258 796.485 20.9019 795.095C21.4781 793.704 21.7747 792.214 21.7747 790.708C21.7747 789.203 21.4781 787.713 20.9019 786.322C20.3258 784.932 19.4813 783.668 18.4167 782.604Z" fill="#FA8497" stroke="#FA8497" stroke-width="2" stroke-linecap="round" stroke-linejoin="round"/>
<path d="M198.417 782.604C197.353 781.54 196.089 780.695 194.699 780.119C193.308 779.543 191.818 779.246 190.313 779.246C188.807 779.246 187.317 779.543 185.926 780.119C184.536 780.695 183.272 781.54 182.208 782.604L180 784.813L177.792 782.604C175.642 780.455 172.727 779.247 169.688 779.247C166.648 779.247 163.733 780.455 161.583 782.604C159.434 784.754 158.227 787.669 158.227 790.708C158.227 793.748 159.434 796.663 161.583 798.813L163.792 801.021L180 817.229L196.208 801.021L198.417 798.813C199.481 797.748 200.326 796.485 200.902 795.095C201.478 793.704 201.775 792.214 201.775 790.708C201.775 789.203 201.478 787.713 200.902 786.322C200.326 784.932 199.481 783.668 198.417 782.604Z" fill="#FA8497" stroke="#FA8497" stroke-width="2" stroke-linecap="round" stroke-linejoin="round"/>
<path d="M378.417 782.604C377.353 781.54 376.089 780.695 374.699 780.119C373.308 779.543 371.818 779.246 370.312 779.246C368.807 779.246 367.317 779.543 365.926 780.119C364.536 780.695 363.272 781.54 362.208 782.604L360 784.813L357.792 782.604C355.642 780.455 352.727 779.247 349.687 779.247C346.648 779.247 343.733 780.455 341.583 782.604C339.434 784.754 338.226 787.669 338.226 790.708C338.226 793.748 339.434 796.663 341.583 798.813L343.792 801.021L360 817.229L376.208 801.021L378.417 798.813C379.481 797.748 380.326 796.485 380.902 795.095C381.478 793.704 381.775 792.214 381.775 790.708C381.775 789.203 381.478 787.713 380.902 786.322C380.326 784.932 379.481 783.668 378.417 782.604Z" fill="#FA8497" stroke="#FA8497" stroke-width="2" stroke-linecap="round" stroke-linejoin="round"/>
<path d="M558.417 782.604C557.353 781.54 556.089 780.695 554.699 780.119C553.308 779.543 551.818 779.246 550.313 779.246C548.807 779.246 547.317 779.543 545.926 780.119C544.536 780.695 543.272 781.54 542.208 782.604L540 784.813L537.792 782.604C535.642 780.455 532.727 779.247 529.688 779.247C526.648 779.247 523.733 780.455 521.583 782.604C519.434 784.754 518.226 787.669 518.226 790.708C518.226 793.748 519.434 796.663 521.583 798.813L523.792 801.021L540 817.229L556.208 801.021L558.417 798.813C559.481 797.748 560.326 796.485 560.902 795.095C561.478 793.704 561.775 792.214 561.775 790.708C561.775 789.203 561.478 787.713 560.902 786.322C560.326 784.932 559.481 783.668 558.417 782.604Z" fill="#FA8497" stroke="#FA8497" stroke-width="2" stroke-linecap="round" stroke-linejoin="round"/>
<path d="M738.417 782.604C737.353 781.54 736.089 780.695 734.699 780.119C733.308 779.543 731.818 779.246 730.313 779.246C728.807 779.246 727.317 779.543 725.926 780.119C724.536 780.695 723.272 781.54 722.208 782.604L720 784.813L717.792 782.604C715.642 780.455 712.727 779.247 709.688 779.247C706.648 779.247 703.733 780.455 701.583 782.604C699.434 784.754 698.226 787.669 698.226 790.708C698.226 793.748 699.434 796.663 701.583 798.813L703.792 801.021L720 817.229L736.208 801.021L738.417 798.813C739.481 797.748 740.326 796.485 740.902 795.095C741.478 793.704 741.775 792.214 741.775 790.708C741.775 789.203 741.478 787.713 740.902 786.322C740.326 784.932 739.481 783.668 738.417 782.604Z" fill="#FA8497" stroke="#FA8497" stroke-width="2" stroke-linecap="round" stroke-linejoin="round"/>
<path d="M918.417 782.604C917.353 781.54 916.089 780.695 914.699 780.119C913.308 779.543 911.818 779.246 910.313 779.246C908.807 779.246 907.317 779.543 905.926 780.119C904.536 780.695 903.272 781.54 902.208 782.604L900 784.813L897.792 782.604C895.642 780.455 892.727 779.247 889.688 779.247C886.648 779.247 883.733 780.455 881.583 782.604C879.434 784.754 878.226 787.669 878.226 790.708C878.226 793.748 879.434 796.663 881.583 798.813L883.792 801.021L900 817.229L916.208 801.021L918.417 798.813C919.481 797.748 920.326 796.485 920.902 795.095C921.478 793.704 921.775 792.214 921.775 790.708C921.775 789.203 921.478 787.713 920.902 786.322C920.326 784.932 919.481 783.668 918.417 782.604Z" fill="#FA8497" stroke="#FA8497" stroke-width="2" stroke-linecap="round" stroke-linejoin="round"/>
<path d="M1098.42 782.604C1097.35 781.54 1096.09 780.695 1094.7 780.119C1093.31 779.543 1091.82 779.246 1090.31 779.246C1088.81 779.246 1087.32 779.543 1085.93 780.119C1084.54 780.695 1083.27 781.54 1082.21 782.604L1080 784.813L1077.79 782.604C1075.64 780.455 1072.73 779.247 1069.69 779.247C1066.65 779.247 1063.73 780.455 1061.58 782.604C1059.43 784.754 1058.23 787.669 1058.23 790.708C1058.23 793.748 1059.43 796.663 1061.58 798.813L1063.79 801.021L1080 817.229L1096.21 801.021L1098.42 798.813C1099.48 797.748 1100.33 796.485 1100.9 795.095C1101.48 793.704 1101.77 792.214 1101.77 790.708C1101.77 789.203 1101.48 787.713 1100.9 786.322C1100.33 784.932 1099.48 783.668 1098.42 782.604Z" fill="#FA8497" stroke="#FA8497" stroke-width="2" stroke-linecap="round" stroke-linejoin="round"/>
<path d="M1278.42 782.604C1277.35 781.54 1276.09 780.695 1274.7 780.119C1273.31 779.543 1271.82 779.246 1270.31 779.246C1268.81 779.246 1267.32 779.543 1265.93 780.119C1264.54 780.695 1263.27 781.54 1262.21 782.604L1260 784.813L1257.79 782.604C1255.64 780.455 1252.73 779.247 1249.69 779.247C1246.65 779.247 1243.73 780.455 1241.58 782.604C1239.43 784.754 1238.23 787.669 1238.23 790.708C1238.23 793.748 1239.43 796.663 1241.58 798.813L1243.79 801.021L1260 817.229L1276.21 801.021L1278.42 798.813C1279.48 797.748 1280.33 796.485 1280.9 795.095C1281.48 793.704 1281.77 792.214 1281.77 790.708C1281.77 789.203 1281.48 787.713 1280.9 786.322C1280.33 784.932 1279.48 783.668 1278.42 782.604Z" fill="#FA8497" stroke="#FA8497" stroke-width="2" stroke-linecap="round" stroke-linejoin="round"/>
<path d="M1458.42 782.604C1457.35 781.54 1456.09 780.695 1454.7 780.119C1453.31 779.543 1451.82 779.246 1450.31 779.246C1448.81 779.246 1447.32 779.543 1445.93 780.119C1444.54 780.695 1443.27 781.54 1442.21 782.604L1440 784.813L1437.79 782.604C1435.64 780.455 1432.73 779.247 1429.69 779.247C1426.65 779.247 1423.73 780.455 1421.58 782.604C1419.43 784.754 1418.23 787.669 1418.23 790.708C1418.23 793.748 1419.43 796.663 1421.58 798.813L1423.79 801.021L1440 817.229L1456.21 801.021L1458.42 798.813C1459.48 797.748 1460.33 796.485 1460.9 795.095C1461.48 793.704 1461.77 792.214 1461.77 790.708C1461.77 789.203 1461.48 787.713 1460.9 786.322C1460.33 784.932 1459.48 783.668 1458.42 782.604Z" fill="#FA8497" stroke="#FA8497" stroke-width="2" stroke-linecap="round" stroke-linejoin="round"/>
</g>
<defs>
<clipPath id="clip0">
<rect width="1440" height="1024" fill="white"/>
</clipPath>
</defs>
</svg>
