<svg width="210" height="50" viewBox="0 0 210 50" fill="none" xmlns="http://www.w3.org/2000/svg">
<rect width="210" height="50" rx="25" fill="#FFDDE6"/>
<path d="M27.392 18.612C28.3747 18.612 29.46 18.8027 30.648 19.184C30.912 19.3893 31.044 19.6167 31.044 19.866C31.044 20.1007 30.9193 20.3133 30.67 20.504C30.4353 20.68 30.164 20.768 29.856 20.768C29.064 20.5627 28.3233 20.46 27.634 20.46C26.05 20.46 24.8473 20.9293 24.026 21.868C23.2047 22.8067 22.794 24.2 22.794 26.048C22.794 27.896 23.278 29.3407 24.246 30.382C24.7447 30.9247 25.3387 31.196 26.028 31.196C26.7173 31.196 27.8173 30.8293 29.328 30.096C29.856 29.8467 30.208 29.722 30.384 29.722C30.7653 29.722 30.956 29.92 30.956 30.316C30.956 30.712 30.7727 31.042 30.406 31.306C29.1447 31.966 28.162 32.4133 27.458 32.648C26.754 32.868 26.1453 32.978 25.632 32.978C24.576 32.978 23.674 32.5893 22.926 31.812C21.5913 30.3747 20.924 28.4167 20.924 25.938C20.924 23.4447 21.5547 21.604 22.816 20.416C24.092 19.2133 25.6173 18.612 27.392 18.612ZM35.7267 29.788L35.7487 32.054C35.7487 32.318 35.6241 32.56 35.3747 32.78C35.1401 33 34.9054 33.11 34.6707 33.11C34.3334 33.11 34.1207 32.846 34.0327 32.318C34.0181 32.2007 33.9594 31.13 33.8567 29.106C33.7541 27.0673 33.5561 25.4687 33.2627 24.31C33.1307 23.7527 33.0647 23.4227 33.0647 23.32C33.0647 22.836 33.3581 22.594 33.9447 22.594C34.1941 22.594 34.3921 22.6893 34.5387 22.88C34.6854 23.0707 34.7734 23.2687 34.8027 23.474C34.8467 23.6647 34.8834 23.9287 34.9127 24.266C34.9421 24.6033 34.9641 24.816 34.9787 24.904C35.2867 24.1707 35.7487 23.6207 36.3647 23.254C36.9807 22.8873 37.6554 22.704 38.3887 22.704C39.5914 22.704 40.1927 23.012 40.1927 23.628C40.1927 23.936 40.0827 24.1853 39.8627 24.376C39.6574 24.552 39.4154 24.64 39.1367 24.64C37.8901 24.64 37.0101 25.036 36.4967 25.828C35.9834 26.62 35.7267 27.94 35.7267 29.788ZM44.5216 22.814C45.2989 22.814 46.0396 23.0413 46.7436 23.496C47.4476 23.9507 47.7996 24.5153 47.7996 25.19C47.7996 25.85 47.5136 26.4953 46.9416 27.126C46.3696 27.742 45.6069 28.116 44.6536 28.248C44.2429 28.3067 43.6269 28.336 42.8056 28.336C42.9669 29.5827 43.2822 30.404 43.7516 30.8C43.8982 30.9613 44.0962 31.042 44.3456 31.042C45.2549 31.042 46.0176 30.756 46.6336 30.184C47.2496 29.5973 47.6896 29.304 47.9536 29.304C48.0709 29.304 48.2469 29.414 48.4816 29.634C48.7162 29.854 48.8336 30.0593 48.8336 30.25C48.8336 30.6313 48.3716 31.1813 47.4476 31.9C47.0369 32.2373 46.5382 32.5233 45.9516 32.758C45.3796 32.978 44.8442 33.088 44.3456 33.088C43.0696 33.088 42.1309 32.2667 41.5296 30.624C41.1482 29.612 40.9576 28.4973 40.9576 27.28C40.9576 26.0627 41.2436 25.014 41.8156 24.134C42.3876 23.254 43.2896 22.814 44.5216 22.814ZM44.6316 24.332C44.0742 24.332 43.5976 24.6473 43.2016 25.278C43.0549 25.498 42.9156 25.9967 42.7836 26.774C44.8369 26.774 45.8636 26.268 45.8636 25.256C45.8636 24.64 45.4529 24.332 44.6316 24.332ZM56.2572 22.726C56.9025 22.726 57.2252 23.276 57.2252 24.376C57.2252 24.4933 57.2252 24.618 57.2252 24.75L57.1812 26.29C57.1665 26.774 57.1592 27.2507 57.1592 27.72L57.4892 32.692C57.4892 33.0587 57.1152 33.242 56.3672 33.242C56.3232 33.242 56.2132 33.242 56.0372 33.242C55.8759 33.242 55.7585 33.176 55.6852 33.044C55.6265 32.912 55.6192 32.7507 55.6632 32.56C55.7219 32.3693 55.7072 32.1567 55.6192 31.922C54.9445 32.6407 54.0499 33 52.9352 33C50.8672 33 49.8332 31.4013 49.8332 28.204C49.8332 26.4293 50.1632 25.0873 50.8232 24.178C51.4979 23.2687 52.4585 22.814 53.7052 22.814C54.2919 22.814 54.8785 22.9167 55.4652 23.122C55.6559 22.858 55.9199 22.726 56.2572 22.726ZM53.9692 24.728C53.1332 24.728 52.5099 24.97 52.0992 25.454C51.6885 25.938 51.4832 26.8253 51.4832 28.116C51.4832 30.2867 52.0699 31.372 53.2432 31.372C53.5512 31.372 53.8885 31.2327 54.2552 30.954C54.6365 30.6753 54.9005 30.36 55.0472 30.008C55.3259 29.216 55.4652 28.3507 55.4652 27.412C55.4652 26.4733 55.3479 25.7913 55.1132 25.366C54.8932 24.9407 54.5119 24.728 53.9692 24.728ZM59.2844 22.726L60.3844 22.748C60.6338 22.748 60.7731 22.7407 60.8024 22.726V18.216C60.8171 17.9667 60.9418 17.754 61.1764 17.578C61.4111 17.402 61.6311 17.314 61.8364 17.314C62.0418 17.314 62.2031 17.38 62.3204 17.512C62.4524 17.644 62.5111 17.8493 62.4964 18.128C62.4818 18.4067 62.4744 19.932 62.4744 22.704L65.0484 22.616C65.4884 22.616 65.7084 22.8727 65.7084 23.386C65.7084 23.7673 65.5911 24.0533 65.3564 24.244C65.1364 24.4347 64.8944 24.5373 64.6304 24.552C64.3811 24.5667 64.1318 24.574 63.8824 24.574L62.5404 24.552C62.5404 25.1533 62.5991 26.3413 62.7164 28.116C62.8484 29.8907 62.9511 31.042 63.0244 31.57C63.0978 32.0833 63.1124 32.4207 63.0684 32.582C63.0244 32.7287 62.9438 32.8313 62.8264 32.89C62.6358 32.978 62.3791 33.022 62.0564 33.022C61.7338 33.022 61.5431 32.846 61.4844 32.494C61.1911 30.5727 60.9931 27.9327 60.8904 24.574C60.7584 24.5887 60.2524 24.596 59.3724 24.596C58.4924 24.596 58.0524 24.3393 58.0524 23.826C58.0524 23.0927 58.4631 22.726 59.2844 22.726ZM69.4649 22.814C70.2423 22.814 70.9829 23.0413 71.6869 23.496C72.3909 23.9507 72.7429 24.5153 72.7429 25.19C72.7429 25.85 72.4569 26.4953 71.8849 27.126C71.3129 27.742 70.5503 28.116 69.5969 28.248C69.1863 28.3067 68.5703 28.336 67.7489 28.336C67.9103 29.5827 68.2256 30.404 68.6949 30.8C68.8416 30.9613 69.0396 31.042 69.2889 31.042C70.1983 31.042 70.9609 30.756 71.5769 30.184C72.1929 29.5973 72.6329 29.304 72.8969 29.304C73.0143 29.304 73.1903 29.414 73.4249 29.634C73.6596 29.854 73.7769 30.0593 73.7769 30.25C73.7769 30.6313 73.3149 31.1813 72.3909 31.9C71.9803 32.2373 71.4816 32.5233 70.8949 32.758C70.3229 32.978 69.7876 33.088 69.2889 33.088C68.0129 33.088 67.0743 32.2667 66.4729 30.624C66.0916 29.612 65.9009 28.4973 65.9009 27.28C65.9009 26.0627 66.1869 25.014 66.7589 24.134C67.3309 23.254 68.2329 22.814 69.4649 22.814ZM69.5749 24.332C69.0176 24.332 68.5409 24.6473 68.1449 25.278C67.9983 25.498 67.8589 25.9967 67.7269 26.774C69.7803 26.774 70.8069 26.268 70.8069 25.256C70.8069 24.64 70.3963 24.332 69.5749 24.332ZM81.3869 33.022C81.0055 33.022 80.7782 32.8093 80.7049 32.384C80.7049 29.4213 80.5289 26.7813 80.1769 24.464C80.1769 24.1707 80.2795 23.9067 80.4849 23.672C80.7049 23.4373 80.9469 23.32 81.2109 23.32C81.4895 23.32 81.6949 23.474 81.8269 23.782C82.3695 23.0633 83.0955 22.704 84.0049 22.704C85.1635 22.704 86.0582 23.2613 86.6889 24.376C87.4222 23.32 88.3902 22.792 89.5929 22.792C90.8102 22.792 91.7195 23.276 92.3209 24.244C92.7169 24.8453 92.9955 25.6373 93.1569 26.62C93.3182 27.6027 93.3989 28.996 93.3989 30.8C93.3989 31.504 93.3255 32.054 93.1789 32.45C93.0322 32.8313 92.7242 33.022 92.2549 33.022C91.8735 33.022 91.6829 32.78 91.6829 32.296L91.7489 29.546C91.7489 26.246 90.8909 24.596 89.1749 24.596C88.6322 24.596 88.2509 24.7867 88.0309 25.168C87.7815 25.6227 87.6349 26.0993 87.5909 26.598C87.5322 27.478 87.5029 28.2773 87.5029 28.996V32.186C87.5029 32.4207 87.3855 32.6187 87.1509 32.78C86.9162 32.9413 86.6742 33.022 86.4249 33.022C86.1022 33.022 85.8969 32.8093 85.8089 32.384L85.8749 27.83C85.8749 26.2167 85.6035 25.212 85.0609 24.816C84.7969 24.6253 84.3935 24.53 83.8509 24.53C83.3229 24.53 82.9269 24.728 82.6629 25.124C82.4135 25.52 82.2889 26.158 82.2889 27.038L82.4209 31.13C82.4209 32.3913 82.0762 33.022 81.3869 33.022ZM102.104 22.836C102.295 22.836 102.478 22.902 102.654 23.034C102.845 23.166 102.94 23.3127 102.94 23.474C102.94 23.8993 102.317 26.202 101.07 30.382C99.8233 34.562 98.8993 37.4953 98.298 39.182C98.166 39.578 97.9607 39.776 97.682 39.776C97.4033 39.776 97.1833 39.6733 97.022 39.468C96.8607 39.2773 96.78 38.9913 96.78 38.61C96.78 38.2287 97.022 37.312 97.506 35.86C98.0047 34.4227 98.3053 33.506 98.408 33.11C98.0413 32.494 96.802 29.414 94.69 23.87C94.6607 23.7967 94.646 23.7013 94.646 23.584C94.646 23.4667 94.734 23.3127 94.91 23.122C95.086 22.9313 95.328 22.836 95.636 22.836C95.944 22.836 96.1933 22.99 96.384 23.298C96.5893 23.826 96.9267 24.75 97.396 26.07C97.8653 27.3753 98.2247 28.3213 98.474 28.908C98.738 29.4947 98.9873 30.1033 99.222 30.734C99.4273 30.0447 99.7793 28.71 100.278 26.73C100.777 24.7353 101.063 23.5987 101.136 23.32C101.195 22.9973 101.517 22.836 102.104 22.836ZM109.393 18.766C109.437 18.2087 109.525 17.8493 109.657 17.688C109.804 17.512 110.031 17.424 110.339 17.424C110.97 17.424 111.285 17.6807 111.285 18.194C111.285 18.59 111.248 19.624 111.175 21.296C111.116 22.968 111.087 24.464 111.087 25.784C111.087 27.104 111.138 28.1673 111.241 28.974C111.417 30.382 111.666 31.086 111.989 31.086C112.312 31.086 112.554 30.8587 112.715 30.404C112.788 30.228 112.906 30.074 113.067 29.942C113.228 29.7953 113.434 29.722 113.683 29.722C114.196 29.722 114.453 30.1547 114.453 31.02C114.453 31.4893 114.196 31.9587 113.683 32.428C113.184 32.8827 112.686 33.11 112.187 33.11C111.688 33.11 111.285 33.0293 110.977 32.868C110.684 32.692 110.442 32.4353 110.251 32.098C110.075 31.7607 109.928 31.438 109.811 31.13C109.708 30.8073 109.635 30.4187 109.591 29.964C109.503 29.2307 109.437 28.0573 109.393 26.444C109.364 24.816 109.349 23.2687 109.349 21.802C109.349 20.3207 109.364 19.3087 109.393 18.766ZM118.471 22.814C119.248 22.814 119.989 23.0413 120.693 23.496C121.397 23.9507 121.749 24.5153 121.749 25.19C121.749 25.85 121.463 26.4953 120.891 27.126C120.319 27.742 119.556 28.116 118.603 28.248C118.192 28.3067 117.576 28.336 116.755 28.336C116.916 29.5827 117.231 30.404 117.701 30.8C117.847 30.9613 118.045 31.042 118.295 31.042C119.204 31.042 119.967 30.756 120.583 30.184C121.199 29.5973 121.639 29.304 121.903 29.304C122.02 29.304 122.196 29.414 122.431 29.634C122.665 29.854 122.783 30.0593 122.783 30.25C122.783 30.6313 122.321 31.1813 121.397 31.9C120.986 32.2373 120.487 32.5233 119.901 32.758C119.329 32.978 118.793 33.088 118.295 33.088C117.019 33.088 116.08 32.2667 115.479 30.624C115.097 29.612 114.907 28.4973 114.907 27.28C114.907 26.0627 115.193 25.014 115.765 24.134C116.337 23.254 117.239 22.814 118.471 22.814ZM118.581 24.332C118.023 24.332 117.547 24.6473 117.151 25.278C117.004 25.498 116.865 25.9967 116.733 26.774C118.786 26.774 119.813 26.268 119.813 25.256C119.813 24.64 119.402 24.332 118.581 24.332ZM124.618 22.726L125.718 22.748C125.968 22.748 126.107 22.7407 126.136 22.726V18.216C126.151 17.9667 126.276 17.754 126.51 17.578C126.745 17.402 126.965 17.314 127.17 17.314C127.376 17.314 127.537 17.38 127.654 17.512C127.786 17.644 127.845 17.8493 127.83 18.128C127.816 18.4067 127.808 19.932 127.808 22.704L130.382 22.616C130.822 22.616 131.042 22.8727 131.042 23.386C131.042 23.7673 130.925 24.0533 130.69 24.244C130.47 24.4347 130.228 24.5373 129.964 24.552C129.715 24.5667 129.466 24.574 129.216 24.574L127.874 24.552C127.874 25.1533 127.933 26.3413 128.05 28.116C128.182 29.8907 128.285 31.042 128.358 31.57C128.432 32.0833 128.446 32.4207 128.402 32.582C128.358 32.7287 128.278 32.8313 128.16 32.89C127.97 32.978 127.713 33.022 127.39 33.022C127.068 33.022 126.877 32.846 126.818 32.494C126.525 30.5727 126.327 27.9327 126.224 24.574C126.092 24.5887 125.586 24.596 124.706 24.596C123.826 24.596 123.386 24.3393 123.386 23.826C123.386 23.0927 123.797 22.726 124.618 22.726ZM132.181 22.726L133.281 22.748C133.53 22.748 133.67 22.7407 133.699 22.726V18.216C133.714 17.9667 133.838 17.754 134.073 17.578C134.308 17.402 134.528 17.314 134.733 17.314C134.938 17.314 135.1 17.38 135.217 17.512C135.349 17.644 135.408 17.8493 135.393 18.128C135.378 18.4067 135.371 19.932 135.371 22.704L137.945 22.616C138.385 22.616 138.605 22.8727 138.605 23.386C138.605 23.7673 138.488 24.0533 138.253 24.244C138.033 24.4347 137.791 24.5373 137.527 24.552C137.278 24.5667 137.028 24.574 136.779 24.574L135.437 24.552C135.437 25.1533 135.496 26.3413 135.613 28.116C135.745 29.8907 135.848 31.042 135.921 31.57C135.994 32.0833 136.009 32.4207 135.965 32.582C135.921 32.7287 135.84 32.8313 135.723 32.89C135.532 32.978 135.276 33.022 134.953 33.022C134.63 33.022 134.44 32.846 134.381 32.494C134.088 30.5727 133.89 27.9327 133.787 24.574C133.655 24.5887 133.149 24.596 132.269 24.596C131.389 24.596 130.949 24.3393 130.949 23.826C130.949 23.0927 131.36 22.726 132.181 22.726ZM142.361 22.814C143.139 22.814 143.879 23.0413 144.583 23.496C145.287 23.9507 145.639 24.5153 145.639 25.19C145.639 25.85 145.353 26.4953 144.781 27.126C144.209 27.742 143.447 28.116 142.493 28.248C142.083 28.3067 141.467 28.336 140.645 28.336C140.807 29.5827 141.122 30.404 141.591 30.8C141.738 30.9613 141.936 31.042 142.185 31.042C143.095 31.042 143.857 30.756 144.473 30.184C145.089 29.5973 145.529 29.304 145.793 29.304C145.911 29.304 146.087 29.414 146.321 29.634C146.556 29.854 146.673 30.0593 146.673 30.25C146.673 30.6313 146.211 31.1813 145.287 31.9C144.877 32.2373 144.378 32.5233 143.791 32.758C143.219 32.978 142.684 33.088 142.185 33.088C140.909 33.088 139.971 32.2667 139.369 30.624C138.988 29.612 138.797 28.4973 138.797 27.28C138.797 26.0627 139.083 25.014 139.655 24.134C140.227 23.254 141.129 22.814 142.361 22.814ZM142.471 24.332C141.914 24.332 141.437 24.6473 141.041 25.278C140.895 25.498 140.755 25.9967 140.623 26.774C142.677 26.774 143.703 26.268 143.703 25.256C143.703 24.64 143.293 24.332 142.471 24.332ZM150.797 29.788L150.819 32.054C150.819 32.318 150.694 32.56 150.445 32.78C150.21 33 149.976 33.11 149.741 33.11C149.404 33.11 149.191 32.846 149.103 32.318C149.088 32.2007 149.03 31.13 148.927 29.106C148.824 27.0673 148.626 25.4687 148.333 24.31C148.201 23.7527 148.135 23.4227 148.135 23.32C148.135 22.836 148.428 22.594 149.015 22.594C149.264 22.594 149.462 22.6893 149.609 22.88C149.756 23.0707 149.844 23.2687 149.873 23.474C149.917 23.6647 149.954 23.9287 149.983 24.266C150.012 24.6033 150.034 24.816 150.049 24.904C150.357 24.1707 150.819 23.6207 151.435 23.254C152.051 22.8873 152.726 22.704 153.459 22.704C154.662 22.704 155.263 23.012 155.263 23.628C155.263 23.936 155.153 24.1853 154.933 24.376C154.728 24.552 154.486 24.64 154.207 24.64C152.96 24.64 152.08 25.036 151.567 25.828C151.054 26.62 150.797 27.94 150.797 29.788Z" fill="#FF667F"/>
<path d="M185.985 17.4186C185.536 16.9689 185.002 16.6121 184.414 16.3687C183.826 16.1253 183.197 16 182.56 16C181.924 16 181.294 16.1253 180.707 16.3687C180.119 16.6121 179.585 16.9689 179.135 17.4186L178.202 18.3515L177.269 17.4186C176.36 16.5106 175.128 16.0005 173.844 16.0005C172.559 16.0005 171.327 16.5106 170.419 17.4186C169.51 18.3266 169 19.5582 169 20.8423C169 22.1264 169.51 23.3579 170.419 24.266L171.352 25.1989L178.202 32.0462L185.052 25.1989L185.985 24.266C186.435 23.8164 186.792 23.2827 187.036 22.6953C187.279 22.1078 187.405 21.4782 187.405 20.8423C187.405 20.2064 187.279 19.5768 187.036 18.9893C186.792 18.4019 186.435 17.8681 185.985 17.4186Z" fill="#FF667F" stroke="#FF667F" stroke-width="2" stroke-linecap="round" stroke-linejoin="round"/>
</svg>
