<svg width="21" height="19" viewBox="0 0 21 19" fill="none" xmlns="http://www.w3.org/2000/svg">
<path d="M17.9855 2.4186C17.5358 1.96887 17.0018 1.6121 16.4141 1.36869C15.8265 1.12528 15.1966 1 14.5604 1C13.9243 1 13.2944 1.12528 12.7067 1.36869C12.119 1.6121 11.5851 1.96887 11.1354 2.4186L10.2021 3.35153L9.26878 2.4186C8.36041 1.51059 7.12838 1.00047 5.84374 1.00047C4.5591 1.00047 3.32708 1.51059 2.4187 2.4186C1.51032 3.32662 1 4.55815 1 5.84228C1 7.12641 1.51032 8.35794 2.4187 9.26596L3.352 10.1989L10.2021 17.0462L17.0522 10.1989L17.9855 9.26596C18.4354 8.81643 18.7923 8.2827 19.0358 7.69525C19.2793 7.10781 19.4046 6.47816 19.4046 5.84228C19.4046 5.2064 19.2793 4.57676 19.0358 3.98931C18.7923 3.40186 18.4354 2.86813 17.9855 2.4186Z" fill="#FF667F" stroke="#FF667F" stroke-width="2" stroke-linecap="round" stroke-linejoin="round"/>
</svg>
