<svg width="460" height="400" viewBox="0 0 460 400" fill="none" xmlns="http://www.w3.org/2000/svg">
<path d="M423.961 35.7965C412.756 24.6092 399.452 15.7347 384.808 9.67988C370.165 3.62508 354.471 0.508667 338.62 0.508667C322.77 0.508667 307.075 3.62508 292.432 9.67988C277.789 15.7347 264.485 24.6092 253.28 35.7965L230.025 59.0031L206.77 35.7965C184.136 13.2096 153.439 0.520375 121.43 0.520375C89.4207 0.520375 58.7228 13.2096 36.0891 35.7965C13.4554 58.3833 0.739868 89.0177 0.739868 120.96C0.739868 152.903 13.4554 183.538 36.0891 206.124L59.3438 229.331L230.025 399.659L400.706 229.331L423.961 206.124C435.171 194.942 444.064 181.666 450.132 167.053C456.199 152.44 459.322 136.778 459.322 120.96C459.322 105.143 456.199 89.4805 450.132 74.8678C444.064 60.2551 435.171 46.9785 423.961 35.7965Z" fill="#FF667F"/>
<path d="M423.961 35.7965C412.756 24.6092 399.452 15.7347 384.808 9.67988C370.165 3.62508 354.471 0.508667 338.62 0.508667C322.77 0.508667 307.075 3.62508 292.432 9.67988C277.789 15.7347 264.485 24.6092 253.28 35.7965L230.025 59.0031L206.77 35.7965C184.136 13.2096 153.439 0.520375 121.43 0.520375C89.4207 0.520375 58.7228 13.2096 36.0891 35.7965C13.4554 58.3833 0.739868 89.0177 0.739868 120.96C0.739868 152.903 13.4554 183.538 36.0891 206.124L59.3438 229.331L230.025 399.659L400.706 229.331L423.961 206.124C435.171 194.942 444.064 181.666 450.132 167.053C456.199 152.44 459.322 136.778 459.322 120.96C459.322 105.143 456.199 89.4805 450.132 74.8678C444.064 60.2551 435.171 46.9785 423.961 35.7965Z" fill="url(#paint0_radial)"/>
<path d="M389 36.5C357.4 16.9 317.167 26 301 33C295.5 36.5 290.9 42.1 316.5 36.5C385.5 24 408.5 70 412 76C415.5 82 421 78.5 422.5 76C424 73.5 428.5 61 389 36.5Z" fill="#FFA9B7"/>
<path d="M433.5 94.5C429.5 91.3 426 96.8333 425.5 99.5C425.333 99.8333 425.1 100.8 425.5 102C433 104.5 433.5 127 436.5 127C439.5 127 441 99.5 433.5 94.5Z" fill="#FFA9B7"/>
<defs>
<radialGradient id="paint0_radial" cx="0" cy="0" r="1" gradientUnits="userSpaceOnUse" gradientTransform="translate(230.031 200.084) rotate(90) scale(199.575 229.291)">
<stop stop-color="#FFA9B7" stop-opacity="0.92"/>
<stop offset="1" stop-color="#FF667F"/>
</radialGradient>
</defs>
</svg>
